<svg xmlns="http://www.w3.org/2000/svg" width="57" height="76.616" viewBox="0 0 57 76.616">
  <g id="iconfinder_Adobe_B_104867" transform="translate(-72 -10)">
    <g id="Group_28" data-name="Group 28" transform="translate(72.006 10)">
      <path id="Path_112" data-name="Path 112" d="M72.041,10V58.769h.319L92.531,10Z" transform="translate(-72.041 -10)"/>
      <path id="Path_113" data-name="Path 113" d="M325.128,10h-20.8l20.8,48.769Z" transform="translate(-268.141 -10)"/>
      <path id="Path_114" data-name="Path 114" d="M210.338,152.459h8.617L205.079,120.98l-9.166,21.974h10.242Z" transform="translate(-176.615 -103.691)"/>
    </g>
    <g id="Group_29" data-name="Group 29" transform="translate(72 66.827)">
      <path id="Path_115" data-name="Path 115" d="M76.84,374.776h3.482L85.1,394.232H81.762l-.775-3.849H76.106l-.791,3.849H72ZM80.347,387.2l-1.774-8.812L76.761,387.2Z" transform="translate(-72 -374.776)"/>
      <path id="Path_116" data-name="Path 116" d="M167.349,374.775v19.456h-2.843V392.52a4.882,4.882,0,0,1-1.343,1.533,2.7,2.7,0,0,1-1.574.511,3.091,3.091,0,0,1-2.572-1.5q-1.061-1.5-1.061-6.569a10.239,10.239,0,0,1,.963-5.037,2.919,2.919,0,0,1,2.6-1.639,2.632,2.632,0,0,1,1.511.471,4.424,4.424,0,0,1,1.257,1.413v-6.928h3.062Zm-3.05,12.117a8.26,8.26,0,0,0-.427-3.046,1.385,1.385,0,0,0-1.282-1.015,1.231,1.231,0,0,0-1.2.81,8.656,8.656,0,0,0-.358,3.052q0,3.238.479,4.008a1.36,1.36,0,0,0,1.138.77,1.265,1.265,0,0,0,.993-.544,2.539,2.539,0,0,0,.537-1.294Q164.276,388.883,164.3,386.892Z" transform="translate(-144.565 -374.775)"/>
      <path id="Path_117" data-name="Path 117" d="M235.013,407.148a3.884,3.884,0,0,1,2.564.816,6.277,6.277,0,0,1,1.66,2.322,10.462,10.462,0,0,1,.674,4.174,9.586,9.586,0,0,1-1.331,5.554,4.413,4.413,0,0,1-7.191.046q-1.331-1.831-1.331-5.747a9.634,9.634,0,0,1,1.245-5.183A4.1,4.1,0,0,1,235.013,407.148Zm-1.847,7.339a8.549,8.549,0,0,0,.458,3.205A1.478,1.478,0,0,0,235,418.761a1.46,1.46,0,0,0,1.355-1.055,8.4,8.4,0,0,0,.452-3.152,8.922,8.922,0,0,0-.44-3.318,1.467,1.467,0,0,0-2.821.153A10.266,10.266,0,0,0,233.165,414.487Z" transform="translate(-205.434 -402.105)"/>
      <path id="Path_118" data-name="Path 118" d="M305.115,374.776H308.2V381.7a4.194,4.194,0,0,1,1.232-1.413,2.658,2.658,0,0,1,1.531-.471,2.733,2.733,0,0,1,1.675.544,4.49,4.49,0,0,1,1.3,1.957,11.813,11.813,0,0,1,.57,4.2q0,5.043-1.053,6.543a3.079,3.079,0,0,1-2.573,1.5,2.651,2.651,0,0,1-1.554-.511,5.04,5.04,0,0,1-1.347-1.533v1.712h-2.866V374.776Zm3.074,12.117a23.992,23.992,0,0,0,.121,2.78,2.539,2.539,0,0,0,.541,1.274,1.267,1.267,0,0,0,1,.524,1.293,1.293,0,0,0,1.209-.962,11.989,11.989,0,0,0,.391-3.815,8.986,8.986,0,0,0-.345-3.019,1.223,1.223,0,0,0-1.209-.843,1.381,1.381,0,0,0-1.278,1.015A8.284,8.284,0,0,0,308.189,386.893Z" transform="translate(-268.799 -374.776)"/>
      <path id="Path_119" data-name="Path 119" d="M383.8,415.644h-6.953a5,5,0,0,0,.539,2.495,1.6,1.6,0,0,0,1.412.942,1.546,1.546,0,0,0,1.148-.531,2.325,2.325,0,0,0,.6-1.407l3.039.425a5.33,5.33,0,0,1-1.426,3.059,4.144,4.144,0,0,1-3.162,1.267,5.092,5.092,0,0,1-2.794-.67,4.817,4.817,0,0,1-1.707-2.276,10.655,10.655,0,0,1-.673-4.088q0-3.968,1.351-5.839a4.284,4.284,0,0,1,3.662-1.871,4.193,4.193,0,0,1,2.645.836,5.49,5.49,0,0,1,1.7,2.475,11.518,11.518,0,0,1,.621,4.055v1.128Zm-3.131-2.349a6.741,6.741,0,0,0-.539-2.475,1.409,1.409,0,0,0-1.343-.843,1.493,1.493,0,0,0-1.36.83,5.6,5.6,0,0,0-.545,2.489Z" transform="translate(-326.798 -402.107)"/>
    </g>
  </g>
</svg>
