<svg xmlns="http://www.w3.org/2000/svg" width="90.209" height="78.966" viewBox="0 0 90.209 78.966">
  <g id="android-logomark" transform="translate(-32.9 -58.714)">
    <path id="Path_83" data-name="Path 83" d="M39.717,338.5a4.192,4.192,0,1,0,3.9,4.182,3.913,3.913,0,0,0-3.9-4.182m-.523-2.592a5.235,5.235,0,0,1,4.182,2v-1.742h2.875v13.046H44.029a.655.655,0,0,1-.653-.653v-1.089a5.2,5.2,0,0,1-4.182,2,6.8,6.8,0,0,1,0-13.568m10.323.261h2.875v1.764a4.472,4.472,0,0,1,3.964-2.025c3.027,0,4.987,2.134,4.987,5.445v7.862h-2.2a.655.655,0,0,1-.653-.653v-6.73c0-2.069-1.045-3.31-2.722-3.31-1.895,0-3.376,1.481-3.376,4.269v6.425h-2.2a.655.655,0,0,1-.653-.653ZM70.4,338.5a4.192,4.192,0,1,0,3.9,4.182,3.913,3.913,0,0,0-3.9-4.182m-.523-2.592a5.235,5.235,0,0,1,4.182,2v-8.276h2.875v19.58h-2.2a.655.655,0,0,1-.653-.653v-1.089a5.2,5.2,0,0,1-4.182,2,6.8,6.8,0,0,1-.022-13.568m10.323.261h2.875v2.33a3.694,3.694,0,0,1,3.441-2.461,4.8,4.8,0,0,1,1.111.109v2.94a4.627,4.627,0,0,0-1.437-.24c-1.633,0-3.136,1.394-3.136,3.986v6.36h-2.2a.655.655,0,0,1-.653-.653ZM95.363,346.8a4.12,4.12,0,1,0-3.942-4.116,3.925,3.925,0,0,0,3.942,4.116m0,2.679a6.74,6.74,0,1,1,4.842-1.951,6.784,6.784,0,0,1-4.842,1.951m9.169-13.307h2.875v13.046h-2.2a.655.655,0,0,1-.653-.653Zm1.437-2.853a1.957,1.957,0,0,1-1.938-1.938,1.927,1.927,0,1,1,1.938,1.938m10.606,5.183a4.192,4.192,0,1,0,3.9,4.182,3.913,3.913,0,0,0-3.9-4.182m-.523-2.592a5.235,5.235,0,0,1,4.182,2v-8.276h2.875v19.58h-2.2a.655.655,0,0,1-.653-.653v-1.089a5.2,5.2,0,0,1-4.182,2,6.8,6.8,0,0,1-.022-13.568" transform="translate(0 -211.799)"/>
    <path id="Path_84" data-name="Path 84" d="M100.111,74.062l7.514-13a1.561,1.561,0,1,0-2.7-1.568l-7.6,13.155a47.06,47.06,0,0,0-38.593,0l-7.6-13.155a1.562,1.562,0,1,0-2.7,1.568l7.514,13A44.2,44.2,0,0,0,32.9,109.518h90.166a44.358,44.358,0,0,0-22.955-35.457ZM57.249,96.669A3.746,3.746,0,1,1,61,92.923,3.746,3.746,0,0,1,57.249,96.669Zm41.511,0a3.746,3.746,0,1,1,3.746-3.746A3.746,3.746,0,0,1,98.76,96.669Z" transform="translate(0 0)"/>
  </g>
</svg>
