<svg xmlns="http://www.w3.org/2000/svg" width="146" height="39.523" viewBox="0 0 146 39.523">
  <g id="angular-3" transform="translate(0 0)">
    <g id="Group_24" data-name="Group 24" transform="translate(42.945 8.982)">
      <path id="Path_72" data-name="Path 72" d="M150.6,51.832V33.867h2.31l10.979,14.457V33.867h2.2V51.832h-2.31L152.8,37.232v14.6Zm33.363-.713a13.333,13.333,0,0,1-4.677.827q-9.752,0-9.752-9.353,0-8.854,9.41-8.868a16.677,16.677,0,0,1,5.019.741v2a13.051,13.051,0,0,0-4.762-.884c-4.9,0-7.357,2.338-7.357,6.958,0,4.99,2.424,7.471,7.243,7.471a12.556,12.556,0,0,0,2.566-.314V43.676h2.31v7.443ZM187.67,44.9V33.867h2.31V44.9c0,3.45,1.711,5.19,5.161,5.19,3.422,0,5.161-1.739,5.161-5.19V33.867h2.31V44.9c0,4.705-2.481,7.072-7.471,7.072S187.67,49.607,187.67,44.9Zm21.387-11.036V49.95h9.41v1.882h-11.72V33.867ZM221.8,51.832H219.38L228.3,31.5l8.925,20.332h-2.566l-2.31-5.646h-5.931l.627-1.882h4.534l-3.365-8.127L221.8,51.832Zm17.908,0V33.867h7.671c3.422,0,5.133,1.426,5.133,4.306,0,2.338-1.682,4.078-5.019,5.19l6.159,8.469H250.6l-5.7-8.07V42.25c3.422-.542,5.161-1.854,5.161-3.964,0-1.654-.941-2.481-2.852-2.481h-5.133V51.832Z" transform="translate(-150.6 -31.5)" fill-rule="evenodd"/>
    </g>
    <path id="Subtraction_6" data-name="Subtraction 6" d="M18.392,39.523h0L2.823,30.883,0,6.559,18.393,0,37.27,6.445,34.219,30.769,18.393,39.523ZM13.545,24.267H23.782l2.509,5.817,4.078.085L18.421,4.62,6.958,30.112l4.278-.085,2.309-5.76ZM22.328,20.9H15.056l3.393-8.1,3.878,8.1Z" transform="translate(0 -0.001)"/>
  </g>
</svg>
