<svg xmlns="http://www.w3.org/2000/svg" width="67.611" height="83.035" viewBox="0 0 67.611 83.035">
  <path id="apple-black" d="M56.467,44.114c.117,12.566,11.024,16.748,11.144,16.8a45.443,45.443,0,0,1-5.746,11.81c-3.461,5.058-7.053,10.1-12.711,10.2-5.56.1-7.348-3.3-13.7-3.3s-8.341,3.193-13.6,3.4c-5.462.207-9.621-5.47-13.11-10.51C1.6,62.211-3.845,43.389,3.472,30.684A20.327,20.327,0,0,1,20.654,20.277c5.363-.1,10.425,3.608,13.7,3.608s9.428-4.462,15.9-3.807a19.4,19.4,0,0,1,15.187,8.237c-.393.244-9.068,5.294-8.974,15.8M46.018,13.258A18.289,18.289,0,0,0,50.337,0C46.157.168,41.1,2.785,38.1,6.293c-2.687,3.107-5.04,8.079-4.4,12.844,4.659.36,9.418-2.367,12.318-5.88" transform="translate(0)"/>
</svg>
