<svg xmlns="http://www.w3.org/2000/svg" width="71" height="71" viewBox="0 0 71 71">
  <g id="bootstrap-4" transform="translate(0 -0.649)">
    <path id="Subtraction_5" data-name="Subtraction 5" d="M61.845,71H9.155A9.147,9.147,0,0,1,0,61.845V9.155A9.147,9.147,0,0,1,9.155,0h52.69A9.147,9.147,0,0,1,71,9.155v52.69A9.147,9.147,0,0,1,61.845,71ZM19.989,14.006V56.994H40.821a22.086,22.086,0,0,0,5.63-.722,15.129,15.129,0,0,0,4.877-2.227,11.025,11.025,0,0,0,3.4-3.883,11.885,11.885,0,0,0,1.264-5.63,11.967,11.967,0,0,0-1.957-6.894,10.379,10.379,0,0,0-5.931-4,10.76,10.76,0,0,0,4.365-3.552,9.458,9.458,0,0,0,1.475-5.419,11.586,11.586,0,0,0-.993-5.057,8.3,8.3,0,0,0-2.8-3.281,12.136,12.136,0,0,0-4.335-1.776,26.883,26.883,0,0,0-5.6-.542ZM39.557,49.649H29.442v-11.8h10.3a10.1,10.1,0,0,1,2.77.354,6.551,6.551,0,0,1,2.168,1.061,4.306,4.306,0,0,1,1.4,1.889,7.758,7.758,0,0,1,.467,2.837,5.938,5.938,0,0,1-.572,2.77,4.565,4.565,0,0,1-1.535,1.716,6.538,6.538,0,0,1-2.228.9A12.718,12.718,0,0,1,39.557,49.649Zm-.542-18.243H29.442V21.351h8.85a13.847,13.847,0,0,1,2.438.211,6.113,6.113,0,0,1,2.078.752,4.032,4.032,0,0,1,1.445,1.505,5.02,5.02,0,0,1,.542,2.468,6.092,6.092,0,0,1-.407,2.333,3.7,3.7,0,0,1-1.219,1.58,5.81,5.81,0,0,1-1.851.9A8.3,8.3,0,0,1,39.015,31.406Z" transform="translate(0 0.649)"/>
  </g>
</svg>
