<svg xmlns="http://www.w3.org/2000/svg" width="72.167" height="82.089" viewBox="0 0 72.167 82.089">
  <path id="Subtraction_16" data-name="Subtraction 16" d="M36.025,82.089a6.013,6.013,0,0,1-2.964-.783L3.047,64.256A6.013,6.013,0,0,1,.011,59.041L0,23.957A6.029,6.029,0,0,1,2.93,18.8L33.071.845A6,6,0,0,1,39.105.783l30.014,17.05a6.011,6.011,0,0,1,3.036,5.215l.012,35.084a6.029,6.029,0,0,1-2.93,5.157L39.1,81.244A6,6,0,0,1,36.025,82.089Zm1.246-65.173a24,24,0,1,0,16.97,40.971,24.4,24.4,0,0,0,2.786-3.335L46.636,48.412A12,12,0,1,1,48.1,35.757l10.39-6.072A24.069,24.069,0,0,0,37.272,16.916Zm20,30h3v2h3v-2h2v-3h-2v-3h2v-3h-2v-2h-3v2h-3v-2h-3v2h-2v3h2v3h-2v3h2v2h3v-2Zm3-3h-3v-3h3v3Z"/>
</svg>
