<svg xmlns="http://www.w3.org/2000/svg" width="70.873" height="69.808" viewBox="0 0 70.873 69.808">
  <path id="github-1" d="M35.436,0a35.432,35.432,0,0,0-8.592,69.808,4.785,4.785,0,0,1-.265-1.683V62.1h-4.43a6.053,6.053,0,0,1-5.582-3.013c-1.152-2.126-1.33-5.4-4.252-7.443-.887-.709-.178-1.417.8-1.33a9.294,9.294,0,0,1,4.783,3.631c1.417,1.861,2.039,2.3,4.7,2.3a35.722,35.722,0,0,0,4.961-.356,10.984,10.984,0,0,1,4.7-5.757c-11.87-1.417-17.54-7.265-17.54-15.239a14.623,14.623,0,0,1,3.987-9.569c-.8-2.747-1.861-8.417.356-10.631a12.574,12.574,0,0,1,9.3,4.34,27.281,27.281,0,0,1,8.592-1.417,26.854,26.854,0,0,1,8.592,1.417,12.57,12.57,0,0,1,9.3-4.34c2.126,2.126,1.152,7.883.265,10.631A14.347,14.347,0,0,1,59,34.9c0,7.974-5.582,13.822-17.362,15.061,3.278,1.683,5.582,6.466,5.582,10.01v8.07c0,.265-.087.531-.087.8A35.405,35.405,0,0,0,35.436,0Z"/>
</svg>
