<svg xmlns="http://www.w3.org/2000/svg" width="50.301" height="71" viewBox="0 0 50.301 71">
  <g id="html-5" transform="translate(-0.445)">
    <path id="Subtraction_3" data-name="Subtraction 3" d="M25.12,57.047h0l-20.542-5.7L0,0H50.3L45.719,51.336l-20.6,5.711ZM11.34,32.687l.882,9.887,12.9,3.581.029-.008h0l12.888-3.572.095-1.064,1.48-16.578.154-1.691H16.818l-.576-6.448h24.1l.126-1.415.287-3.192.15-1.69H9.36l.151,1.69,1.548,17.353H32.883l-.731,8.167-7.023,1.9h-.006L18.11,37.709l-.448-5.022Z" transform="translate(0.445 13.953)"/>
    <path id="Path_52" data-name="Path 52" d="M24.18,0h3.2V3.162h2.927V0h3.2V9.574h-3.2V6.368H27.38V9.574h-3.2V0ZM37.716,3.175H34.9V0h8.836V3.175H40.917v6.4h-3.2v-6.4h0ZM45.138,0h3.337l2.053,3.364L52.578,0h3.338V9.574H52.729V4.829l-2.2,3.4h-.055l-2.2-3.4V9.574H45.138ZM57.508,0h3.2V6.41h4.5V9.574h-7.7V0Z" transform="translate(-19.055)"/>
  </g>
</svg>
