<svg xmlns="http://www.w3.org/2000/svg" width="56.359" height="104.822" viewBox="0 0 56.359 104.822">
  <g id="java-4" transform="translate(-6.527 -4.399)">
    <path id="Path_76" data-name="Path 76" d="M283.462,430.026h-.395V429.8h1.063v.221h-.392v1.1h-.276Zm2.12.058h-.006l-.391,1.045h-.179l-.389-1.045h0v1.045h-.26v-1.323h.383l.36.937.359-.937h.382v1.323h-.254Z" transform="translate(-222.95 -342.967)"/>
    <path id="Path_77" data-name="Path 77" d="M79.427,258.576s-2.748,1.6,1.955,2.138a41.143,41.143,0,0,0,14.888-.632,25.9,25.9,0,0,0,3.956,1.932c-14.075,6.032-31.854-.349-20.8-3.438m-1.72-7.872s-3.082,2.281,1.625,2.768a58.079,58.079,0,0,0,19.209-.922,8.527,8.527,0,0,0,2.959,1.8c-17.018,4.976-35.972.392-23.793-3.65" transform="translate(-54.267 -198.574)"/>
    <path id="Path_78" data-name="Path 78" d="M155.392,99.871c3.468,3.993-.911,7.586-.911,7.586s8.806-4.546,4.762-10.238c-3.777-5.309-6.674-7.946,9.007-17.041,0,0-24.614,6.147-12.858,19.693" transform="translate(-117.452 -61.094)"/>
    <path id="Path_79" data-name="Path 79" d="M63.027,227.577s2.033,1.675-2.239,2.971c-8.124,2.461-33.814,3.2-40.95.1-2.565-1.116,2.245-2.665,3.759-2.99a9.759,9.759,0,0,1,2.48-.278c-2.853-2.01-18.44,3.946-7.918,5.652,28.7,4.654,52.312-2.1,44.868-5.453m-30.073-21.85s-13.067,3.1-4.627,4.231c3.564.477,10.668.369,17.284-.185,5.408-.456,10.838-1.426,10.838-1.426a22.952,22.952,0,0,0-3.286,1.758c-13.27,3.49-38.9,1.866-31.524-1.7a24.725,24.725,0,0,1,11.316-2.675M56.4,218.83c13.489-7.01,7.253-13.746,2.9-12.838a10.094,10.094,0,0,0-1.543.415,2.459,2.459,0,0,1,1.152-.889c8.612-3.028,15.235,8.93-2.78,13.666a1.172,1.172,0,0,0,.271-.353" transform="translate(-6.472 -161.753)"/>
    <path id="Path_80" data-name="Path 80" d="M119.353,4.4s7.471,7.473-7.086,18.965c-11.672,9.218-2.662,14.474,0,20.479-6.813-6.148-11.813-11.559-8.459-16.6,4.923-7.393,18.563-10.978,15.549-22.848" transform="translate(-77.562)"/>
    <path id="Path_81" data-name="Path 81" d="M74.05,346.845c12.948.829,32.831-.46,33.3-6.586,0,0-.9,2.322-10.7,4.167a106.462,106.462,0,0,1-32.766.5s1.655,1.37,10.165,1.915" transform="translate(-46.243 -270.774)"/>
    <path id="Path_82" data-name="Path 82" d="M25.685,418.014a5.877,5.877,0,0,1-3.669,1.654,2.34,2.34,0,0,1-2.545-2.58c0-1.719.957-2.976,4.794-2.976h1.42v3.9m3.37,3.8V410.046c0-3.007-1.715-4.991-5.85-4.991a15.41,15.41,0,0,0-6.247,1.356l.5,2.084a14.52,14.52,0,0,1,4.824-.959c2.382,0,3.407.959,3.407,2.942v1.488H24.5c-5.788,0-8.4,2.247-8.4,5.618,0,2.91,1.72,4.565,4.96,4.565a7.481,7.481,0,0,0,5.09-2.118l.264,1.787h2.644Zm11.248,0H36.1l-5.059-16.464h3.671l3.139,10.116.7,3.042a63.249,63.249,0,0,0,3.273-13.158h3.571a66.866,66.866,0,0,1-5.09,16.464m16.126-3.8a5.893,5.893,0,0,1-3.674,1.654,2.341,2.341,0,0,1-2.545-2.58c0-1.719.959-2.976,4.8-2.976H56.43v3.9m3.37,3.8V410.046c0-3.007-1.719-4.991-5.85-4.991a15.409,15.409,0,0,0-6.249,1.356l.5,2.084a14.543,14.543,0,0,1,4.827-.959c2.38,0,3.407.959,3.407,2.942v1.488H55.239c-5.789,0-8.4,2.247-8.4,5.618,0,2.91,1.719,4.565,4.958,4.565a7.49,7.49,0,0,0,5.093-2.118l.265,1.787H59.8Zm-47.4,2.8a8.855,8.855,0,0,1-4.212,3.141l-1.664-1.958a6.985,6.985,0,0,0,2.917-2.733c.446-.888.63-2.032.63-4.768V399.5h3.581v18.539c0,3.658-.293,5.135-1.253,6.576" transform="translate(0 -318.532)"/>
  </g>
</svg>
