<svg xmlns="http://www.w3.org/2000/svg" width="137.932" height="31.346" viewBox="0 0 137.932 31.346">
  <g id="jquery-1" transform="translate(-0.981 -0.078)">
    <path id="Path_59" data-name="Path 59" d="M450.6,8.646l5.791.032s-10.767,14.59-11.647,15.779a6.782,6.782,0,0,0-.939,1.315,29.38,29.38,0,0,0-1.127,4.133l-5.3.026a21.81,21.81,0,0,0,.791-4.535,17.506,17.506,0,0,0-1.127-4.133c-.4-1.4-.94-4.133-.94-4.133h5.448l.751,3.006,8.3-11.491" transform="translate(-317.476 -6.252)" fill-rule="evenodd"/>
    <path id="Path_60" data-name="Path 60" d="M195.836,5.472c1.069.644,1.725,4.2,1.725,4.2s-5.592.082-8.636.082H186.3l-3.194,13.9h-4.884s3.04-15.107,3.757-17.846c.233-.887,1.593-.735,3.89-.735h3.669c2.369,0,5.138-.3,6.3.4M173.1,12.242a2.928,2.928,0,0,0-.516-1.926c-.571-.881-1.1-1.086-2.6-1.133-4.243-.133-4.161,3.011-4.161,3.011Zm4.6-3.6c.622,2.243-.563,7.514-.563,7.514s-6.19-.1-9.58,0c-1.054.032-2.316-.115-2.63.376-.441.687.161,1.745.672,2.192a4.252,4.252,0,0,0,2.145.625,71.005,71.005,0,0,0,8.511.09l-1,4.418s-8.139.408-12.21-.563a4.144,4.144,0,0,1-2.066-1.127c-.139-.15-.26-.355-.391-.532a4.937,4.937,0,0,1-.548-.971c-.93-2.478.109-7.224,1.127-9.768.118-.295.267-.669.423-.986.2-.4.36-.843.516-1.08.1-.163.235-.268.344-.423a6.309,6.309,0,0,1,.407-.516,7.741,7.741,0,0,1,1.315-1.127,12.415,12.415,0,0,1,8.453-1.879c1.388.143,3.485.639,4.508,2.066a6.305,6.305,0,0,1,.563,1.691ZM155.3,5.056l4.736-.028s-2.639,12.52-3.984,18.625H150.6c-3.807,0-7.2.472-8.641-2.254-1.4-2.647-.064-7,.563-9.956.443-2.093,1.377-6.37,1.377-6.37l4.907-.045s-1.386,6.659-1.963,9.984c-.207,1.191-.633,2.312-.188,3.193.423.838,1.014.9,2.818.94.571.014,2.442,0,2.442,0L155.3,5.056m-22.166,9.017c.5-1.762,1.219-3.672,1.127-5.26a4.516,4.516,0,0,0-2.442-3.569,6.257,6.257,0,0,0-6.387,1.5c-1.332,1.443-1.783,3.128-2.254,5.448-.351,1.722-.639,3.541,0,4.884,1.131,2.375,4.657,1.856,8.453,1.879.563-1.51,1.029-3.207,1.5-4.885Zm6.575-6.95c.541,3.933-1.535,8.275-2.964,12.05,1.458.132,2.735-.02,2.827.088.1.141-.977,4.507-1.351,4.518-1.157.03-4.991.062-6.59.062-5.217,0-10.1.34-12.586-2.254a8.181,8.181,0,0,1-1.879-4.133,17.527,17.527,0,0,1,.564-6.387,19.331,19.331,0,0,1,1.879-4.885c2.192-3.826,6.005-6.667,12.4-6.011a11.906,11.906,0,0,1,4.133,1.315c.077.045.346.259.407.3a8.177,8.177,0,0,1,3.162,5.339ZM116.627,5.079c-.316,1.437-.631,3.066-.964,4.486H110.4c.407-1.574.719-3.139,1.127-4.508,1.683,0,3.248.022,5.1.022m-6.412,5.8h5.072c-.663,3.671-1.976,9.591-3.006,13.713-.644,2.579-1.074,4.461-2.818,5.823-.156.122-.246.064-.376.188a7.177,7.177,0,0,1-2.63.751,37.811,37.811,0,0,1-4.494-.015c.43-1.572.917-3.46,1.3-4.869,4.007.485,4.108-3.3,4.884-6.95.449-2.108,1.809-7.8,2.066-8.641" transform="translate(-73.681 0)" fill-rule="evenodd"/>
    <g id="Group_23" data-name="Group 23" transform="translate(0.981 2.603)">
      <path id="Path_61" data-name="Path 61" d="M24.7,37.191l-.109.282a10.628,10.628,0,0,1-9.815,5.917A13.723,13.723,0,0,1,9.14,42.263a14.558,14.558,0,0,1-6.762-6.387C.441,32.124.092,26.906,4.119,23.008c.062,0-.489.845-.426.845l-.111.361C.68,33.3,9.621,41.087,18.313,40.2A11.417,11.417,0,0,0,24.7,37.191" transform="translate(-0.981 -19.333)" fill-rule="evenodd"/>
      <path id="Path_62" data-name="Path 62" d="M38.714,26.65a8.316,8.316,0,0,0,5.824-2.442c-1.183,3-4.61,4.935-9.2,4.321a9.911,9.911,0,0,1-7.89-8.266c-.276-2.823.708-4.508,2.329-6.552a6.856,6.856,0,0,0-.827,2.419c-.616,6.107,4.879,10.488,9.768,10.52" transform="translate(-20.255 -12.55)" fill-rule="evenodd"/>
      <path id="Path_63" data-name="Path 63" d="M61.16,15.932A6.853,6.853,0,0,1,58,18.368a6.023,6.023,0,0,1-6.763-2.741,8.459,8.459,0,0,1-.543-1.221c-.445-1.514-.241-3.8,1.088-4.989a6.237,6.237,0,0,0-.248,3.287,7.3,7.3,0,0,0,.905,1.978A5.2,5.2,0,0,0,54.5,16.509a5.481,5.481,0,0,0,1.039.5c.862.254,2.683.923,5.617-1.074" transform="translate(-37.097 -9.417)" fill-rule="evenodd"/>
    </g>
  </g>
</svg>
