<svg xmlns="http://www.w3.org/2000/svg" width="70.001" height="70.001" viewBox="0 0 70.001 70.001">
  <path id="Subtraction_4" data-name="Subtraction 4" d="M-995-5280h-70v-70h70v70Zm-22.977-15.309h0l-5.356,3.1c1.269,2.509,4.514,6.719,11.982,6.719,6.622,0,10.9-3.6,10.9-9.163,0-5.512-3.2-7.964-8.74-10.337l-1.645-.7a11.425,11.425,0,0,1-3.077-1.715,2.844,2.844,0,0,1-.963-2.279,2.694,2.694,0,0,1,.852-2.008,3.306,3.306,0,0,1,2.3-.811,4.143,4.143,0,0,1,2.4.652,5.972,5.972,0,0,1,1.833,2.167l5.122-3.289c-2.067-3.64-4.951-5.263-9.351-5.263-5.672,0-9.633,3.575-9.633,8.693,0,5.76,3.794,8.169,7.894,9.914l1.644.706a17.233,17.233,0,0,1,3.524,1.832,2.993,2.993,0,0,1,1.269,2.538,2.767,2.767,0,0,1-.314,1.3,3.033,3.033,0,0,1-.9,1.027,5.424,5.424,0,0,1-3.254.916,6.732,6.732,0,0,1-3.929-1.133,9.015,9.015,0,0,1-2.555-2.86Zm-28.618,3.805c1.294,2.744,4.056,6.015,9.868,6.015,6.333,0,9.821-3.521,9.821-9.915v-22.46h-6.578v22.367a4.588,4.588,0,0,1-.952,3.3,3.4,3.4,0,0,1-2.573.834,3.512,3.512,0,0,1-2.572-1,10.019,10.019,0,0,1-1.656-2.378l-5.357,3.242Z" transform="translate(1065 5350)"/>
</svg>
