<svg xmlns="http://www.w3.org/2000/svg" width="138.882" height="39.57" viewBox="0 0 138.882 39.57">
  <g id="mongodb" transform="translate(0 -0.203)">
    <path id="Path_41" data-name="Path 41" d="M407.639,56.765c-.125.025-.25.3-.25.451-.025,1-.05,3.659-.05,5.463a.186.186,0,0,0,.15.15c.376.025,1.278.05,2.055.05a5.364,5.364,0,0,0,2.055-.3,2.662,2.662,0,0,0,1.328-2.507c0-2.431-1.7-3.358-4.235-3.358A4.02,4.02,0,0,0,407.639,56.765Zm6.466,11.2c0-2.481-1.829-3.859-5.137-3.859-.15,0-1.2-.025-1.454.025-.075.025-.175.076-.175.151,0,1.779-.025,4.611.05,5.714a1.891,1.891,0,0,0,.827,1.353,5.736,5.736,0,0,0,2.18.3A3.422,3.422,0,0,0,414.1,67.968Zm-11.578-12.58c.25,0,1,.075,2.932.075,1.83,0,3.283-.05,5.062-.05,2.18,0,5.187.777,5.187,4.035a3.929,3.929,0,0,1-2.606,3.509c-.075.025-.075.075,0,.1,2.1.527,3.96,1.83,3.96,4.285,0,2.406-1.5,3.935-3.684,4.887a11.987,11.987,0,0,1-4.661.777c-1.278,0-4.711-.15-6.616-.1-.2-.075.175-.978.351-1.128a4.678,4.678,0,0,0,1.278-.2c.677-.175.752-.376.852-1.4.05-.877.05-3.985.05-6.19,0-3.032.025-5.087,0-6.09-.025-.777-.3-1.028-.852-1.178-.426-.075-1.128-.175-1.7-.25C401.95,56.339,402.376,55.487,402.527,55.387Zm-14.46,15.588a5.053,5.053,0,0,0,2.832.676,5.552,5.552,0,0,0,4.01-1.428c1.328-1.2,2.255-3.057,2.255-6.014a7.179,7.179,0,0,0-3.283-6.491,8.865,8.865,0,0,0-4.711-1.1,3.756,3.756,0,0,0-1.4.175.736.736,0,0,0-.251.4c-.05.5-.05,4.361-.05,6.616,0,2.331,0,5.589.05,5.964a1.554,1.554,0,0,0,.551,1.2Zm-5.689-15.588c.476,0,2.306.075,3.183.075,1.579,0,2.707-.075,5.689-.075a9.271,9.271,0,0,1,6.115,1.954,8.126,8.126,0,0,1,2.782,6.415,8.4,8.4,0,0,1-3.459,7.218A11.589,11.589,0,0,1,389.5,73c-1.7,0-4.636-.05-7.067-.075H382.4c-.125-.225.2-1.1.4-1.128a3.994,3.994,0,0,0,1.153-.225c.526-.2.627-.476.7-1.4.075-1.729.05-3.809.05-6.165,0-1.679.025-4.962-.025-6.015-.075-.877-.451-1.1-1.2-1.253-.376-.075-.877-.175-1.579-.25-.1-.176.351-.952.476-1.1Z" transform="translate(-278.18 -40.198)" fill-rule="evenodd"/>
    <path id="Path_42" data-name="Path 42" d="M134.088,87.548a5.04,5.04,0,0,1-1.629-.426.764.764,0,0,1-.2-.4c-.05-.877-.05-3.383-.05-5.062a5.908,5.908,0,0,0-.8-3.358,3.421,3.421,0,0,0-2.907-1.5,6.7,6.7,0,0,0-3.809,1.8c-.025.025-.225.2-.2-.075,0-.276.05-.827.075-1.2a.65.65,0,0,0-.175-.526,16.725,16.725,0,0,1-3.884,1c-.6.126-.752.7-.125.9h.025a5.561,5.561,0,0,1,1.478.652.779.779,0,0,1,.226.7c.025,1.879.025,4.761-.05,6.34-.025.627-.2.852-.652.952l.05-.025a9.9,9.9,0,0,1-1.053.2,1.465,1.465,0,0,0,0,1.128c.276,0,1.729-.075,2.932-.075,1.654,0,2.506.075,2.932.075a1.632,1.632,0,0,0,.125-1.128,4.639,4.639,0,0,1-1.153-.175c-.451-.1-.577-.326-.6-.852-.05-1.328-.05-4.135-.05-6.04a1.208,1.208,0,0,1,.3-.927,3.792,3.792,0,0,1,2.331-.852,2.591,2.591,0,0,1,1.729.577,2.464,2.464,0,0,1,.8,1.579c.125,1.078.075,3.208.075,5.062,0,1-.075,1.253-.451,1.378a4.77,4.77,0,0,1-1.153.225,1.467,1.467,0,0,0,0,1.128c.727,0,1.579-.075,2.832-.075,1.554,0,2.556.075,2.957.075A1.748,1.748,0,0,0,134.088,87.548Zm6.942-9.573c-1.328,0-2.155,1.027-2.155,2.631,0,1.629.727,3.509,2.782,3.509a1.942,1.942,0,0,0,1.3-.5,3.318,3.318,0,0,0,.8-2.306c0-2.08-1.028-3.333-2.732-3.333Zm-.175,11.076a2.154,2.154,0,0,0-1.078.276c-1.053.676-1.529,1.328-1.529,2.105a2.217,2.217,0,0,0,.877,1.8,4.452,4.452,0,0,0,3.007.927c2.556,0,3.684-1.378,3.684-2.731a1.915,1.915,0,0,0-1.453-1.93A10.122,10.122,0,0,0,140.854,89.051Zm.175,6.516a5.545,5.545,0,0,1-3.584-1.053,3.3,3.3,0,0,1-1.328-2.481,1.92,1.92,0,0,1,.5-1.253,13.29,13.29,0,0,1,2.306-1.855c.05-.025.075-.05.075-.1a.166.166,0,0,0-.1-.125,2.385,2.385,0,0,1-1.629-1.579v-.05c-.025-.15-.075-.3.151-.451.175-.125.426-.276.7-.451a10.294,10.294,0,0,0,1.153-.752.183.183,0,0,0,.05-.15.166.166,0,0,0-.1-.125,3.655,3.655,0,0,1-2.631-3.835,3.8,3.8,0,0,1,1.6-3.157,7.368,7.368,0,0,1,3.609-1.228h.075a7.685,7.685,0,0,1,2.756.6,4.639,4.639,0,0,0,1.629.25,2.169,2.169,0,0,0,1.754-.651,1.36,1.36,0,0,1,.1.5,1.893,1.893,0,0,1-.326,1.153,1.423,1.423,0,0,1-1.1.476h-.125a5.584,5.584,0,0,1-.652-.1l-.1.05c-.025.05,0,.1.025.175l.025.05a9.249,9.249,0,0,1,.15,1.078,4.06,4.06,0,0,1-1.7,3.634,5.771,5.771,0,0,1-2.932,1.128,3.156,3.156,0,0,0-.351.025c-.125,0-.3.025-.326.025h-.025c-.2.05-.7.3-.7.726,0,.376.225.827,1.3.9.225.025.451.025.7.05a21.97,21.97,0,0,1,4.035.5,2.808,2.808,0,0,1,1.88,2.681c0,1.855-1.328,3.584-3.533,4.661a8.062,8.062,0,0,1-3.333.727ZM155.314,78.1a2.327,2.327,0,0,0-1.353.376c-.977.6-1.478,1.8-1.478,3.559,0,3.283,1.654,5.589,4.01,5.589a2.55,2.55,0,0,0,1.729-.6c.727-.6,1.1-1.8,1.1-3.484,0-3.258-1.629-5.438-4.01-5.438Zm.451,10.726c-4.26,0-5.789-3.133-5.789-6.065A5.426,5.426,0,0,1,152.457,78a7.543,7.543,0,0,1,3.835-1.128,5.369,5.369,0,0,1,5.538,5.689,5.819,5.819,0,0,1-2.631,5.187,6.95,6.95,0,0,1-3.433,1.078h0ZM111.108,78.1a2.328,2.328,0,0,0-1.353.376c-.977.6-1.478,1.8-1.478,3.559,0,3.283,1.654,5.589,4.01,5.589a2.551,2.551,0,0,0,1.729-.6c.726-.6,1.1-1.8,1.1-3.484,0-3.258-1.6-5.438-4.01-5.438Zm.451,10.726c-4.26,0-5.789-3.132-5.789-6.065A5.426,5.426,0,0,1,108.25,78a7.543,7.543,0,0,1,3.835-1.128,5.369,5.369,0,0,1,5.538,5.689,5.819,5.819,0,0,1-2.631,5.187,6.789,6.789,0,0,1-3.433,1.078Zm-28.644-.251A1.071,1.071,0,0,1,82.839,88a.847.847,0,0,1,.075-.376,9.245,9.245,0,0,0,1.1-.226c.5-.125.7-.4.727-1.027.075-1.5.075-4.361.05-6.341v-.05a.759.759,0,0,0-.276-.7,5.662,5.662,0,0,0-1.5-.652c-.225-.075-.376-.2-.351-.35,0-.15.15-.326.476-.376a18.335,18.335,0,0,0,3.834-.977.62.62,0,0,1,.125.4l-.025.275c-.025.276-.05.6-.05.927a.194.194,0,0,0,.2.175.353.353,0,0,0,.15-.05,7.068,7.068,0,0,1,3.809-1.7,3.244,3.244,0,0,1,2.907,1.779.189.189,0,0,0,.175.1.178.178,0,0,0,.15-.075,7.617,7.617,0,0,1,3.934-1.8c2.331,0,3.709,1.729,3.709,4.661,0,.827,0,1.9-.025,2.882,0,.877-.025,1.679-.025,2.255a.788.788,0,0,0,.451.6,5.351,5.351,0,0,0,1.454.351h.025a2.01,2.01,0,0,1-.15.952,6.16,6.16,0,0,1-.627-.025q-.952-.05-1.9-.05c-1.554,0-2.356.025-3.133.075a2.445,2.445,0,0,1,0-.952,7.782,7.782,0,0,0,.953-.225c.5-.15.627-.376.652-1.028,0-.476.1-4.536-.051-5.513a2.471,2.471,0,0,0-2.556-2.18,4.444,4.444,0,0,0-2.556.977.447.447,0,0,0-.1.251V80a11.541,11.541,0,0,1,.1,2.055v1.629c0,1.128-.025,2.18,0,2.982a.734.734,0,0,0,.6.777c.15.025.25.05.376.075.225.05.451.1.8.175a1.353,1.353,0,0,1-.025.7.481.481,0,0,1-.1.251c-.852-.025-1.729-.05-3.007-.05-.376,0-1.028.025-1.579.025-.451,0-.877.025-1.128.025a1.322,1.322,0,0,1-.076-.5.781.781,0,0,1,.1-.451,1.7,1.7,0,0,1,.351-.05c.3-.05.551-.1.8-.15.426-.125.577-.351.6-.9a43.5,43.5,0,0,0-.025-5.739,2.361,2.361,0,0,0-2.456-2.18,4.6,4.6,0,0,0-2.556.978.809.809,0,0,0-.226.576v1.479c0,1.8,0,4.06.025,5.037a.777.777,0,0,0,.7.777,5.249,5.249,0,0,0,.577.1l.451.075a2.1,2.1,0,0,1-.075.952c-.251,0-.551-.025-.9-.025-.526-.025-1.2-.05-1.954-.05-.877,0-1.5.025-2,.05a6.054,6.054,0,0,0-.927-.05Z" transform="translate(-60.213 -55.794)" fill-rule="evenodd"/>
    <path id="Path_43" data-name="Path 43" d="M26.437,51.792l-1.027-.351s.125-5.237-1.754-5.613c-1.253-1.454.2-61.649,4.712-.2a3.664,3.664,0,0,0-1.83,2.105A19.329,19.329,0,0,0,26.437,51.792Z" transform="translate(-16.917 -12.996)" fill-rule="evenodd"/>
    <path id="Path_44" data-name="Path 44" d="M26.437,51.792l-1.027-.351s.125-5.237-1.754-5.613c-1.253-1.454.2-61.649,4.712-.2a3.664,3.664,0,0,0-1.83,2.105A19.329,19.329,0,0,0,26.437,51.792Z" transform="translate(-16.917 -12.996)" fill-rule="evenodd"/>
    <path id="Path_45" data-name="Path 45" d="M32.849,34s9-5.914,6.892-18.219C37.711,6.838,32.924,3.906,32.4,2.778A12.651,12.651,0,0,1,31.27.573l.376,24.885c0,.025-.777,7.618,1.2,8.546" transform="translate(-22.778 -0.27)" fill-rule="evenodd"/>
    <path id="Path_46" data-name="Path 46" d="M32.849,34s9-5.914,6.892-18.219C37.711,6.838,32.924,3.906,32.4,2.778A12.651,12.651,0,0,1,31.27.573l.376,24.885c0,.025-.777,7.618,1.2,8.546" transform="translate(-22.778 -0.27)" fill-rule="evenodd"/>
    <path id="Path_47" data-name="Path 47" d="M7.966,34.06S-.48,28.3.021,18.146C.5,8,6.462,3.01,7.615,2.108A2.334,2.334,0,0,0,8.442.2c.526,1.128.426,16.866.5,18.72C9.168,26.065,8.542,32.707,7.966,34.06Z" transform="translate(0 0)" fill-rule="evenodd"/>
    <path id="Path_48" data-name="Path 48" d="M7.966,34.06S-.48,28.3.021,18.146C.5,8,6.462,3.01,7.615,2.108A2.334,2.334,0,0,0,8.442.2c.526,1.128.426,16.866.5,18.72C9.168,26.065,8.542,32.707,7.966,34.06Z" transform="translate(0 0)" fill-rule="evenodd"/>
  </g>
</svg>
