<svg xmlns="http://www.w3.org/2000/svg" width="125.472" height="65.149" viewBox="0 0 125.472 65.149">
  <g id="mysql-5" transform="translate(-8.504 -45.082)">
    <path id="Path_65" data-name="Path 65" d="M8.5,104.434h4.141V88.03l6.467,14.3c.733,1.719,1.784,2.357,3.822,2.357s3.026-.638,3.791-2.357l6.435-14.3v16.4h4.173V88.03a2.508,2.508,0,0,0-1.975-2.772C32.2,84.3,30.1,85.13,29.146,87.264l-6.338,14.144L16.691,87.264c-.924-2.133-3.059-2.961-6.243-2.007A2.512,2.512,0,0,0,8.5,88.03v16.4h0ZM40.773,91.087h4.173V100.1c-.031.509.159,1.656,2.421,1.687,1.179.032,8.983,0,9.046,0V91.023h4.173v14.749c0,3.631-4.491,4.427-6.594,4.459H40.868V107.46H54.023c2.676-.287,2.357-1.624,2.357-2.07v-1.084H47.557c-4.109-.032-6.753-1.848-6.785-3.918,0-.191.095-9.238,0-9.3Zm89.509-10.448a14.741,14.741,0,0,0-6.18.892c-.477.192-1.242.192-1.305.8.255.253.286.668.509,1.02a7.453,7.453,0,0,0,1.656,1.943c.67.51,1.339,1.02,2.038,1.466,1.242.764,2.644,1.21,3.854,1.975.7.446,1.4,1.02,2.1,1.5.35.255.573.67,1.02.828v-.1c-.223-.286-.287-.7-.509-1.02-.319-.318-.638-.605-.957-.923A15.061,15.061,0,0,0,129.2,85.8c-1.019-.7-3.249-1.656-3.663-2.835l-.063-.064a13,13,0,0,0,2.2-.51c1.084-.286,2.07-.223,3.185-.509.51-.128,1.019-.287,1.53-.446v-.286c-.573-.573-.987-1.338-1.592-1.879a42.465,42.465,0,0,0-5.257-3.918c-.987-.637-2.262-1.052-3.312-1.592-.383-.191-1.02-.287-1.242-.605a12.772,12.772,0,0,1-1.307-2.453c-.923-1.752-1.816-3.695-2.612-5.542a34.184,34.184,0,0,0-1.624-3.631A32.107,32.107,0,0,0,103.11,49.615a15.274,15.274,0,0,0-4.077-1.306c-.8-.032-1.592-.1-2.389-.128a12.573,12.573,0,0,1-1.466-1.115c-1.816-1.147-6.5-3.631-7.837-.351-.86,2.07,1.274,4.109,2.007,5.16a15.042,15.042,0,0,1,1.626,2.389c.222.541.286,1.115.509,1.688a38.127,38.127,0,0,0,1.656,4.269A15.311,15.311,0,0,0,94.317,62.2c.255.351.7.51.8,1.083a9.1,9.1,0,0,0-.732,2.39c-1.147,3.6-.7,8.059.923,10.7.51.8,1.721,2.548,3.346,1.879,1.434-.573,1.114-2.389,1.529-3.982.1-.382.032-.637.223-.892v.064c.446.892.892,1.752,1.307,2.644a18.184,18.184,0,0,0,4.142,4.269c.764.573,1.369,1.561,2.325,1.911v-.1h-.063a3.566,3.566,0,0,0-.733-.637,15.514,15.514,0,0,1-1.656-1.911,41.056,41.056,0,0,1-3.567-5.8c-.51-.987-.957-2.07-1.369-3.058-.193-.383-.193-.956-.51-1.147a12.051,12.051,0,0,0-1.53,2.166,17.929,17.929,0,0,0-.891,4.81c-.129.032-.064,0-.129.064-1.018-.254-1.369-1.306-1.751-2.2a13.782,13.782,0,0,1-.287-8.505c.223-.669,1.179-2.772.8-3.408-.193-.605-.828-.955-1.179-1.434a12.868,12.868,0,0,1-1.146-2.038c-.764-1.784-1.146-3.759-1.975-5.543a17.01,17.01,0,0,0-1.594-2.452A15.814,15.814,0,0,1,88.84,48.6c-.159-.351-.382-.924-.127-1.306a.507.507,0,0,1,.445-.414c.414-.351,1.594.1,2.008.286a16.28,16.28,0,0,1,3.153,1.592c.446.318.925.924,1.5,1.084h.67c1.019.223,2.165.064,3.121.35a20.394,20.394,0,0,1,4.588,2.2,28.256,28.256,0,0,1,9.938,10.894c.382.733.541,1.4.892,2.166.67,1.561,1.5,3.153,2.165,4.683a21,21,0,0,0,2.262,4.269c.478.669,2.389,1.019,3.249,1.369a22.764,22.764,0,0,1,2.2.892c1.082.669,2.165,1.434,3.185,2.166.509.381,2.1,1.177,2.2,1.814Z" transform="translate(0 0)" fill-rule="evenodd"/>
    <path id="Path_66" data-name="Path 66" d="M133.043,56.114a5.03,5.03,0,0,0-1.305.159v.064h.063a10.225,10.225,0,0,0,1.02,1.306c.255.51.478,1.02.733,1.529l.063-.064a1.8,1.8,0,0,0,.67-1.593,7.091,7.091,0,0,1-.382-.669c-.191-.318-.605-.478-.861-.732Z" transform="translate(-35.253 -3.156)" fill-rule="evenodd"/>
    <path id="Path_67" data-name="Path 67" d="M85.916,120.532H97.893a9.089,9.089,0,0,0,3.822-.8c1.816-.828,2.676-1.943,2.676-3.408V113.27c0-1.178-.987-2.294-2.961-3.058a10.428,10.428,0,0,0-3.536-.605H92.861c-1.688,0-2.485-.51-2.708-1.624a1.57,1.57,0,0,1-.031-.382v-1.88a1.439,1.439,0,0,1,.031-.35c.223-.86.669-1.084,2.135-1.242h12.263v-2.772H92.892a10.773,10.773,0,0,0-3.376.351c-2.453.764-3.536,1.975-3.536,4.108v2.422c0,1.878,2.1,3.472,5.67,3.854.382.032.8.032,1.21.032h4.3a1.931,1.931,0,0,1,.445.032c1.307.127,1.88.35,2.262.827a.969.969,0,0,1,.319.765v2.421a1.416,1.416,0,0,1-.573.987,2.975,2.975,0,0,1-1.785.573c-.159,0-.253.032-.414.032h-11.5v2.769Zm44.4-4.809c0,2.835,2.135,4.427,6.4,4.746.414.032.8.063,1.21.063h10.83v-2.771H137.838c-2.422,0-3.346-.605-3.346-2.07V101.356h-4.174v14.367h0Zm-23.285.126v-9.874c0-2.517,1.783-4.047,5.257-4.523.382-.032.764-.064,1.114-.064h7.9c.414,0,.765.032,1.179.064,3.472.477,5.223,2.007,5.223,4.523v9.874a3.635,3.635,0,0,1-2.453,3.855l4.077,3.694h-4.809l-3.313-2.994-3.346.191H113.4a9.751,9.751,0,0,1-2.421-.318c-2.642-.734-3.949-2.135-3.949-4.429Zm4.491-.221a2.536,2.536,0,0,0,.1.414c.223,1.146,1.305,1.783,2.961,1.783h3.76L114.9,114.7h4.809l3.026,2.74a1.991,1.991,0,0,0,1.052-1.339,1.8,1.8,0,0,0,.032-.414v-9.461a1.541,1.541,0,0,0-.032-.382c-.223-1.082-1.305-1.687-2.93-1.687h-6.276c-1.848,0-3.058.8-3.058,2.069v9.4Zm39.149,4.936h.605v-2.325h.8v-.478h-2.23v.478h.828Zm4.618,0h.573v-2.8h-.859l-.7,1.912-.764-1.912h-.828v2.8h.541v-2.133h.032l.8,2.133h.414l.8-2.133v2.133h0Z" transform="translate(-22.145 -16.098)" fill-rule="evenodd"/>
  </g>
</svg>
