<svg id="Node.js_logo" xmlns="http://www.w3.org/2000/svg" xmlns:xlink="http://www.w3.org/1999/xlink" width="128.189" height="78.51" viewBox="0 0 128.189 78.51">
  <defs>
    <clipPath id="clip-path">
      <path id="Path_36" data-name="Path 36" d="M207.3,226.122l-12.208,7.047a1.473,1.473,0,0,0-.738,1.277v14.1a1.473,1.473,0,0,0,.738,1.277l12.209,7.052a1.478,1.478,0,0,0,1.475,0l12.207-7.052a1.477,1.477,0,0,0,.736-1.277v-14.1a1.473,1.473,0,0,0-.739-1.277l-12.205-7.047a1.484,1.484,0,0,0-1.478,0" transform="translate(-194.354 -225.925)" fill="#333"/>
    </clipPath>
    <clipPath id="clip-path-2">
      <path id="Path_38" data-name="Path 38" d="M195.4,249.546a1.478,1.478,0,0,0,.435.381l10.473,6.049,1.744,1a1.48,1.48,0,0,0,.85.193,1.509,1.509,0,0,0,.29-.053l12.876-23.576a1.46,1.46,0,0,0-.343-.272l-7.994-4.616-4.226-2.431a1.542,1.542,0,0,0-.383-.154Zm0,0" transform="translate(-195.398 -226.069)" fill="#535353"/>
    </clipPath>
    <clipPath id="clip-path-3">
      <path id="Path_40" data-name="Path 40" d="M209.784,225.939a1.49,1.49,0,0,0-.59.189l-12.174,7.026,13.127,23.91a1.464,1.464,0,0,0,.525-.181l12.208-7.052a1.479,1.479,0,0,0,.713-1.007l-13.382-22.861a1.534,1.534,0,0,0-.3-.03c-.041,0-.081,0-.122.006" transform="translate(-197.021 -225.934)"/>
    </clipPath>
  </defs>
  <path id="Path_31" data-name="Path 31" d="M184.291,193.5a2.437,2.437,0,0,1-1.214-.325l-3.865-2.288c-.577-.323-.3-.437-.105-.5a7.8,7.8,0,0,0,1.747-.8.293.293,0,0,1,.288.02l2.969,1.762a.392.392,0,0,0,.359,0l11.577-6.682a.365.365,0,0,0,.177-.313V171.015a.372.372,0,0,0-.179-.319l-11.572-6.676a.356.356,0,0,0-.356,0l-11.57,6.676a.369.369,0,0,0-.183.316v13.359a.357.357,0,0,0,.18.31l3.17,1.831c1.721.861,2.773-.154,2.773-1.174V172.154a.33.33,0,0,1,.336-.333h1.466a.331.331,0,0,1,.333.333v13.191c0,2.3-1.252,3.614-3.428,3.614a4.963,4.963,0,0,1-2.669-.724l-3.037-1.75a2.448,2.448,0,0,1-1.214-2.112V171.012a2.433,2.433,0,0,1,1.214-2.11l11.588-6.685a2.539,2.539,0,0,1,2.434,0l11.574,6.688a2.442,2.442,0,0,1,1.214,2.11v13.359a2.449,2.449,0,0,1-1.214,2.11l-11.574,6.685a2.433,2.433,0,0,1-1.22.325" transform="translate(-120.932 -114.989)"/>
  <path id="Path_32" data-name="Path 32" d="M215.969,199.389c-5.065,0-6.127-2.325-6.127-4.275a.333.333,0,0,1,.335-.333h1.5a.335.335,0,0,1,.33.283c.226,1.524.9,2.292,3.961,2.292,2.44,0,3.477-.551,3.477-1.845,0-.745-.3-1.3-4.086-1.669-3.17-.313-5.129-1.011-5.129-3.547,0-2.336,1.97-3.727,5.271-3.727,3.706,0,5.543,1.287,5.775,4.051a.337.337,0,0,1-.09.258.345.345,0,0,1-.246.107h-1.5a.332.332,0,0,1-.325-.261c-.362-1.6-1.237-2.115-3.616-2.115-2.663,0-2.973.927-2.973,1.623,0,.843.365,1.09,3.958,1.565,3.558.472,5.248,1.139,5.248,3.64,0,2.521-2.1,3.967-5.772,3.967m14.1-14.167h.388a.337.337,0,0,0,.38-.354c0-.342-.235-.342-.365-.342h-.4Zm-.472-1.1h.861c.3,0,.875,0,.875.661a.575.575,0,0,1-.472.614c.345.023.368.249.414.568a2.442,2.442,0,0,0,.13.661h-.53c-.014-.116-.1-.753-.1-.788-.035-.142-.084-.212-.261-.212h-.438v1h-.484Zm-1.035,1.246a1.871,1.871,0,1,0,1.863-1.866,1.873,1.873,0,0,0-1.863,1.866m4.1.009a2.231,2.231,0,1,1-2.231-2.231,2.238,2.238,0,0,1,2.231,2.231" transform="translate(-149.034 -130.085)"/>
  <path id="Path_33" data-name="Path 33" d="M27.51,26.24a1.482,1.482,0,0,0-.741-1.288L14.5,17.89a1.433,1.433,0,0,0-.675-.194h-.127a1.458,1.458,0,0,0-.678.194L.742,24.952A1.494,1.494,0,0,0,0,26.241L.027,45.262a.73.73,0,0,0,.368.64.7.7,0,0,0,.736,0l7.3-4.179a1.5,1.5,0,0,0,.742-1.287V31.551a1.478,1.478,0,0,1,.74-1.284l3.106-1.789a1.474,1.474,0,0,1,.742-.2,1.448,1.448,0,0,1,.737.2l3.1,1.789a1.479,1.479,0,0,1,.742,1.284v8.885a1.5,1.5,0,0,0,.743,1.287L26.377,45.9a.725.725,0,0,0,.742,0,.744.744,0,0,0,.367-.64Zm57.917,9.9a.368.368,0,0,1-.185.32l-4.216,2.43a.372.372,0,0,1-.37,0l-4.216-2.43a.367.367,0,0,1-.185-.32V31.276a.373.373,0,0,1,.183-.322l4.213-2.434a.374.374,0,0,1,.374,0l4.216,2.434a.369.369,0,0,1,.185.322ZM86.567.094a.741.741,0,0,0-1.1.648V19.578a.518.518,0,0,1-.778.449l-3.075-1.771a1.48,1.48,0,0,0-1.481,0L67.852,25.342a1.479,1.479,0,0,0-.742,1.281V40.8a1.484,1.484,0,0,0,.742,1.284L80.13,49.173a1.489,1.489,0,0,0,1.483,0L93.891,42.08a1.486,1.486,0,0,0,.742-1.284V5.466a1.486,1.486,0,0,0-.762-1.3Zm40.886,31.054a1.483,1.483,0,0,0,.737-1.281V26.431a1.483,1.483,0,0,0-.738-1.282l-12.2-7.082a1.481,1.481,0,0,0-1.487,0L101.49,25.151a1.48,1.48,0,0,0-.742,1.284v14.17a1.488,1.488,0,0,0,.748,1.29l12.2,6.952a1.479,1.479,0,0,0,1.455.009l7.378-4.1a.74.74,0,0,0,.006-1.29l-12.35-7.088a.736.736,0,0,1-.374-.64V31.292a.736.736,0,0,1,.371-.642l3.842-2.217a.733.733,0,0,1,.739,0L118.6,30.65a.739.739,0,0,1,.371.64v3.495a.739.739,0,0,0,1.113.64Zm0,0" transform="translate(0 0)" fill-rule="evenodd"/>
  <path id="Path_34" data-name="Path 34" d="M388.412,105.106a.281.281,0,0,1,.284,0l2.356,1.359a.284.284,0,0,1,.142.246v2.721a.285.285,0,0,1-.142.246l-2.356,1.359a.281.281,0,0,1-.284,0l-2.354-1.359a.284.284,0,0,1-.145-.246v-2.721a.281.281,0,0,1,.142-.246Zm0,0" transform="translate(-274.084 -74.621)" fill-rule="evenodd"/>
  <g id="Group_20" data-name="Group 20" transform="translate(33.628 17.94)" clip-path="url(#clip-path)">
    <path id="Path_35" data-name="Path 35" d="M203.818,205.465l-34.4-16.862-17.639,35.983,34.4,16.863Zm0,0" transform="translate(-164.116 -199.418)" fill="#333"/>
  </g>
  <g id="Group_21" data-name="Group 21" transform="translate(33.931 17.982)" clip-path="url(#clip-path-2)">
    <path id="Path_37" data-name="Path 37" d="M144.07,205.835l24.291,32.876,32.125-23.735L176.193,182.1Zm0,0" transform="translate(-158.944 -194.842)" fill="#535353"/>
  </g>
  <g id="Group_22" data-name="Group 22" transform="translate(34.401 17.943)" clip-path="url(#clip-path-3)">
    <path id="Path_39" data-name="Path 39" d="M197.02,225.934v31.131h26.568V225.934Zm0,0" transform="translate(-197.02 -225.934)"/>
  </g>
</svg>
