<svg xmlns="http://www.w3.org/2000/svg" width="97.963" height="47.356" viewBox="0 0 97.963 47.356">
  <g id="php-1" transform="translate(-35.945 -16.658)">
    <path id="Path_56" data-name="Path 56" d="M35.945,64.014l7.429-37.607H60.551c7.428.464,11.143,4.178,11.143,10.679,0,11.143-8.821,17.643-16.714,17.178H46.624l-1.857,9.75ZM48.48,47.3,50.8,33.372h6.035c3.25,0,5.571,1.393,5.571,4.178-.464,7.893-4.178,9.286-8.357,9.75H48.481Zm21.488,6.964L77.4,16.658h8.822l-1.857,9.749h8.357c7.429.464,10.214,4.178,9.286,8.822l-3.25,19.035H89.468l3.25-17.178c.464-2.322.464-3.714-2.786-3.714H82.968L78.79,54.264Zm28.191,9.75,7.428-37.607h17.178c7.429.464,11.143,4.178,11.143,10.679,0,11.143-8.822,17.643-16.714,17.178h-8.357l-1.857,9.75ZM110.694,47.3l2.322-13.929h6.036c3.25,0,5.571,1.393,5.571,4.178-.464,7.893-4.178,9.286-8.357,9.75h-5.572Z" fill-rule="evenodd"/>
  </g>
</svg>
