<svg xmlns="http://www.w3.org/2000/svg" width="139.986" height="34.06" viewBox="0 0 139.986 34.06">
  <g id="python-3" transform="translate(-5.591 -3.262)">
    <path id="Path_68" data-name="Path 68" d="M159.148,20.559q0-6.44-3.673-6.618a6.9,6.9,0,0,0-2.851.468,4.18,4.18,0,0,0-1.5.79V25.447a7.274,7.274,0,0,0,4.17,1.368Q159.146,26.56,159.148,20.559Zm3.02.178a9.107,9.107,0,0,1-1.54,5.431,5.68,5.68,0,0,1-4.767,2.515,8.458,8.458,0,0,1-4.733-1.437V36.56l-2.627-.937V14.949a5.877,5.877,0,0,1,1.658-1.368,11.38,11.38,0,0,1,5.7-1.4l.037.037a5.228,5.228,0,0,1,4.724,2.515,10.686,10.686,0,0,1,1.549,6.006Zm16.053,6.113q0,4.388-.879,6.078a6.2,6.2,0,0,1-3.365,2.7,12.891,12.891,0,0,1-4.351.865l-.434-1.655a20.872,20.872,0,0,0,3.345-.647,4.42,4.42,0,0,0,2.627-1.977,9.923,9.923,0,0,0,.575-4.135V27.39a13.491,13.491,0,0,1-5.647,1.221,5.19,5.19,0,0,1-3.417-1.221,4.155,4.155,0,0,1-1.655-3.379V13.079l2.627-.9v11a3.344,3.344,0,0,0,1.138,2.716,4.3,4.3,0,0,0,2.946.917,7.366,7.366,0,0,0,3.865-1.4V12.575h2.627V26.85Zm10.253,1.69q-.432.036-.865.037a5.168,5.168,0,0,1-3.471-1.063,3.673,3.673,0,0,1-1.239-2.94V14.228h-1.8V12.576h1.8V8.187l2.624-.934v5.322h2.951v1.652h-2.951V24.5a2.489,2.489,0,0,0,.793,2.092,4.013,4.013,0,0,0,2.158.578v1.368Zm15.9-.216h-2.627V18.185a4.791,4.791,0,0,0-.721-2.661,2.624,2.624,0,0,0-2.314-1.259,8.526,8.526,0,0,0-4.517,1.905V28.324h-2.626V4.09l2.626-.828V14.3a9.151,9.151,0,0,1,5.5-1.834,4.386,4.386,0,0,1,3.38,1.4,4.938,4.938,0,0,1,1.3,3.489V28.324h0Zm13.961-8.179a8.068,8.068,0,0,0-.937-4.089,3.922,3.922,0,0,0-3.451-2.078q-4.319.25-4.317,6.184a10.173,10.173,0,0,0,.9,4.543A3.628,3.628,0,0,0,214,26.994q4.336-.035,4.336-6.848Zm2.877.017a9.341,9.341,0,0,1-1.8,5.862,6.47,6.47,0,0,1-5.466,2.624,6.341,6.341,0,0,1-5.4-2.624,9.466,9.466,0,0,1-1.762-5.862,8.368,8.368,0,0,1,1.905-5.575,6.565,6.565,0,0,1,5.288-2.408,6.675,6.675,0,0,1,5.325,2.408,8.368,8.368,0,0,1,1.906,5.575Zm15.058,8.162h-2.627V17.611a3.583,3.583,0,0,0-1.06-2.753,3.853,3.853,0,0,0-2.825-.951,6.312,6.312,0,0,0-3.56,1.221v13.2h-2.627V14.8a12.943,12.943,0,0,1,4.173-2.155,12.735,12.735,0,0,1,3.167-.468,8.213,8.213,0,0,1,1.762.181,5.067,5.067,0,0,1,2.517,1.331,3.52,3.52,0,0,1,1.081,2.589V28.324Z" transform="translate(-100.775)"/>
    <path id="Path_69" data-name="Path 69" d="M21.783,6.4a22.544,22.544,0,0,0-3.777.323c-3.345.591-3.953,1.828-3.953,4.109v3.013h7.905v1H11.086a4.936,4.936,0,0,0-4.938,4.008,14.776,14.776,0,0,0,0,8.034c.562,2.34,1.9,4.008,4.2,4.008h2.718V27.285a5.024,5.024,0,0,1,4.938-4.911h7.9a3.983,3.983,0,0,0,3.953-4.017V10.829A4.413,4.413,0,0,0,25.9,6.72,24.659,24.659,0,0,0,21.783,6.4ZM17.508,8.82a1.507,1.507,0,1,1-1.483,1.511A1.5,1.5,0,0,1,17.508,8.82Z" transform="translate(0 -2.211)"/>
    <path id="Path_70" data-name="Path 70" d="M51.079,35.054v3.51a5.07,5.07,0,0,1-4.938,5.012h-7.9a4.032,4.032,0,0,0-3.953,4.017v7.527c0,2.143,1.863,3.4,3.953,4.017a13.224,13.224,0,0,0,7.9,0c1.99-.576,3.953-1.736,3.953-4.017V52.108H42.2v-1H54.045c2.3,0,3.154-1.6,3.953-4.008a13.563,13.563,0,0,0,0-8.034c-.568-2.287-1.652-4.008-3.953-4.008ZM46.638,54.117a1.507,1.507,0,1,1-1.483,1.5A1.492,1.492,0,0,1,46.638,54.117Z" transform="translate(-20.239 -22.419)"/>
    <path id="Path_71" data-name="Path 71" d="M460.944,19.178h.461V16.289H462.5v-.344h-2.642v.344h1.091v2.888m1.96,0h.393V16.54l.854,2.638h.438l.89-2.629v2.629h.429V15.945h-.568l-.973,2.769-.829-2.769H462.9v3.232" transform="translate(-320.331 -8.944)"/>
  </g>
</svg>
