<svg xmlns="http://www.w3.org/2000/svg" width="147.129" height="56.008" viewBox="0 0 147.129 56.008">
  <g id="logo-react-blue-1" transform="translate(137.9 -348.403)">
    <path id="Union_1" data-name="Union 1" d="M39.051,54.635a26.9,26.9,0,0,1-5.816-3.93c-.576-.512-1.171-1.041-1.707-1.576-.229.2-.444.394-.652.586l-.005,0c-.2.184-.424.391-.657.591-4.1,3.563-8.323,5.607-11.585,5.607a5.823,5.823,0,0,1-3-.747c-1.569-.928-2.668-2.748-3.178-5.263a24.291,24.291,0,0,1,.222-9.055c.1-.36.181-.743.262-1.113l0,0h0c.081-.371.165-.756.263-1.117a12.644,12.644,0,0,1-1.351-.405l-.007,0-.033-.011-.317-.107A25.08,25.08,0,0,1,3.161,33.57C1.093,31.755,0,29.8,0,27.913c0-1.823,1.025-3.69,2.964-5.4A23.974,23.974,0,0,1,10.9,18.192a22.96,22.96,0,0,1,2.3-.723c-.2-.717-.325-1.359-.46-2.1a24.914,24.914,0,0,1-.3-9.212c.5-2.588,1.6-4.445,3.193-5.37A5.85,5.85,0,0,1,18.6.054a12.7,12.7,0,0,1,5.562,1.539,29.049,29.049,0,0,1,6.253,4.383c.394.327.727.659,1.048.981l0,0c.514-.514,1.037-.972,1.542-1.416l.033-.029a27.8,27.8,0,0,1,5.909-4.079A12.1,12.1,0,0,1,44.205,0a5.68,5.68,0,0,1,2.89.72c1.656.956,2.8,2.918,3.292,5.673a26.678,26.678,0,0,1-.4,9.762c-.065.229-.115.461-.164.687s-.1.462-.164.693c.412.112.805.246,1.185.378.278.1.565.193.851.279a25.36,25.36,0,0,1,8.12,4.376c1.993,1.723,3.046,3.595,3.046,5.411,0,3.88-4.555,7.781-11.889,10.181l-1.182.394c.132.595.261,1.174.394,1.707a24.779,24.779,0,0,1,.287,9.467c-.53,2.686-1.674,4.614-3.309,5.575a5.9,5.9,0,0,1-2.917.7A12.194,12.194,0,0,1,39.051,54.635ZM15.3,41.509a22.571,22.571,0,0,0-.3,7.546c.319,1.993,1.034,3.4,2.012,3.95a3.188,3.188,0,0,0,1.585.35,8.817,8.817,0,0,0,2.816-.548,25.61,25.61,0,0,0,7.028-4.334c.2-.2.4-.381.592-.559s.393-.361.591-.559a66.129,66.129,0,0,1-5.385-6.7,74.908,74.908,0,0,1-8.474-1.249C15.569,40.124,15.44,40.766,15.3,41.509Zm23.448-.984a57.717,57.717,0,0,1-5.254,6.7c.52.521,1.048.983,1.558,1.43l.018.015c3.339,2.9,6.767,4.636,9.173,4.636a3.209,3.209,0,0,0,1.6-.367c.946-.541,1.65-1.881,2.036-3.875a23.534,23.534,0,0,0-.328-8.276c-.01-.041-.021-.08-.03-.121l0-.016a5.57,5.57,0,0,1-.228-1.44A61.664,61.664,0,0,1,38.752,40.525Zm-7.224,4.795c1.4-1.542,2.646-3.157,3.678-4.533-1.247.066-2.492.066-3.81.066-1.227,0-2.5,0-3.678-.066C28.735,42.142,29.91,43.54,31.528,45.319ZM25.616,18.126c-1.043,1.564-2.037,3.221-3,4.823l0,.006-.019.031c-.985,1.642-1.853,3.378-2.693,5.058.838,1.677,1.705,3.411,2.693,5.057l.005.008c.967,1.612,1.967,3.278,3.082,4.854,1.836.13,3.76.2,5.714.2,2,0,3.942-.067,5.781-.2,1.056-1.585,2.054-3.25,3.02-4.86.776-1.387,1.777-3.213,2.628-5.059-.838-1.677-1.7-3.411-2.693-5.058-1.028-1.835-2.217-3.653-3.021-4.86-1.928-.131-3.87-.2-5.772-.2S27.512,18,25.616,18.126ZM16.487,36.78a55.391,55.391,0,0,0,5.78.921l-.009-.014,0,0c-.642-1.027-1.306-2.09-1.96-3.2-.3-.561-.6-1.111-.887-1.642l-.009-.016c-.287-.528-.585-1.073-.878-1.626A56.442,56.442,0,0,0,16.487,36.78ZM42.5,34.415c-.592,1.117-1.258,2.183-1.9,3.215l0,0a45.256,45.256,0,0,0,5.846-.984c-.535-1.666-1.2-3.42-2.1-5.517C43.759,32.222,43.162,33.351,42.5,34.415ZM13.925,20.163l-.008,0c-.707.192-1.438.392-2.159.655A23.369,23.369,0,0,0,5.05,24.333c-1.585,1.277-2.422,2.561-2.422,3.711,0,1.11.884,2.51,2.364,3.744a23.811,23.811,0,0,0,7.357,3.876c.3.085.632.2.984.323.177.061.381.132.593.2a69.844,69.844,0,0,1,3.087-8.079,57.6,57.6,0,0,1-3.087-7.947h0Zm31.987,7.881a65.057,65.057,0,0,1,3.152,7.948,4.823,4.823,0,0,1,.527-.164l.01,0a4.768,4.768,0,0,0,.515-.16,25.429,25.429,0,0,0,7.373-3.721c1.736-1.35,2.71-2.759,2.743-3.964,0-1.115-.889-2.433-2.5-3.712a23.188,23.188,0,0,0-6.889-3.513c-.574-.192-1.168-.39-1.839-.591A66.892,66.892,0,0,1,45.912,28.044ZM16.553,19.506a54.312,54.312,0,0,0,1.97,5.451l.057-.11c.563-1.061,1.145-2.158,1.716-3.174a25.817,25.817,0,0,1,1.971-3.153C20.376,18.781,18.453,19.113,16.553,19.506ZM40.6,18.465c.643,1.029,1.308,2.093,1.9,3.143.758,1.289,1.306,2.281,1.774,3.219a47.47,47.47,0,0,0,2.035-5.387c-1.768-.393-3.691-.724-5.714-.984ZM34.746,7.618c-.424.362-.972.841-1.445,1.313a73.757,73.757,0,0,1,5.32,6.634,60.524,60.524,0,0,1,8.408,1.313c.033-.2.083-.415.131-.624s.1-.427.132-.624a24.358,24.358,0,0,0,.517-8.219c-.3-2.168-1.047-3.705-2.094-4.326a3.072,3.072,0,0,0-1.526-.35C41.776,2.736,38.246,4.561,34.746,7.618Zm-17.8-4.467c-.976.586-1.676,2.026-1.971,4.056a23.7,23.7,0,0,0,.394,7.7l.023.112,0,.006c.121.606.246,1.231.37,1.786A60.256,60.256,0,0,1,24.172,15.5a74.02,74.02,0,0,1,5.386-6.635,11.905,11.905,0,0,0-.92-.854C24.9,4.724,21.144,2.76,18.588,2.76A3.184,3.184,0,0,0,16.946,3.151ZM35.14,15.3a47.872,47.872,0,0,0-3.678-4.467c-1.2,1.317-2.422,2.778-3.744,4.467,1.251-.066,2.5-.1,3.711-.1S33.9,15.237,35.14,15.3ZM144.3,37.043c-2.5,0-4.138-1.445-4.138-4.532V24.3h-2.628V22.2h2.628V17.141h2.5V22.2h4.27v2.1h-4.27l-.066,7.751c0,2.036.92,2.693,2.431,2.693A5.018,5.018,0,0,0,147,34.35l.132,2.3a6.832,6.832,0,0,1-2.335.41Q144.552,37.059,144.3,37.043Zm-31.988,0c-2.627,0-4.6-1.51-4.6-4.2,0-3.152,2.5-4.335,5.715-4.335a28.778,28.778,0,0,1,3.349.2V27.585c0-2.1-.92-3.481-3.021-3.481a3.034,3.034,0,0,0-3.218,2.89v.262h-2.5a5.277,5.277,0,0,1,5.648-5.189c3.81-.132,5.649,2.1,5.649,5.846V36.78h-2.5V35.27a6.085,6.085,0,0,1-4.3,1.778C112.474,37.047,112.4,37.045,112.317,37.043Zm-2.1-4.335c0,1.445,1.051,2.233,2.825,2.233a5.437,5.437,0,0,0,3.875-1.839V30.738a26.343,26.343,0,0,0-3.218-.2c-.09,0-.18,0-.267,0C111.421,30.536,110.215,31.26,110.215,32.708Zm13.005-2.693V29.03c0-4.532,2.628-7.028,6.7-7.028a5.665,5.665,0,0,1,6.109,5.583h-2.3a3.69,3.69,0,0,0-3.678-3.547h-.132c-2.693,0-4.2,1.905-4.2,4.86V30.08c0,2.956,1.511,4.861,4.2,4.861a3.515,3.515,0,0,0,3.744-3.219v-.065h2.365a5.787,5.787,0,0,1-6.109,5.385C125.848,37.043,123.22,34.547,123.22,30.015Zm-31.33,0V29.03c0-4.335,2.5-7.028,6.568-7.028,3.941,0,6.24,2.562,6.24,6.7v1.642H94.32v.263a4.016,4.016,0,0,0,4.138,4.335c2.168,0,3.481-1.117,3.678-2.759h2.5c-.263,2.825-2.694,4.861-6.109,4.861C94.452,37.043,91.89,34.415,91.89,30.015Zm2.43-2.365v.591h7.816v-.328c0-2.1-1.116-3.876-3.743-3.876-.079,0-.157-.007-.235-.007A3.881,3.881,0,0,0,94.32,27.65ZM86.7,36.714l-4.795-8.539H76.06v8.539H73.434V15.368h7.881c4.139,0,7.094,1.97,7.094,6.043v.723A5.427,5.427,0,0,1,84.6,27.65l5.057,9.064ZM76.06,25.811h5.123c2.693,0,4.6-1.248,4.6-3.678v-.657c0-2.5-1.9-3.744-4.6-3.744H76.06Zm-50.312,2.3A5.649,5.649,0,1,1,31.4,33.758,5.69,5.69,0,0,1,25.748,28.11Z" transform="translate(-137.9 348.403)"/>
  </g>
</svg>
