<svg xmlns="http://www.w3.org/2000/svg" width="131.143" height="41.808" viewBox="0 0 131.143 41.808">
  <g id="iconfinder_Redis_Logo_202808" transform="translate(-171.322 -227.113)">
    <path id="Path_94" data-name="Path 94" d="M393.251,267.473a1.977,1.977,0,0,1-1.964,1.964,3.541,3.541,0,0,0-2.223.7,5.588,5.588,0,0,0-1.7,1.779,11.379,11.379,0,0,0-1.519,3.112v7.041a2.018,2.018,0,0,1-2.038,1.964,1.977,1.977,0,0,1-1.964-1.964v-14.6a1.945,1.945,0,0,1,1.964-1.927,1.987,1.987,0,0,1,2.038,1.927v.259a4.871,4.871,0,0,1,.778-.741,8.128,8.128,0,0,1,4.669-1.445A1.923,1.923,0,0,1,393.251,267.473Z" transform="translate(-150.153 -27.412)"/>
    <path id="Path_95" data-name="Path 95" d="M417.85,274.687a9.174,9.174,0,0,1,9.041-9.264,8.863,8.863,0,0,1,8.931,8.6v.185a1.028,1.028,0,0,1-.037.333,1.786,1.786,0,0,1-1.927,1.482H422.074a4.856,4.856,0,0,0,1.26,2.446,5.733,5.733,0,0,0,3.557,1.667,6.058,6.058,0,0,0,3.854-.926,2.1,2.1,0,0,1,2.779-.112,1.693,1.693,0,0,1,0,2.409,9.367,9.367,0,0,1-6.633,2.446A9.2,9.2,0,0,1,417.85,274.687Zm4.039-1.816h10.486a6.057,6.057,0,0,0-5.484-3.928A5.177,5.177,0,0,0,421.889,272.871Z" transform="translate(-175.838 -27.325)"/>
    <path id="Path_96" data-name="Path 96" d="M501.564,263.516a2.017,2.017,0,0,1-2,2,2,2,0,0,1-1.964-1.593,9.041,9.041,0,0,1-5.039,1.593,9.268,9.268,0,0,1,0-18.528,8.769,8.769,0,0,1,4.965,1.556v-6.966a2.02,2.02,0,0,1,4.039,0v21.937Zm-9-12.488a4.8,4.8,0,0,0-3.483,1.519,5.372,5.372,0,0,0,0,7.411,4.8,4.8,0,0,0,3.483,1.519,4.735,4.735,0,0,0,3.483-1.519,5.373,5.373,0,0,0,0-7.411A4.736,4.736,0,0,0,492.559,251.028Z" transform="translate(-222.703 -8.891)"/>
    <path id="Path_97" data-name="Path 97" d="M560.995,242.356a2,2,0,0,1-2,2.038,2.024,2.024,0,0,1-2-2.038v-.778a1.993,1.993,0,0,1,2-2,1.97,1.97,0,0,1,2,2Zm0,6.707v14.451a1.97,1.97,0,0,1-2,2,1.993,1.993,0,0,1-2-2V249.063a1.979,1.979,0,0,1,2-2.038A1.957,1.957,0,0,1,560.995,249.063Z" transform="translate(-275.083 -8.89)"/>
    <path id="Path_98" data-name="Path 98" d="M578.749,278.645a1.928,1.928,0,0,1,2.779-.3,6.8,6.8,0,0,0,4.076,1.63,4.943,4.943,0,0,0,2.52-.7,1.516,1.516,0,0,0,.667-1.112.555.555,0,0,0-.111-.371c-.037-.111-.185-.259-.482-.444a8.583,8.583,0,0,0-2.964-1.038H585.2a14.193,14.193,0,0,1-3.224-.964,6.19,6.19,0,0,1-2.557-2.149,4.493,4.493,0,0,1-.63-2.334,5.2,5.2,0,0,1,2.186-4.076,7.972,7.972,0,0,1,4.558-1.371,9.53,9.53,0,0,1,5.558,2.038,2.046,2.046,0,0,1,.593,2.742,1.961,1.961,0,0,1-2.742.519,6.35,6.35,0,0,0-3.409-1.371,3.774,3.774,0,0,0-2.223.667,1.129,1.129,0,0,0-.593.852.4.4,0,0,0,.074.3,1,1,0,0,0,.408.37,7.561,7.561,0,0,0,2.705.889l.037.037h.037a13.322,13.322,0,0,1,3.446,1.074,5.759,5.759,0,0,1,2.631,2.186,4.8,4.8,0,0,1,.7,2.446,5.344,5.344,0,0,1-2.335,4.3,8.432,8.432,0,0,1-4.817,1.482,10.763,10.763,0,0,1-6.6-2.557,1.977,1.977,0,0,1-.26-2.742Z" transform="translate(-290.291 -27.32)"/>
    <path id="Path_99" data-name="Path 99" d="M218.191,309.985c-2.6,1.357-16.088,6.9-18.959,8.4s-4.466,1.482-6.734.4-16.618-6.881-19.2-8.116c-1.292-.618-1.971-1.139-1.971-1.631V304.1s18.682-4.067,21.7-5.149,4.062-1.121,6.629-.181,17.914,3.709,20.451,4.638c0,0,0,4.4,0,4.861C220.1,308.759,219.516,309.294,218.191,309.985Z" transform="translate(-0.002 -50.634)"/>
    <path id="Subtraction_10" data-name="Subtraction 10" d="M-602.237-5704.6a6.619,6.619,0,0,1-2.908-.774c-1.1-.524-4.963-2.127-9.058-3.825l-.033-.014-.133-.055c-4.258-1.766-8.66-3.592-9.979-4.222-1.363-.652-1.99-1.184-1.972-1.674.017-.467.612-.914,1.871-1.407l.181-.071c10.771-4.223,17.748-6.924,19.645-7.605a19.436,19.436,0,0,1,2.095-.652l1.562.648.557-.816a10.1,10.1,0,0,1,2.416.64c1.276.468,5.3,2.05,9.2,3.58l.076.03.109.042c3.869,1.521,7.871,3.093,9.126,3.552,1.314.482,1.913.9,1.943,1.35.031.472-.559,1-1.911,1.7-1.264.659-5.038,2.281-9.034,4l-.047.02c-4.133,1.776-8.406,3.613-9.878,4.379A8.333,8.333,0,0,1-602.237-5704.6Z" transform="translate(797.642 5968.586)" fill="#333"/>
    <path id="Subtraction_11" data-name="Subtraction 11" d="M-602.237-5707.7a6.615,6.615,0,0,1-2.909-.774c-1.094-.523-4.952-2.123-9.036-3.816l-.019-.008c-4.329-1.794-8.8-3.65-10.148-4.293s-1.972-1.161-1.972-1.63v-4.93c.1-.021,11.669-2.541,18.025-4.133l7.331,3.041,2.907-4.262.064.023c1.292.473,5.862,1.418,10.282,2.333h.005c4.376.905,8.9,1.841,10.165,2.3,0,.013,0,4.382,0,4.862s-.607,1.032-1.91,1.712c-1.266.66-5.044,2.284-9.045,4l-.02.008c-4.141,1.779-8.422,3.619-9.9,4.388A8.331,8.331,0,0,1-602.237-5707.7Zm-3.206-20.339v0c.357-.1.626-.189.822-.26a10.935,10.935,0,0,1,3.64-.852,6.111,6.111,0,0,1,1.5.2Z" transform="translate(797.642 5968.586)"/>
    <path id="Subtraction_9" data-name="Subtraction 9" d="M-602.238-5712.637a6.625,6.625,0,0,1-2.907-.773c-1.1-.527-4.97-2.13-9.063-3.828l-.01,0c-4.324-1.793-8.8-3.647-10.13-4.285-1.363-.651-1.99-1.182-1.972-1.672.017-.467.611-.915,1.871-1.408l.8-.312c1.9-.745,6.954-2.724,11.349-4.43.123,0,.254,0,.4,0,3.332,0,6.042-1.051,6.042-2.342a.924.924,0,0,0-.01-.135c.563-.212.959-.358,1.247-.461a11.276,11.276,0,0,1,3.577-.85l.334.555.221-.533a9.725,9.725,0,0,1,2.5.648c1.281.469,5.332,2.06,9.248,3.6l.088.035.077.03c3.855,1.515,7.842,3.082,9.094,3.54,1.314.481,1.913.9,1.943,1.349.031.473-.559,1-1.911,1.7-1.275.665-5.067,2.293-9.081,4.019-4.133,1.776-8.407,3.613-9.878,4.379A8.346,8.346,0,0,1-602.238-5712.637Zm4.689-16.618-11.3,1.734,7.887,3.272,3.416-5.006Z" transform="translate(797.642 5968.586)" fill="#333"/>
    <path id="Subtraction_8" data-name="Subtraction 8" d="M-602.238-5716.043a6.631,6.631,0,0,1-2.908-.773c-1.106-.529-4.977-2.133-9.074-3.832-4.325-1.794-8.8-3.647-10.129-4.285s-1.972-1.162-1.972-1.63v-4.93c.181-.039,18.707-4.076,21.7-5.149.4-.144.749-.263,1.068-.364l.074.137-3.641,1.313,4.88.438,1.528,2.541.946-2.277,4.227-.438-3.278-1.227.215-.518c.194.064.392.134.608.213,1.289.472,5.863,1.418,10.286,2.333,4.378.906,8.9,1.841,10.166,2.3,0,.013,0,4.381,0,4.861s-.607,1.032-1.91,1.712c-1.27.662-5.064,2.292-9.08,4.018-4.133,1.776-8.407,3.613-9.879,4.38A8.34,8.34,0,0,1-602.238-5716.043Zm4.688-13.211-11.3,1.734,7.888,3.272,3.415-5.006Zm-14.351-4.774c-3.332,0-6.042,1.051-6.042,2.342s2.71,2.342,6.042,2.342,6.04-1.05,6.04-2.342S-608.57-5734.029-611.9-5734.029Z" transform="translate(797.642 5968.586)"/>
    <path id="Subtraction_7" data-name="Subtraction 7" d="M24.083,20.5a6.621,6.621,0,0,1-2.908-.774c-1.1-.525-4.97-2.13-9.07-3.83-4.326-1.794-8.8-3.648-10.133-4.286C.609,10.956-.017,10.424,0,9.934c.017-.467.612-.914,1.872-1.407l.612-.24C13.361,4.025,19.826,1.523,21.7.851A11.088,11.088,0,0,1,25.338,0a8.655,8.655,0,0,1,2.99.671c1.285.47,5.349,2.068,9.28,3.612l.041.016c3.892,1.53,7.917,3.111,9.187,3.577,1.314.481,1.913.9,1.942,1.349.031.473-.559,1-1.911,1.7-1.269.662-5.062,2.292-9.077,4.017h0l-.013.005c-4.128,1.774-8.4,3.609-9.866,4.375A8.337,8.337,0,0,1,24.083,20.5Zm4.688-8.28-11.3,1.735,7.888,3.272,3.415-5.007ZM14.42,7.444c-3.331,0-6.041,1.05-6.041,2.342s2.71,2.342,6.041,2.342,6.042-1.051,6.042-2.342S17.751,7.444,14.42,7.444Zm7.329-4.858h0L22.841,4.6,19.2,5.915l4.88.438,1.528,2.54.946-2.276,4.226-.439L27.5,4.951l.869-2.085L25.158,3.919,21.749,2.586Z" transform="translate(171.322 227.113)" fill="#333"/>
    <path id="Path_107" data-name="Path 107" d="M296.09,250.83l6.69,2.644-6.684,2.641Z" transform="translate(-88.992 -16.916)"/>
    <path id="Path_108" data-name="Path 108" d="M270.28,253.758l7.4-2.928.006,5.285-.725.284Z" transform="translate(-70.583 -16.916)" fill="#515151"/>
  </g>
</svg>
