<svg xmlns="http://www.w3.org/2000/svg" width="90.209" height="67.619" viewBox="0 0 90.209 67.619">
  <path id="sass-1" d="M77.541,39.069a18.585,18.585,0,0,0-8.176,1.9,16.817,16.817,0,0,1-1.832-4.229,11.7,11.7,0,0,1-.159-3.559,28.52,28.52,0,0,1,1.075-3.841c-.018-.159-.194-.934-2.009-.952s-3.383.352-3.559.828a20.238,20.238,0,0,0-.758,2.7c-.317,1.656-3.63,7.524-5.515,10.608a10.822,10.822,0,0,1-1.251-3.1,11.7,11.7,0,0,1-.158-3.559,28.536,28.536,0,0,1,1.075-3.841c-.018-.159-.194-.934-2.009-.952s-3.383.352-3.559.828-.37,1.6-.758,2.7c-.37,1.092-4.775,10.89-5.921,13.444-.581,1.3-1.092,2.344-1.463,3.048s-.018.053-.053.123c-.317.6-.493.934-.493.934v.018c-.247.441-.511.863-.635.863a5.876,5.876,0,0,1,.035-2.8c.652-3.4,2.238-8.7,2.22-8.9,0-.088.3-1.022-1.022-1.5a1.606,1.606,0,0,0-1.85.317c-.106,0-.194.282-.194.282S42,34.453,37.842,34.453c-2.608,0-6.2,2.837-7.982,5.427-1.128.617-3.524,1.92-6.061,3.313-.969.529-1.974,1.092-2.925,1.6l-.194-.212C15.64,39.21,6.319,35.4,6.706,28.18c.141-2.625,1.057-9.55,17.9-17.938,13.8-6.872,24.845-4.987,26.765-.793,2.731,5.991-5.9,17.127-20.246,18.731-5.462.617-8.335-1.5-9.057-2.291-.758-.828-.863-.863-1.145-.7-.458.247-.176.987,0,1.427a8.506,8.506,0,0,0,5.18,4.07c2.625.863,9.039,1.339,16.792-1.656,8.687-3.366,15.471-12.7,13.48-20.51C54.352.568,41.172-2.04,28.715,2.383,21.3,5.026,13.261,9.149,7.482,14.559.61,20.973-.483,26.576-.025,28.9c1.6,8.3,13.039,13.709,17.621,17.709-.229.123-.441.247-.634.352-2.291,1.128-11.013,5.691-13.2,10.519C1.3,62.945,4.151,66.874,6.054,67.4c5.885,1.639,11.912-1.3,15.171-6.15,3.242-4.846,2.855-11.136,1.357-14.008l-.053-.106,1.8-1.057c1.163-.687,2.308-1.322,3.313-1.868a21.939,21.939,0,0,0-1.18,5.991c-.247,3.1,1.022,7.119,2.7,8.7a2.983,2.983,0,0,0,2.167.7c1.938,0,2.819-1.6,3.788-3.524,1.2-2.344,2.255-5.057,2.255-5.057s-1.322,7.348,2.291,7.348c1.322,0,2.643-1.709,3.242-2.59v.018s.035-.053.106-.176.144-.221.211-.335v-.035c.529-.916,1.709-3.013,3.471-6.484C48.96,44.3,51.145,38.7,51.145,38.7a32.161,32.161,0,0,0,.863,3.63,34.736,34.736,0,0,0,1.885,4.229c-.529.74-.846,1.163-.846,1.163l.018.018c-.423.564-.9,1.163-1.392,1.762a51.21,51.21,0,0,0-4.229,5.3,1.452,1.452,0,0,0,.388,1.938,3.527,3.527,0,0,0,2.22.352,9.89,9.89,0,0,0,3.313-.758,11.473,11.473,0,0,0,2.855-1.5,6.355,6.355,0,0,0,2.731-5.621,11.3,11.3,0,0,0-1.04-3.965c.159-.229.317-.458.476-.7A74.381,74.381,0,0,0,63.321,36a32.162,32.162,0,0,0,.863,3.63,25.448,25.448,0,0,0,1.6,3.63,15.665,15.665,0,0,0-4.81,6.22c-1.04,3-.229,4.352,1.3,4.669A4.69,4.69,0,0,0,64.7,53.66a10.939,10.939,0,0,0,3.049-1.568c1.762-1.3,3.454-3.119,3.366-5.568a10.674,10.674,0,0,0-.758-3.3,17.166,17.166,0,0,1,8.74-1c7.841.916,9.392,5.815,9.092,7.859A5.264,5.264,0,0,1,85.7,53.607c-.546.335-.722.458-.67.7.07.37.317.352.793.282a6.1,6.1,0,0,0,4.264-5.445C90.3,44.3,85.7,39.017,77.541,39.069ZM17.067,59.456c-2.59,2.837-6.238,3.912-7.788,3-1.674-.969-1.022-5.145,2.167-8.158a41.46,41.46,0,0,1,6.114-4.564c.37-.229.934-.564,1.6-.969a1.88,1.88,0,0,1,.176-.106c.123-.07.264-.159.405-.247a11.24,11.24,0,0,1-2.678,11.048ZM36.009,46.576c-.9,2.2-2.8,7.859-3.947,7.542-.987-.264-1.586-4.546-.194-8.775a19.59,19.59,0,0,1,3.084-5.656c1.427-1.586,2.978-2.114,3.366-1.463C38.776,39.069,36.573,45.2,36.009,46.576Zm15.629,7.471c-.388.194-.74.335-.9.229-.123-.07.158-.335.158-.335s1.956-2.1,2.731-3.066c.441-.564.969-1.216,1.533-1.956v.211c0,2.537-2.431,4.229-3.524,4.916ZM63.691,51.3c-.282-.211-.247-.863.7-2.907a10.9,10.9,0,0,1,2.678-3.454,4.359,4.359,0,0,1,.264,1.515A4.958,4.958,0,0,1,63.691,51.3Z" transform="translate(0.116 -0.241)"/>
</svg>
