<svg xmlns="http://www.w3.org/2000/svg" width="72.644" height="66.937" viewBox="0 0 72.644 66.937">
  <g id="selenium-logo" transform="translate(-3.476 -3.485)">
    <path id="Subtraction_12" data-name="Subtraction 12" d="M-1151.163-5879.546h0l-43.578-1.242c-2.483-.106-5.342-1.6-7.648-3.989s-3.67-5.294-3.634-7.748l.208-43.784a9.946,9.946,0,0,1,3.672-7.047,11.916,11.916,0,0,1,7.543-3.127h.089l42.99,1.582a12.315,12.315,0,0,1,7.579,3.142,9.462,9.462,0,0,1,3.593,7.014v44.706a10.342,10.342,0,0,1-3.054,7.386A10.889,10.889,0,0,1-1151.163-5879.546Zm-13.942-30.086a9.907,9.907,0,0,0-7.342,2.7c-2.884,2.914-3.152,7.375-3.133,9.157v.022c0,.024,0,.044,0,.06,0,3.975,2.316,11.493,11.079,11.493,4.75,0,7.324-2.1,8.647-3.862a9.711,9.711,0,0,0,1.752-3.862l-6.274-.736c-.031.08-.065.182-.1.3-.364,1.083-1.119,3.336-3.757,3.336a4.181,4.181,0,0,1-4.107-3.146,12.134,12.134,0,0,1-.17-2.58l14.412,0a16.443,16.443,0,0,0-.212-3.515,12.29,12.29,0,0,0-2.823-6.3C-1159.019-5908.6-1161.7-5909.633-1165.1-5909.633Zm-30.236,12h0l-6.934,1.676c3.334,7.524,9.3,9.122,13.712,9.136a11.536,11.536,0,0,0,9.213-3.881,8.349,8.349,0,0,0,2.318-6.105,8.92,8.92,0,0,0-3.937-7.235c-1.932-1.24-5.868-2.266-8.472-2.945l-.332-.086-.146-.038c-2.124-.555-3.2-1.55-3.2-2.958a2.712,2.712,0,0,1,.661-1.772,3.46,3.46,0,0,1,2.71-1,6.093,6.093,0,0,1,3.523.931,6.194,6.194,0,0,1,2.281,3.29l6.329-2.279c-.018-.033-2.035-3.655-3.277-4.655-1.114-.9-3.432-2.768-9.06-2.768-6.123,0-8.671,3.768-9.12,4.523a9.589,9.589,0,0,0-1.148,4.672c.017,1.3.586,5.018,2.976,6.649a21.562,21.562,0,0,0,6.357,2.576l.068.019c.249.068.484.133.7.194l.464.138.182.054.008,0a19.57,19.57,0,0,1,3.32,1.18,2.522,2.522,0,0,1,1.566,2.542,3.2,3.2,0,0,1-2.827,2.959c-.255.023-.531.036-.818.036-1.641,0-3.86-.4-4.74-1.146a11.128,11.128,0,0,1-2.373-3.711Zm34.759-2.847h-7.989a5.853,5.853,0,0,1,1.3-3.815,3.66,3.66,0,0,1,2.747-1.065,3.578,3.578,0,0,1,2.721,1.063,5.841,5.841,0,0,1,1.216,3.815Z" transform="translate(1209.5 5949.968)"/>
    <path id="Path_123" data-name="Path 123" d="M1035.1,50.225l12.64,15.921,29.785-24.794-4.107-8.252-24.735,21.062-8.817-9.965Z" transform="translate(-1001.405 -28.748)" fill="#515151"/>
  </g>
</svg>
