<svg xmlns="http://www.w3.org/2000/svg" width="160" height="57.89" viewBox="0 0 160 57.89">
  <g id="socketio" transform="translate(0)">
    <g id="Group_26" data-name="Group 26" transform="translate(0 0)">
      <path id="Path_90" data-name="Path 90" d="M57.958,28.306a29.037,29.037,0,0,0-13.922-24.1A29.317,29.317,0,0,0,21.637.9,28.974,28.974,0,1,0,57.945,28.308ZM30.589,53.624C17.417,54.926,4.678,43.765,4.323,30.54,3.336,19.812,10.4,9.2,20.493,5.668c14.157-5.679,31.55,4.81,33.009,20,2.288,13.645-9.085,27.527-22.913,27.962ZM21.912,27.478,40.975,11.9,30.7,27.517c-2.919,0-5.838,0-8.757-.039Zm5.362,2.879,8.757.039L16.968,46.013,27.244,30.355Z" transform="translate(0 0)" fill="#010101"/>
      <path id="Path_91" data-name="Path 91" d="M44.78,31.432a8.438,8.438,0,0,0,4.021.934c3.509,0,5.362-1.738,5.362-4.119-.033-1.963-1.126-3.187-3.509-4.021-1.674-.6-2.317-1-2.317-1.835,0-.8.643-1.385,1.835-1.385a5.659,5.659,0,0,1,2.8.774l.643-2.35a7.672,7.672,0,0,0-3.509-.774c-3.058,0-4.989,1.787-4.989,4.152-.033,1.544,1.062,2.961,3.637,3.862,1.641.6,2.157,1.031,2.157,1.932,0,.868-.643,1.448-2.124,1.448a7.464,7.464,0,0,1-3.381-.934ZM61.758,18.59c-3.991,0-6.824,2.672-6.824,7a6.371,6.371,0,0,0,6.6,6.791c3.348,0,6.759-2.157,6.759-7,.033-3.991-2.606-6.759-6.534-6.759Zm-.064,2.445c2.285,0,3.187,2.35,3.187,4.408,0,2.672-1.32,4.538-3.217,4.538-2.025,0-3.282-1.932-3.282-4.474,0-2.189.934-4.474,3.315-4.474Zm17.477,8.191a6.687,6.687,0,0,1-2.639.515,3.9,3.9,0,0,1-4.021-4.249,3.921,3.921,0,0,1,4.021-4.28,5.649,5.649,0,0,1,2.511.515l.6-2.478a8.32,8.32,0,0,0-3.217-.6c-4.635,0-7.338,3.09-7.338,7.049,0,4.088,2.672,6.727,6.791,6.727a9.758,9.758,0,0,0,3.734-.676Zm5.117-16.35H80.941V32.123h3.348v-4.5l1.126-1.32,3.8,5.826H93.3l-5.57-7.789,4.892-5.406H88.6L85.415,23.18c-.354.451-.74,1.031-1.062,1.544h-.064Zm20.34,13.553a7.39,7.39,0,0,0,.1-1.415c0-2.9-1.415-6.437-5.7-6.437-4.215,0-6.437,3.443-6.437,7.113,0,4.021,2.511,6.662,6.791,6.662a12.735,12.735,0,0,0,4.617-.8l-.483-2.317a9.8,9.8,0,0,1-3.67.6c-2.124,0-3.991-1.031-4.055-3.425Zm-8.817-2.317c.128-1.352,1-3.217,3.058-3.217,2.234,0,2.77,2,2.736,3.217Zm11.04-8.191V18.9h-1.881v2.478h1.9v6.21a5.156,5.156,0,0,0,1.031,3.67,3.8,3.8,0,0,0,2.864,1.095,7.193,7.193,0,0,0,2.413-.322l-.064-2.542a4.317,4.317,0,0,1-1.287.161c-1.287,0-1.705-.837-1.705-2.445V21.378h3.187V18.9h-3.187V15.1Zm9.319,16.494a2.159,2.159,0,1,0-2.06-2.157A2.02,2.02,0,0,0,116.17,32.415Zm6.952-.322V18.9h-3.348v13.2Zm-1.673-18.7a1.79,1.79,0,1,0,1.868,1.787,1.783,1.783,0,0,0-1.866-1.787Zm10.107,5.213c-3.991,0-6.824,2.672-6.824,7a6.371,6.371,0,0,0,6.6,6.791c3.348,0,6.759-2.157,6.759-7,.033-3.991-2.606-6.759-6.534-6.759Zm-.064,2.445c2.285,0,3.187,2.35,3.187,4.408,0,2.672-1.32,4.538-3.217,4.538-2.025,0-3.282-1.932-3.282-4.474,0-2.189.934-4.474,3.315-4.474Z" transform="translate(21.911 6.301)"/>
    </g>
  </g>
</svg>
