<svg id="solr" xmlns="http://www.w3.org/2000/svg" width="104.5" height="52.812" viewBox="0 0 104.5 52.812">
  <g id="Group_27" data-name="Group 27" transform="translate(0 0)">
    <path id="Path_92" data-name="Path 92" d="M21.022,32.206a13.288,13.288,0,0,0-4.049-1.341,25.542,25.542,0,0,0-4.393-.383A20.912,20.912,0,0,1,9,30.177a9.259,9.259,0,0,1-3.117-1.085,6,6,0,0,1-2.171-2.107,6.4,6.4,0,0,1-.83-3.436,6,6,0,0,1,.855-3.141,6.683,6.683,0,0,1,2.133-2.1,9.835,9.835,0,0,1,3.039-1.163,17.24,17.24,0,0,1,6.029-.192,11.419,11.419,0,0,1,2.375.6A8.553,8.553,0,0,1,19.425,18.7a7.023,7.023,0,0,1,1.661,1.75l.255.383,1.941-.817-.408-.589a22.011,22.011,0,0,0-1.75-2,5.467,5.467,0,0,0-2.236-1.494,14.258,14.258,0,0,0-2.835-.895,19.592,19.592,0,0,0-3.576-.153,18.263,18.263,0,0,0-3.972.447A12.516,12.516,0,0,0,4.75,16.792a8.3,8.3,0,0,0-2.809,2.72,7.8,7.8,0,0,0-1.1,4.176,8.56,8.56,0,0,0,1.02,4.342,9.116,9.116,0,0,0,2.554,2.784,11.234,11.234,0,0,0,3.767,1.444,21.883,21.883,0,0,0,4.29.421,26.88,26.88,0,0,1,3.679.268,10.986,10.986,0,0,1,3.423,1.021,6.9,6.9,0,0,1,2.49,2.056A5.474,5.474,0,0,1,23.01,39.4a5.574,5.574,0,0,1-.895,3.191,7.4,7.4,0,0,1-2.4,2.171A11.6,11.6,0,0,1,16.366,46a17.878,17.878,0,0,1-3.666.4,16.361,16.361,0,0,1-5.837-1.125,12.916,12.916,0,0,1-4.957-3.322l-.383-.383L0,42.908l.434.434a19.8,19.8,0,0,0,5.108,3.6A15.721,15.721,0,0,0,12.7,48.477a20.313,20.313,0,0,0,4.074-.434,13.4,13.4,0,0,0,4-1.507,9.706,9.706,0,0,0,3.066-2.773,7.413,7.413,0,0,0,1.227-4.316,6.9,6.9,0,0,0-1.278-4.342,9.325,9.325,0,0,0-3-2.707M39.327,46.677a9.5,9.5,0,0,1-3.832-.855,9.835,9.835,0,0,1-3-2.337,10.855,10.855,0,0,1-2-3.411,12.778,12.778,0,0,1-.817-3.985,11.468,11.468,0,0,1,2.656-7.215A10.432,10.432,0,0,1,35.406,26.4a8.174,8.174,0,0,1,3.908-.946,8.3,8.3,0,0,1,3.768.881,7.8,7.8,0,0,1,3.066,2.363,10.855,10.855,0,0,1,2.044,3.41,10.691,10.691,0,0,1,.077,7.752A11.062,11.062,0,0,1,46.3,43.278a10.018,10.018,0,0,1-3.066,2.452,8.368,8.368,0,0,1-3.921.919m8.531-19.387a12.906,12.906,0,0,0-3.678-2.937,10.214,10.214,0,0,0-4.853-1.278,10.6,10.6,0,0,0-4.572,1.02,13.667,13.667,0,0,0-3.832,2.758,10.743,10.743,0,0,0-2.49,4.049,13.191,13.191,0,0,0-.077,9.477,13.4,13.4,0,0,0,2.375,4A12.006,12.006,0,0,0,34.4,47.211a10.986,10.986,0,0,0,4.776,1.15H39.2a10.436,10.436,0,0,0,4.6-1.1,15.108,15.108,0,0,0,3.832-2.786,11.009,11.009,0,0,0,2.465-4,12.974,12.974,0,0,0,.895-4.751,13.579,13.579,0,0,0-.817-4.534,8.859,8.859,0,0,0-2.324-3.934M61.9,45.906,61,46.1l-.868.128a6,6,0,0,1-.844.064,1.782,1.782,0,0,1-1.533-.689,2.561,2.561,0,0,1-.575-1.569V14.081H55.14V44.03a4.473,4.473,0,0,0,1.061,2.95,3.8,3.8,0,0,0,3.066,1.3,9.534,9.534,0,0,0,1.214-.077H61.5l1.072-.2.689-.166-.895-1.916-.46.128Zm8.94-20.638A12.189,12.189,0,0,0,68.026,28.1V23.556h-2.3V48.078h2.044V32.816a12.385,12.385,0,0,1,1.163-2.784A9.063,9.063,0,0,1,70.747,27.8,8.72,8.72,0,0,1,76.3,25.638h.549V23.556h-.575a9.7,9.7,0,0,0-5.709,1.7" transform="translate(0 4.335)"/>
    <path id="Path_93" data-name="Path 93" d="M83.326,5.594,66.363,23.907,87.537,14.1A17.4,17.4,0,0,0,83.2,5.605ZM70.758.14a17.5,17.5,0,0,0-6.641,1.316L61.843,20.613,73.337.179A15.9,15.9,0,0,0,70.871,0ZM87.846,15.134,67.666,26.425l18.928-2.249A19.928,19.928,0,0,0,88,17.368a16.6,16.6,0,0,0-.153-2.249ZM80.4,31.663A17.455,17.455,0,0,0,85.853,25.7L67.985,29.222ZM74.243.5,64.369,21.762,82.7,4.816A17.282,17.282,0,0,0,74.269.345ZM72.212,34.56a17.106,17.106,0,0,0,5.416-1.354l-9.937-1.174,4.534,2.529ZM55.06,10.293A17.1,17.1,0,0,0,53.6,15.835l2.554,4.789Zm7.585-8.122A16.311,16.311,0,0,0,56.566,7.6l2.5,12.581Z" transform="translate(16.501 0)"/>
  </g>
</svg>
