<svg xmlns="http://www.w3.org/2000/svg" width="143.289" height="55" viewBox="0 0 143.289 55">
  <g id="Group_31" data-name="Group 31" transform="translate(-1357.781 -5672)">
    <g id="Vuejs" transform="translate(1395.894 5584)">
      <path id="Path_132" data-name="Path 132" d="M32.383,97.953a2.129,2.129,0,0,0-1.176.353,1.422,1.422,0,0,0-.682,1.161.806.806,0,0,0,.094.49l-.035-.085,7.147,23.189a1.638,1.638,0,0,0,.78.958,2.237,2.237,0,0,0,1.091.264,1.9,1.9,0,0,0,1.9-1.213v0l7.141-23.276v-.085c0,.117.035.05.035-.2a1.43,1.43,0,0,0-.7-1.163,2.192,2.192,0,0,0-1.228-.385,1.466,1.466,0,0,0-1.383.963l0,.007L39.6,118.161l-5.786-19.2a1.306,1.306,0,0,0-.586-.791,1.627,1.627,0,0,0-.845-.213Zm56.927,1.2a1.978,1.978,0,1,0,2.03,1.962A2.007,2.007,0,0,0,89.31,99.149Zm-16.758,7.424a7.023,7.023,0,0,0-7.093,6.853v3.833a6.68,6.68,0,0,0,2.252,5.131,8.487,8.487,0,0,0,5.662,1.925,8.733,8.733,0,0,0,4.016-.884,4.3,4.3,0,0,0,1.169-.852,1.576,1.576,0,0,0,.5-1.078,1.629,1.629,0,0,0-.394-1.034,1.45,1.45,0,0,0-1.122-.584,1.619,1.619,0,0,0-.869.3c-.238.146-.461.307-.73.462a4.651,4.651,0,0,1-2.507.61,5.216,5.216,0,0,1-3.371-1.069,3.5,3.5,0,0,1-1.272-2.82v-.71h7.176a4.2,4.2,0,0,0,2.352-.468,3.129,3.129,0,0,0,1.182-2.825,6.858,6.858,0,0,0-6.956-6.786Zm26.968,0a6.158,6.158,0,0,0-4.565,1.675,5.06,5.06,0,0,0-1.4,3.537,4.146,4.146,0,0,0,1.531,3.391,9.054,9.054,0,0,0,3.09,1.4,12.816,12.816,0,0,1,2.774,1.03,1.9,1.9,0,0,1,1.054,1.845,1.5,1.5,0,0,1-.577,1.267,3.81,3.81,0,0,1-2.389.6,5.005,5.005,0,0,1-2.835-.719c-.293-.181-.53-.37-.773-.538a1.543,1.543,0,0,0-.906-.351,1.259,1.259,0,0,0-1.017.584,1.723,1.723,0,0,0-.329,1,1.794,1.794,0,0,0,.531,1.193,4.394,4.394,0,0,0,1.25.919,9.1,9.1,0,0,0,4.149.908A6.879,6.879,0,0,0,103.525,123a4.584,4.584,0,0,0,1.651-3.652,4.728,4.728,0,0,0-1.514-3.693,8.186,8.186,0,0,0-3.123-1.544,19.134,19.134,0,0,1-2.822-.954c-.7-.364-1.026-.7-1.026-1.472a1.935,1.935,0,0,1,.592-1.359,3.094,3.094,0,0,1,2.271-.751,5.474,5.474,0,0,1,2.154.436c.274.112.512.229.738.327a1.716,1.716,0,0,0,.734.194,1.383,1.383,0,0,0,1.132-.688,1.816,1.816,0,0,0,.348-1.032,1.339,1.339,0,0,0-.614-1.05,4.459,4.459,0,0,0-1.2-.618,10.009,10.009,0,0,0-3.332-.566Zm-48.9.207a1.54,1.54,0,0,0-1.686,1.411v9.136a7.059,7.059,0,0,0,14.116,0v-9.168a1.3,1.3,0,0,0-.538-1.021,1.827,1.827,0,0,0-1.115-.357,1.9,1.9,0,0,0-1.124.351,1.292,1.292,0,0,0-.562,1.028v9.168a3.721,3.721,0,1,1-7.439,0v-9.136a1.3,1.3,0,0,0-.536-1.015,1.774,1.774,0,0,0-1.117-.4Zm38.692,0a1.841,1.841,0,0,0-1.126.344,1.321,1.321,0,0,0-.525,1.034V124.99a8.347,8.347,0,0,1-.366,2.964c-.277.641-.6.926-1.54.926a1.567,1.567,0,0,0-1.516,1.585,1.526,1.526,0,0,0,.409,1.061,1.743,1.743,0,0,0,1.276.488,4.473,4.473,0,0,0,3.948-2.069A9.275,9.275,0,0,0,91,124.99V108.158a1.309,1.309,0,0,0-.568-1.045,1.921,1.921,0,0,0-1.119-.333Zm-16.793,2.757a3.741,3.741,0,0,1,3.72,3.752,1.394,1.394,0,0,1-.044.4c-.021.061-.019.054-.05.074a2.846,2.846,0,0,1-1.061.128H68.8v-.743a3.672,3.672,0,0,1,3.72-3.615Zm10.606,10.449a2.149,2.149,0,1,0,2.1,2.165A2.148,2.148,0,0,0,83.124,119.986Z"/>
    </g>
    <g id="Group_31-2" data-name="Group 31" transform="translate(-129 114)">
      <path id="Subtraction_18" data-name="Subtraction 18" d="M18.707,32.2v0h0L0,0H11.741l6.908,11.467L25.534,0H37.268L18.708,32.2Z" transform="translate(1500.287 5558)"/>
      <path id="Subtraction_19" data-name="Subtraction 19" d="M32.2,55h0L0,.026,3.838,0H12.8L32.2,33.385,51.45,0h12.8L32.2,55Z" transform="translate(1486.781 5558)"/>
    </g>
  </g>
</svg>
