<svg id="wordpress" xmlns="http://www.w3.org/2000/svg" width="139.986" height="31.762" viewBox="0 0 139.986 31.762">
  <path id="Path_85" data-name="Path 85" d="M175.61,39.43H170.1v.585c1.723,0,2,.369,2,2.555V46.51c0,2.186-.277,2.586-2,2.586-1.323-.185-2.216-.893-3.448-2.248l-1.416-1.539c1.908-.339,2.924-1.539,2.924-2.894,0-1.693-1.447-2.986-4.156-2.986h-5.418v.585c1.723,0,2,.369,2,2.555V46.51c0,2.186-.277,2.586-2,2.586v.585h6.126V49.1c-1.724,0-2-.4-2-2.586V45.4h.523l3.417,4.279h8.958c4.4,0,6.311-2.339,6.311-5.141S180.013,39.43,175.61,39.43Zm-12.9,5.017V40.353h1.262a2.048,2.048,0,0,1,0,4.094ZM175.7,48.727h-.216c-1.108,0-1.262-.277-1.262-1.693v-6.68H175.7c3.2,0,3.786,2.339,3.786,4.156C179.489,46.387,178.9,48.727,175.7,48.727Zm-34.263-3.14,2.124-6.281c.616-1.816.339-2.339-1.631-2.339v-.616h5.787v.616c-1.939,0-2.4.461-3.171,2.709L141.04,50.2h-.4l-3.14-9.636L134.3,50.2h-.4l-3.417-10.528c-.739-2.247-1.231-2.709-3.017-2.709v-.616H134.3v.616c-1.816,0-2.309.431-1.662,2.339l2.062,6.281,3.109-9.236h.585l3.048,9.235Zm10.466,4.494c-3.386,0-6.157-2.493-6.157-5.541,0-3.017,2.771-5.511,6.157-5.511s6.157,2.494,6.157,5.511C158.063,47.587,155.293,50.081,151.907,50.081Zm0-10.1c-2.832,0-3.817,2.554-3.817,4.556,0,2.032.985,4.556,3.817,4.556,2.863,0,3.849-2.524,3.849-4.556C155.755,42.538,154.77,39.984,151.907,39.984Z" transform="translate(-94.421 -26.928)"/>
  <path id="Path_86" data-name="Path 86" d="M346.72,49.064v.616h-7.05v-.616c2.063,0,2.432-.523,2.432-3.6V40.537c0-3.079-.37-3.571-2.432-3.571V36.35h6.372c3.171,0,4.926,1.632,4.926,3.818,0,2.124-1.755,3.786-4.926,3.786h-1.755v1.508c0,3.079.369,3.6,2.432,3.6Zm-.677-11.606h-1.755v5.357h1.755a2.406,2.406,0,0,0,2.524-2.647A2.44,2.44,0,0,0,346.042,37.458Zm26.074,9.328-.154.554c-.277,1.016-.616,1.385-2.8,1.385h-.431c-1.6,0-1.878-.369-1.878-2.555V44.755c2.4,0,2.586.215,2.586,1.816h.585V41.984h-.585c0,1.6-.185,1.816-2.586,1.816V40.353h1.693c2.186,0,2.524.369,2.8,1.385l.155.585h.492l-.215-2.894h-9.051v.585c1.724,0,2,.369,2,2.555v3.941c0,2-.235,2.5-1.594,2.575-1.292-.2-2.179-.9-3.392-2.237l-1.416-1.539c1.908-.339,2.925-1.539,2.925-2.894,0-1.693-1.447-2.986-4.156-2.986h-5.418v.585c1.724,0,2,.369,2,2.555v3.941c0,2.186-.277,2.586-2,2.586v.585H357.8V49.1c-1.723,0-2-.4-2-2.586V45.4h.523l3.417,4.279h12.652l.185-2.893h-.462ZM355.8,44.446V40.353h1.262a2.048,2.048,0,0,1,0,4.094Zm22.564,5.634a4.551,4.551,0,0,1-2.771-1.047,2.209,2.209,0,0,0-.492,1.047h-.585V45.832h.616a3.416,3.416,0,0,0,3.479,3.232,1.585,1.585,0,0,0,1.786-1.477c0-.8-.708-1.416-1.97-2l-1.755-.831a3.35,3.35,0,0,1-2.155-2.956,3.023,3.023,0,0,1,3.294-2.74,3.855,3.855,0,0,1,2.4.8,1.739,1.739,0,0,0,.4-.832h.585v3.633h-.647c-.216-1.447-1.016-2.648-2.647-2.648-.862,0-1.662.492-1.662,1.262,0,.8.646,1.231,2.124,1.908l1.693.831a3.212,3.212,0,0,1,2.062,2.771A3.476,3.476,0,0,1,378.365,50.08Zm9.481,0a4.55,4.55,0,0,1-2.771-1.047,2.209,2.209,0,0,0-.492,1.047H384V45.832h.616a3.416,3.416,0,0,0,3.479,3.232,1.585,1.585,0,0,0,1.786-1.477c0-.8-.708-1.416-1.97-2l-1.755-.831A3.35,3.35,0,0,1,384,41.8a3.023,3.023,0,0,1,3.294-2.74,3.856,3.856,0,0,1,2.4.8,1.737,1.737,0,0,0,.4-.832h.585v3.633h-.646c-.216-1.447-1.016-2.648-2.647-2.648-.862,0-1.663.492-1.663,1.262,0,.8.647,1.231,2.124,1.908l1.693.831a3.212,3.212,0,0,1,2.062,2.771A3.477,3.477,0,0,1,387.847,50.08Z" transform="translate(-251.616 -26.927)"/>
  <g id="Group_25" data-name="Group 25">
    <path id="Path_87" data-name="Path 87" d="M8.708,22.331a13.627,13.627,0,0,0,7.678,12.261l-6.5-17.806a13.572,13.572,0,0,0-1.18,5.544Zm22.821-.687a7.173,7.173,0,0,0-1.124-3.757,6.377,6.377,0,0,1-1.338-3.195,2.359,2.359,0,0,1,2.288-2.418c.06,0,.118.008.177.011a13.62,13.62,0,0,0-20.583,2.564c.319.01.621.016.877.016,1.425,0,3.631-.173,3.631-.173a.563.563,0,0,1,.087,1.122s-.738.087-1.559.13L18.946,30.7l2.981-8.942L19.8,15.944c-.734-.043-1.429-.13-1.429-.13a.563.563,0,0,1,.086-1.122s2.25.173,3.589.173c1.424,0,3.631-.173,3.631-.173a.563.563,0,0,1,.087,1.122s-.74.087-1.56.13l4.923,14.645,1.359-4.541A16.45,16.45,0,0,0,31.529,21.644Z" transform="translate(-6.451 -6.451)"/>
    <path id="Path_88" data-name="Path 88" d="M50.5,43.774,46.415,55.652a13.627,13.627,0,0,0,8.373-.217,1.2,1.2,0,0,1-.1-.188Zm11.715-7.728a10.413,10.413,0,0,1,.092,1.4,12.851,12.851,0,0,1-1.036,4.88L57.112,54.358a13.626,13.626,0,0,0,5.106-18.312Z" transform="translate(-34.383 -26.702)"/>
    <path id="Path_89" data-name="Path 89" d="M15.881,0A15.881,15.881,0,1,0,31.763,15.881,15.9,15.9,0,0,0,15.881,0Zm0,31.034A15.153,15.153,0,1,1,31.033,15.881,15.171,15.171,0,0,1,15.881,31.034Z"/>
  </g>
</svg>
