<svg xmlns="http://www.w3.org/2000/svg" width="24" height="30" viewBox="0 0 24 30">
  <g id="iconfinder_3-User-2_3900044" transform="translate(-5 -1)">
    <path id="Path_1" data-name="Path 1" d="M21.75,15.67A6,6,0,0,0,24,11V6a5,5,0,0,0-5-5H15a5,5,0,0,0-5,5v5a6,6,0,0,0,2.25,4.67A11,11,0,0,0,5,26v2a3,3,0,0,0,3,3H26a3,3,0,0,0,3-3V26a11,11,0,0,0-7.25-10.33ZM12,11V6a3,3,0,0,1,3-3h4a3,3,0,0,1,3,3v5c0,2.209-.694,3.966-5,4S12,13.209,12,11ZM27,28a1,1,0,0,1-1,1H8a1,1,0,0,1-1-1V26c0-4.971,2.712-9.047,10-9s10,4.029,10,9Z"/>
  </g>
</svg>
