<svg id="_2748335332784" xmlns="http://www.w3.org/2000/svg" width="106.03" height="84.746" viewBox="0 0 106.03 84.746">
  <path id="Path_165" data-name="Path 165" d="M1517.887,356.54h-76.209c-5.934,0-7.5-6.455-3.956-9.474a5.664,5.664,0,0,1,3.956-1.353h76.209C1525.7,345.713,1525.7,356.54,1517.887,356.54ZM1432.1,337.176c0-3.54-.521-6.455,3.332-6.455,3.019,0,5.518,5.726,13.222,5.726a14.1,14.1,0,0,0,7.392-2.082c5.935-4.06,3.228-3.644,10.412-3.644,1.562,0,4.685,2.707,5.83,3.54a13.977,13.977,0,0,0,14.888.1c5.83-4.06,3.123-3.644,10.411-3.644,3.123,0,5.205,5.726,13.742,5.726,7.392,0,9.058-5.726,13.535-5.726,3.019,0,2.5,4.164,2.5,6.455,0,1.874-.937,3.332-2.707,3.332h-89.744C1433.141,340.507,1432.1,339.05,1432.1,337.176Zm78.813-5.934c-3.853,0-5.1-1.978-7.393-3.54-5.206-3.54-11.139-3.852-16.241,0-2.083,1.562-3.957,3.54-7.5,3.54-6.039,0-7.5-6.351-15.513-6.351-8.33,0-9.474,6.351-15.617,6.351-4.269,0-5.414-2.6-9.162-4.685-.729-.416-1.25-.521-1.875-.833-1.874-.937-1.77-1.249-1.77-3.748,1.562.1,2.707,1.978,7.6,1.978h72.669a12.122,12.122,0,0,0,7.5-2.29c0,4.06.417,2.915-3.019,4.685C1516.43,328.43,1515.285,331.242,1510.912,331.242Zm-32.9-48.932c13.95,0,32.274,2.29,41.228,14.263,4.061,5.518,8.953,22.071-3.332,22.071h-72.254c-7.7,0-8.745-6.455-7.392-12.91,1.146-5.1,2.6-7.288,5.414-10.932a16.69,16.69,0,0,1,2.811-2.6C1451.048,286.266,1465.519,282.31,1478.013,282.31Zm-47.684,40.915a10.515,10.515,0,0,0,.833,3.227c-4.893,1.249-6.246,13.743-1.249,17.49a5.3,5.3,0,0,0,2.186,1.249c-.1.833-.208.729-.521,1.249-.208.416-.312.729-.52,1.249a10.385,10.385,0,0,0,.937,8.953,10.94,10.94,0,0,0,9.682,5.1h76.209a10.637,10.637,0,0,0,9.579-5.1,10.267,10.267,0,0,0,1.041-8.745c-.417-1.145-.833-1.666-1.146-2.707a6.805,6.805,0,0,0,3.748-2.811c2.708-3.331,2.395-14.575-2.707-15.929,1.041-2.082.729-5.31-.312-7.5-.625-1.145-.833-.937-.312-2.082,2.811-6.038.625-14.679-2.291-20.406a26.8,26.8,0,0,0-5.622-7.08c-8.433-8.537-25.715-12.389-38.313-12.389-12.805,0-22.7,1.458-33.627,6.559-1.146.625-2.6,1.562-3.749,2.29-6.351,4.164-10.932,9.891-12.805,17.491-2.812,11.764,1.458,13.014.416,14.992a5.918,5.918,0,0,0-.52.937Z" transform="translate(-1426.766 -277)" fill-rule="evenodd"/>
  <path id="Path_166" data-name="Path 166" d="M1837,371.946a3.147,3.147,0,0,0,2.638,2.638c.989,0,4.066-1.209,5.056-1.539.989-.44,3.737-.989,3.737-3.187a2.8,2.8,0,0,0-2.638-2.858c-1.1,0-4.177,1.209-5.276,1.539C1838.869,369.2,1837,369.748,1837,371.946Z" transform="translate(-1794.561 -357.109)" fill-rule="evenodd"/>
  <path id="Path_167" data-name="Path 167" d="M1678,397.265a2.905,2.905,0,0,0,2.638,3.187c1.868,0,2.747-1.539,3.626-2.748.66-.659,2.528-2.857,2.528-3.847a2.742,2.742,0,0,0-2.967-2.858c-1.759,0-2.528,1.539-3.407,2.638C1679.869,394.3,1678,396.5,1678,397.265Z" transform="translate(-1651.968 -378.471)" fill-rule="evenodd"/>
  <path id="Path_168" data-name="Path 168" d="M1945.087,463.323c1.978,0,2.418-.769,3.3-2.748s1.43-3.187,1.43-4.946c0-2.528-3.737-3.407-5.166-.879-.549,1.1-2.308,5.385-1.978,6.484A2.483,2.483,0,0,0,1945.087,463.323Z" transform="translate(-1889.127 -435.02)" fill-rule="evenodd"/>
  <path id="Path_169" data-name="Path 169" d="M2006,359.858c0,.879,1.648,2.967,2.2,3.627.769.989,1.758,2.748,3.3,2.748a2.9,2.9,0,0,0,2.968-2.638c0-1.539-1.429-2.858-2.2-3.847-1.1-1.429-1.647-2.748-3.626-2.748A2.8,2.8,0,0,0,2006,359.858Z" transform="translate(-1945.97 -348.208)" fill-rule="evenodd"/>
  <path id="Path_170" data-name="Path 170" d="M2095,431.214a2.962,2.962,0,0,0,2.417,3.187c2.2,0,6.046-4.176,6.046-5.825a2.84,2.84,0,0,0-4.727-2.088C2097.749,427.367,2095,429.785,2095,431.214Z" transform="translate(-2025.746 -410.406)" fill-rule="evenodd"/>
  <path id="Path_171" data-name="Path 171" d="M1777,462.418c0,1.978,2.638,6.155,4.506,6.155a2.8,2.8,0,0,0,2.857-2.967c0-.769-2.308-5.605-4.506-5.605C1778.319,460,1777,460.769,1777,462.418Z" transform="translate(-1740.679 -441.06)" fill-rule="evenodd"/>
</svg>
