<svg xmlns="http://www.w3.org/2000/svg" width="24" height="24" viewBox="0 0 24 24">
  <g id="Group_65" data-name="Group 65" transform="translate(-1138 -282)">
    <g id="iconfinder_shopping-cart_2561279" transform="translate(1138 282)">
      <circle id="Ellipse_1" data-name="Ellipse 1" cx="2" cy="2" r="2" transform="translate(6 19)" stroke-width="2" stroke="#FEC804" stroke-linecap="round" stroke-linejoin="round" fill="none"/>
      <circle id="Ellipse_2" data-name="Ellipse 2" cx="2" cy="2" r="2" transform="translate(18 19)" stroke-width="2" stroke="#FEC804" stroke-linecap="round" stroke-linejoin="round" fill="none"/>
      <path id="Path_2" data-name="Path 2" d="M5.67,6H23l-1.68,8.39a2,2,0,0,1-2,1.61H8.75a2,2,0,0,1-2-1.74L5.23,2.74A2,2,0,0,0,3.25,1H1" fill="none" stroke="#FEC804" stroke-linecap="round" stroke-linejoin="round" stroke-width="2"/>
    </g>
    <path id="Path_60" data-name="Path 60" d="M14.387,22.749l3.554-3.554,1.672,1.672L21,19.479,17.941,16.42,13,21.361Z" transform="translate(1169.78 312.485) rotate(180)" fill="#FEC804"/>
  </g>
</svg>
