<svg id="Layer_x0020_1" xmlns="http://www.w3.org/2000/svg" width="106.03" height="95.182" viewBox="0 0 106.03 95.182">
  <path id="Path_189" data-name="Path 189" d="M1505.96,651.854c.653-1.306,1.306-5.224,1.632-7.183a52.805,52.805,0,0,0,.653-8.978c10.937,0,9.3-2.122,9.3,13.059,0,3.591-2.285,3.1-4.081,3.1Zm-76.067-17.466a50.417,50.417,0,0,1,.489-7.346h72.8l.164,8.325a59.961,59.961,0,0,1-2.938,17.956c-.327.816-.653,1.469-.979,2.285-.49.979-.653,1.632-1.143,2.449a37.539,37.539,0,0,1-5.876,8c-1.306,1.306-6.693,5.387-8.651,5.387h-34.279c-1.958,0-7.019-3.918-8.652-5.551a34.213,34.213,0,0,1-6.039-8.161C1431.362,650.874,1429.893,642.386,1429.893,634.387Zm78.026-7.346c6.692,0,11.589-.98,15.507,3.754,3.591,4.244,2.612,10.937,2.612,17.466,0,4.9-2.122,9.468-6.53,11.263-3.59,1.469-12.568.816-16.976.816a12.052,12.052,0,0,0,1.633-3.591c7.182,0,14.038.816,16.65-2.775a7.708,7.708,0,0,0,1.632-5.223c0-4.9.816-12.569-1.795-15.507-2.938-3.428-6.2-2.449-12.406-2.449Zm-41.951-4.9c.49-1.632,4.407-4.244,6.04-5.06,5.876-2.938,12.9-2.612,18.772-.163,1.8.816,5.876,3.591,6.366,5.223Zm-6.2,0c-8.325.163-15.833.163-25.791,0,.164-5.55,6.04-11.426,11.916-12.9,2.938-.653,1.8.163,2.122-4.081.327-4.571,2.775-7.019,6.529-8.815a15.366,15.366,0,0,1,2.449-.98c.163,5.877,3.918,8.488,8.978,9.3,3.754.653,9.141.327,12.079,4.081.653.653.816.653.816,1.632C1470.375,610.392,1464.009,615.941,1459.764,622.144Zm-16.65-16.976c-1.958.163-4.9,2.122-6.365,3.265-3.918,3.265-7.672,8.325-7.672,13.712-4.244,2.286-4.081,4.9-4.081,11.917,0,10.61,2.612,23.669,9.141,31.831a43.727,43.727,0,0,0,8.651,7.835c1.143.653,4.407,2.612,5.713,2.612h36.564c2.286,0,9.3-5.224,11.59-7.509l2.775-3.591h12.242c5.224,0,6.856.163,10.61-1.632a14.413,14.413,0,0,0,6.2-5.876c3.265-5.224,2.448-11.59,2.448-18.446,0-8-3.591-13.549-10.12-16.16-3.1-1.143-13.059-.98-17.466-.98-1.959-2.938-4.082-5.876-7.509-8-3.1-1.8-7.672-3.754-11.59-3.754-1.306-5.877-7.182-9.3-12.9-10.121-3.1-.327-7.509-.163-8.815-2.449-.979-1.632-.489-2.775-.163-4.408a2.054,2.054,0,0,0-.326-2.122c-2.286-3.754-12.243,1.632-13.711,2.938C1445.726,596.68,1443.114,600.434,1443.114,605.168ZM1425,674.87c0,9.467,29.219,10.12,41.3,10.284,7.182.164,41.788-1.143,41.951-9.794,0-2.612-.816-3.754-3.265-5.223a27.007,27.007,0,0,0-5.55-1.959,31.078,31.078,0,0,0-1.143,4.571c1.306.326,6.04,1.632,4.9,2.285-10.12,5.55-28.077,5.55-37.544,5.387-12.079.163-23.668-.163-32.81-3.754-.816-.326-2.285-.816-2.449-2.122.164-.489,3.1-1.8,5.061-2.122a26.693,26.693,0,0,0-1.143-4.571C1432.831,668.5,1425,669.973,1425,674.87Zm8.978-38.035a39.9,39.9,0,0,0,6.692,22.69,4.456,4.456,0,0,0,2.123-1.143,5.768,5.768,0,0,1,2.122-1.306,30.068,30.068,0,0,1-4.734-10.61,37.305,37.305,0,0,1-.979-6.366c-.816-7.835,1.469-6.856-5.224-6.856Zm9.794,26.118c.816,1.143,4.081,3.755,5.713,4.081a12.3,12.3,0,0,0,2.122-4.408c-1.632-.326-3.591-2.448-4.407-3.1Z" transform="translate(-1424.995 -589.984)" fill-rule="evenodd"/>
</svg>
