<svg xmlns="http://www.w3.org/2000/svg" width="25.506" height="25.624" viewBox="0 0 25.506 25.624">
  <g id="iconfinder_phone1_172517" transform="translate(0.506 0.624)">
    <rect id="Rectangle_385" data-name="Rectangle 385" width="23.757" height="23.757" fill="none"/>
    <path id="Path_2820" data-name="Path 2820" d="M15.307,17.773s1.983-1.135,2.5-1.408a1.488,1.488,0,0,1,1.379-.144c.493.3,4.634,3.056,4.983,3.3a1.18,1.18,0,0,1,.037,1.626c-.477.684-2.68,3.387-3.613,3.358s-4.822-.116-12.151-7.447S1.03,5.842,1,4.907,3.673,1.769,4.357,1.291a1.2,1.2,0,0,1,1.626.038c.276.382,3,4.51,3.3,4.983a1.472,1.472,0,0,1-.144,1.38c-.272.519-1.407,2.5-1.407,2.5a24.316,24.316,0,0,0,3.506,4.07A24.431,24.431,0,0,0,15.307,17.773Z" transform="translate(-0.505 -0.505)" fill="none" stroke="#333" stroke-miterlimit="10" stroke-width="2"/>
  </g>
</svg>
