<svg xmlns="http://www.w3.org/2000/svg" width="26.355" height="21.414" viewBox="0 0 26.355 21.414">
  <g id="iconfinder_Appliances-38_976619" transform="translate(0 -3)">
    <path id="Path_2829" data-name="Path 2829" d="M25.12,9.589h-7V3H3.294V9.589H1.235A1.235,1.235,0,0,0,0,10.824V23.178a1.235,1.235,0,0,0,1.235,1.235H25.12a1.235,1.235,0,0,0,1.235-1.235V10.824A1.235,1.235,0,0,0,25.12,9.589ZM2.471,18.648H18.943V23.59H2.471Zm17.3-8.236h4.118V23.59H19.766ZM4.118,3.824H17.3V9.589H4.118Zm14,6.589h.824v7.412H2.471V10.412ZM.824,23.178V10.824a.412.412,0,0,1,.412-.412h.412V23.59H1.235A.412.412,0,0,1,.824,23.178Zm24.708,0a.412.412,0,0,1-.412.412h-.412V10.412h.412a.412.412,0,0,1,.412.412Z" fill="#333"/>
    <rect id="Rectangle_386" data-name="Rectangle 386" width="6" transform="translate(5.355 5)" fill="#333"/>
    <rect id="Rectangle_387" data-name="Rectangle 387" width="10" height="1" transform="translate(5.355 6)" fill="#333"/>
    <rect id="Rectangle_388" data-name="Rectangle 388" width="5" height="1" transform="translate(5.355 8)" fill="#333"/>
    <rect id="Rectangle_389" data-name="Rectangle 389" width="3" height="1" transform="translate(20.355 21)" fill="#333"/>
    <rect id="Rectangle_390" data-name="Rectangle 390" width="3" height="1" transform="translate(20.355 19)" fill="#333"/>
    <rect id="Rectangle_391" data-name="Rectangle 391" width="3" height="1" transform="translate(20.355 18)" fill="#333"/>
    <circle id="Ellipse_9" data-name="Ellipse 9" cx="0.824" cy="0.824" r="0.824" transform="translate(21.002 12.06)" fill="#333"/>
  </g>
</svg>
