<svg xmlns="http://www.w3.org/2000/svg" width="24" height="15.6" viewBox="0 0 24 15.6">
  <g id="Outline" transform="translate(-2 -11)">
    <g id="Group_85" data-name="Group 85" transform="translate(2 11)">
      <path id="Path_113" data-name="Path 113" d="M23.6,11H4.4A2.4,2.4,0,0,0,2,13.4V24.2a2.4,2.4,0,0,0,2.4,2.4H23.6A2.4,2.4,0,0,0,26,24.2V13.4A2.4,2.4,0,0,0,23.6,11Zm-2.264,2.4L14,17.985,6.664,13.4ZM4.4,24.2V14.815l8.964,5.6a1.2,1.2,0,0,0,1.272,0l8.964-5.6V24.2Z" transform="translate(-2 -11)" fill="#333"/>
    </g>
  </g>
</svg>
