<svg id="iconfinder_phone1_172517" xmlns="http://www.w3.org/2000/svg" width="122.503" height="122.499" viewBox="0 0 122.503 122.499">
  <rect id="Rectangle_385" data-name="Rectangle 385" width="118.542" height="118.542" fill="none"/>
  <path id="Path_2820" data-name="Path 2820" d="M72.237,84.512s9.872-5.652,12.457-7.01,5.247-1.707,6.868-.717c2.455,1.5,23.072,15.217,24.808,16.431s2.572,4.691.185,8.095-13.344,16.862-17.991,16.719-24.006-.575-60.5-37.077S1.149,25.106,1,20.451s13.31-15.621,16.714-18,6.888-1.482,8.1.19c1.375,1.9,14.931,22.456,16.424,24.811,1.022,1.609.646,4.294-.717,6.873s-7.007,12.457-7.007,12.457,3.984,6.8,17.457,20.266S72.237,84.512,72.237,84.512Z" transform="translate(1.968 1.969)" fill="none" stroke="#fec804" stroke-miterlimit="10" stroke-width="5"/>
</svg>
