<svg xmlns="http://www.w3.org/2000/svg" width="17.875" height="26" viewBox="0 0 17.875 26">
  <g id="iconfinder_phone_115698" transform="translate(-5)">
    <path id="Path_11" data-name="Path 11" d="M20.438,0h-13A2.437,2.437,0,0,0,5,2.438V23.563A2.437,2.437,0,0,0,7.437,26h13a2.438,2.438,0,0,0,2.437-2.437V2.438A2.437,2.437,0,0,0,20.438,0Zm.812,23.563a.814.814,0,0,1-.812.813h-13a.812.812,0,0,1-.812-.812V21.934H21.25Zm0-2.441H6.625V4.875H21.25Zm0-17.059H6.625V2.438a.813.813,0,0,1,.813-.812h13a.813.813,0,0,1,.812.813Z" transform="translate(0)" fill="#333"/>
    <path id="Path_12" data-name="Path 12" d="M17.312,3.414a.415.415,0,0,1-.414.414H14.414A.414.414,0,0,1,14,3.414h0A.413.413,0,0,1,14.414,3H16.9a.414.414,0,0,1,.414.414Z" transform="translate(-1.719 -0.516)" fill="#333"/>
    <path id="Path_13" data-name="Path 13" d="M16.656,28.41a.415.415,0,0,1-.414.414h-.828A.415.415,0,0,1,15,28.41h0A.414.414,0,0,1,15.414,28h.828a.414.414,0,0,1,.414.414Z" transform="translate(-1.891 -5.312)" fill="#333"/>
  </g>
</svg>
