<svg xmlns="http://www.w3.org/2000/svg" width="111.111" height="120" viewBox="0 0 111.111 120">
  <g id="Page-1" transform="translate(-4 -3)">
    <g id="icon-5-mail-envelope-open" transform="translate(4 3)">
      <path id="mail-envelope-open" d="M60.97,87.4l-7.541.04H68.444l.088-.079h0l-.441,0L97.333,61.222V25.26a4.484,4.484,0,0,0-4.444-4.483H26.222a4.435,4.435,0,0,0-4.444,4.454V61.666l29.115,25.69L60.97,87.4ZM44.4,16.333,59.555,3,74.707,16.333H92.9a8.873,8.873,0,0,1,8.877,8.887V40.155l13.333,11.733v62.248a8.889,8.889,0,0,1-8.9,8.863H12.9A8.863,8.863,0,0,1,4,114.137V51.889L17.333,40.155V25.22a8.86,8.86,0,0,1,8.877-8.887Zm23.719,0L59.555,8.778l-8.568,7.556ZM101.777,46.01l6.667,5.879-6.667,5.926V46.01Zm-84.444,11.8-6.667-5.926,6.667-5.879v11.8ZM46.222,91.889,15.111,118.555H104L72.889,91.889Zm63.045,25.445L75.111,87.52l35.555-31.187v57.778a4.435,4.435,0,0,1-1.4,3.223Zm-99.423,0L44,87.52,8.444,56.333v57.778a4.436,4.436,0,0,0,1.4,3.223Z" transform="translate(-4 -3)" fill="#fec804" fill-rule="evenodd"/>
    </g>
  </g>
</svg>
