<svg xmlns="http://www.w3.org/2000/svg" width="22.805" height="16.289" viewBox="0 0 22.805 16.289">

  <g id="iconfinder_icon-card_211635" transform="translate(-32 -96)">
    <path id="Path_3" data-name="Path 3"  d="M53.38,96H33.425A1.426,1.426,0,0,0,32,97.425h0v13.439h0a1.429,1.429,0,0,0,1.425,1.425H53.38a1.43,1.43,0,0,0,1.425-1.441h0V97.441h0A1.43,1.43,0,0,0,53.38,96ZM34.3,97.629H52.5a.677.677,0,0,1,.667.611v1.018H33.629V98.225A.671.671,0,0,1,34.3,97.629ZM52.509,110.66H34.3a.667.667,0,0,1-.667-.6v-5.92H53.176v5.9A.68.68,0,0,1,52.509,110.66Z"/>
    <rect id="Rectangle_7" data-name="Rectangle 7"  width="9.774" height="0.814" transform="translate(35.258 106.588)"/>
    <rect id="Rectangle_8" data-name="Rectangle 8"  width="4.887" height="0.814" transform="translate(35.258 108.217)"/>
    <rect id="Rectangle_9" data-name="Rectangle 9"  width="3.258" height="2.443" transform="translate(48.289 106.588)"/>
  </g>
</svg>
