<svg xmlns="http://www.w3.org/2000/svg" width="17" height="20" viewBox="0 0 17 20">
  <g id="iconfinder_trash_115789" transform="translate(-2 -0.001)">
    <path id="Path_70" data-name="Path 70" d="M18.988,4.262A1.839,1.839,0,0,0,17.179,2.5H15.357V1.877h0A1.849,1.849,0,0,0,13.536,0H7.464A1.849,1.849,0,0,0,5.643,1.876h0V2.5H3.821a1.839,1.839,0,0,0-1.81,1.76H2V5.626a1.233,1.233,0,0,0,1.214,1.25h0V17.5A2.465,2.465,0,0,0,5.643,20h9.714a2.465,2.465,0,0,0,2.429-2.5V6.876h0A1.233,1.233,0,0,0,19,5.626V4.262ZM6.857,1.877a.616.616,0,0,1,.607-.625h6.071a.616.616,0,0,1,.607.625V2.5H6.857ZM16.571,17.5a1.235,1.235,0,0,1-1.214,1.25H5.643A1.234,1.234,0,0,1,4.429,17.5V6.877H16.571ZM17.786,5v.625H3.214V4.377a.616.616,0,0,1,.607-.625H17.179a.616.616,0,0,1,.607.625Z" fill="#000" fill-rule="evenodd"/>
    <path id="Path_71" data-name="Path 71" d="M8.609,22.145H9.828a.609.609,0,0,0,.609-.609v-7.92a.609.609,0,0,0-.609-.609H8.609A.609.609,0,0,0,8,13.615v7.92A.609.609,0,0,0,8.609,22.145Zm0-8.53H9.828v7.92H8.609Z" transform="translate(-2.359 -4.578)" fill="#000" fill-rule="evenodd"/>
    <path id="Path_72" data-name="Path 72" d="M14.609,22.145h1.219a.609.609,0,0,0,.609-.609v-7.92a.609.609,0,0,0-.609-.609H14.609a.609.609,0,0,0-.609.609v7.92A.609.609,0,0,0,14.609,22.145Zm0-8.53h1.219v7.92H14.609Z" transform="translate(-4.719 -4.578)" fill="#000" fill-rule="evenodd"/>
    <path id="Path_73" data-name="Path 73" d="M20.609,22.145h1.219a.609.609,0,0,0,.609-.609v-7.92a.609.609,0,0,0-.609-.609H20.609a.609.609,0,0,0-.609.609v7.92A.609.609,0,0,0,20.609,22.145Zm0-8.53h1.219v7.92H20.609Z" transform="translate(-7.078 -4.578)" fill="#000" fill-rule="evenodd"/>
  </g>
</svg>
