<svg xmlns="http://www.w3.org/2000/svg" width="86.484" height="86.482" viewBox="0 0 86.484 86.482">
  <path id="Path_1036" data-name="Path 1036" d="M87.73,7.112A3.091,3.091,0,0,0,85.4,2H29.8a3.089,3.089,0,0,0,0,6.177H78.631L69.649,18.543a24.8,24.8,0,0,0-24.688,2.588,18.451,18.451,0,0,1-21.79.105L11.854,8.177h5.59a3.089,3.089,0,1,0,0-6.177H5.09A3.086,3.086,0,0,0,2.755,7.109l39.4,45.465V82.305H29.8a3.089,3.089,0,0,0,0,6.177H60.686a3.089,3.089,0,1,0,0-6.177H48.331V52.574ZM33.975,30.938a24.692,24.692,0,0,0,14.64-4.828,18.617,18.617,0,0,1,16.756-2.635L45.243,46.7,31.4,30.734A24.884,24.884,0,0,0,33.975,30.938Z" transform="translate(-1.999 -2)"/>
</svg>
