<svg xmlns="http://www.w3.org/2000/svg" width="16" height="16" viewBox="0 0 16 16">
 
  <path id="iconfinder_58_Heart_106181" d="M15.71,6c0,4.437-7.991,10-7.991,10S-.273,10.437-.273,6c-.009-.442.037-.938,0-1.5A4.4,4.4,0,0,1,4.222,0a4.763,4.763,0,0,1,3.5,2,4.763,4.763,0,0,1,3.5-2,4.4,4.4,0,0,1,4.5,4.5C15.672,5.062,15.718,5.558,15.71,6Zm-2-1.5a2.426,2.426,0,0,0-2.5-2.5c-2.588,0-2.5,2-2.5,2a1,1,0,1,1-2,0s.091-2-2.5-2a2.426,2.426,0,0,0-2.5,2.5c.051.564-.032,1.082.014,1.5H1.725c.062-.015-.343,2.946,5.982,7.476l.012-.009.012.009C14.055,8.946,13.649,5.985,13.712,6H13.7C13.744,5.582,13.661,5.064,13.712,4.5Z" transform="translate(0.282)"/>
</svg>
