<svg xmlns="http://www.w3.org/2000/svg" width="120" height="40" viewBox="0 0 120 40">
  <g id="iconfinder_17_credit_2629954" transform="translate(5 -112.5)">
    <g id="Group_58" data-name="Group 58" transform="translate(-5 112.5)">
      <path id="Path_61" data-name="Path 61" d="M114.656,94.5H5.133a10.649,10.649,0,0,0-4.2.533A2.243,2.243,0,0,0,0,97.1v34.712c0,1.771,1.734,2.687,5.133,2.687H114.656c3.562,0,5.344-.916,5.344-2.687V97.088C120,95.342,118.219,94.5,114.656,94.5Z" transform="translate(0 -94.5)" fill="#f5bd56" fill-rule="evenodd"/>
    </g>
    <g id="Group_62" data-name="Group 62" transform="translate(7.498 123.534)">
      <g id="Group_59" data-name="Group 59" transform="translate(48.189 0.11)">
        <path id="Path_62" data-name="Path 62" d="M345.243,216.89a25.38,25.38,0,0,0-5.676.905l-.442,3.6a15.348,15.348,0,0,1,4.859-1.038c1.877-.066,2.981.353,2.584,1.943-5.565,0-9.32,1.148-10.093,4.748-1.1,6.184,5.676,6.007,8.392,3.313l-.331,1.48H349.5l2.142-9.85C352.531,217.861,348.732,216.823,345.243,216.89Zm.331,10.071a2.474,2.474,0,0,1-2.584,1.943c-1.1.066-2.1-.905-1.369-2.054.552-.972,2.1-1.193,3.026-1.193h1.215C345.751,226.1,345.684,226.5,345.574,226.96Z" transform="translate(-319.426 -213.003)" fill="#167db0" fill-rule="evenodd"/>
        <path id="Path_63" data-name="Path 63" d="M410.308,199.3,406.2,218.182h5.057l4.152-18.882Z" transform="translate(-373.846 -199.3)" fill="#167db0" fill-rule="evenodd"/>
        <path id="Path_64" data-name="Path 64" d="M273.017,199.5h-9.231L259.7,218.316h5.367l1.391-6.228h3.821a7.589,7.589,0,0,0,7.685-6.184C278.869,201.51,275.667,199.5,273.017,199.5Zm-.177,6.4a3.448,3.448,0,0,1-3.158,2.584h-2.5l1.1-5.146h2.65A1.931,1.931,0,0,1,272.84,205.9Z" transform="translate(-259.7 -199.456)" fill="#167db0" fill-rule="evenodd"/>
      </g>
      <g id="Group_60" data-name="Group 60" transform="translate(0 0.155)">
        <path id="Path_65" data-name="Path 65" d="M127,216.89a23.846,23.846,0,0,0-5.565.905l-.442,3.6a14.394,14.394,0,0,1,4.748-1.038c1.855-.066,2.937.353,2.606,1.943-5.5,0-9.209,1.148-9.96,4.748-1.082,6.184,5.609,6.007,8.215,3.313l-.331,1.48h4.969l2.12-9.85C134.243,217.861,130.422,216.823,127,216.89Zm.375,10.071a2.514,2.514,0,0,1-2.606,1.943,1.318,1.318,0,0,1-1.3-2.054c.552-.972,2.076-1.193,2.937-1.193h1.259A6.537,6.537,0,0,0,127.374,226.96Z" transform="translate(-101.315 -213.047)" fill="#1c567e" fill-rule="evenodd"/>
        <path id="Path_66" data-name="Path 66" d="M190.79,218.1h4.969l.8,8.768,4.837-8.768h5.124l-11.771,20.98H189.2l3.622-6.162L190.79,218.1Z" transform="translate(-156.581 -213.992)" fill="#1c567e" fill-rule="evenodd"/>
        <path id="Path_67" data-name="Path 67" d="M54.839,199.5H45.608L41.5,218.316h5.433l1.325-6.228h3.887a7.559,7.559,0,0,0,7.641-6.184C60.714,201.51,57.556,199.5,54.839,199.5Zm-.155,6.4a3.4,3.4,0,0,1-3.114,2.584h-2.54l1.17-5.146h2.65A1.9,1.9,0,0,1,54.685,205.9Z" transform="translate(-41.5 -199.5)" fill="#1c567e" fill-rule="evenodd"/>
      </g>
      <g id="Group_61" data-name="Group 61" transform="translate(89.995 0)">
        <path id="Path_68" data-name="Path 68" d="M449.839,201.34v-2.231H449V198.8h2.01v.309h-.839v2.231Z" transform="translate(-449 -198.8)" fill="#1c567e"/>
        <path id="Path_69" data-name="Path 69" d="M459.6,201.418V198.9h.508l.6,1.789a2.853,2.853,0,0,1,.11.375,4.056,4.056,0,0,1,.132-.4l.6-1.745h.442v2.518h-.331v-2.12l-.729,2.12h-.309l-.729-2.142v2.142H459.6Z" transform="translate(-457.259 -198.878)" fill="#1c567e"/>
      </g>
    </g>
  </g>
</svg>
