<svg id="iconfinder_ic_info_outline_48px_352432" xmlns="http://www.w3.org/2000/svg" width="34.261" height="34.261" viewBox="0 0 34.261 34.261">
  <path id="Path_53" data-name="Path 53" d="M0,0H34.261V34.261H0Z" fill="none"/>
  <path id="Path_54" data-name="Path 54" d="M18.275,4A14.275,14.275,0,1,0,32.551,18.275,14.271,14.271,0,0,0,18.275,4Zm0,25.7A11.42,11.42,0,1,1,29.7,18.275,11.435,11.435,0,0,1,18.275,29.7Z" transform="translate(-1.145 -1.145)"/>
  <g id="iconfinder_info2_216652" transform="translate(12.848 8.989)">
    <path id="Path_52" data-name="Path 52" d="M5.623,0A1.5,1.5,0,0,1,7.23,1.566,2.1,2.1,0,0,1,5.088,3.573,1.434,1.434,0,0,1,3.51,1.983,2.057,2.057,0,0,1,5.623,0Zm-3.3,15.993c-.846,0-1.466-.522-.874-2.817L2.423,9.1c.169-.652.2-.913,0-.913a6.388,6.388,0,0,0-2,.894L0,8.381C2.057,6.634,4.424,5.609,5.438,5.609c.845,0,.986,1.017.564,2.583l-1.111,4.28c-.2.756-.112,1.017.084,1.017a4.356,4.356,0,0,0,1.9-.966l.479.652A8.8,8.8,0,0,1,2.326,15.993Z"/>
  </g>
</svg>
