<svg xmlns="http://www.w3.org/2000/svg" width="16" height="16" viewBox="0 0 16 16">
 
  <g id="iconfinder_Instagram_Color_1435162" transform="translate(-126.7 -203.1)">
    <path id="XMLID_142_"  d="M142.28,205.857a4.079,4.079,0,0,0-2.337-2.337,5.837,5.837,0,0,0-1.941-.371c-.853-.037-1.125-.049-3.3-.049s-2.448.006-3.3.049a5.8,5.8,0,0,0-1.941.371,4.079,4.079,0,0,0-2.337,2.337,5.837,5.837,0,0,0-.371,1.941c-.037.853-.049,1.125-.049,3.3s.006,2.448.049,3.3a5.8,5.8,0,0,0,.371,1.941,4.079,4.079,0,0,0,2.337,2.337,5.837,5.837,0,0,0,1.941.371c.853.037,1.125.049,3.3.049s2.448-.006,3.3-.049a5.8,5.8,0,0,0,1.941-.371,4.079,4.079,0,0,0,2.337-2.337,5.836,5.836,0,0,0,.371-1.941c.037-.853.049-1.125.049-3.3s-.006-2.448-.049-3.3A5.8,5.8,0,0,0,142.28,205.857Zm-1.07,8.476a4.372,4.372,0,0,1-.278,1.484,2.478,2.478,0,0,1-.6.921,2.5,2.5,0,0,1-.921.6,4.41,4.41,0,0,1-1.484.278c-.847.037-1.094.049-3.233.049s-2.393-.006-3.233-.049a4.373,4.373,0,0,1-1.484-.278,2.478,2.478,0,0,1-.921-.6,2.5,2.5,0,0,1-.6-.921,4.409,4.409,0,0,1-.278-1.484c-.037-.847-.049-1.1-.049-3.233s.006-2.393.049-3.233a4.372,4.372,0,0,1,.278-1.484,2.478,2.478,0,0,1,.6-.921,2.5,2.5,0,0,1,.921-.6,4.409,4.409,0,0,1,1.484-.278c.847-.037,1.1-.049,3.233-.049s2.393.006,3.233.049a4.373,4.373,0,0,1,1.484.278,2.478,2.478,0,0,1,.921.6,2.5,2.5,0,0,1,.6.921,4.409,4.409,0,0,1,.278,1.484c.037.847.049,1.1.049,3.233S141.247,213.493,141.21,214.333Z" transform="translate(0 0)"/>
    <path id="XMLID_145_"  d="M194.114,266a4.141,4.141,0,1,0,4.614,4.114A4.388,4.388,0,0,0,194.114,266Zm0,6.787a2.69,2.69,0,1,1,3-2.673A2.85,2.85,0,0,1,194.114,272.787Z" transform="translate(-59.42 -59.014)"/>
    <circle id="XMLID_143_"  cx="0.958" cy="0.958" r="0.958" transform="translate(138.009 205.87)"/>
  </g>
</svg>
