<svg xmlns="http://www.w3.org/2000/svg" width="72.861" height="70.356" viewBox="0 0 72.861 70.356">
  <g id="iconfinder_key-password-main-keys-privilege_3643767" transform="translate(44.044 -5.93) rotate(49)">
    <path id="Path_75" data-name="Path 75" d="M26.029,64.444a2.114,2.114,0,0,1-1.269-.423L16.3,57.678a2.114,2.114,0,0,1-.846-1.691V35.837a19.029,19.029,0,1,1,21.143,0v3.235a2.114,2.114,0,0,1-.613,1.5L33.239,43.3l2.749,2.727a2.114,2.114,0,0,1,0,3l-2.749,2.727,2.749,2.727a2.117,2.117,0,0,1-.233,3.193L27.3,64.021A2.114,2.114,0,0,1,26.029,64.444Zm-6.343-9.514,6.343,4.757,5.243-3.933-2.516-2.495a2.114,2.114,0,0,1,0-3l2.749-2.727L28.757,44.8a2.114,2.114,0,0,1,0-3l3.615-3.594V34.674a2.114,2.114,0,0,1,1.057-1.818,14.8,14.8,0,1,0-14.8,0,2.114,2.114,0,0,1,1.057,1.818Zm14.8-15.857Z" transform="translate(0 0)" fill="#000"/>
    <circle id="Ellipse_30" data-name="Ellipse 30" cx="2.114" cy="2.114" r="2.114" transform="translate(23.915 13.701)" fill="#000"/>
    <path id="Path_76" data-name="Path 76" d="M18.229,14.457a4.229,4.229,0,1,1,4.229-4.229A4.229,4.229,0,0,1,18.229,14.457ZM18.229,10.229Z" transform="translate(7.801 5.586)" fill="#000"/>
  </g>
</svg>
