<svg id="iconfinder_social-linkedin_216394" xmlns="http://www.w3.org/2000/svg" width="26" height="26" viewBox="0 0 26 26">
  <g id="Group_6" data-name="Group 6" transform="translate(0.093 7.41)">
    <path id="Path_14" data-name="Path 14" d="M10.552,27.589H5V9h5.552Zm20.356,0H25.356v-9.93c0-2.588-.918-3.876-2.737-3.876A2.737,2.737,0,0,0,19.8,15.949V27.589H14.253s.074-16.73,0-18.589h4.382l.339,3.718h.115A6.174,6.174,0,0,1,24.539,9.6a5.734,5.734,0,0,1,4.6,1.861,8.068,8.068,0,0,1,1.765,5.633Z" transform="translate(-5 -9)" fill="#fff"/>
  </g>
  <g id="Group_7" data-name="Group 7" transform="translate(0 0)">
    <ellipse id="Ellipse_4" data-name="Ellipse 4" cx="2.881" cy="2.788" rx="2.881" ry="2.788" fill="#fff"/>
  </g>
</svg>
