<svg xmlns="http://www.w3.org/2000/svg" width="37.526" height="56" viewBox="0 0 37.526 56">
  <g id="Group_64" data-name="Group 64" transform="translate(-1346 -434)">
    <path id="iconfinder_thefreeforty_location_1243686" d="M24.148.3C12.719.3,5.1,7.919,5.1,18.967,5.1,33.824,18.814,52.3,22.433,55.919a1.455,1.455,0,0,0,.952.381h0a1.047,1.047,0,0,0,.952-.571c1.9-2.1,18.286-21.143,18.286-36.762C42.814,6.014,33.481.3,24.148.3Zm-.762,52.381C19,47.538,7.957,31.538,7.957,18.967c0-9.714,6.286-15.81,16.19-15.81,7.238,0,15.81,4.19,15.81,15.81C39.957,30.2,30.052,45.062,23.386,52.681Z" transform="translate(1340.9 433.7)" fill="#000"/>
    <path id="iconfinder_00-ELASTOFONT-STORE-READY_delivery_2703076" d="M17.31,5.5V5.211a.75.75,0,0,0-.75-.75H1.749a.75.75,0,0,0-.75.75V18.789a.75.75,0,0,0,.75.75H4.844a2.733,2.733,0,0,0,5.266,0h7.708a2.733,2.733,0,0,0,5.266,0h.994a.7.7,0,0,0,.087-.018.7.7,0,0,0,.087.018.75.75,0,0,0,.75-.75v-5.74C25,9.093,21.614,5.838,17.31,5.5Zm6.162,7.054H20.655c-.719-.2-.864-1.484-.864-3.488v-1.4A6.124,6.124,0,0,1,23.472,12.549Zm-4.681-5.26V9.061c0,2.174.13,4.152,1.7,4.478a.5.5,0,0,0,.1.01h2.9v4.49h-.418a2.733,2.733,0,0,0-5.266,0H10.109A2.73,2.73,0,0,0,9.548,17h7.013a.5.5,0,0,0,.452-.292.737.737,0,0,0,.3-.583V7A7.7,7.7,0,0,1,18.791,7.289ZM15.811,16H2.5V5.961H15.811V16ZM2.5,17H5.405a2.73,2.73,0,0,0-.562,1.039H2.5Zm4.978,3.039a1.25,1.25,0,1,1,1.25-1.252v0A1.251,1.251,0,0,1,7.477,20.039Zm12.974,0a1.25,1.25,0,1,1,1.25-1.25A1.251,1.251,0,0,1,20.45,20.039Z" transform="translate(1352.001 440.539)" fill="#000"/>
  </g>
</svg>
