<svg xmlns="http://www.w3.org/2000/svg" width="54" height="54" viewBox="0 0 54 54">
  <g id="Group_277" data-name="Group 277" transform="translate(-400 -755)">
    <circle id="Ellipse_40" data-name="Ellipse 40" cx="27" cy="27" r="27" transform="translate(400 755)" fill="#ffba00"/>
    <g id="iconfinder_LocationPin_1737382" transform="translate(313.474 715.218)">
      <path id="Path_385" data-name="Path 385" d="M113.857,54.872a9.029,9.029,0,0,0-9.019,9.019c0,8,8.115,14.291,8.461,14.555l.558.426.558-.426c.346-.264,8.461-6.558,8.461-14.555A9.029,9.029,0,0,0,113.857,54.872Zm0,21.651c-1.778-1.53-7.181-6.671-7.181-12.633a7.181,7.181,0,1,1,14.363,0C121.038,69.839,115.633,74.991,113.856,76.523Z" transform="translate(0 0)" fill="#fff"/>
      <path id="Path_386" data-name="Path 386" d="M198.552,142.966a3.522,3.522,0,1,0,3.522,3.522A3.523,3.523,0,0,0,198.552,142.966Z" transform="translate(-84.834 -82.853)" fill="#fff"/>
    </g>
  </g>
</svg>
