<svg xmlns="http://www.w3.org/2000/svg" width="190.001" height="31.906" viewBox="0 0 190.001 31.906">
  <g id="gekco_x0020_Bild" transform="translate(-1204.971 -3694.925)">
    <path id="Path_1" data-name="Path 1" d="M1238.92,3702.978v.749c0,2.2-.021,4.406,0,6.631a4.834,4.834,0,0,1-2.225,4.214,7.634,7.634,0,0,1-4.492,1.326h-20.686a7.215,7.215,0,0,1-4.578-1.5,4.681,4.681,0,0,1-1.968-3.979c.043-3.358.022-6.7,0-10.054a4.406,4.406,0,0,1,1.519-3.465,7.273,7.273,0,0,1,4.172-1.84q.641-.064,1.283-.063h26.846a33.882,33.882,0,0,1,.021,5.519H1238c-7.53,0-15.06-.021-22.589,0a11.965,11.965,0,0,0-2.332.256,4.023,4.023,0,0,0-1.99,1.07,2.115,2.115,0,0,0-.727,1.561v3.937a2.242,2.242,0,0,0,.984,1.8,5.191,5.191,0,0,0,2.7,1.048,11.7,11.7,0,0,0,1.219.042h13.477a6.585,6.585,0,0,0,2.5-.363,3.242,3.242,0,0,0,1.883-1.562,2.574,2.574,0,0,0,.15-.513c-1.519-.021-2.974,0-4.428,0h-13.326a23.558,23.558,0,0,1-.086-4.77C1215.9,3702.872,1237.872,3702.829,1238.92,3702.978Z" transform="translate(0 -0.073)" fill-rule="evenodd"/>
    <path id="Path_2" data-name="Path 2" d="M8554.94,3710.23h6.568a12.453,12.453,0,0,0,1.26-.042,5.137,5.137,0,0,0,3.038-1.3,2.168,2.168,0,0,0,.771-1.754c-.021-1.091-.042-2.182,0-3.272a2.46,2.46,0,0,0-.919-2.054,3.865,3.865,0,0,0-1.927-1.026,10.808,10.808,0,0,0-2.183-.256c-4.407-.021-8.788,0-13.2,0a13.92,13.92,0,0,0-1.626.106,4.733,4.733,0,0,0-2.5,1.134,2.2,2.2,0,0,0-.793,1.754c.021,1.241.021,2.5,0,3.765a1.894,1.894,0,0,0,.666,1.583,7.709,7.709,0,0,0,1.366.9,6.192,6.192,0,0,0,2.721.47Zm.019-15.23c3.4,0,6.806.021,10.208,0a7.565,7.565,0,0,1,4.833,1.6,4.677,4.677,0,0,1,1.97,3.979c-.045,3.273-.021,6.567,0,9.84a4.776,4.776,0,0,1-1.818,3.851,7.374,7.374,0,0,1-4.043,1.6c-.28.022-.536.022-.793.022h-20.685a7.39,7.39,0,0,1-4.643-1.5,4.6,4.6,0,0,1-1.884-2.78,7.092,7.092,0,0,1-.086-1.134c-.021-3.336,0-6.695-.021-10.054a4.631,4.631,0,0,1,1.82-3.765,7.527,7.527,0,0,1,4.964-1.668C8548.183,3695.021,8551.56,3695,8554.959,3695Z" transform="translate(-7177.186 -0.073)" fill-rule="evenodd"/>
    <path id="Path_3" data-name="Path 3" d="M4905.878,3715.9h-27.146a7.747,7.747,0,0,1-4.022-.983,5.04,5.04,0,0,1-2.631-3.23,4.883,4.883,0,0,1-.107-1.113c0-3.4.021-6.8,0-10.2a4.394,4.394,0,0,1,1.583-3.509,7.236,7.236,0,0,1,4.236-1.818c.363-.021.726-.042,1.069-.042h26.931a33.392,33.392,0,0,1,.043,5.519h-.812c-7.552,0-15.124-.021-22.675,0a11.287,11.287,0,0,0-2.247.256,5.014,5.014,0,0,0-1.433.62,2.5,2.5,0,0,0-1.326,2.354q.063,1.635,0,3.272a2.56,2.56,0,0,0,1.326,2.353,6.184,6.184,0,0,0,3.422.855h22.953c.278,0,.556.021.835.043Z" transform="translate(-3589.069 -0.073)" fill-rule="evenodd"/>
    <path id="Path_4" data-name="Path 4" d="M3071.823,4073.295v5.647c-.278,0-.535.021-.813.021h-24.386c-.749,0-1.519.021-2.267,0a7.36,7.36,0,0,1-4.449-1.476,4.649,4.649,0,0,1-1.99-3.979c.043-2.246.022-4.471.022-6.7V4066h33.927v4.9c-1.925.086-3.808.022-5.712.044h-22.781v2.353Z" transform="translate(-1793.991 -363.209)" fill-rule="evenodd"/>
    <path id="Path_5" data-name="Path 5" d="M6709.447,3707.8v7.979h-5.282c-.149-.47-.215-19.658-.065-20.792h5.327c.064.641.021,1.3.021,1.968.023.663.023,1.326.023,1.99v3.979a5.058,5.058,0,0,0,.555.043q7.349,0,14.7.021a1.066,1.066,0,0,0,.9-.449c1.989-2.354,4-4.707,5.969-7.082a1.336,1.336,0,0,1,1.154-.534c1.455.021,2.888,0,4.342,0,.235,0,.473.021.856.043-2.951,3.508-5.8,6.888-8.664,10.31,2.889,3.488,5.734,6.953,8.664,10.5-.321.022-.492.043-.685.043-1.54,0-3.08,0-4.621.021a1.12,1.12,0,0,1-.962-.471c-1.988-2.353-3.979-4.662-5.947-7.016a1.309,1.309,0,0,0-1.2-.556h-15.081Z" transform="translate(-5382.178 0)" fill-rule="evenodd"/>
    <path id="Path_6" data-name="Path 6" d="M3039.229,3700.454a3.959,3.959,0,0,1,1.112-3.166,7.019,7.019,0,0,1,4.492-2.225c.449-.042.9-.063,1.348-.063h26.91v5.391C3072.6,3700.539,3040.578,3700.625,3039.229,3700.454Z" transform="translate(-1795.26 -0.073)" fill-rule="evenodd"/>
    <path id="Path_7" data-name="Path 7" d="M8513.923,4844.587a4.31,4.31,0,0,0,.557-.729.515.515,0,0,0-.13-.705.577.577,0,0,0-.724.063.516.516,0,0,0-.193.686C8513.559,4844.115,8513.731,4844.309,8513.923,4844.587Zm.448,2.395c-.233-.277-.427-.491-.64-.727s-.447-.448-.665-.685c-.512.558-.6,1.048-.275,1.433C8513.132,4847.409,8513.688,4847.409,8514.371,4846.981Zm1.691-.149c.365.385.705.771,1.048,1.177a2.311,2.311,0,0,1-2.16-.258,7.928,7.928,0,0,1-1.349.429,3.08,3.08,0,0,1-1.325-.021,1.464,1.464,0,0,1-.727-2.567,5.576,5.576,0,0,1,.856-.663,3.147,3.147,0,0,0-.2-.3,1.326,1.326,0,0,1,.581-2.031,3.206,3.206,0,0,1,2.354-.171,1.027,1.027,0,0,1,.447,1.861,9.214,9.214,0,0,1-1.154.792c.257.278.535.576.876.961.128-.47.258-.833.364-1.219h1.265A2.865,2.865,0,0,1,8516.063,4846.832Z" transform="translate(-7150.802 -1122.986)" fill-rule="evenodd"/>
    <path id="Path_8" data-name="Path 8" d="M7610.868,4912.226c.149-.684.3-1.327.425-1.968a5.305,5.305,0,0,0,.174-.856c.041-.343-.15-.512-.515-.512a.907.907,0,0,0-.964.747c-.19.856-.383,1.712-.6,2.589H7608c.171-.749.342-1.456.491-2.161.173-.685.322-1.389.494-2.117.533,0,1.069-.3,1.5.257,1.349-.621,1.71-.6,2.545.234a4.5,4.5,0,0,1,.535-.3,3.707,3.707,0,0,1,.662-.3c1.135-.277,1.775.3,1.583,1.454-.169.877-.405,1.756-.6,2.631a1.648,1.648,0,0,1-.129.3h-1.326c.042-.235.063-.471.107-.684.149-.663.319-1.305.448-1.947.107-.577-.17-.814-.729-.665a.779.779,0,0,0-.705.687c-.127.684-.32,1.368-.491,2.073a4.952,4.952,0,0,1-.15.535Z" transform="translate(-6266.824 -1187.074)" fill-rule="evenodd"/>
    <path id="Path_9" data-name="Path 9" d="M5725.7,4844.2c-.278-.193-.47-.343-.664-.472a2.15,2.15,0,0,0-2.523.064,2.616,2.616,0,0,0-.9,2.546,1.067,1.067,0,0,0,.919.813,7.66,7.66,0,0,0,1,0c.086-.322.15-.642.257-1.006-.386-.041-.728-.085-1.112-.129.064-.341.149-.64.235-1.025h2.652c-.213,1-.429,1.9-.641,2.845a5.73,5.73,0,0,1-3.21.363,2.047,2.047,0,0,1-1.732-2.139,3.6,3.6,0,0,1,3.529-3.764,3.891,3.891,0,0,1,2.524.534C5725.936,4843.258,5725.829,4843.685,5725.7,4844.2Z" transform="translate(-4418.971 -1122.984)" fill-rule="evenodd"/>
    <path id="Path_10" data-name="Path 10" d="M3903.775,4842.407c-.107.472-.214.9-.3,1.306a8.338,8.338,0,0,0-1.455-.536,4.186,4.186,0,0,0-1.261.023.551.551,0,0,0-.515.512.569.569,0,0,0,.449.514c.257.084.535.17.814.256.278.108.577.172.854.3a1.456,1.456,0,0,1,.407,2.5,1.847,1.847,0,0,1-.642.408,5.525,5.525,0,0,1-4.129-.109c.085-.471.171-.9.278-1.41.214.127.385.191.534.3a3.266,3.266,0,0,0,2.183.45,1.372,1.372,0,0,0,.47-.15.484.484,0,0,0,0-.9,3.981,3.981,0,0,0-.663-.234c-.407-.149-.833-.257-1.22-.427a1.457,1.457,0,0,1-.342-2.462,1.8,1.8,0,0,1,.6-.384A5.546,5.546,0,0,1,3903.775,4842.407Z" transform="translate(-2635.739 -1122.732)" fill-rule="evenodd"/>
    <path id="Path_11" data-name="Path 11" d="M8960.812,4852.011c-.106.449-.169.77-.256,1.134h-2.48c-.106.491-.215.919-.344,1.454h2.675c-.086.427-.172.728-.234,1.091H8956c.363-1.925.877-3.787,1.284-5.69h4.192c-.086.364-.148.685-.237,1.026h-2.673c-.063.32-.149.6-.256.985Z" transform="translate(-7586.245 -1130.538)" fill-rule="evenodd"/>
    <path id="Path_12" data-name="Path 12" d="M8137.337,4909.623c.041-.6-.086-.793-.557-.836a.936.936,0,0,0-1.093.836Zm1.282.877h-3.166c.044.62.151.791.621.94a2.307,2.307,0,0,0,1.6-.106c.215-.086.406-.171.728-.3-.086.364-.107.662-.193.9a.714.714,0,0,1-.406.343,3.928,3.928,0,0,1-2.523.1,1.747,1.747,0,0,1-1.284-1.755,2.625,2.625,0,0,1,2.288-2.673,4.319,4.319,0,0,1,1.05-.021,1.5,1.5,0,0,1,1.454,1.925A3.552,3.552,0,0,1,8138.619,4910.5Z" transform="translate(-6781.621 -1187.208)" fill-rule="evenodd"/>
    <path id="Path_13" data-name="Path 13" d="M9454.582,4908.732h1.8c-.021-.62-.108-.748-.513-.812C9455.309,4907.813,9454.924,4908.047,9454.582,4908.732Zm2.994.855h-3.08c-.041.6.066.791.534.963a2.317,2.317,0,0,0,1.605-.108c.216-.085.428-.17.728-.3-.045.321-.085.534-.128.77a.593.593,0,0,1-.492.514,4.569,4.569,0,0,1-2.4.085,1.727,1.727,0,0,1-1.348-1.775,2.609,2.609,0,0,1,2.288-2.673,3.035,3.035,0,0,1,.621-.064C9457.557,4907.042,9458.176,4907.962,9457.576,4909.588Z" transform="translate(-8072.614 -1186.319)" fill-rule="evenodd"/>
    <path id="Path_14" data-name="Path 14" d="M6006.452,4910.526a2.173,2.173,0,0,0-1.3.149.59.59,0,0,0-.343.642c.064.3.321.323.556.323C6006.11,4911.617,6006.493,4911.361,6006.452,4910.526Zm1.005,1.948c-.535-.108-1.07.212-1.456-.279a8.778,8.778,0,0,1-.9.342,1.376,1.376,0,0,1-1.71-.642,1.4,1.4,0,0,1,.79-1.775,9.708,9.708,0,0,1,1.927-.47,4.456,4.456,0,0,1,.554-.065c.13-.365-.042-.556-.341-.578a4.892,4.892,0,0,0-1.111-.02,7.917,7.917,0,0,0-.985.233c.064-.362.129-.662.193-1a6.278,6.278,0,0,1,2.952-.106.949.949,0,0,1,.792,1.218C6007.949,4910.356,6007.692,4911.382,6007.458,4912.474Z" transform="translate(-4696.265 -1187.279)" fill-rule="evenodd"/>
    <path id="Path_15" data-name="Path 15" d="M4166.341,4910.4a8.83,8.83,0,0,0-1.283.278.508.508,0,0,0-.364.664c.064.3.342.3.577.3C4165.978,4911.6,4166.321,4911.382,4166.341,4910.4Zm.214-.812c.087-.427-.149-.578-.407-.6a4.5,4.5,0,0,0-1.069,0,8.986,8.986,0,0,0-.984.233c.063-.362.107-.662.171-1a6.278,6.278,0,0,1,2.952-.106.972.972,0,0,1,.792,1.283c-.213,1-.449,1.989-.685,3.016-.514,0-1.005.256-1.5-.235a2.25,2.25,0,0,1-.449.214,3.5,3.5,0,0,1-.813.194,1.245,1.245,0,0,1-1.3-.665,1.383,1.383,0,0,1,.427-1.561,4.7,4.7,0,0,1,1.434-.579A9.881,9.881,0,0,1,4166.556,4909.585Z" transform="translate(-2895.277 -1187.279)" fill-rule="evenodd"/>
    <path id="Path_16" data-name="Path 16" d="M4744.847,4909.377c-.085-.364-.063-.706-.407-.92a.81.81,0,0,0-.876.022,1.291,1.291,0,0,0-.342.341,2.2,2.2,0,0,0-.385,1.668.626.626,0,0,0,.684.578.943.943,0,0,0,.877-.514C4744.59,4910.169,4744.7,4909.762,4744.847,4909.377Zm-1.648,2.652a2.321,2.321,0,0,1-.534-.086,1.625,1.625,0,0,1-1.326-1.882,2.793,2.793,0,0,1,3.445-2.609,1.636,1.636,0,0,1,1.477,1.775A2.83,2.83,0,0,1,4743.2,4912.029Z" transform="translate(-3461.122 -1186.706)" fill-rule="evenodd"/>
    <path id="Path_17" data-name="Path 17" d="M6842.258,4908.873c-.085-.512-.236-.79-.534-.918a.909.909,0,0,0-1.027.321,2.1,2.1,0,0,0-.471,1.8c.043.385.3.536.686.557a.946.946,0,0,0,.877-.513C6841.981,4909.709,6842.108,4909.281,6842.258,4908.873Zm-1.5,2.761a8.008,8.008,0,0,1-1.028-.214,1.405,1.405,0,0,1-.963-1.219,2.821,2.821,0,0,1,3.787-3.1,1.447,1.447,0,0,1,1.05,1.242A2.835,2.835,0,0,1,6840.762,4911.634Z" transform="translate(-5513.921 -1186.268)" fill-rule="evenodd"/>
    <path id="Path_18" data-name="Path 18" d="M7360.4,4910.012c-.021.45.042.748.363.9a.879.879,0,0,0,1-.151,2.067,2.067,0,0,0,.6-1.541.823.823,0,0,0-.428-.9.934.934,0,0,0-1.027.3A2.078,2.078,0,0,0,7360.4,4910.012Zm.533,1.989a4.87,4.87,0,0,1-.962-.214,1.423,1.423,0,0,1-1-1.262,2.812,2.812,0,0,1,3.829-3.037,1.447,1.447,0,0,1,1.025,1.327A2.841,2.841,0,0,1,7360.931,4912Z" transform="translate(-6023.052 -1186.636)" fill-rule="evenodd"/>
    <path id="Path_19" data-name="Path 19" d="M9698.346,4913.2c-.343,0-.617.021-.9,0-.148,0-.277-.022-.448-.022a3.221,3.221,0,0,1,.063-.513c.279-1.241.58-2.5.857-3.722.963-.172,1.174-.149,1.454.171a9.973,9.973,0,0,1,1.392-.364c.941-.063,1.411.449,1.262,1.37-.172,1.025-.45,2.032-.686,3.058h-1.391c.106-.534.215-1.025.322-1.518.085-.45.171-.878.212-1.327.042-.321-.17-.471-.468-.491a.945.945,0,0,0-1.073.771C9698.732,4911.471,9698.538,4912.326,9698.346,4913.2Z" transform="translate(-8311.396 -1188.029)" fill-rule="evenodd"/>
    <path id="Path_20" data-name="Path 20" d="M7091.385,4913.368h-1.391c.172-.727.344-1.433.471-2.139a2.422,2.422,0,0,0,.086-.77.562.562,0,0,0-.342-.384.935.935,0,0,0-1.2.663c-.15.686-.3,1.348-.45,2.01-.042.215-.106.408-.17.621H7087c.342-1.454.663-2.845,1-4.277.536.021,1.072-.3,1.477.234a5.632,5.632,0,0,1,1.136-.362c1.133-.15,1.666.449,1.453,1.561q-.192.834-.386,1.669C7091.6,4912.577,7091.491,4912.962,7091.385,4913.368Z" transform="translate(-5756.896 -1188.217)" fill-rule="evenodd"/>
    <path id="Path_21" data-name="Path 21" d="M6247,4912.384c.085-.386.171-.729.278-1.113,1.562.706,2.182.727,2.739.064a5.071,5.071,0,0,0-.6-.278c-.364-.128-.75-.192-1.092-.343a1.126,1.126,0,0,1-.32-1.968,2.826,2.826,0,0,1,.534-.342,4.8,4.8,0,0,1,3.188.044c-.107.384-.171.725-.256,1.09a7.379,7.379,0,0,0-1.07-.386,5,5,0,0,0-1.113.021.515.515,0,0,0-.278.343c-.021.064.149.235.257.278.214.085.449.127.685.214.193.042.406.106.6.17a1.047,1.047,0,0,1,.813.92,1.089,1.089,0,0,1-.557,1.134,4.272,4.272,0,0,1-1.411.492A4.144,4.144,0,0,1,6247,4912.384Z" transform="translate(-4934.764 -1187.446)" fill-rule="evenodd"/>
    <path id="Path_22" data-name="Path 22" d="M9227.27,4918.016h-1.627c-.216-1.434-.429-2.845-.644-4.3h1.411c.109.9.216,1.777.345,2.759.148-.191.258-.3.339-.428.366-.621.729-1.261,1.072-1.924a.681.681,0,0,1,.769-.449c.28.02.557,0,1.007,0C9229,4915.191,9228.124,4916.6,9227.27,4918.016Z" transform="translate(-7849.49 -1192.843)" fill-rule="evenodd"/>
    <path id="Path_23" data-name="Path 23" d="M5013.268,4918.023h-1.626c-.214-1.433-.428-2.845-.642-4.278h1.411c.106.92.215,1.775.321,2.781.172-.214.277-.321.342-.427.363-.643.748-1.284,1.07-1.948a.731.731,0,0,1,.792-.449c.276.021.556,0,.984,0C5014.979,4915.222,5014.122,4916.633,5013.268,4918.023Z" transform="translate(-3725.06 -1192.872)" fill-rule="evenodd"/>
    <path id="Path_24" data-name="Path 24" d="M9977.678,4859.24c-.066.321-.128.577-.194.855l-1.281.065c-.149.6-.3,1.2-.428,1.8-.108.622.061.792.685.727a1.886,1.886,0,0,0,.4-.084c-.02.169-.02.3-.043.428a3.775,3.775,0,0,1-.106.427,3.057,3.057,0,0,1-1.584.15.885.885,0,0,1-.854-1.2c.127-.729.318-1.435.472-2.205-.153-.042-.3-.107-.494-.171.042-.235.086-.492.149-.749.191-.043.367-.108.576-.172.108-.342.194-.706.324-1.112h1.348c-.065.406-.132.749-.192,1.134C9976.863,4859.175,9977.228,4859.219,9977.678,4859.24Z" transform="translate(-8582.706 -1138.367)" fill-rule="evenodd"/>
    <path id="Path_25" data-name="Path 25" d="M4581.331,4859.283c.193-.064.385-.108.577-.172.107-.342.192-.706.321-1.112h1.348c-.065.406-.129.749-.193,1.134.406.042.77.086,1.218.128-.063.3-.128.556-.192.876h-1.284c-.149.642-.321,1.22-.427,1.84-.107.6.064.771.685.706a2.518,2.518,0,0,0,.448-.084c-.063.321-.106.6-.171.878a3.242,3.242,0,0,1-1.625.126.886.886,0,0,1-.835-1.218c.129-.707.3-1.434.471-2.183-.149-.042-.3-.107-.493-.171C4581.224,4859.8,4581.266,4859.54,4581.331,4859.283Z" transform="translate(-3304.364 -1138.367)" fill-rule="evenodd"/>
    <path id="Path_26" data-name="Path 26" d="M6496.409,4860.218c-.065.3-.129.579-.215.857-.428.021-.833.021-1.284.042-.148.663-.32,1.3-.449,1.946-.086.427.086.621.535.621a4.443,4.443,0,0,0,.62-.085c-.065.32-.128.578-.171.876a3.631,3.631,0,0,1-1.582.107c-.707-.107-.986-.45-.878-1.176.065-.514.213-1.005.321-1.519.044-.235.084-.472.148-.706-.169-.064-.3-.086-.491-.149.042-.235.086-.492.149-.792.878.021.664-.728.918-1.24h1.307c-.045.363-.109.727-.172,1.133C6495.6,4860.154,6495.958,4860.2,6496.409,4860.218Z" transform="translate(-5175.491 -1139.346)" fill-rule="evenodd"/>
    <path id="Path_27" data-name="Path 27" d="M5369.765,4908.816c-.086.342-.17.707-.3,1.134a4.55,4.55,0,0,0-.513-.3,1.522,1.522,0,0,0-1.668,0,1.814,1.814,0,0,0-.6,1.668.889.889,0,0,0,1.026.664,1.892,1.892,0,0,0,.685-.149c.213-.086.406-.236.621-.343.128.984-.043,1.262-.963,1.433a3.274,3.274,0,0,1-1.111.044,1.8,1.8,0,0,1-1.669-2.417,2.529,2.529,0,0,1,.77-1.348A3.227,3.227,0,0,1,5369.765,4908.816Z" transform="translate(-4071.717 -1187.686)" fill-rule="evenodd"/>
    <path id="Path_28" data-name="Path 28" d="M4360.883,4916h2.2c-.063.321-.106.577-.171.855-.235,1.07-.492,2.118-.749,3.187-.386,1.669-1.411,2.248-3.166,1.733.065-.278.128-.555.192-.834a1.925,1.925,0,0,1,.257-.042c.963.042,1.112-.065,1.348-.963.235-.962.45-1.926.664-2.952-.258-.042-.472-.107-.75-.149C4360.776,4916.555,4360.818,4916.3,4360.883,4916Z" transform="translate(-3086.929 -1195.126)" fill-rule="evenodd"/>
    <path id="Path_29" data-name="Path 29" d="M6648.005,4912.643h1.3c.043.149.065.3.108.47a2.862,2.862,0,0,1,1.626-.514,1.886,1.886,0,0,1-.256,1.326h-1.158a.624.624,0,0,0-.661.6c-.108.621-.278,1.2-.407,1.8-.064.213-.129.406-.171.62H6647C6647.342,4915.508,6647.662,4914.1,6648.005,4912.643Z" transform="translate(-5326.253 -1191.789)" fill-rule="evenodd"/>
    <path id="Path_30" data-name="Path 30" d="M5233.983,4915h1.413c-.342,1.455-.663,2.845-.984,4.279H5233C5233.342,4917.844,5233.663,4916.454,5233.983,4915Z" transform="translate(-3942.331 -1194.147)" fill-rule="evenodd"/>
    <path id="Path_31" data-name="Path 31" d="M8002.983,4916h1.412c-.344,1.454-.663,2.865-1.006,4.279H8002C8002.318,4918.823,8002.663,4917.412,8002.983,4916Z" transform="translate(-6652.419 -1195.126)" fill-rule="evenodd"/>
    <path id="Path_32" data-name="Path 32" d="M5462,4813.229c.365-.448.684-.876,1.026-1.261a.728.728,0,0,1,.472-.193,8.717,8.717,0,0,1,1.069-.02c-.257.555-.77.749-1.089,1.112A1.308,1.308,0,0,1,5462,4813.229Z" transform="translate(-4166.458 -1093.068)" fill-rule="evenodd"/>
    <path id="Path_33" data-name="Path 33" d="M8055.494,4838.961H8054c.082-.343.148-.621.21-.962h1.478C8055.627,4838.32,8055.561,4838.6,8055.494,4838.961Z" transform="translate(-6703.311 -1118.758)" fill-rule="evenodd"/>
    <path id="Path_34" data-name="Path 34" d="M5287.667,4838c-.063.341-.128.642-.212.962H5286c.063-.32.128-.6.192-.962Z" transform="translate(-3994.201 -1118.758)" fill-rule="evenodd"/>
    <path id="Path_35" data-name="Path 35" d="M4490,4838.961c.086-.343.127-.641.213-.962h1.456c-.064.341-.129.619-.215.962Z" transform="translate(-3215.137 -1118.758)" fill-rule="evenodd"/>
    <path id="Path_36" data-name="Path 36" d="M8585.951,4997.411c-.686.428-1.242.428-1.584.022-.32-.386-.236-.876.277-1.433.215.235.451.448.666.685S8585.717,4997.133,8585.951,4997.411Z" transform="translate(-7222.38 -1273.415)" fill="#fff" fill-rule="evenodd"/>
    <path id="Path_37" data-name="Path 37" d="M8620.763,4879.829c-.191-.278-.363-.472-.489-.686a.512.512,0,0,1,.191-.685.578.578,0,0,1,.725-.064.517.517,0,0,1,.13.705A4.4,4.4,0,0,1,8620.763,4879.829Z" transform="translate(-7257.641 -1158.198)" fill="#fff" fill-rule="evenodd"/>
    <path id="Path_38" data-name="Path 38" d="M8214.646,4949.65H8213a.932.932,0,0,1,1.089-.836C8214.561,4948.858,8214.688,4949.052,8214.646,4949.65Z" transform="translate(-6858.928 -1227.236)" fill="#fff" fill-rule="evenodd"/>
    <path id="Path_39" data-name="Path 39" d="M9527,4949.684c.34-.686.728-.919,1.282-.814.405.064.492.193.512.814Z" transform="translate(-8145.034 -1227.27)" fill="#fff" fill-rule="evenodd"/>
    <path id="Path_40" data-name="Path 40" d="M6074.275,5025.7c.043.832-.341,1.089-1.091,1.112-.236,0-.493-.023-.556-.321a.593.593,0,0,1,.342-.643A2.179,2.179,0,0,1,6074.275,5025.7Z" transform="translate(-4764.087 -1302.456)" fill="#fff" fill-rule="evenodd"/>
    <path id="Path_41" data-name="Path 41" d="M4234.555,5021c-.021.983-.363,1.2-1.069,1.241-.236,0-.514,0-.578-.3a.507.507,0,0,1,.364-.663A8.709,8.709,0,0,1,4234.555,5021Z" transform="translate(-2963.491 -1297.88)" fill="#fff" fill-rule="evenodd"/>
    <path id="Path_42" data-name="Path 42" d="M4812.737,4952.514c-.15.385-.258.792-.449,1.176a.944.944,0,0,1-.877.513.625.625,0,0,1-.684-.577,2.2,2.2,0,0,1,.383-1.668,1.328,1.328,0,0,1,.343-.342.815.815,0,0,1,.877-.022C4812.672,4951.807,4812.649,4952.15,4812.737,4952.514Z" transform="translate(-3529.012 -1229.844)" fill="#fff" fill-rule="evenodd"/>
    <path id="Path_43" data-name="Path 43" d="M6908.408,4952.518c-.151.406-.279.833-.472,1.24a.942.942,0,0,1-.878.513c-.385-.021-.641-.171-.684-.556a2.1,2.1,0,0,1,.47-1.8.908.908,0,0,1,1.026-.321C6908.172,4951.726,6908.32,4952,6908.408,4952.518Z" transform="translate(-5580.067 -1229.911)" fill="#fff" fill-rule="evenodd"/>
    <path id="Path_44" data-name="Path 44" d="M7426.829,4953.267a2.083,2.083,0,0,1,.514-1.39.93.93,0,0,1,1.026-.3.819.819,0,0,1,.427.9,2.065,2.065,0,0,1-.6,1.54.88.88,0,0,1-1,.151C7426.871,4954.016,7426.807,4953.716,7426.829,4953.267Z" transform="translate(-6089.48 -1229.891)" fill="#fff" fill-rule="evenodd"/>
  </g>
</svg>
