<svg xmlns="http://www.w3.org/2000/svg" width="17.835" height="20" viewBox="0 0 17.835 20">
  <g id="iconfinder_logout_4115235" transform="translate(-5.93 -2)">
    <line id="Line_10" data-name="Line 10" x2="9.607" transform="translate(12.744 12)" fill="none" stroke="#fff" stroke-linecap="round" stroke-linejoin="round" stroke-width="2"/>
    <path id="Path_77" data-name="Path 77" d="M18.721,18.429v2.143H7.351V3.429H18.721V5.571h1.421V2.714A.712.712,0,0,0,19.431,2H6.641a.712.712,0,0,0-.711.714V21.286A.712.712,0,0,0,6.641,22H19.431a.712.712,0,0,0,.711-.714V18.429Z" fill="#fff"/>
    <line id="Line_11" data-name="Line 11" x1="2.956" y2="2.956" transform="translate(19.395 11.942)" fill="none" stroke="#fff" stroke-linecap="round" stroke-linejoin="round" stroke-width="2"/>
    <line id="Line_12" data-name="Line 12" x1="2.956" y1="2.956" transform="translate(19.395 9.102)" fill="none" stroke="#fff" stroke-linecap="round" stroke-linejoin="round" stroke-width="2"/>
    <line id="Line_13" data-name="Line 13" y1="1.478" transform="translate(19.395 5.023)" fill="none" stroke="#fff" stroke-linecap="round" stroke-linejoin="round" stroke-width="2"/>
    <line id="Line_14" data-name="Line 14" y1="1.478" transform="translate(19.395 17.566)" fill="none" stroke="#fff" stroke-linecap="round" stroke-linejoin="round" stroke-width="2"/>
  </g>
</svg>
