<svg xmlns="http://www.w3.org/2000/svg" width="54" height="35.438" viewBox="0 0 54 35.438">
  <path id="iconfinder_mail_115714" d="M47.25,5H6.75A6.751,6.751,0,0,0,0,11.75V33.688a6.75,6.75,0,0,0,6.75,6.75h40.5A6.75,6.75,0,0,0,54,33.688V11.75A6.751,6.751,0,0,0,47.25,5ZM3.375,13.859l11.811,8.859L3.375,31.578Zm47.25,19.828a3.378,3.378,0,0,1-3.375,3.375H6.75a3.377,3.377,0,0,1-3.375-3.375l13.216-9.914,7.371,5.53a5.06,5.06,0,0,0,6.073,0l7.373-5.53,13.217,9.914Zm0-2.109L38.812,22.719l11.813-8.859Zm-21.6-3.625a3.372,3.372,0,0,1-4.048,0L18,22.719l-1.406-1.055L3.375,11.752v0A3.378,3.378,0,0,1,6.75,8.375h40.5a3.379,3.379,0,0,1,3.375,3.375Z" transform="translate(0 -5)" fill="#000"/>
</svg>
