<svg xmlns="http://www.w3.org/2000/svg" width="27.538" height="27.909" viewBox="0 0 27.538 27.909">
  <g id="iconfinder_simpline_8_2305589" transform="translate(-9 -1.03)">
    <path id="Path_55" data-name="Path 55" d="M17.667,11,10,13.045V32.467l7.667-2.045Z" transform="translate(0 -4.529)" fill="none" stroke="#ffffff" stroke-linecap="round" stroke-linejoin="round" stroke-width="2"/>
    <path id="Path_56" data-name="Path 56" d="M29.687,12.278,25,11V30.423l7.667,2.045V18.892" transform="translate(-7.333 -4.529)" fill="none" stroke="#ffffff" stroke-linecap="round" stroke-linejoin="round" stroke-width="2"/>
    <path id="Path_57" data-name="Path 57" d="M40,26.44V40.016l7.667-2.045V26.44" transform="translate(-14.666 -12.077)" fill="none" stroke="#ffffff" stroke-linecap="round" stroke-linejoin="round" stroke-width="2"/>
    <path id="Path_58" data-name="Path 58" d="M4.707,0h0A4.707,4.707,0,0,1,9.415,4.707h0A4.707,4.707,0,0,1,4.707,9.43H0V4.713A4.707,4.707,0,0,1,4.707,0Z" transform="translate(22.505 8.395) rotate(-45.01)" fill="none" stroke="#ffffff" stroke-linecap="round" stroke-linejoin="round" stroke-width="1"/>
    <path id="Path_59" data-name="Path 59" d="M2.188,0A2.188,2.188,0,1,1,0,2.188,2.188,2.188,0,0,1,2.188,0Z" transform="translate(26.98 6.165)" fill="none" stroke="#ffffff" stroke-linecap="round" stroke-width="1"/>
  </g>
</svg>
