<svg xmlns="http://www.w3.org/2000/svg" width="259.431" height="180" viewBox="0 0 259.431 180">
  <path id="Intersection_1" data-name="Intersection 1" d="M764.873,218.989l144.29-83.306a14.72,14.72,0,0,0,5.382-20.087l-71.466-8.616-15.772,36.926a22.044,22.044,0,0,1-22.916,13.231l-39.859-4.808-28.272,66.2q.135.234.277.46h-16.99l-43.811-75.883A29.416,29.416,0,0,1,686.5,102.932L797.253,38.989h29.41l-132.81,76.678a14.719,14.719,0,0,0-5.383,20.087l0,.006,71.463,8.609,7.6.917,37.732,4.55a14.692,14.692,0,0,0,15.275-8.819L864.121,38.989h23.174l39.984,69.255a29.411,29.411,0,0,1-10.764,40.174L794.281,218.989Zm-33.207-8.419,25.265-59.158-63.865-7.7ZM846.079,99.942l63.87,7.7-38.6-66.857Z" transform="translate(-671.793 -38.989)" fill="#fff" opacity="0.2"/>
</svg>
