<svg id="Layer_x0020_1" xmlns="http://www.w3.org/2000/svg" width="106.045" height="106.03" viewBox="0 0 106.045 106.03">
  <path id="Path_163" data-name="Path 163" d="M1383.686,434.466c3.574,0,9.748-.542,11.805,1.083,2.058,1.733,2.382,5.524,4.007,5.957,19.062-.433,38.881-1.191,57.943-1.408,3.465,0,8.123-.975,8.123,3.141,0,3.791-2.924,3.466-6.931,3.357-18.845-.542-37.8-.975-56.643-1.516-2.708,0-2.924-.217-3.791,1.625-3.141,6.5-3.249,5.415-13.1,5.415-.758,0-2.708-2.708-3.033-3.358h7.473c2.167.108,1.841.542,1.841-3.682h-11.155l-.217-3.574h11.372V438.04h-10.4C1381.2,437.065,1382.82,434.466,1383.686,434.466Zm7.906,99.1h-9.964a4.546,4.546,0,0,0,3.466-2.491c.434-.758.542-3.574,1.625-4.224,1.408-1.191,2.815,0,2.815,2.383A5.855,5.855,0,0,0,1391.592,533.564Zm77.438-15.7v2.166a21.579,21.579,0,0,1-6.065,11.589c-3.9,3.791-8.448,5.09-13.213,5.415h-66.39c-3.575-.217-6.716-.65-8.773-1.625-7.473-3.466-11.155-11.047-11.588-15.6v-1.95c.108-.866.325-1.408.758-1.624.866-.433,57.4-.217,63.466-.217l40.072-.108A2.083,2.083,0,0,1,1469.03,517.86Zm-70.181,15.7a2.394,2.394,0,0,0,1.191-2.491l.325-11.589h65.091a15.771,15.771,0,0,1-8.123,12.13c-5.09,2.708-12.347,1.95-18.087,1.95Zm-32.167-14.08,30.325.108c0,2.491.65,13.971-2.815,12.022-1.733-1.083.108-7.256-5.2-8.448a4.962,4.962,0,0,0-5.09,1.516c-1.408,1.841-1.191,2.383-1.95,4.874-.216,1.3-2.816,1.408-3.033-.433v-6.065h-3.465c0,1.625-.109,4.441,0,6.173a4.017,4.017,0,0,0,2.6,3.682C1372.423,531.615,1366.682,525.658,1366.682,519.485Zm43.322-7.04h3.574c.108-1.3.542-1.949,1.841-1.949,2.166,0,1.191,1.949,2.274,1.949h2.491c1.625,0-.433-5.415-5.2-5.415A5.44,5.44,0,0,0,1410,512.445Zm30.433,0h3.574c.108-1.3.542-1.949,1.841-1.949,2.275,0,1.083,1.949,2.275,1.949h3.14c0-3.9-5.2-7.8-9.314-3.682A4.853,4.853,0,0,0,1440.438,512.445Zm-37.473-1.516v1.516c6.932,0,.758-.325,5.74-6.281,3.791-4.549,15.6-3.791,15.6,6.281h3.574a11.511,11.511,0,0,0-3.683-8.773,12.47,12.47,0,0,0-19.82,2.816A9.768,9.768,0,0,0,1402.964,510.929Zm36.065-17c.217,1.083.975,2.491,1.083,3.357,1.516,0,2.058-.866,5.957-.866a15.831,15.831,0,0,1,15.921,16.029h3.574a18.547,18.547,0,0,0-2.6-9.639,16.171,16.171,0,0,0-.866-1.408,13.744,13.744,0,0,1-1.083-1.3,20.634,20.634,0,0,0-6.281-5.09c-3.9-2.058-6.065-2.058-10.073-2.058A26.375,26.375,0,0,0,1439.029,493.925Zm-72.563-59.459h4.224a12.509,12.509,0,0,0-1.083,3.574h-3.141v3.466h2.708c0,1.516.217,2.058.217,3.574h-2.924v3.682c4.548,0,3.683-.325,4.332,1.516a12.51,12.51,0,0,1,.65,1.841h-4.982V455.8h7.04c.434,0,2.058,1.949,2.491,2.383,4.116,4.874-1.191,6.823-3.791,11.805a21.5,21.5,0,0,0-2.6,15.163,36.515,36.515,0,0,0,1.083,3.682,16.358,16.358,0,0,1,3.25-1.083c0-1.625-.975-1.949-.975-7.473a17.72,17.72,0,0,1,4.44-11.589c1.408-1.733,3.357-2.816,3.357-7.256s-2.708-5.74-4.549-8.448c-6.823-9.856-1.083-19.6-1.083-20.145a1.76,1.76,0,0,0-1.841-1.841h-6.823Zm42.13,55.777c1.408,0,2.491-.867,7.473-.867,7.257,0,13.213,3.466,17.762,8.773a20.994,20.994,0,0,1,3.141,5.74c-1.517,1.083-1.95,2.816-2.708,3.357-.325-3.574-4.549-8.664-7.69-10.83-3.9-2.708-9.639-4.441-14.513-3.249Zm-42.13,21.119v1.083h3.574c0-5.09,1.95-11.047,5.2-14.729.542-.542.866-.975,1.408-1.516l3.033-2.6a24.034,24.034,0,0,1,22.311-2.6c1.516.541,4.982,2.274,5.74,3.357-1.191.65-2.166,1.191-3.357,1.841a7.347,7.347,0,0,0-2.058-1.191,16.03,16.03,0,0,0-4.982-1.733c-11.588-2.383-22.2,6.173-23.5,16.462-.433,3.357-.65,2.708,3.466,2.708,0-9.1,6.715-16.029,16.354-16.029l-1.95,3.249c-.866,1.083-4.44.542-7.906,4.765a11.862,11.862,0,0,0-1.516,2.275,11.225,11.225,0,0,0-1.516,5.74c6.606,0,1.949,0,4.982-4.982a6.966,6.966,0,0,1,4.007-3.141c-.867,3.466-1.3,4.116-1.3,8.123h3.574a23.893,23.893,0,0,1,1.733-8.773c.867-1.841,2.816-5.523,4.224-6.606,1.408.325,2.816,1.3,3.574,1.408-.867,1.3-2.166,1.949-3.791,5.415a15.925,15.925,0,0,0-2.058,8.556h3.574c0-12.78,13-19.061,22.852-14.621a15.779,15.779,0,0,1,9.423,14.621c7.473,0,4.548.65,5.957-3.466a7.513,7.513,0,0,1,2.924-3.9c4.766-3.466,14.3-1.3,14.3,7.365,4.115,0,3.9.542,3.574-2.058-.866-5.307-6.5-10.4-11.372-10.4-5.957,0-4.657.866-7.04,1.408a16.843,16.843,0,0,0-1.733-3.032,24.918,24.918,0,0,0-6.932-7.365c-3.033-2.275-8.989-5.09-14.188-5.09-3.791,0-4.765-.216-8.556.758-4.766,1.191-2.708,1.841-6.065.65-.65-.217-1.3-.433-2.058-.65-8.556-2.166-17.979-.108-24.368,5.632a22.168,22.168,0,0,0-4.657,4.874A25.409,25.409,0,0,0,1366.466,511.362Zm10.18-69.856c0,9.964,4.225,10.181,6.5,14.621a11.522,11.522,0,0,1,0,10.939,16.234,16.234,0,0,1-2.924,3.682,14.726,14.726,0,0,0-2.6,4.115c-1.3,3.249-1.191,4.224-1.191,7.69,0,1.083.216.975.216,1.841a27.906,27.906,0,0,1,3.575-.541c0-3.141-1.083-4.116,1.191-8.556a18.643,18.643,0,0,1,2.816-3.574c3.466-4.007,4.765-11.264,2.6-15.921h3.682c1.3,2.708,1.191,7.581.325,10.722a22.88,22.88,0,0,1-1.083,3.249,21.975,21.975,0,0,1-2.491,3.682c-.433.542-.542.758-.975,1.3a8.094,8.094,0,0,0-2.816,6.823c4.224,0,3.357.216,3.574-1.408.542-3.141,7.256-6.5,7.8-16.9.217-3.357.217-.325,0-3.9a13.259,13.259,0,0,0-.216-2.058,10.448,10.448,0,0,1-.325-1.949c2.925-.217,6.173-4.007,6.823-6.607,24.152.758,40.506,1.083,61.733,1.516,5.2,0,9.639-9.206,2.383-13-2.167-1.191-4.874-.758-8.339-.758-19.6.542-36.932,1.083-55.777,1.516a11.388,11.388,0,0,0-2.924-4.765,9.2,9.2,0,0,0-5.632-2.274h-10.072C1380.112,431,1376.646,437.607,1376.646,441.506Z" transform="translate(-1363 -431)" fill-rule="evenodd"/>
</svg>
