<svg xmlns="http://www.w3.org/2000/svg" width="54" height="54" viewBox="0 0 54 54">
  <g id="Group_275" data-name="Group 275" transform="translate(-400 -545)">
    <circle id="Ellipse_38" data-name="Ellipse 38" cx="27" cy="27" r="27" transform="translate(400 545)" fill="#ffba00"/>
    <path id="iconfinder_phone_1608790" d="M216,146.955a5.627,5.627,0,0,1-.17,1.2,6.771,6.771,0,0,1-.358,1.168,4.57,4.57,0,0,1-2.08,1.807,6.319,6.319,0,0,1-4.065.81,7.366,7.366,0,0,1-.98-.213q-.545-.153-.81-.247t-.946-.349q-.682-.256-.835-.307a15.437,15.437,0,0,1-2.983-1.415,28.631,28.631,0,0,1-8.182-8.182,15.436,15.436,0,0,1-1.415-2.983q-.051-.153-.307-.835t-.349-.946q-.094-.264-.247-.81a7.363,7.363,0,0,1-.213-.98,6.319,6.319,0,0,1,.81-4.065,4.57,4.57,0,0,1,1.807-2.08,6.771,6.771,0,0,1,1.168-.358,5.627,5.627,0,0,1,1.2-.17.955.955,0,0,1,.358.051q.307.1.9,1.3.188.324.511.92t.6,1.082q.273.486.528.912.051.068.3.426a4.758,4.758,0,0,1,.366.605,1.112,1.112,0,0,1,.119.486,1.415,1.415,0,0,1-.486.852,8.309,8.309,0,0,1-1.057.938,10.265,10.265,0,0,0-1.057.9,1.3,1.3,0,0,0-.486.784,1.152,1.152,0,0,0,.085.384,3.724,3.724,0,0,0,.145.349q.06.119.239.409t.2.324a16.894,16.894,0,0,0,6.972,6.972q.034.017.324.2t.409.239a3.717,3.717,0,0,0,.349.145,1.151,1.151,0,0,0,.384.085,1.3,1.3,0,0,0,.784-.486,10.267,10.267,0,0,0,.9-1.057,8.309,8.309,0,0,1,.938-1.057,1.415,1.415,0,0,1,.852-.486,1.112,1.112,0,0,1,.486.119,4.762,4.762,0,0,1,.605.366q.358.247.426.3.426.256.912.528t1.082.6q.6.324.92.511,1.193.6,1.3.9A.955.955,0,0,1,216,146.955Z" transform="translate(223 432)" fill="#fff"/>
  </g>
</svg>
