<svg xmlns="http://www.w3.org/2000/svg" width="26.002" height="26.002" viewBox="0 0 26.002 26.002">
  <defs>
    <style>
      .cls-1 {
        fill: none;
        stroke: #fff;
        stroke-linecap: round;
        stroke-linejoin: round;
        stroke-width: 2px;
      }
    </style>
  </defs>
  <path id="iconfinder_phone-call_2561306" class="cls-1" d="M26.111,21.769v3.613a2.412,2.412,0,0,1-2.631,2.409,23.911,23.911,0,0,1-10.414-3.7,23.508,23.508,0,0,1-7.24-7.226,23.8,23.8,0,0,1-3.7-10.441A2.411,2.411,0,0,1,4.523,3.8h3.62a2.412,2.412,0,0,1,2.413,2.071A15.438,15.438,0,0,0,11.4,9.256a2.4,2.4,0,0,1-.543,2.541L9.326,13.327a19.288,19.288,0,0,0,7.24,7.226L18.1,19.023a2.417,2.417,0,0,1,2.546-.542,15.519,15.519,0,0,0,3.391.843,2.41,2.41,0,0,1,2.076,2.445Z" transform="translate(-1.111 -2.8)"/>
</svg>
