<svg xmlns="http://www.w3.org/2000/svg" width="106.03" height="96.423" viewBox="0 0 106.03 96.423">
  <g id="_2748337580624" transform="translate(0 0)">
    <path id="Path_172" data-name="Path 172" d="M1363.866,572.161c-.239-3.343-.956-3.821,5.731-6.448,2.508-1.075,20.657-8.836,21.971-9.075.119.478.238,1.672.358,2.03a12.462,12.462,0,0,1,.716,1.911l-25.075,10.149C1366.612,571.087,1364.822,571.923,1363.866,572.161Zm43.7-17.552a44.117,44.117,0,0,0-.6-4.418,11.055,11.055,0,0,1,2.388-1.075c4.418-1.791,32.956-13.493,35.583-14.925a16.7,16.7,0,0,0,2.149-1.552c-1.672,7.284-6.328,8.358-12.179,10.746Zm-4.418-5.015c0,3.224,1.671,6.687-.358,9.313a4.39,4.39,0,0,1-3.224,1.552c-5.97.717-3.821-7.642-3.821-9.672l-29.015,12.06c-2.747,1.075-6.807,3.343-6.807,6.806,0,6.925,4.3,7.761,4.3,12.06,0,3.463-10.269,4.656-11.225.239-.955-3.94,1.792-16.6,1.792-19.582,0-3.1-3.343-3.94-3.94-4.179-1.194-.716-2.149-4.179-2.149-6.328,0-5.134,4.18-8.717,8.12-10.746,0-3.582.836-9.791,1.075-13.254a28.9,28.9,0,0,1,.239-4.537c.239-1.313.239-3.1.358-4.418l.717-8.836c.119-1.194.239-3.224.239-4.418a22.194,22.194,0,0,0,3.94-.478c19.7-3.224,49.313-5.731,65.791,5.731a30.051,30.051,0,0,1,6.328,5.97l4.776,7.522c.956,2.03,2.269,3.582.956,5.851-1.792,2.985-6.687,4.3-10.508,5.97-7.4,3.224-15.642,6.209-23.045,9.552C1403.986,547.445,1403.15,546.968,1403.15,549.594Zm39.761-28.537c.717-.239.478-.239,1.075-.716.478-.6.358-.358,1.075-.836,0,1.075,2.269,6.328.6,8.358a11.2,11.2,0,0,0-.478-1.911l-1.433-3.224C1443.388,522.012,1443.03,521.893,1442.91,521.057Zm-6.567-8.955a14.333,14.333,0,0,0,1.792-2.865c.836.119,1.194.716,1.672,1.313s.836,1.075,1.313,1.672a21.453,21.453,0,0,1,2.269,3.821c-1.552,1.075-1.313,1.313-2.507,1.911C1439.329,515.564,1437.179,513.415,1436.343,512.1Zm-10.149-10.746c2.388.119,7.284,3.821,9.313,5.134-.358,1.313-1.552,1.91-1.91,3.1-.717-.12-1.314-.836-1.911-1.314a52.127,52.127,0,0,0-6.567-3.821A13.619,13.619,0,0,0,1426.194,501.355Zm-65.911.358a12.479,12.479,0,0,1,2.03-2.269l1.075-.716a21.712,21.712,0,0,1,5.253-.955v2.985C1365.776,500.758,1363.03,501.714,1360.283,501.714Zm61.493,1.313c-1.314-.358-2.866-.955-4.418-1.433s-2.985-.716-4.657-1.075c.119-1.313.716-1.672.835-2.866a28.179,28.179,0,0,1,4.776.955l4.537,1.314A18.766,18.766,0,0,0,1421.777,503.027Zm-49.433-2.985v-2.865a39.053,39.053,0,0,0,5.254-.478c1.194-.12,4.9-.239,5.492-.6v3.1a37.468,37.468,0,0,0-5.373.477C1375.925,499.8,1374.015,500.042,1372.344,500.042Zm14.447-.955v-3.1h8.956v2.866H1388.7C1387.627,498.848,1387.747,499.087,1386.791,499.087Zm22.21.836c-.836-.12-2.03-.358-2.986-.478-7.642-.716-6.567.716-6.567-3.463,1.553.119,3.583.358,5.254.358a35.513,35.513,0,0,1,5.135.6A27.692,27.692,0,0,0,1409,499.923Zm-64,51.343c0,3.463.6,7.642,3.462,9.791.836.6,1.672.716,2.507,1.313l-1.552,11.94c-.835,6.567-1.194,11.821,5.254,13.851a13.683,13.683,0,0,0,10.746-1.672c5.492-3.821.716-10.269.478-10.985,2.388-1.313,23.164-9.433,28.418-11.582,2.149-.955,1.433.358,4.538.358a9.145,9.145,0,0,0,7.164-3.343c1.075-1.672.358-1.791,1.433-2.388a8.239,8.239,0,0,1,.955-.358c1.433-.6,2.627-1.074,3.94-1.552l30.209-12.418c4.657-2.269,8.478-7.642,8.478-12.9,0-5.493-.478-6.328-2.03-11.343-4.657-14.687-16.956-22.328-31.761-25.433-16.836-3.582-33.791-2.627-50.747-.239-5.731.717-9.671,3.343-10.507,8.955l-.955,11.94c-.716,6.328-.955,14.09-1.672,21.134-.358,3.582.717,1.433-2.507,4.179C1348.1,542.788,1345,546.848,1345,551.266Z" transform="translate(-1345 -492.183)" fill-rule="evenodd"/>
    <path id="Path_173" data-name="Path 173" d="M1469.474,875.62c-2.838,0-8.854.568-8.854-2.27v-1.362c0-3.292,16.118-9.307,17.479-4.767S1474.014,875.62,1469.474,875.62Zm-1.589,3.746c15.777,0,18.5-17.366,6.7-17.366-3.292,0-6.923,1.249-9.534,2.27a17.959,17.959,0,0,0-6.81,4.54c-1.93,2.27-1.476,6.356.34,8.4C1460.394,879.139,1465.161,879.366,1467.885,879.366Z" transform="translate(-1444.276 -817.333)" fill-rule="evenodd"/>
    <path id="Path_174" data-name="Path 174" d="M1842.4,704.686c-1.816,0-7.15.114-7.6-1.816-.34-1.7-.113-2.61.794-3.519a11.071,11.071,0,0,1,2.951-1.929c3.292-1.589,7.377-3.178,11.123-2.838,2.724.341,2.611,1.476,2.611,3.519s-2.043,3.973-3.405,4.767A12.3,12.3,0,0,1,1842.4,704.686Zm-.908,3.519c5.448,0,9.307-1.362,12.6-5.335,3.292-4.086,3.86-17.139-14.868-9.648a16.144,16.144,0,0,0-6.811,4.427c-2.043,2.156-1.589,6.016.114,8.172C1834.114,707.864,1837.859,708.2,1841.491,708.2Z" transform="translate(-1772.082 -666.941)" fill-rule="evenodd"/>
    <path id="Path_175" data-name="Path 175" d="M1504.259,629.507a32.316,32.316,0,0,1-6.7-.34c-2.156-.454-1.93-1.589-1.93-3.178,0-2.724,9.308-6.47,14.3-6.47C1516.63,619.519,1512.885,629.507,1504.259,629.507ZM1492,625.648c0,8.059,5.789,7.491,12.485,7.491,5.675,0,12.372-4.313,12.372-10.669,0-4.086-2.61-6.469-6.7-6.469a24.681,24.681,0,0,0-11.577,2.951C1496.2,620.086,1492,622.47,1492,625.648Z" transform="translate(-1474.164 -601.048)" fill-rule="evenodd"/>
    <path id="Path_176" data-name="Path 176" d="M1640.145,755.476c-4.653,0-4.086,3.292-5.448,3.292-1.135,0-1.589-.34-2.383-.34-1.816,0-4.313,1.816-4.313,3.519s1.362,1.7,2.156,1.7c.908,0,1.135-1.249,1.816-1.476.567-.34,4.313,1.7,6.583-2.156,1.135-2.043,1.135-.681,3.4-.681a5.307,5.307,0,0,0,2.838-1.022c2.5-2.043,1.476-4.313-.341-4.313-1.135,0-1.249.795-1.816,1.362C1641.848,756.157,1641.28,755.476,1640.145,755.476Z" transform="translate(-1593.839 -722.557)" fill-rule="evenodd"/>
    <path id="Path_177" data-name="Path 177" d="M1725,601.676c0,2.5,1.929,1.362,2.951,1.929.794.454.113,1.589,2.27,3.292,1.249,1.021,2.384.795,4.654.795.794,1.7.908,3.065,2.837,3.859,4.767,2.043,5.9-2.951,2.384-3.178-2.384-.227-.908-.34-1.929-2.043a5.568,5.568,0,0,0-3.405-2.27c-1.476-.227-2.27.908-3.065-.908C1730.108,598.838,1725,599.179,1725,601.676Z" transform="translate(-1679.167 -587.623)" fill-rule="evenodd"/>
    <path id="Path_178" data-name="Path 178" d="M1724.946,852.356c-3.632,0-5.334,5.448-1.7,5.448,1.135,0,1.589-.681,1.589-1.929,3.632-.114,3.745-3.972,3.859-4.086.227-.227,2.5-.227,3.292-2.27.567-1.362.681-3.519-1.476-3.519-1.135,0-1.249.567-1.589,1.362-.567,1.362-.567.454-1.816,1.135A4.258,4.258,0,0,0,1724.946,852.356Z" transform="translate(-1676.029 -803.445)" fill-rule="evenodd"/>
    <path id="Path_179" data-name="Path 179" d="M1586,662.23c0,3.065,3.519,2.611,3.519.227C1589.519,660.414,1586,660.3,1586,662.23Z" transform="translate(-1557.172 -640.672)" fill-rule="evenodd"/>
    <path id="Path_180" data-name="Path 180" d="M1512,941.816c0,2.384,3.519,2.043,3.519.34,0-1.021-.34-2.156-1.816-2.156A1.7,1.7,0,0,0,1512,941.816Z" transform="translate(-1492.025 -886.424)" fill-rule="evenodd"/>
    <path id="Path_181" data-name="Path 181" d="M1562,906.556a1.764,1.764,0,1,0,3.519.227C1565.519,904.513,1562,904.286,1562,906.556Z" transform="translate(-1536.043 -855.578)" fill-rule="evenodd"/>
    <path id="Path_182" data-name="Path 182" d="M1546,697.7a1.76,1.76,0,1,0,3.519,0A1.76,1.76,0,0,0,1546,697.7Z" transform="translate(-1521.958 -671.616)" fill-rule="evenodd"/>
    <path id="Path_183" data-name="Path 183" d="M1964,729.644a1.769,1.769,0,1,0,3.518,0C1967.519,727.828,1964,727.26,1964,729.644Z" transform="translate(-1889.958 -699.842)" fill-rule="evenodd"/>
    <path id="Path_184" data-name="Path 184" d="M1943,768.1c0,2.043,3.632,2.724,3.632-.227C1946.632,765.6,1943,765.939,1943,768.1Z" transform="translate(-1871.465 -733.518)" fill-rule="evenodd"/>
    <path id="Path_185" data-name="Path 185" d="M1586,936.733c0,3.405,5.108,1.362,3.179-1.135A1.851,1.851,0,0,0,1586,936.733Z" transform="translate(-1557.171 -882.053)" fill-rule="evenodd"/>
    <path id="Path_186" data-name="Path 186" d="M1884,770.038c0,2.27,3.631,2.27,3.631,0A1.816,1.816,0,0,0,1884,770.038Z" transform="translate(-1819.523 -735.222)" fill-rule="evenodd"/>
    <path id="Path_187" data-name="Path 187" d="M1635,677.7a1.763,1.763,0,1,0,3.519,0C1638.519,675.541,1635,675.655,1635,677.7Z" transform="translate(-1600.312 -654.117)" fill-rule="evenodd"/>
  </g>
</svg>
