<svg xmlns="http://www.w3.org/2000/svg" width="29.121" height="23.092" viewBox="0 0 29.121 23.092">
  <defs>
    <style>
      .cls-1 {
        fill: #fff;
      }
    </style>
  </defs>
  <path id="Path_50" data-name="Path 50" class="cls-1" d="M22.107-58.283l.82,1.354q-6.973,3.691-6.973,6.973,0,1.395,2.625,2.748a9.712,9.712,0,0,1,3.261,2.461,5.194,5.194,0,0,1,.923,3.2A6.123,6.123,0,0,1,20.9-37.058a6.075,6.075,0,0,1-4.45,1.866,5.621,5.621,0,0,1-4.655-2.3,9.485,9.485,0,0,1-1.784-5.988A13.843,13.843,0,0,1,14.6-53.895a18.207,18.207,0,0,1,3.056-2.317A35.166,35.166,0,0,1,22.107-58.283Zm16.2,0,.82,1.354q-6.973,3.732-6.973,6.973a1.92,1.92,0,0,0,.574,1.374,8.518,8.518,0,0,0,2.051,1.374A9.111,9.111,0,0,1,38-44.769a5.234,5.234,0,0,1,.964,3.22,6.137,6.137,0,0,1-1.846,4.512,6.041,6.041,0,0,1-4.43,1.846,5.66,5.66,0,0,1-4.7-2.3,9.485,9.485,0,0,1-1.784-5.988,13.745,13.745,0,0,1,1.169-5.578,14.864,14.864,0,0,1,3.466-4.84A24.332,24.332,0,0,1,38.309-58.283Z" transform="translate(-10.008 58.283)"/>
</svg>
