<svg xmlns="http://www.w3.org/2000/svg" width="128" height="128" viewBox="0 0 128 128">
  <g id="Group_276" data-name="Group 276" transform="translate(-891 -910)">
    <path id="iconfinder_checkmark-24_103184" d="M72.183,3.727a2.489,2.489,0,0,0-3.537,0l-37.275,37.1a2.481,2.481,0,0,1-3.54,0L11.5,24.2a2.487,2.487,0,0,0-3.54,0L.74,30.684A2.505,2.505,0,0,0,0,32.438a2.622,2.622,0,0,0,.743,1.814L17.212,51.534c.973.987,2.57,2.587,3.54,3.567l7.081,7.138a2.505,2.505,0,0,0,3.54,0L79.267,14.432a2.542,2.542,0,0,0,0-3.57Z" transform="translate(918.307 943.01)" fill="#ffba00" fill-rule="evenodd"/>
    <g id="Ellipse_14" data-name="Ellipse 14" transform="translate(891 910)" fill="none" stroke="#ffba00" stroke-width="1">
      <circle cx="64" cy="64" r="64" stroke="none"/>
      <circle cx="64" cy="64" r="63.5" fill="none"/>
    </g>
  </g>
</svg>
