<svg xmlns="http://www.w3.org/2000/svg" width="68" height="68" viewBox="0 0 68 68">
  <g id="Group_318" data-name="Group 318" transform="translate(-897 -2255)">
    <rect id="Rectangle_49" data-name="Rectangle 49" width="4" height="4" transform="translate(897 2255)" fill="#00aeea"/>
    <rect id="Rectangle_50" data-name="Rectangle 50" width="4" height="4" transform="translate(913 2255)" fill="#00aeea"/>
    <rect id="Rectangle_51" data-name="Rectangle 51" width="4" height="4" transform="translate(929 2255)" fill="#00aeea"/>
    <rect id="Rectangle_52" data-name="Rectangle 52" width="4" height="4" transform="translate(945 2255)" fill="#00aeea"/>
    <rect id="Rectangle_53" data-name="Rectangle 53" width="4" height="4" transform="translate(961 2255)" fill="#00aeea"/>
    <rect id="Rectangle_49-2" data-name="Rectangle 49" width="4" height="4" transform="translate(897 2271)" fill="#00aeea"/>
    <rect id="Rectangle_50-2" data-name="Rectangle 50" width="4" height="4" transform="translate(913 2271)" fill="#00aeea"/>
    <rect id="Rectangle_51-2" data-name="Rectangle 51" width="4" height="4" transform="translate(929 2271)" fill="#00aeea"/>
    <rect id="Rectangle_52-2" data-name="Rectangle 52" width="4" height="4" transform="translate(945 2271)" fill="#00aeea"/>
    <rect id="Rectangle_53-2" data-name="Rectangle 53" width="4" height="4" transform="translate(961 2271)" fill="#00aeea"/>
    <rect id="Rectangle_49-3" data-name="Rectangle 49" width="4" height="4" transform="translate(897 2287)" fill="#00aeea"/>
    <rect id="Rectangle_50-3" data-name="Rectangle 50" width="4" height="4" transform="translate(913 2287)" fill="#00aeea"/>
    <rect id="Rectangle_51-3" data-name="Rectangle 51" width="4" height="4" transform="translate(929 2287)" fill="#00aeea"/>
    <rect id="Rectangle_52-3" data-name="Rectangle 52" width="4" height="4" transform="translate(945 2287)" fill="#00aeea"/>
    <rect id="Rectangle_53-3" data-name="Rectangle 53" width="4" height="4" transform="translate(961 2287)" fill="#00aeea"/>
    <rect id="Rectangle_49-4" data-name="Rectangle 49" width="4" height="4" transform="translate(897 2303)" fill="#00aeea"/>
    <rect id="Rectangle_50-4" data-name="Rectangle 50" width="4" height="4" transform="translate(913 2303)" fill="#00aeea"/>
    <rect id="Rectangle_51-4" data-name="Rectangle 51" width="4" height="4" transform="translate(929 2303)" fill="#00aeea"/>
    <rect id="Rectangle_52-4" data-name="Rectangle 52" width="4" height="4" transform="translate(945 2303)" fill="#00aeea"/>
    <rect id="Rectangle_53-4" data-name="Rectangle 53" width="4" height="4" transform="translate(961 2303)" fill="#00aeea"/>
    <rect id="Rectangle_49-5" data-name="Rectangle 49" width="4" height="4" transform="translate(897 2319)" fill="#00aeea"/>
    <rect id="Rectangle_50-5" data-name="Rectangle 50" width="4" height="4" transform="translate(913 2319)" fill="#00aeea"/>
    <rect id="Rectangle_51-5" data-name="Rectangle 51" width="4" height="4" transform="translate(929 2319)" fill="#00aeea"/>
    <rect id="Rectangle_52-5" data-name="Rectangle 52" width="4" height="4" transform="translate(945 2319)" fill="#00aeea"/>
    <rect id="Rectangle_53-5" data-name="Rectangle 53" width="4" height="4" transform="translate(961 2319)" fill="#00aeea"/>
  </g>
</svg>
