<svg xmlns="http://www.w3.org/2000/svg" width="238.501" height="164.392" viewBox="0 0 238.501 164.392">
  <g id="Layer_x0020_1" transform="translate(-2504.608 -1756.95)">
    <g id="_2340670995632" transform="translate(2504.608 1756.95)">
      <g id="Group_314" data-name="Group 314" transform="translate(0 0)">
        <path id="Path_2762" data-name="Path 2762" d="M2642.369,2040.631c-.846-.488-.846.562-.56.4C2641.921,2040.968,2642.866,2040.918,2642.369,2040.631Zm1.058,6.131c-.389.09-.056,1.152.466,1.093,1.058-.12.128-1.23-.466-1.093Zm1.639.769c.876.506,3,1.117,1.432-.036-.229-.169-1.366-1.059-1.947-.865C2643.856,2046.861,2644.794,2047.414,2645.066,2047.531Zm1.216-1.948c-.352.917,2.407-.774,2.472-.79.325.188-1.427.911-.305,1.206,1.083.284,1.516-.765,1.8-1.183.581.18,2.151.285,1.733-.323-.135-.2-2.617-.2-1.617-.693.479-.235,4.637,1.55,4.013.416a12.454,12.454,0,0,1-1.7-.7,2.609,2.609,0,0,0-2.37-.206,6.884,6.884,0,0,0-2.875,1.222.913.913,0,0,1-.247.529c-.231.2-.8.247-.907.519Zm-.967,3.133c.011.03,5.526.964,3.2-.1-.331-.152-3.455-.648-3.2.1C2645.331,2048.765,2645.276,2048.607,2645.314,2048.717Zm6.452-2.254c-.911.121-.249,1.082.354.8.517-.239.332-.893-.354-.8Zm-12.39-10.906c-.617-.356-.8.7-.784.681S2640.125,2035.989,2639.376,2035.557Zm-.852,1.444c-.461-.267-.656.372-.726.424C2637.443,2037.693,2639.192,2037.386,2638.524,2037Zm14.38,10.086c-.694.107.539,1.332.717,1.352,1.278.146.634-1.56-.717-1.352Zm3.4-1.231c.6-.346.206-1.1-.965-.659-.75.282-1.266,1.556-.075.833C2655.672,2046.253,2655.886,2046.1,2656.305,2045.856Zm-17.7-4.58a30.615,30.615,0,0,0,3.125-.989c.844-.835-1.272-.942-.517-1.728.174-.19.544-.239.747-.615a.889.889,0,0,0,.113-.44c.04-.429-.322-.74-.371-1.123-.045-.355.6-3.826-1.145-2.768-.708.43-.4,1.843-.628,2.338-.317.692-.967,1.439-1.363,2.156-.535.967-1.129,2.614.039,3.169Zm2.508,3.618a2.257,2.257,0,0,0,1.3.611c-1.01.481,1.306,1.423,1.864,1.046.537-.363-1.087-1.24-1.641-1.12.434-.3-.655-1.008-.911-1.2,2.091.452-.179-.9-.6-1.237s-1.56-2.023-2.73-1.661c-1.456.45,2.3,3.071,2.724,3.559h0Zm33.217-57.13c-.233-.143-.458,1.188.38.467.12.288-.45.478-.04,1.047a1.511,1.511,0,0,0,1.947.646c.309-.171-.171-.926.216-1.235.7-.56.386-.175,1.238-.4a11.007,11.007,0,0,1,1.847-.327,17.944,17.944,0,0,1,4.585.135c1.548.228,2.779.762,4.247,1.06,1.239.251,3.09.148,1.615-.716-.816-.478-2.605-.556-3.6-.972-.463-.194-.774-.42-1.322-.6a13.5,13.5,0,0,0-3.431-.651c-.722-.01-2.39.376-3.552.422.259-.01-.616.248-.666.252-.39.034-.384-.028-.73.02-.592.081-.669-.45-.9.268-.592-.164-3-.135-1.833.584h0Zm16.178,7.588c.262.652.921-.023,1.012-.023.3,0-1.26-.587-1.012.023C2690.548,1995.455,2690.473,1995.267,2690.507,1995.351Zm11.568,32.19c.29-.174.874-.307.511-.34C2702.578,2027.2,2702.118,2027.5,2702.076,2027.541Zm5.869-23.805.384-.045a24.608,24.608,0,0,0-2.893-.44c.856.212,1.563.747,2.509.485Zm-23.362-5.559c.393.023.262-.511.233-.579-.07.17-.3.576-.233.579Zm-.324-1.159c.45.168.079.023,0,0C2684.323,1997.042,2684.3,1997.031,2684.258,1997.018Zm-5.851.1c.175.061-.406-.253,0,0Zm-33.372,8.743c.41.069.29-.551.231-.723.119.349-2.081-.142.158-.6a.781.781,0,0,1-.113-.908c.059-.171.631-1.445,1.066-.664.656-.792,1.4.362,1.817.273,1.786-.383.114-1.2-.5-1.358-.231-.059-1.875-.191-2.057-.192a2.571,2.571,0,0,0-2.507,1.272c-.645.974-.284,1.261-1.76,2.062-1.168.633-1.863.4-1.106,1.571.489.753,1.411,1.185,2.6.163.489-.421-.322-.509.62-.7-.312-.164.017-.529.486-.594.9-.124.485.3,1.066.4h0Zm-26.641,7.635a4.119,4.119,0,0,0-.207.678c2.3-1.616,2.429-2.9,3.616-4.659.194-.287.759-.436.954-.717.271-.392.138-.779.335-1.16a12.183,12.183,0,0,1,1.292-2.345q-.635.191-.7-.1c-1.469,1.1-1.737,2.633-2.7,3.753-.4.462-1.15.8-1.538,1.278-.109.133-.129.665-.221.819-.283.477-.776.77-.933,1.275-.123.4.278.713.1,1.176-.12.311.173-.448,0,0Zm2.062-18.033Zm6.109,8.187a15.175,15.175,0,0,0,3.35-.9,9.758,9.758,0,0,1,1.611-.806,7,7,0,0,1-2.252-.847c-.27-.22-.091-.516-.454-.731-.134-.08-.62.164-.858,0s-.24-.291-.377-.453a1.115,1.115,0,0,1,.214-1.412c.273-.291,1.237-1.3,1.634-1.3a1.527,1.527,0,0,0-.926-.778c-.186.006-.306.287-.613.236-.158-.027-.519-.469-.537-.468-.017.126-.487,1.393-.47,1.383a2.828,2.828,0,0,1-1.7.168c-.6.708-.818.186-.932-.131-.181-.506.414-.6.672-1.042.422-.726.279-1.687,1.908-2.089-.716.082.168-3.646-.244-3.672-1.377-.086-1.441,1.963-1.453,2.392s.578,1.105.263,1.539c-.776,1.07-.745-.269-1.257-.2-.284.039-.085.379-.205.4-.17.029-.745.132-.961.184a16.756,16.756,0,0,1-1.9.3c-.912-.062-.756.381-.974-.525-.183-.755-.2-.83.957-.564.8.185,1.035.906,1.988.1.42-.355.176-.659.14-1.006a4.4,4.4,0,0,1-.156-2.006c.107-.332.751-.714.514-1.04-.255-.35-.84-.23-1.407-.332a7.528,7.528,0,0,1-1.439-.2c-.311-.128-.215-.469-.522-.6-.867-.357-.61-.038-1.291.031a21.44,21.44,0,0,1-2.475-.037c-1.408.009-2.326.813-3.63.975a6.274,6.274,0,0,1-3.594-.82c-.643.259.364,1.222.911,1.428.675.255,2.1.136,2.888.326s5.933,2.453,5.46,2.893c1.225-.232-.528.616-.316.438a4.15,4.15,0,0,1-2.164.741c.118-.093.136.868.193.943.292.387.914.592,1.132,1.036.2.415.113.77.305,1.234.049.118.232.947.469.985.99.156.513-.326,1.137-.433,2.55-.439,2.365.876,3.106,1.71a7.533,7.533,0,0,0,1.184,1.267c.512.349,1.241.338,1.833.679.408.235.548.956,1.234,1Zm6.934-17.861a4.054,4.054,0,0,1,1.914.481.419.419,0,0,0,.263.567,8.545,8.545,0,0,0,1.305.226c1.6.438.962,1.269,2.887.772.693-.179,1.3-.658,2-.9.182-.064.974-.21.965-.207.248-.067.929-.4,1.041-.413a9.771,9.771,0,0,1,2.465.55c1.1.446,1.065.753,2.382.919-.333-.828-2.16-.8-3.091-1.526a1.149,1.149,0,0,1-.458-.774c0-.87-.206-.087.946-.9a3.4,3.4,0,0,1,2.71-1.013c.737-.015,2.969.133,3.428-.243.965-.792-1.381-.9-1.937-.817-.744.108-.57.375-1.442.507s-1.843-.133-2.745-.054a4.751,4.751,0,0,0-2.125.438c-.993.638.1.555-.467,1.233s-1.575.311-2.41.483a15.356,15.356,0,0,0-1.649.588c.757.049-1,.513-1.349.5-.18-.009-.556-.167-.737-.183-.265-.022-2.54,0-1.794-.521-.454.147-1.533.614-1.707.13a.752.752,0,0,1-.392.162h0Zm1,10.34a20.959,20.959,0,0,1-2.437.57c-.951.584.065,1.365.759,1.59,1.41.458,2.373.388,3.1,1.4a3.03,3.03,0,0,0,1.853,1.5c1.367.325,1.422-.043,1.506-.743a3.537,3.537,0,0,0-.33-2.071c-.421-.415-1.869-.313-2.266-.664.021.019.295-.832.219-.768.384-.325-.011-.4,1.046-.212-.247-.15-1.056-.58-.239-.728-.878-.657-2.539.434-3.209.127h0Zm5.347,1.259c-1.178-.537-1.29.418-.518.707.6.226.751-.107,1.307.025.055-.471.464-.315.949-.246-.527-.211-1.236-.259-1.739-.486Zm103.182,37.466c.353.516-.534.086-.46.129-.706.284-1.55.153-1.773-.278-1.044.938-2.045.538-2.366-.152-.251-.54-.229-.989-.455-1.509-.055-.127-1.482-.678-.141-.972-.069-.109-.242-.136-.517-.079.288.768-2.906.694-3.082.036-.352.22.143,1.695-1.285,1.879-.795.1-.875-.6-1.258-.754a21.366,21.366,0,0,0-2.954-.51c-.946-.12-3.026.129-3.615-.125-.069-.03-.268-.768-.386-.844-.324-.207-.931-.172-1.234-.31-.5-.229-1.19.041-.248-.527-.359-.032-.818.156-1.145.075-.2-.049-.034-.308-.278-.319a6.535,6.535,0,0,0-1.976.208c-2.034.652.28-.065-.481.589a7.723,7.723,0,0,1-1.25.566,1.236,1.236,0,0,1-.637.469c-.174.046-.334-.2-.358-.2-.386.124-1.479.663-1.723.693.052-.007-1.783-.218-1.831-.218.26,0-1.133.265-.946.229-.11.021-.5-.116-.694-.1-.969.073-3.263,1.1-2.671-.061.64-1.259,3.8-2.953,5.878-3.22a4.416,4.416,0,0,1,1.4-.038c1.182.042,2.355.057,3.606-.019.857-.053,1.827.132,2.517.052.645-.075,1.2-.55,1.851-.591-.85-.337-.713.308-1.46.329-.364.01-.778-.219-1.16-.244-.681-.045-1.47.106-1.619-.338-.032-.1.458-.5.825-.56-.393-.1-.627-.711-1.389-.794.014,0-1.221.114-1.358.122a6.32,6.32,0,0,0-2.044.153c.938.741-.783.3-1.178.162a5.536,5.536,0,0,1-1.285-.5c-.146-.136-.457-.772.336-.445.1-.576-1.386-.88-2.045-1.1-1.047-.346-1.212-1.015-2.2-1.38-1.2-.442-3.715-.167-5.189-.123a25.812,25.812,0,0,0-3.662.049c.337.514,1.15.234.161.82,1.282-.3.656.234.22.5,1.576-.336,2,.646,1.54,1.419.824-.513,1.634-.38,1.319.224-.3.584-1.136.88-1.79,1.361-.443.327-1.066,1.359-1.66,1.565-1.214.42-.055-.406-.771-.388a3.115,3.115,0,0,0-1.744.8c-.286.258.036.6-.473.8-.98.393-.215-.4-.479-.5-.227-.086-.989.434-.863-.055.079-.306,1.586-.845,2.019-1.075a23.469,23.469,0,0,0,3.262-2.059,26.54,26.54,0,0,1-5.272,1.608c-1.85.324-5.279,1.047-6.933.6-.875-.237-.618-.636-1.519-.8a5.088,5.088,0,0,0-1.943.238c-.313.037-2.667.039-2.754.083-.227.115-.414,1.373-.661,1.647-.764.842-1,.721-1.873.778-.5.033-2.134-.1-2.185-.451-.086-.6,2.217-1.094,2.331-1.685.039-.2-.834-.075-.445-.566.4-.509,1.227-.094,1.282-.654.071-.721-3.175-.24-2.781-.848.247-.382,1.719-.322,2.031-.522.292-.187-1.923-.238-2.264-.275-.4-.042-1.266-.338-1.66-.058.141-.1.4.935.208.771-.256.095-.312.187-.17.277q.409,0,.824-.019c.223.159.469.128.7.4,1.237,1.469-2.139.117-3.283.618-.1.043-.967,2.8-1.633,2.185.32.438-.26.549-.844.492.095.51.337.219-.129.551a8.291,8.291,0,0,1-1.942.434c-1.365.193-2.129.49-3.429.624a9,9,0,0,1-3.6-.25,8.046,8.046,0,0,0-4.376-.584c.757.409-.866.849-1.5.77-1.8-.222.05-1.526,1.127-.963q.07-.442.728-.542a2.981,2.981,0,0,0-2.584-.375c-2.554.531-1.174,1.958-2.429,3.1-1.691,1.541-3.128,1.116-5.018,1.038-2.218-.092-1.012-.127-.783-1.02.03-.116-.275-.434-.264-.59.014-.2.5-.333.511-.5.007-.118-.362-1.214-.194-1.158-1.387-.456-3.455,1.546-3.741,2.215-.209.488.164.963-.1,1.5-.311.634-.882.942-1.611,1.488-.9.673-.825,1.062-1.291.064a1.624,1.624,0,0,1,.372-1.647c.493-.641,1.248-1.059,1.555-1.727.413-.9.095-.727,1.532-1.45a10.286,10.286,0,0,0,3.854-3.119c-.748.16-1.795.151-1.87-.336-.065-.424.917-.586,1.4-.94.73-.541.453-.756.71-1.237.193-.361,1.057-1.127,1.058-1.45-.137-.051-1.2-.053-1.511-.107-.4-.069-.7-.381-1.069-.4-.823-.053-.65.214-1.479.266-.959.06-1.992.011-2.971.051a24.258,24.258,0,0,0-3.534.025c-1.2.277-2.15,1.181-3.38,1.565a9.325,9.325,0,0,1-3.115.536c-1.309-.287,0-1,.517-1.65a38.112,38.112,0,0,1,5.759-5.481c-2.639.662-1.312-1.753-.819-1.554-.243-.44.259-1.181.191-1.546-.1-.52-.371-.821-1.16-1.213a13.73,13.73,0,0,1-1.982-.979c-.4-.288-1.168-.712-1.286-1.085-.075-.236.375-.775.325-.858-.2-.33-.911-.321-1.3-.581a1.624,1.624,0,0,1-.627-1.222c-.088-.547.807-1.655.4-1.96-.621-.465-.984-.094-1.414.35-.3.312-.225.54-.429.839a13.2,13.2,0,0,0-.882,1.052c1.536-.529.606.321.525.544-.185.509-.8.07-.2.593.627.549,1.47.243,2.379.31,1.481.109.976-.162.689.541-.087.214-.523.4-.585.661-.126.522.636.684.232,1.293-.473.713-2.18.791-3.34.946a11.045,11.045,0,0,1-2.887.058c-.7-.083-1.779-.322-2.632-.419-1.96-.224-6.05-.43-7.273-1.442-.189.292-.518.2-.835.171.28.448-.064.668.558,1.014a16.043,16.043,0,0,0,2.718.955c1.19.327,2.064.278.321,1.08a15.116,15.116,0,0,1-3.27.864,59.02,59.02,0,0,1-10.329.939,9.876,9.876,0,0,0-4.063.76c-2.184,1.119-2.952,3.589-6.145,4.427-1.939.509-4.43-.669-6.206-.034-.686.245-1.211,1.222-1.978,1.581-1.733.81-1.7.01-3.468.209.7.461-2.511,1.021-2.922,1.079a21.189,21.189,0,0,1-6.4.36,8.351,8.351,0,0,1-2.015-.826c-1.046-.41-2.507-.389-2.541-1.224-.03-.732.921-.885,1.506-1.349,1.056-.839,1.188-1.935,1.925-2.809.931-1.1,2.706-1.964,3.662-3.062a9.363,9.363,0,0,1,2.073-2.3c1.322-.824,3.137-.854,4.495-1.4a10.2,10.2,0,0,0,2.615-1.9,5.462,5.462,0,0,0,1.494-2.014c.245-.566.191-1.468.913-1.987.257-.185,1.005-.085,1.214-.173.135-.057.386-.438.54-.5.622-.258.99-.023,1.6-.532.4-.331.44-.732.126-1.009-.192-.17-1.016-.289-1.17-.466-.266-.307.118-.474.081-.794-.184-1.555-1.628-1.238-3.633-1.823-1.071-.312-1.148-.755-2.092-1.2-.823-.386-1.824-.423-2.281-.988-.795-.982-.266-2.316.2-3.368.337-.762.212-1.768.691-2.44.74-1.04,2.8-1.5,4.183-2.211,1.483-.76,1.165-1.442,3.119-1.98a30.242,30.242,0,0,1,5.054-.993c1.128-.069,2.628.379,3.83.009,1.075-.331,1.633-.992,3.109-1.081.959-.058,4.467.379,4.014-.986-.1-.315-1.195-.272-1.16-.668.015-.171.952-.687,1.137-.811s.111-.337.367-.487.693-.133.976-.27c.709-.343,1.341-.777,2.018-1.108s.415-.536,1.4-.334c.406.083.343.268.635.409.745.361,1.876,1.7,2.763,1.792,1.488.15,2.844-1.55,2.737-2.068-.083-.4-1.442-1.606.482-1.419.764.074.809.649,1.261.91.155-.042.535-.6.672-.582.614.076.337.306.663.4.088.024.124.262.257.314.056.022.4-.147.475-.129a8,8,0,0,0,2.437,0c1.859-.035,3.234-.235,4.679.228.883.282,1.053.55,1.91-.086.581-.432.586-1.016,1.593-1.317a9.172,9.172,0,0,1,2.449.048c.165.2-.765.91-.908.971a4.131,4.131,0,0,1-1.24.262c.792.127-.454.951-.817.437-.336.391.063.182.32.472a6.047,6.047,0,0,0,.715-.567c.212-.033,1.078-.026,1.259-.078.086-.025.167.182.716-.175a6.57,6.57,0,0,0,1.557-1.949,10.7,10.7,0,0,1-3-.226,1.372,1.372,0,0,1-.516-.918c-.006-.489.377-.245.787-.389-.974,0,1.911-1.85,2.531-1.993a7.844,7.844,0,0,1,1.836.161c.466.033,2.453-.2,2.229.2a5.986,5.986,0,0,1,1.24-.144c.81-.077.834-.147,1.386-.2.395-.035.841.006,1.225-.016.608-.034.391-.382,1.142-.117-.138-.182,3.22-.55,3.507-.6-.161-.14-2.053-.4-1.859-.584a8.832,8.832,0,0,1,2.053-.062c1.243.007,1.173-.063,1.39.369.446-.408,1.832-.082,2.068.088.244-.483,1.662-.02.984.316a16.56,16.56,0,0,0,1.71.091,4.3,4.3,0,0,1,.812.2c.6.142.2.24.658.382.406.126,2.81.393,1.291,1.012,1.415-.186,1.37-.053,1.747.722.326.671.642.87-.745.837.379.079,1.77,1.258.991,1.22,1.074.8,2.509,2.249,2.145,3.524-.226.791-1.092,1.133-2.485.852-1.574-.318-2.18-1.405-2.87-2.212-.105.924-.469.756-1.18,1.526-.276.3,0,1.632.664,1.29-.674-.4-.11-1.245,1-.968.325.081.52,1.234.964,1.417.809-.706.382-.85,2.052-.739a4.7,4.7,0,0,1,1.54.372c.42.163.476.918,1.3.014-.381-.055-.493.029-.073-.335-.385.334,2.083-.96,1.147-.754.579-.128,1.623.087,1.726.7.01.058-.164.729-.313.8-.425.207-.569-.028-.64,0-.116.041-1.483-.547-1.034.345.161.32.9.291,1.094.313-.429-.052,1.538-.1,1.172-.1.216,0,1.049.114,1.243.15.521.1,2,.163,1.929.631,1-.529,2.143.612.6.733.376.207,4.968,1.159,3.218,1.549a.394.394,0,0,0,.073.094c.39-.391.788.167,1.06.085.951-.28,0-.922.126-1.16.663-1.249.828-.114,1.173.37.322.451,1.165.761,1.535,1.217a5.813,5.813,0,0,1,.8,2.369,3.414,3.414,0,0,0,.609-.108,4.358,4.358,0,0,1-.036-1.109c.342-.47.729-.372,1.474-.749-.9-.379,3.05-.808,3.6-.927a13.708,13.708,0,0,0,1.546-.254c.738.124,1.314,1.107.125.79,1.341.689-.057,1.171-1.476,1.416.305.8-1.373,1.054-2.1,1.645-.472.383-.486.765-.942,1.033a13.312,13.312,0,0,1-3.25.541,3.592,3.592,0,0,0,1.951.253c.284-.046.841-.078,1.1-.151.5-.143.7-.821,1.468-.716-1.268-.578.655-.881,1.266-1.279.753-.49.347-.907,1.448-1.165.511-.12.9.09,1.4.042.533-.051.745-.7,1.254-.3.539.423-1.414,1.005-1.806,1.265l.529.3c-.1-.61,1.1-.87,1.347-.342l.046-.037c-.135-.887.936.028,1.08.116a14.965,14.965,0,0,1,1.262,1.708c.234-.03-.647-1.8,1.544-1.835,1.278-.02,2.336,1.719,3.507,1.568.393-1.954,3.925-.221,5.663.2a7.777,7.777,0,0,1,1.5.173,5.929,5.929,0,0,1,1.03.687c.422.21,1.614.491,2.381.857a3.9,3.9,0,0,1,3.269-.113c.438.21,1.643,1.4.137,1.148.317.387,1.51.807-.011.922.5.342,1.535.387,2.1.824.615.476,1.2.966.95,1.512-.732,1.589-3.107.6-4.927.6a5.783,5.783,0,0,1,1.323,1,4.091,4.091,0,0,0,.867.809c.505.392,3.1,1.382,1.54,1.613-.066.151.8.66.883.718.336.229,1.135.559,1.323.849a2.63,2.63,0,0,1,1.835-.385c.266.089.3.641.478.844.237.263.635.306.865.567.373.424-.569,2.219-1.455,1.735-.126.432-.717,1.2-.008,1.383a10.445,10.445,0,0,0,1.04-.153,1.74,1.74,0,0,1,1.051-.131,1.932,1.932,0,0,0,.046.441c1.018.554,1.987,1.684,3.272,2.092.087-.052.356-.672.237-.631,1-.344.781-.108,1.648.131.372-.606,2.638,1.453,3.014,1.813.145.138,1.952,2.053.922,1.862.261.33.229,1.054.411,1.274.306.37,1.165.552,1.689.791.958.436,2.292,1.03,1.979,1.939-.112.325-.807.4-.759.606.124.541.75.587,1.426.905.623.294.761.722,1.3,1.02.656.361,2,.175,2.344.665.417.592-.78.819-.988.283-.678.568.4,1.005.867.893-.144.034.3-.539.677-.639.682-.182.546-.028,1,.179a14.8,14.8,0,0,1,1.687,1.316,4.111,4.111,0,0,1,.98.9c.958,1.187,1,2.657,1.614,3.916a2.171,2.171,0,0,0,.587.961c.512.469.356,1.038.72,1.576.111.162-.079-.117,0,0Zm-92.706,43.161c.367-.144-.218-.923-.433-.963-.781-.15-2.143.365-3,.426-1.536.108-5.289-.754-4.681.941-1.053-.107-.4.387-.327.456a6.652,6.652,0,0,1,.98.146c1.5.125,1.812-.253,3.2-.355.258-.019.748.073.861.062a.516.516,0,0,0,.771-.034l.094-.1a8.55,8.55,0,0,0,2.529-.576h0Zm5.281-.538c-.581-.335-.8-.2-1.04-.688.065.134.366-.758.324-.632.02-.062-.494-.007-.456.016-.16-.277,1.867-1.413.608-1.614-.9-.144-.762.577-.959.865-.487.708-.318.765-1.512,1.273-.21.089-.614-.144-.885.037-.478.319.07.543-.181.821-.307.34-1.589.567-1,1,.553.406,1.864-.16,2.6-.286.177-.03,3.383-.279,2.492-.793Zm-21.914-7.166h0Zm-.765.07c-.492-.341.5-1.808,1.284-2.045a8.134,8.134,0,0,1,2.209.906C2637.128,2069.648,2633.7,2070.919,2632.922,2070.377Zm16.359-4.843c.137-.019,2.514-1.492,1.519-1.431.168-.518,1.382-2.2.592-2.3,1.19-1.069.4-1.688.964-2.66.447-.774,3.013-1.958,1.5-2.512.1-.377,2.688-1.638,1.646-1.944-.889-.262-3.26,1.323-3.892,1.592-3.088,1.319-2.422-.942-2.529-2,1.225-.65,2.7-.018,2.138-.99-.2-.351-.753-.611-1.125-1.056-.134-.16-.671-1.323-.881-.217a2.079,2.079,0,0,1-.658-.249c.812.142.5-.334.212-.478-.512-.256-1.313.043-.7.325-.529.206-2.262.169-2.552.626a1.588,1.588,0,0,0-1.208-1.356,4.273,4.273,0,0,0-2.551.228c-.2-.387-1.031-.053-1.013.252-.036,0-.072,0-.108-.008.807-1.078-1.127-.192-1.9-.053a7.957,7.957,0,0,1-3.561-.465,12.859,12.859,0,0,0-2.759-.658,4.7,4.7,0,0,0-3.213,1.537c-.378-.8-2.2,1.8-2.369,1.991a10.545,10.545,0,0,1-1.268,1.344,8.791,8.791,0,0,1-1.8.537c-1.025.659-.232,1.514,1.063,1.759.4.076,1.023.01,1.344.091.9.228,1.17.873,2.152,1.051.611.111,1.34-.046,2.033.092a16.047,16.047,0,0,1,1.908.671c1.148.375,2.536.81,2.7,1.7.066.357-.6.848-.622,1.31-.026.625-.938.409.493.548.532.052,1.547-.24,1.862-.158-.291.063-1.583.331-1.7.412-.439.3-.195.747.764.342-.036.159-.831.356-.825.428s.3.4.36.317c-.115.171-.633.666-.735.836a1.649,1.649,0,0,0,1.759,2.271c-.281.221.527.886.63.917.326.1,1.354-.01,1.829.1,1.239.273.45.436,1.883.079,1.6-.4,3.224-.922,4.831-1.27a11.692,11.692,0,0,0,3.782-1.536c.155-.021-.012.011,0,0Zm-14.584-1.983c-.251-.145-1.446-.327-.968.089C2634.071,2063.937,2635.318,2063.909,2634.7,2063.551Zm-31.035-36.536c2.646-1.64-.936-.753-1.786-.721a7.191,7.191,0,0,1-2.027-.021c-1.856-.378-1.662-.137-3.515.878-1.241.679-3.555,1.086-4.1,2.225-.317.662.173,1.393,1.493,1.328,1.4-.069,4.089-1.305,5.381-1.77a14.89,14.89,0,0,0,2.68-1.175c-.219.9,1.869-.743,1.873-.745h0Zm32.669.283c-.71-.31-3.349,1.363-2.722,1.824,1.115.819,3.713-1.257,2.722-1.824C2636.11,2027.2,2636.395,2027.333,2636.332,2027.3ZM2661.4,2055c.849-.256-.37-3.135-.6-3.494-.31-.472-.7-1.6-1.333-1.909-.583-.289-1.975.02-2.758-.171-.47-.271,3.083-2.212-.264-2.133-1.362.032-.65.339-.967.911-.057.1-.523.34-.588.654-.081.388.332.587.715.961.526.514,1.6,1.669.334,2.4-2.562-.114-.71.334-.144,1.068.414.537-.069,1.005,1.223,1.151,1.042.118,1.071-.446,1.719.151.213.2-.114,3.607,1.574,2.644.191-.109.129-.829.153-.981a2.2,2.2,0,0,1,.347-1.349.779.779,0,0,0,.593.1h0Zm.364-18.193a7.376,7.376,0,0,0-1.735,1.368c-1.077,1.2.746,1.034.39.123.4.261.8.262.841.708.046.554-.635.609-.322,1.074-.035.049-.687.627-.81.732-.131-.115.794-1.413-.045-1.559-.727-.127-1.8.724-.874.872-.218.134-1.687.593-.885.8-.527-.007-2.3-.071-1.964.5.093.158,1.127-.009,1.251.161.137.187-.621.639-.608.972.032.813.568.549,1.321.053,1.179.444,3-.92,2.192-1.329-.174-.089-.9.177-1.2.127-.594-.1-.267-.328-.756-.456.613,0,2.309.417,3.2-.2.684-.471.854-2.279-.1-2.407.7-.462,2.6-.767,2.9-1.427.529-1.136-1.5-.546-2.43-.008q-.011-.182-.371-.11c-.247.083.14-.046,0,0Zm-3.637,1.9c-.238-.137-3.552.395-3.33.717C2655,2039.726,2658.87,2039.135,2658.122,2038.7Zm8.221-3.832c.45.26,3.441-.625,3.068-1.138C2668.884,2033.011,2665.438,2034.348,2666.343,2034.871Zm14.563-1.123a1.962,1.962,0,0,1,.671-.3q-.37-.111-.706-.249c.122.016.036.444.034.545Zm1.667-.108-.407-.123c.125.058.208.166.407.123C2682.43,2033.591,2682.554,2033.644,2682.574,2033.64Zm.791.328C2683.448,2034.016,2683.406,2034.22,2683.364,2033.968Zm0-1.156c.952.207,1.234.739,1.968.747.761.008,1.259-.238,1.948-.165.112.012-.4.22-.042.284a4.67,4.67,0,0,0,1.785-.125c.633-.141,1.138-.572,1.541-.671,2.323-.572,2.107.682.332,1.434-.365.154-.694-.059-1.039.046s-.453.337-.762.449a12.226,12.226,0,0,1-1.9.7,4.4,4.4,0,0,1-1.88-.447c-.41-.109-2.939-.267-2.352-.757-.408.155-2.491.021-2.249-.372a6.6,6.6,0,0,1-2.272.36c-.63-.348.707-.733,1.059-.942-.757.075-.334-.552.458-.528.947.165,2.277-.26,3.408-.015Zm10.274-1.106a2.662,2.662,0,0,0-1.961.67c-.059.269,1.341.54,1.287-.013.294.223.552.773.85.906.327.146.762-.188,1.16-.115.659.12,2.072.613,2.915.016.253-.178-.955-.42-1.074-.522-.465-.4-.074-.819-.37-1.253-.619-.907-1.612.767-2.806.311-.25-.094.056.021,0,0Zm-66.679-53.575c-.588,0-.448.431-.351.556-.434.033-.87.237-.685.477-1.461-.241-.59.766-.087.729-.493.288-1.735.6-.064.814-.63.175,0,.464-.759.716-.464.155-.355-.2-.546-.173-.245.041-1.561-.116-1.158.471-1.278.132-1.575-.127-.753.686-.552-.191-2.132-.05-2.148.438a12.569,12.569,0,0,0,1.489.321,17.742,17.742,0,0,1,1.757.747c.427.16,2.8.5,1.834,0,.454-.079,1.01.087,1.427-.174.348-.218.269-.872-.387-.732.114-.6,2.452-2.177,1.207-2.757,1.679-.127,2.765-.774,1.126-1.28a2.718,2.718,0,0,0,1.4-.334c.352-.427-.43-.106-.581-.186a2.819,2.819,0,0,0-1.376-.3c-.1-.01-.517.215-.739.2-.315-.023-.2-.219-.606-.219h0Zm-.143-.083a5.33,5.33,0,0,0,1.255-.183C2628.8,1977.445,2626.233,1977.711,2626.816,1978.048Zm-7.246,2.708a11.194,11.194,0,0,0,2.2.534,4.729,4.729,0,0,0,2.146-.918c.638-.372.515.4,1.09-.35.394-.512-.14-.483-.489-.7-.251-.155-1.723-.7-1.5-.057-1-.288-1.872-.49-1.968.519C2620.216,1979.836,2618.494,1980.136,2619.569,1980.756Zm-25.61-14.657c.6.058-.04-.277-.037-.276a5.556,5.556,0,0,0-1.536.144c-.37.08-.789.28-1.113.342-.376.072-.962.008-1.217.092-1.256.417-1.115.441-.261.931.019.01,1.651.733,1.292.813a2.3,2.3,0,0,0-.629.125c.5-.333,1.52,1.81,1.655.363.013-.134.739-.249.714-.292-.232-.418.411-.379.39-.493s-.522-.378-.52-.334c-.008-.184.046-.547.023-.718-.01-.075-.487-.371-.555-.236a4.068,4.068,0,0,1,1.795-.462h0Zm9.537-32.672c.531-.111-.374-.96-.394-.609C2603.092,1933.02,2602.967,1933.538,2603.5,1933.428Zm-4.723-1.094c.237.013.871.506.3.662-.267.073-.952-.5-1.05-.4-.453.453.829.591,1.1.8s.4,1.192.66,1.3c1.417.591,1.148-.806,1.045-1.074-.187-.485-.074-.847-.46-1.212a1.954,1.954,0,0,0-.955-.612c-.738-.1-1.281.5-.645.53h0Zm-2.358,1.557c.494-.062.491-1.176-.009-.943S2595.89,1933.957,2596.415,1933.891Zm5.147,1.825c.495.285,1.057.622,1.588.232.656-.483-.044-.224-.208-.6-.707-1.615-1.933.046-1.38.366Zm-2.79.439c-.493.242-.629-1.007-1-.855-.122.051-.536.8-.463.825-.34-.108-.1-.865-.521-.877-.492-.014-.329.475-.6.559-.457.139.627-2.109-.667-1.409-1.655.9.7,1.633,1.1,2.078.01.01-.931.349-.831.674.113.367,1.219.511,1.761.412,1.194-.217,1.078-1.337,1.22-1.407Zm-12.688-5.588a1.841,1.841,0,0,0,1.538.088C2587.869,1930.486,2585.9,1930.426,2586.084,1930.567Zm-7.834,1.176c.33.337-.432.784-.122,1.09-.022-.022,1.516.376,1.648.385.552.04,1.807-.411,2.412-.39.731.024,2.192.665,2.895.479,2.189-.577-3.638-3.663-3.873-3.474-.7.562-.214.561-1.558.877-1.416.333-2.187.231-1.4,1.032h0Zm26.581,2.42c.149.372-.262.547.058.932.136.163,1.552.465,1.285.747-.149.157-1.524-.3-1.538-.228a1.712,1.712,0,0,0,1.519,2.121c.127.026,3.86.372,3.908.352.528-.221-.577-.586-.582-.71-.009-.262.333-.23.377-.417.027-.111.271-.348.284-.425.041-.25-.248-.211-.266-.292-.047-.211-.8-3.068-1.53-2.894a.56.56,0,0,0,.082.408c-.174.11-.777-.4-.994-.352a4.021,4.021,0,0,1,.022.448c-.472.1-.717-.536-1.245-.357-.724.245.158.609-.107.789-.408.277-.994-.651-1.257-.381-.006.087-.01.174-.016.261.134.334-.146-.362,0,0Zm-10.412-2.606c.449.176-1.112-1.453-2.105-.728-.48.351.311.729.7.847.773.232.869-.213.917-.216l.484.1Zm-.612-1.014c.122.209,2.1,1.309,1.9.457-.087-.378-1.678-1.036-2.374-.978-.392.032.506.578.473.521h0Zm-4.966.469-.348-.05c-.469.095.154.581.164.583-.223-.061-.9-.576-1.344-.315-.136.081.78.412.825.465a8.794,8.794,0,0,0-1.508-.327c-.4.922,1.811.652,2.158.923.054.042-.5.213-.158.4.127.071,1.233.425,1.075.561-.3.26-1.806-.5-2.1-.481-.989.058.837.917.864.926.534.182,1.236.114,1.747.26.691.2,1.761,1.239,2.668,1.088,2.24-.373.127-.913.05-1.2-.057-.209,1.161-1.959-.844-1.116a.337.337,0,0,0,.118.359c.137-.3-1.314.733-.63.613-1.084.19-.993-1.383-1.1-1.654a4.861,4.861,0,0,0-.54-.729c-.386-.237-.7-.12-1.09-.307Zm3.423-.526c.481-.139-.5-.636-.544-.523C2591.618,1930.217,2591.782,1930.624,2592.264,1930.486Zm7.892,8.97c-.71.73,1.19.958,1.472,1.193.342.286.4.712.865,1.034a12.437,12.437,0,0,0,2.1.757c.594.288.513,1.048,1.635,1.038,2.8-.027-.125-1.734-.765-2.019-.78-.347-3.566-1.179-3.108-2.015.066-.12.887-.053.981-.064-.236.027-2.068-3.336-3.153-2.776-.686.354.722,1.184.851,1.388.509.812-.113.681-.875,1.465h0Zm-7.376,11.622c.384-.161-.158-2.577-.321-2.687-.482-.327-.742-.115-1.653.117.132-.033-2.042.7-1.842.506-.148.148,1.044.945,1.2,1.02a2.814,2.814,0,0,0,.809,0q.749-.076.731.387c.172.092.416.936,1.081.659h0Zm11.7-7.006c-.537.143-.626,1.037-.507,1.218a12.889,12.889,0,0,0,2.067.725c.679-.392-1-2.093-1.561-1.944Zm.459-5.955c-.164-.407-1.282-.391-1.042-.011C2604.1,1938.433,2605.1,1938.524,2604.938,1938.116Zm-1.57-1.185c.132-.132-1.974-1.031-1.956-.712C2601.444,1936.76,2603.235,1937.064,2603.368,1936.932Zm-4.66,2.384c.665.334,1.444-1.822-.642-1.336-1.1.257.071,1.049.642,1.336Zm-4.772-3.52c.41-.041.39-.644-.176-.484S2593.519,1935.837,2593.936,1935.8Zm-6.077,4.345c.548-.058.737,1.043.968-.088.147-.721-.6-1.028-.194-1.758s1.194-.859,1.98-1.344c.465-.288.935-.1.605-.6-.066-.1-1.146-.475-1.213-.319-.074.172.229.649-.046.807.164-.094-.428-.7-.586-.756-.949-.358-.628.2-1.472.665-.736.405-.712.494-.65-.089-.017.161,1.1-1.829-.021-1.4-.342.132.274.406-.161.567-.105.039-.888-.513-1-.379.518-.6.5-.68-.465-1.016.169.059-1.652.34-1.015-.16.1-.079.833.24.963-.1.19-.5.21-.261-.247-.577a7.508,7.508,0,0,0-3.062-.422c-2.912.473.367,1.146.42,1.6,0-.038-1.942-.762-2.2-.2-.224.488,3.563,1.754,2.787,2.2-.628.362-2.768-2.3-3.669-1.129-.389.5,1.041,1.038,1.2,1.352.069.133-.412.333-.305.54a2.943,2.943,0,0,0,1.385.9c.748.285,2.08.366,2.695.62.428.177.51.447.78.833.223.317.948,1.206,1.87.977,1.086-.268-.471-.619-.327-.781a4.761,4.761,0,0,1,.983.046h0Zm3.544-.177c.04.281,1.517.488,1.969.433.378-.047,2.522-.842,1.729-.955-.235-.033-.536.443-.716.362.136.061-.1-.819-.241-.725.441-.3.953.212,1.423-.013.58-.278.211-1.038-.6-.969a.3.3,0,0,0-.094.29c-.23.094-.937-1.136-1.742-.7-.6.33.7.442.087.8-1.147.664-.773-.849-1.575-.67-.405.091-.279,1.9-.244,2.142.08.567-.08-.567,0,0Zm-6.481-11.04c.158.3-.227.648,1.044.568.079-.005-.358.461-.155.536a8.282,8.282,0,0,0,.971-.03c-.307-.018,1.568.012,1.111-.136.072.023.622.342.317.244-.159-.052-.13.363.1.456a5.746,5.746,0,0,1,.795.05c.33,0,1.31-.67,1.534-.378a2.353,2.353,0,0,0-.6-.512,8.432,8.432,0,0,1-1.052-.436c-.6-.158-3.9-.062-4.06-.362.079.15-.079-.15,0,0Zm25.81,5.207q.455-.011.51.21c-.218.017-.436.037-.655.058a2.385,2.385,0,0,1,.417.349c-2.477.206.986,1.406,1,1.462.044.236-.608.231-.271.63a3.258,3.258,0,0,0,1.188.6c.364.167.844.393,1.3.58.327.133,1.9.207,1.991.282.529.426-3.464-.056-3.346-.332-.034.079.207.943.02,1-.521.151-.544-2.762-2.384-2.081-.947.35-.1.776-.061,1.147a13.923,13.923,0,0,0,.083,1.569,6.228,6.228,0,0,0-2.169-1.478c-2.593-.181.1.674.531.891-.357-.18-1.038.29-1.149.359-.473.3.316,1.125-.7.305-.183-.147.581-1.431-.776-1.149-.753.156.009.782-.348.8-.893.047-2.986-1.095-1.612.187a16.29,16.29,0,0,0,2.917,1.638c.476.286.461.715.855.967a6.552,6.552,0,0,0,2.152.578c.936-.314-1.62-1.737-1.35-1.822.583-.182,1.5.815,2.09.924.767.141.484-.358.758-.327.436.051.527.325.892.393,3.93.732,2.28-1.351,1.555-1.215.621-.116,1.352.538,1.694.606-.793-.158,1.589.292,1.077.1a12.877,12.877,0,0,0,1.823.551,51.01,51.01,0,0,0,6.045.791c.4-.178-1.42-.87-1.5-1,.166.286,4.638,1.577,5.066,1.144-.146.148-.825-1.184-.767-1.117-.375-.427-2.054-.79-2.213-1.095a3.864,3.864,0,0,1,1.027-.024,12.151,12.151,0,0,0-1.833-1.341c-.11-.08-.924-.631-1.027-.661-.067-.02-1.441-.186-1.287-.088-.55-.349-.633-.821-1.413-1.15a13.766,13.766,0,0,1-1.428-.777c-1.434-.766-.037.051-.707-.1q-.327-.16-.645-.325a1.272,1.272,0,0,1-.5.2,7.8,7.8,0,0,1-1.841-.668c-.739-.383-.5-.744-1.656-.781-.185-.006-.212.328-.664.183-.28-.089-.271-.482-.592-.629-.1-.045-2.769-.671-2.717-.689-.358.124.709.35.62.344h0Zm-5.04,14.708a.774.774,0,0,0,.984-.165c.205-.4-.748-.216-.835-.34a2.057,2.057,0,0,1-.2-1.043c.01-.3.189-.566.006-.87a1.165,1.165,0,0,0-.587-.481c-.439-.127-1.2.106-1.4.047-.338-.1.271-.382-.014-.472-.338-.107-.937-.028-1.205-.183.148.085,1.4-.965,1.463-1.141.257-.75-.429-.7-1.418-.89-1.536-.3-1.176-.266-2.069.411-.254.193-.6-.034-.922.2-.211.152.451.38.068.63-.54.353-.229-.917-.038-1.087.878-.781,2.038-.291,2.734-.693.819-.472-3.183-.867-3.743-.741-.527.119-1.762.568-1.923.945-.174.408,1.311.631.951,1.045-.19.219-1.073-.76-1.4-.537-.778.537,1.475,1.989,1.878,2.31.27.215,2.969,1.6,2.934,1.641a.438.438,0,0,1,.205-.446c.24-.08.762,1.8.508,1.979-.176.125-1.108-.178-1.1.024,0,.177,1.015.369,1.174.543l.137.892c-.107.374-1.324,1-1.333,1.088-.044.428,1.115.317,1.31.628.238.379.122.66-.552.707-.9.064-.418-.342-.548-.456-.4-.348-.183-1.184-1.52-1-.982.133-.078.682-1.439.582-.162-.011-2.747-1.766-2.834-.394-.043.67,2.054.763,2.471,1.145.571.522-.361,1.409-.255,1.951.049.253.962,2.174,1.428,2.115.612-.077.668-1.966.378-1.966,1.274,0,.509,2.524,2.4,1.244,1.148-.778-.419-1.592.6-2.229,1.889-1.184.929,1.014,1.173,1.3.271.319.644.395,1.415.359.267-.012,2.129-.258,2.116-.217.065-.193-.3-1-.344-1.116a3.556,3.556,0,0,0-.447-1.024c-.169-.247-.784-.829-.669-1.121.379-.96.584.051,1.224-.121.461-.124-.462-.429-.237-.588.241-.17.839.2.885-.179.055-.454-.248-.182-.615-.394-.2-.113.822-.2.743-.434a3.737,3.737,0,0,0-.783-.8c-.051-.036-1.009-.759-.755-.644h0Zm3.3,16.286Zm8.071-19.754a2.53,2.53,0,0,0,.466.305c.5-.336-.667-.538-.911-.623l.445.318C2617.258,1945.517,2616.925,1945.257,2617.067,1945.369Zm30.325,12.945-.454-.06q.222.038.454.06C2647.229,1958.278,2647.359,1958.31,2647.392,1958.314Zm-15.773,7.246a19.821,19.821,0,0,1-5.25-1.079c-.412-.141-.852-.251-1.258-.393-.109-.038-.616-.414-.659-.42-.539-.081-2.366.407-3.174.427-.429.011-3.294-.437-2.881-.836-.674.156-.925-.318-1.473-.267-.24.022-1.231.354-1.646.471a8.052,8.052,0,0,1-1.48.529,12.932,12.932,0,0,1-1.362-.1c.438.6-3.049,1.553-3.774,1.177-.465-.24-.673-1.135-.812-1.509-.19-.51-.5-.937-.153-1.558a15.315,15.315,0,0,1,1.289-2.02c.3-.384.613-.906.933-1.3.384-.473-.068-.979,1.265-.866-.3-.614.549-.873,1.61-1,1.209-.146.833-.109,1.714.318,1.4-.694,1.3-.549.828-1.3-.171.347.4.48-.569.659a1.172,1.172,0,0,1-1.152-.568c-.3-.509.466-1.494,1.4-.89-.183-1.107,1.648.538,1.792.763.2-.579-.986-1.025.171-1.514-.613-.453-2.175.136-.813-.945.514-.408.909-.287,1.286-.593a5.882,5.882,0,0,0,1.11-1.282c.187-.392-.018-.664.1-1.021.09-.283.451-.6.46-.846.047-1.2-1.6-2.021-3.113-2.466-.323-.1-2.975-1.585-1.108-1.842-1.2-1.448-.234-.766,1.368-.39-1-.5-2.2-2.533.534-1.948.862.185,4.082,1.6,4.948,1.1s-1.793-.815-.116-1.315c1.879-.56,3.729.78,4.545,1.25,1.056-.058.2-.8,1.569-.636.683.081.8.478,1.01.785-.059-.646,1.26-.026,1.5.045,1.063.314,3.289.959,1.058,1.855,1.031-.048.939-.952,1.746-.45.469.291.188.854.756,1.2.145-.434-.4-.991.884-.783.748.121,1.075,1.517,1.3,1.9-.445-.955.219-.914,1.239-.625-.026-1.057,1.08-.23,1.689.062a22.448,22.448,0,0,1,2.2,1.024c.363.232.574.827,1.02.94-.216-.162.654-.2.847-.137a23.922,23.922,0,0,1,2.655,1.162,10.433,10.433,0,0,1,3.74,2.732c.156.232.016.647.125.817.152.237.709.428.862.689.875,1.492-2.5.211-3.271-.192.822.624-.65.429-1.221.344a27.717,27.717,0,0,1,2.776.387c1.623.764-.6,1.043-1.834,1.151a9.965,9.965,0,0,1,2.97.3c.132.059.064.281.327.413.208.1.259.41.513.477.207.055.476-.184.633-.151a5.231,5.231,0,0,1,1.537.416c.651.35,2.052,1.479.561,1.7a12.156,12.156,0,0,1-3.571-.769c.769.774-1.176.229-1.46.092.124.439-.288.449-.77.442a1.817,1.817,0,0,0-1.008-.285c-.146.071-.3.14-.448.207-.154-.008-1.311-.093-1.507-.069-.592.074-1.05.511-1.8.556.379.076,2.261.275,1.394.893-.592.421-.684-.2-1.075-.238-.516.49,2.1.5.449,1.3a15.95,15.95,0,0,1-2.531-1.027c.134.444,1.15,1.137.384,1.65-1.236.829-1.151-.262-2.075-.1-.368.063.584.976.37,1.124-.69.478-1.622-.405-1.9-.535.48,1.8-1.862.165-2.334-.4-.389.54-.671-.005-1.114.108-.193.116,2.234.623,1.59,1.181-.969.839-1.569-.085-1.875-.387-.1.652.6,1.364-.573,1.889-2.113.944-1.279-1.016-1.812-1.422-.494.421-.506.375-1.188.334.139.039,2.008,1.548,2.058,1.5a1.509,1.509,0,0,1-.944.1h0Zm-72.954,25.6c.476-.265-.037-.039,0,0C2558.745,1991.115,2558.652,1991.146,2558.665,1991.159Zm-22.6,11.14.4-.089a.7.7,0,0,0-.4.089C2536.256,2002.269,2536.1,2002.282,2536.069,2002.3Zm22.829-19.971c.175-.1-.309-.261,0,0C2558.955,1982.3,2558.893,1982.325,2558.9,1982.328Zm-51.752,26.811Zm1.113-2.305C2508.347,2007.069,2508.393,2006.863,2508.259,2006.834Zm-1.8.12c.112.011.228-.111,0,0C2506.49,2006.956,2506.5,2006.932,2506.459,2006.954Zm-.055-1.006C2506.987,2005.773,2505.621,2005.994,2506.4,2005.947Zm-1.011.326c.29-.138-.039-.045,0,0C2505.44,2006.25,2505.381,2006.26,2505.393,2006.274Zm1.136-.861c.192.065.27-.058,0,0C2506.59,2005.434,2506.579,2005.4,2506.529,2005.413Zm46.766-25.738c.2-.05.429-.419.513-.5-.567.109-.74.554-.513.5C2553.405,1979.648,2553.271,1979.681,2553.295,1979.675Zm4.229-13.733Zm.174-.092Zm5.305,31.34c-2.567,2.17-5.571,1.024-8.345,2.368a22.153,22.153,0,0,1-5.843,2.176,3.892,3.892,0,0,1-2.8-.17,9.72,9.72,0,0,0-4.019-.518c-1.122.168-2.193.913-3.283,1.176-.316.076-4.039.751-3.619.3-2.758,1-4.869.59-5.748-.822a.509.509,0,0,0-.1.007c-.042.1.329.311.262.376.047-.045-.376.521-.375.518a1.879,1.879,0,0,1-.675.782c-1.39.669-4.716-.045-4.808-.828-1.551.669-1.9,1.169-3.042-.032-1.822.647.491.825-.489,1.3-.407.2-.754-.125-.9-.1-.468.094-.994.238-1.443.314-1.017.173-2.626-.143-3.062.576-.185.3.635.389.32.736s-1.237.34-1.633.4c-1.135.184-2.652.022-3.634.486a8.521,8.521,0,0,0-1.565,1.374c-.325.493.507,1.707.259,1.878-.345.236-2.062-.437-2.2-.625-.519.711-.646-.224-.621-.362-.422.386-.6-.365-.513-.475-.552.264-.423-.946-.468-1.251-.109-.741-.1-.418.36-.9.116-.123.716-.759,1.125-.659.059-.108-.7-.437.285-.445-.828-.575.106-.47,1.05-.812-.824-.181.185-.675.705-.741-.605-.229.867-1.043,1.172-.474a1.349,1.349,0,0,1,.907-.265c.164-.169-.814-.316-.632-.551a4.4,4.4,0,0,1,2.218-.316c.208-.612,1.04-.368.723.06.668-.317,2.531-.894,2.746-1.266-.036.005-2.616.993-1.963.184a7.6,7.6,0,0,1,2.091-.926c1.514-.568,2.625-1.346,3.935-1.768a28.957,28.957,0,0,0,5.2-2.078c1.46-.779,3.07-1.283,4.784-2.069,1.286-.589,4.477-1.826,5.106-2.73.736-1.059-.948-2.2-.493-3.239.621-1.42,2.649-2.97,3.154-4.49.155-.467-.029-.885.808-1.248.82-.357,1.3-.133,1.944-.271-1.7-.742,3.657-1.615,4.216-1.647a3.922,3.922,0,0,0,2.948-.946c.439-.348,1.33-.924,1.294-1.4-.012-.173.572-.259-.17-.422-.6-.133-.738.28-.852.272-1.006-.069-.545.043-.976-.473a2.71,2.71,0,0,1-.417-.775,4.8,4.8,0,0,1-.168-1.758c-.181.551.65-.335.627-.3a2.028,2.028,0,0,0,.161-.932c0-.2.292-.252.374-.388-1.091,0-1.53-2.053-1.581-2.455-.091-.715-.3-.694-1.083-1.169a3.439,3.439,0,0,1-1.483-1.641c-.354-.723-1.606-2.055-1.063-2.9.483-.748,1.41-.7,1.892-1.58a11.147,11.147,0,0,0,.775-2.547,7.3,7.3,0,0,0,.24-.932,10.261,10.261,0,0,0-.227-1.011c.151-.388.933-.673,1.188-1.135.2-.365-.1-.347-.088-.738-1.216,1.128-1.053,2.069-2.044,3.383-.25.332-1.014,2.136-1.753,1.88-.249-.086-.028-.9.062-1.16.2-.565.583-.69.779-1.192.1-.259-.519-2.12.519-1.3.667-.352.3-.975.476-1.379.195-.439.829-1.02,1.1-1.486.579-.988.13-.857,0-1.736-.075-.524.374-1.13.683-1.667.257-.446.387-1.054.711-1.559,1.12-1.739,4.992-2.744,6.713-4.211,1.367-1.165.734-1.832.869-3.018.012-.1.9.623.949.766.131.386-.046.708-.028,1.114a8.834,8.834,0,0,1,.056,1.166c1.383-.791.491-1.528.294-2.282a1.8,1.8,0,0,1-.054-1.332c-.073.217.6-.468.632-.515a.462.462,0,0,0-.371-.271,1.794,1.794,0,0,1,.588-.343c.008-.009-.463-.348-.374-.559,0,0,.583-.386.517-.186.071-.217-.2-.6.181-.771-.282.03-.256-.138-.237-.245-.646.322-.662.084-.69-.105-1.232.584.541-1.479.987-.919.052-.185-.747-.355-.8-.552-.085-.3.219-.665.363-.975.358-.768-.08-1.239.113-2.046a2.778,2.778,0,0,0-.168-.471c-.066-.132.6-.088.6-.138a10.107,10.107,0,0,1-2.261-1.384,3.161,3.161,0,0,1-.747-.874c-.069-.108-.484-.031-.58-.218-.125-.243.6-.19.428-.442-.573-.858-.56.2-1.393.3,0,0-2.72-.555-2.809-.638-.251-.234-.3-.579.394-.448-.087-.252,1.037-.552,1.376-.608a18.5,18.5,0,0,0-2.877.132c.762.828-2.415.559-2.985.512-1.229-.1-2.645.009-3.845-.192-.407-.068-.792-.212-1.2-.307-.464-.11-1.445-.183-1.913-.323-2.061-.612.559-.666.63-.194.9-.569,2.233.089,2.8.17a9.136,9.136,0,0,0,2.064.057c.791-.111,1.017-.428,1.779-.539q-.487-.077-.471-.371c-.625.194-.388.184-.745,0a.5.5,0,0,0-.119-.606,1.083,1.083,0,0,0-.679-.042c-.675-.887.305-.339.727-1.2-.922.215-1.154-.392-1.2-.686-.1-.577.149-.554.717-.916-.192-1.2,2.164-1.03,3.209-.929-.549-.053,1.072.4.658.242a2.955,2.955,0,0,1,.649.069c1.176-.032-.163.476,1.071-.2.254-.14.1-.251.621-.165-.01.03-1.768-.559-1.994-.672-.971-.483-1.042-.961-.73-1.558.226-.43-.606-.359.449-.581.591-.124,1.06.289,1.436.353.188.031,2.87.139,1.2.658a2.326,2.326,0,0,0,1.293.552c-.131-.24.256-.28.436-.446-1.351.183-.8-2.437-.568-2.555.8-.405.73.076,1.319.176a5.289,5.289,0,0,0,1.761.038,16.3,16.3,0,0,1,3.782.393c.309.06,3.329.773,2.266,1.126.678-.042,1.117,1.125,1.352,1.335.71.635,1.748,1.315,2.521,2.01a17.243,17.243,0,0,1,2.472,2.291c.271.369.537.715.8,1.091.079.112.817,1.273,1.047,1.258.531-.033-.1-.57,1.182-.32.683.133.4.034.392.34,0,.162,3.911.624,3.327.915-.418.209-2.889-.505-3.62-.368-.44.083,1.3.151,1.412.166a14.509,14.509,0,0,1,1.6.348c.631.157.2.276,1.032.268.718-.007.463-.23.942-.376.68-.207-.333,1.314-.316,1.342.389.632,1.339-.213,1.752.114.261.207-.608.472-.8.538-.366.127,1.639.425,1.7.456.549.289.555.792.836,1.186.433.605,2.57,1.638,1.967,2.413-.093.12-1.276-.363-1.342-.014-.144.762,2.06,1.045,2.683,1.462s.346.721.5,1.222c.016.054-1.028.105-.327.356.453.162.509-.124.76-.206,1.011-.327-.2-.406.873-.574.044-.007,1.432.429,1.48.177.042-.218-1.749-.316-1.9-.577-.13-.232,2.11.123,2.333.349.133.135-.089.81,0,1.106.188.629,1.107,1.13,1.976,1.458.329.125.372.367.76.435.29.05.473-.363.67-.345,1.939.169-.373-.67.479-.764a7.58,7.58,0,0,1,1.8.063c.211.08.419.974.556,1.018a.642.642,0,0,0-.552-.2c-.349.2,1.53.681-.311.683-.127,0-1.25-.522-1.308-.418-.013.218.122.382.4.493-.013.12-.126.185-.342.2,0,0-1.351.663-.246.717.332.016.427-.521.718-.546.217-.019.4.206.51.186.246-.046,1.852.128,1.662-.381a1.954,1.954,0,0,0-.743.069,6.354,6.354,0,0,1,1.026-.368c.285-.04-.425-.643-.431-.725-.037-.607.1-.4.581-.783a5.526,5.526,0,0,1,.583-.517c.618-.189.7.266.883.2.146-.053,2.926-1.882,2.982-1.875a.553.553,0,0,0,.3.228c.649-.229.545-.376,1.4.086.185.1,1.461.955,1.4,1.162-.2.7-4,.268-3.39-.153-.384.264.164.171-.531.36-.079.021-.879-.046-.968.045-.119.12-.177,2.159-.464,2.2-.159.025-1.062-.227-1.06.222,0-.026,1.356.61.755.735.08-.016-1.933.442-1.329.67s2.519-.962,1.78.427c-.315.59-1.59.479-1.548,1.366.023.493,1.772-.554,1.709-.585.1.05-.383.407-.18.382a7.214,7.214,0,0,0,1.389-.329c-.313.1,1.379-.4.765-.286.738-.142.335-.641,1.26.035.331.242.783.9.72,1.235-.108.573-1.586.178-1.569.167-.9.574.114,1.1-1.629,1.156-.724.023-1.766-.695-1.392-.872-.005,0-.04.71-.217.609a13.838,13.838,0,0,0-1.337-.79c-.021,1.467-2.791-.514-2.357-.716-.851.4.782,1.1.823,1.342.125.709-3.5-.061-2.707-.312-1.662.525-1.317-1.292-2.213-1.052-.121.033.915,1.34.8,1.434-.338.278-1.376-.136-1.544-.126-.135.007-.476.127-.611.129a9.579,9.579,0,0,0-2.181.27,5.319,5.319,0,0,0-1.622.558c-.943.629-.278.32-.476.829.043-.11-.3,1.776-1.049,1.474a2.868,2.868,0,0,1,2,1.869c.162.42.078,1,.425,1.408.244.284,1.229.584,1.2.939-.02.288-.844.587-1.224.893a1.9,1.9,0,0,0-.884,1.214c-.066.263-.325.532-.15.766.227.3.672-.139.892.279-.018-.034,1.536-.857,1.8-1.112s.653-.831,1.049-.94a17.913,17.913,0,0,0,2.308.253c2.479-.492,1.064-1.583,2.147-2.169a8.862,8.862,0,0,1,1.4-.2c.529-.226.423-.489.8-.717.12-.073.567-.255.626-.3-.09.069.975-.68.58-.586,1.408-.335,1.484.476,2.095.967.311.25.709.166.915.545.107.2-.1.559-.062.775.015.078.462,1.3.685,1.166-1.165.672-1.706.667-1.641,1.477.023.288-.133.488.174.705-.014-.01,1.6.052,1.125.224a11.506,11.506,0,0,1,2.572-.681c.024,0-1.1,1.937-1.237,2.19a5.815,5.815,0,0,1-.412.841c-.4.263-1.063-.124-1.082-.107-.286.261.585,2.828.776,2.792-.02,0-2.562-.617-2.492-.24a10.866,10.866,0,0,0,1.447.229c.893.373.1.536.218.628.39.293.865-.036.625.606-.1.262-1.062.274-1.059.216a2.084,2.084,0,0,1,.158.33,25.336,25.336,0,0,1-4.151-.408,12.111,12.111,0,0,1-2.545-1.374,6.731,6.731,0,0,0-3.081-.623c-.367,0-3.176.374-3.276.316a14.178,14.178,0,0,0,2.619-.024,6.532,6.532,0,0,1,1.874.436c2.1.958-1.094.877-1.069.947.032.091.8.031.58.227-.409.365-.788.2-1.029.769a.968.968,0,0,0,.257.836,4.118,4.118,0,0,0,2.395.266c-.688.3-.3.107-.278.45a25.174,25.174,0,0,1-3.642-.5c-.316-.042-2.951-.01-1.271-.6,1.018-.359,1.387.23,2.109.313-.143-.017-.457-.384-.455-.462,0-.054.486-.03.52-.194-.008.036-2.176-.116-2.2-.119-.335-.042-.859-.037-1.243-.075-.123-.012-.1-.269-.206-.285a8.91,8.91,0,0,0-1.348-.036c-1.066.131-1.135.562-1.808.7a14.386,14.386,0,0,1-3.03-.37,13.152,13.152,0,0,0-2.894.7c-.629.156-.686-.043-1.05-.012.393.368-1.191,1.561-1.628.746-.245.391-2.727.213-3.472.211-4.084-.009-2.62,2.139-5.653,2.847-2.667.622.111-1.647.5-2.123.966-1.19.149-.531-.542-1.111-.068-.058-.5-1.43-.759-1.248-.662.1-.183-.2-.607-.213.6.011-1.277.009-.627.055-.688-.049.266.909-.918-.007-.627-.485-.738-1.121-1.571-1.435a12.283,12.283,0,0,0-3.234-.163c-.65.143-.667.41-1.015.587-.876.448-1.922.859-2.731,1.378-1.25.8-2.254,2.169-1.155,2.809a4.1,4.1,0,0,0,2.262.59c1.023-.119,1.058-.574,2.254-.426.328.04,1.667.548,1.613.82-.087.435-1.05.511-1.66.709-1.253.406-2.213.707-3.353,1.153.938.145,2.39.9,2.451,1.489.082.788-.082.523-1.228,1.083-1.089.532-2.686,1.106-2.294,2,.3.691,1.316.359,1.975.835.544.392.15.72.122,1.179a10.493,10.493,0,0,1,3.943-.183c.488.088,2.065.093,2.165.386.188.553-.948.159-1.219.53a3.6,3.6,0,0,1,1.916.274c-.018-.016.278.7.241.58q-.591.293-.277.527a1.536,1.536,0,0,1,.585.245c.49.811,1.3.742,2.383,1.266.236.114,1.361,1.206.082.907q.026.378-.645.448c1.019.568.324,1.176.42,1.864.1.712.992.88,1.545,1.521.734.847.038,3.148-1.895,3.456.258.131,1.079.738.345.974,1.033-.242,2.248,1.64.942,2.034a3.555,3.555,0,0,1,2.565,2.1c.057.276.805,1.751.452,2.049h0Zm88.308,42.669a3.151,3.151,0,0,0,.939-.079c1.333-.145,1.031-.222,1.469.4.044.063.473.759.416.815-.468.452-.744.1-1.285.186-1.014.16-.628-.182-1.427.386-.321.228-.3,1.016-.507,1.116-.588.286-.967-.15-1.557-.074-1.128.145-2.586,1.167-3.756,1.052-.619-.061-1.7-1.144-1.942-1.463-.449-.6.089-1.384.713-2.15,1.193-1.465,1.717-.754,2.45-.224.944-.348.677-.174,1.547-.19.172,0,.38.206.574.219.312.022.679-.272,1.025-.253a2.76,2.76,0,0,1,1.341.254h0Z" transform="translate(-2504.608 -1914.649)" fill="#80dbfc"/>
        <path id="Path_2763" data-name="Path 2763" d="M3081.338,2444.5l-.02-.015c-.1-.075-.573-.434-1.271-1.043a.511.511,0,0,0-.673.77c.823.719,1.349,1.106,1.359,1.113a.511.511,0,1,0,.6-.824Zm-2.529-2.2c-.372-.359-.769-.759-1.182-1.2a.511.511,0,1,0-.744.7c.425.451.834.862,1.216,1.231a.511.511,0,1,0,.71-.736Zm-2.307-2.448c-.352-.411-.707-.845-1.061-1.3a.511.511,0,0,0-.809.625c.365.472.731.92,1.093,1.343a.511.511,0,1,0,.777-.665Zm-2.052-2.658c-.311-.451-.617-.92-.913-1.406a.511.511,0,1,0-.873.531q.459.754.945,1.455a.511.511,0,1,0,.841-.581Zm-1.738-2.861c-.256-.488-.5-.989-.727-1.5a.511.511,0,0,0-.936.413q.356.805.758,1.566a.511.511,0,1,0,.9-.476Zm-1.345-3.051c-.185-.518-.351-1.047-.5-1.587a.511.511,0,0,0-.988.265q.229.851.521,1.665a.511.511,0,1,0,.963-.343Zm-.86-3.207q-.145-.808-.22-1.642a.511.511,0,0,0-1.019.09q.078.882.232,1.733a.511.511,0,0,0,1.007-.18Zm-.29-3.3q0-.816.085-1.654a.511.511,0,0,0-1.018-.1q-.087.885-.09,1.749a.511.511,0,0,0,1.023,0Zm.323-3.292q.153-.8.386-1.612a.511.511,0,1,0-.983-.282q-.246.859-.407,1.7a.511.511,0,1,0,1,.194Zm.913-3.187q.289-.758.653-1.53a.511.511,0,1,0-.924-.438q-.382.807-.685,1.6a.511.511,0,0,0,.956.364Zm1.422-3.009q.4-.708.871-1.425a.511.511,0,1,0-.855-.561q-.488.745-.906,1.482a.511.511,0,1,0,.89.5Zm.664-3.151c-.326.11-.87.289-1.612.515a.511.511,0,0,0,.3.978c.752-.229,1.306-.411,1.641-.525a.511.511,0,1,0-.328-.969Zm-3.239.993q-.749.212-1.636.447a.511.511,0,1,0,.26.989q.9-.236,1.655-.452a.511.511,0,0,0-.279-.984Zm-3.282.866q-.787.194-1.651.392a.511.511,0,0,0,.229,1q.871-.2,1.667-.4a.511.511,0,1,0-.244-.993Zm-3.309.758q-.805.172-1.663.341a.511.511,0,0,0,.2,1q.865-.171,1.678-.344a.511.511,0,0,0-.213-1Zm-3.331.656q-.817.149-1.673.292a.511.511,0,1,0,.167,1.009q.863-.144,1.688-.294a.511.511,0,1,0-.183-1.006Zm-3.349.557q-.825.124-1.68.24a.511.511,0,1,0,.137,1.013q.863-.117,1.7-.243a.511.511,0,1,0-.152-1.011Zm-3.364.455q-.832.1-1.687.189a.511.511,0,0,0,.106,1.017q.863-.09,1.7-.191a.511.511,0,1,0-.122-1.015Zm-3.376.351q-.836.074-1.691.136a.511.511,0,0,0,.074,1.02q.864-.063,1.708-.137a.511.511,0,0,0-.09-1.019Zm-3.384.245q-.84.047-1.694.081a.511.511,0,1,0,.04,1.021q.864-.034,1.711-.082a.511.511,0,1,0-.057-1.021Zm-3.39.134q-.841.019-1.7.024a.511.511,0,0,0,.006,1.022q.862,0,1.713-.024a.511.511,0,1,0-.023-1.022Zm-3.391.018q-.842-.011-1.694-.036a.511.511,0,0,0-.031,1.022q.861.026,1.713.036a.511.511,0,1,0,.012-1.022Zm-3.388-.1q-.842-.041-1.692-.1a.511.511,0,0,0-.069,1.02q.859.059,1.711.1a.511.511,0,1,0,.05-1.021Zm-3.381-.229q-.841-.073-1.687-.164a.511.511,0,0,0-.109,1.017q.857.092,1.707.166a.511.511,0,0,0,.089-1.019Zm-3.369-.362q-.837-.107-1.678-.232a.511.511,0,0,0-.151,1.011q.851.127,1.7.235a.511.511,0,1,0,.13-1.014Zm-3.35-.5q-.831-.142-1.666-.3a.511.511,0,1,0-.194,1q.845.164,1.688.308a.511.511,0,0,0,.173-1.008Zm-3.324-.644q-.825-.179-1.65-.378a.511.511,0,0,0-.24.994q.837.2,1.673.383a.511.511,0,0,0,.217-1Zm-3.291-.793q-.815-.217-1.63-.455a.511.511,0,1,0-.286.982q.826.241,1.653.461a.511.511,0,0,0,.263-.988Zm-3.248-.948q-.8-.255-1.605-.533a.511.511,0,0,0-.335.967q.814.282,1.629.541a.511.511,0,0,0,.31-.975Zm-3.2-1.106q-.789-.3-1.576-.613a.511.511,0,0,0-.384.948q.8.323,1.6.623a.512.512,0,0,0,.359-.958Zm-3.135-1.268q-.773-.336-1.541-.695a.511.511,0,0,0-.433.927q.781.365,1.566.706a.511.511,0,0,0,.408-.938Zm-3.063-1.43q-.753-.376-1.5-.777a.511.511,0,0,0-.482.9q.761.406,1.526.789a.511.511,0,1,0,.458-.915Zm-2.981-1.594q-.731-.417-1.457-.858a.511.511,0,0,0-.531.874q.738.448,1.481.871a.511.511,0,1,0,.506-.888Zm-2.888-1.755q-.7-.452-1.392-.927a.518.518,0,0,0-.309-.089h-.017a.511.511,0,1,0,.038,1.022h.019l-.02-.511-.289.422q.7.483,1.416.943a.511.511,0,1,0,.555-.858Zm-3.411-.976c-.478.007-1.047.013-1.7.015a.511.511,0,1,0,0,1.023c.656,0,1.23-.007,1.711-.015a.511.511,0,0,0-.015-1.023Zm-3.4.01c-.534,0-1.1-.012-1.7-.023a.511.511,0,1,0-.019,1.022c.6.011,1.177.019,1.714.023a.511.511,0,1,0,.009-1.023Zm-3.407-.063q-.822-.023-1.7-.057a.511.511,0,0,0-.039,1.022q.884.034,1.712.057a.511.511,0,1,0,.029-1.022Zm-3.4-.13q-.832-.04-1.7-.09a.511.511,0,1,0-.059,1.021q.873.051,1.711.091a.511.511,0,0,0,.049-1.022Zm-3.4-.2q-.836-.057-1.7-.125a.511.511,0,1,0-.081,1.02q.866.068,1.708.126a.511.511,0,0,0,.07-1.02Zm-3.392-.268q-.838-.076-1.693-.162a.511.511,0,1,0-.1,1.017q.861.088,1.7.164a.511.511,0,0,0,.092-1.019Zm-3.385-.344q-.839-.095-1.688-.2a.511.511,0,1,0-.128,1.015q.856.108,1.7.2a.511.511,0,0,0,.115-1.016Zm-3.373-.427q-.838-.117-1.681-.247a.511.511,0,1,0-.156,1.01q.849.131,1.7.249a.511.511,0,1,0,.142-1.013Zm-3.354-.517q-.836-.141-1.671-.3a.511.511,0,1,0-.186,1.005q.843.156,1.687.3a.511.511,0,0,0,.171-1.008Zm-3.34-.62q-.832-.169-1.66-.353a.511.511,0,1,0-.222,1q.837.186,1.678.356a.511.511,0,0,0,.2-1Zm-3.312-.737q-.827-.2-1.643-.418a.512.512,0,0,0-.263.989q.827.22,1.665.423a.511.511,0,1,0,.241-.993Zm-3.276-.871q-.817-.238-1.619-.493a.511.511,0,0,0-.311.974q.814.259,1.644.5a.511.511,0,0,0,.285-.982Zm-3.223-1.029q-.8-.281-1.586-.583a.511.511,0,0,0-.368.954q.8.308,1.616.594a.511.511,0,0,0,.338-.966Zm-3.15-1.216q-.783-.333-1.538-.69a.511.511,0,0,0-.437.925q.772.365,1.574.706a.511.511,0,1,0,.4-.94Zm-3.042-1.442q-.752-.4-1.465-.82a.511.511,0,0,0-.522.879q.736.437,1.51.845a.511.511,0,1,0,.478-.9Zm-2.881-1.715q-.7-.473-1.355-.976a.511.511,0,0,0-.625.809q.68.525,1.408,1.015a.512.512,0,0,0,.572-.849Zm-2.634-2.039q-.624-.561-1.187-1.157a.511.511,0,1,0-.745.7q.592.63,1.249,1.217a.511.511,0,1,0,.682-.761h0Zm-2.261-2.41a15.716,15.716,0,0,1-.94-1.348.511.511,0,1,0-.869.54,16.673,16.673,0,0,0,1,1.436.511.511,0,1,0,.807-.627Zm-1.725-2.786a13.939,13.939,0,0,1-.613-1.515.511.511,0,0,0-.969.327,14.926,14.926,0,0,0,.658,1.626.511.511,0,1,0,.924-.438Zm-1.044-3.092a14.466,14.466,0,0,1-.247-1.62.511.511,0,1,0-1.018.1,15.266,15.266,0,0,0,.265,1.734.511.511,0,1,0,1-.212Zm-.317-3.267q.007-.806.1-1.652a.511.511,0,1,0-1.017-.107q-.094.894-.1,1.749a.511.511,0,0,0,1.022.01Zm.351-3.271a10.768,10.768,0,0,1,.481-1.545.511.511,0,1,0-.951-.375,11.775,11.775,0,0,0-.527,1.692.511.511,0,1,0,1,.229Zm1.181-3.018a14.565,14.565,0,0,1,.881-1.387.511.511,0,1,0-.832-.594,15.542,15.542,0,0,0-.942,1.484.511.511,0,0,0,.893.5Zm1.906-2.684q.532-.614,1.139-1.211a.511.511,0,1,0-.718-.729q-.633.623-1.195,1.27a.511.511,0,0,0,.773.67Zm2.369-2.342q.623-.536,1.3-1.056a.512.512,0,0,0-.623-.812q-.7.537-1.345,1.093a.511.511,0,0,0,.668.774Zm2.658-2.047q.681-.472,1.4-.93a.511.511,0,0,0-.547-.864q-.739.468-1.439.954a.511.511,0,1,0,.583.84Zm2.845-1.805q.721-.42,1.474-.825a.511.511,0,0,0-.485-.9q-.766.413-1.5.842a.511.511,0,0,0,.515.883Zm2.974-1.605q.749-.376,1.522-.738a.511.511,0,0,0-.434-.926q-.784.368-1.547.75a.511.511,0,1,0,.458.914Zm3.065-1.437q.771-.338,1.559-.663a.511.511,0,0,0-.389-.946q-.8.329-1.581.672a.511.511,0,1,0,.411.936Zm3.133-1.292q.788-.305,1.587-.6a.511.511,0,1,0-.351-.961q-.808.3-1.606.6a.511.511,0,1,0,.37.953Zm3.183-1.162q.8-.276,1.608-.537a.511.511,0,1,0-.315-.973q-.816.264-1.626.543a.511.511,0,0,0,.333.967Zm3.229-1.047q.815-.249,1.633-.484a.511.511,0,0,0-.282-.983q-.825.237-1.649.488a.511.511,0,0,0,.3.978Zm3.268-.939q.822-.221,1.643-.429a.511.511,0,1,0-.251-.991q-.828.209-1.659.433a.511.511,0,1,0,.266.987Zm3.292-.832q.831-.2,1.656-.377a.511.511,0,1,0-.219-1q-.832.183-1.672.38a.511.511,0,1,0,.235,1Zm3.317-.727q.84-.169,1.667-.323a.511.511,0,1,0-.187-1.005q-.835.154-1.683.326a.511.511,0,0,0,.2,1Zm3.339-.618q.849-.142,1.677-.265a.511.511,0,1,0-.151-1.011q-.837.125-1.695.268a.511.511,0,0,0,.168,1.009Zm3.357-.5q.857-.111,1.684-.2a.511.511,0,0,0-.109-1.017q-.838.09-1.705.2a.511.511,0,1,0,.131,1.014Zm3.371-.36q.866-.072,1.688-.117a.511.511,0,0,0-.056-1.021q-.836.046-1.717.119a.511.511,0,1,0,.084,1.019Zm3.376-.183q.469-.01.917-.01.391,0,.766.008a.512.512,0,0,0,.021-1.023q-.385-.008-.787-.008-.46,0-.939.01a.511.511,0,1,0,.022,1.022Zm3.356.078q.214.016.42.037a.511.511,0,1,0,.1-1.018c-.144-.014-.29-.027-.439-.038a.511.511,0,1,0-.08,1.02Z" transform="translate(-2923.953 -2333.671)" fill="#0986b3"/>
        <path id="Path_2764" data-name="Path 2764" d="M6720.225,4173.022a7.432,7.432,0,0,0-3.053-1.067l-.015-.015h-4.407l-.641,1.594a13.662,13.662,0,0,1,.975,4.266c0,4.058,3.424,18.671,3.424,18.671h3.717s7.141-4.561,7.141-10.426A15.11,15.11,0,0,0,6720.225,4173.022Z" transform="translate(-6559.269 -4084.214)" fill="#faac4d"/>
        <path id="Path_2765" data-name="Path 2765" d="M6647.631,4186.034c0,5.865-7.141,10.427-7.141,10.427s-7.141-12.807-7.141-18.672,3.2-7.056,7.142-4.778a15.111,15.111,0,0,1,7.14,13.024Z" transform="translate(-6483.37 -4084.203)" fill="#fcd726"/>
        <path id="Path_2766" data-name="Path 2766" d="M6690.1,4247.411c0,3.493-2.452,4.909-5.477,3.163a12.106,12.106,0,0,1-5.477-9.486c0-3.493,2.452-4.909,5.477-3.162A12.1,12.1,0,0,1,6690.1,4247.411Z" transform="translate(-6527.507 -4147.081)" fill="#fefefe"/>
        <path id="Path_2767" data-name="Path 2767" d="M4376.661,3089.511c0,4.99-3.912,18.671-3.912,18.671h-3.229s-7.141-4.561-7.141-10.426a15.111,15.111,0,0,1,7.141-13.024C4373.464,3082.455,4376.661,3083.645,4376.661,3089.511Z" transform="translate(-4294.895 -3035.457)" fill="#edb126"/>
        <path id="Path_2768" data-name="Path 2768" d="M4646.16,3083.65h-3.62l.362,1.606Z" transform="translate(-4564.878 -3035.457)" fill="#edb126"/>
        <path id="Path_2769" data-name="Path 2769" d="M4465.542,3089.511c0,5.865-7.14,18.671-7.14,18.671s-7.141-4.561-7.141-10.426a15.11,15.11,0,0,1,7.14-13.024C4462.345,3082.455,4465.542,3083.645,4465.542,3089.511Z" transform="translate(-4380.546 -3035.457)" fill="#fcd726"/>
        <path id="Path_2770" data-name="Path 2770" d="M4508.014,3152.811a12.107,12.107,0,0,1-5.477,9.487c-3.024,1.746-5.477.33-5.477-3.162a12.106,12.106,0,0,1,5.477-9.487C4505.562,3147.9,4508.014,3149.318,4508.014,3152.811Z" transform="translate(-4424.683 -3098.337)" fill="#fefefe"/>
        <path id="Path_2771" data-name="Path 2771" d="M6538.471,3260.4c-3.944-2.277-7.141-1.086-7.141,4.779,0,4.057,3.424,18.671,3.424,18.671h3.717s7.141-4.561,7.141-10.426a15.111,15.111,0,0,0-7.14-13.024Z" transform="translate(-6385.056 -3204.745)" fill="#edb126"/>
        <path id="Path_2772" data-name="Path 2772" d="M6443.3,3273.426c0,5.865-7.141,10.426-7.141,10.426s-7.141-12.806-7.141-18.672,3.2-7.055,7.142-4.779A15.108,15.108,0,0,1,6443.3,3273.426Z" transform="translate(-6286.462 -3204.745)" fill="#fcd726"/>
        <path id="Path_2773" data-name="Path 2773" d="M6485.774,3334.8c0,3.493-2.452,4.909-5.478,3.163a12.106,12.106,0,0,1-5.477-9.487c0-3.493,2.452-4.909,5.477-3.162A12.106,12.106,0,0,1,6485.774,3334.8Z" transform="translate(-6330.599 -3267.622)" fill="#fefefe"/>
        <path id="Path_2774" data-name="Path 2774" d="M4226.659,1757.585l1.287-.635h-3.62l0,.016a7.456,7.456,0,0,0-3.04,1.066,15.11,15.11,0,0,0-7.14,13.024c0,5.865,7.141,10.426,7.141,10.426h3.228s3.912-13.681,3.912-18.671c0-2.682-.669-4.383-1.772-5.225Z" transform="translate(-4152.049 -1756.95)" fill="#edb126"/>
        <path id="Path_2775" data-name="Path 2775" d="M4306.94,1771.058c0,5.866,7.141,10.426,7.141,10.426s7.14-12.806,7.14-18.671-3.2-7.055-7.141-4.778a15.11,15.11,0,0,0-7.14,13.024Z" transform="translate(-4241.469 -1756.953)" fill="#fcd726"/>
        <path id="Path_2776" data-name="Path 2776" d="M4352.75,1832.427c0,3.493,2.452,4.909,5.477,3.162a12.1,12.1,0,0,0,5.477-9.486c0-3.493-2.453-4.909-5.477-3.163A12.107,12.107,0,0,0,4352.75,1832.427Z" transform="translate(-4285.615 -1819.823)" fill="#fefefe"/>
      </g>
      <g id="Group_315" data-name="Group 315" transform="translate(5.329 68.871)">
        <path id="Path_2777" data-name="Path 2777" d="M3235.99,3868.392l13.172,4.886,2.138-10.809a2.863,2.863,0,0,0-.4-2.117,2.762,2.762,0,0,0-1.292-1.084,1.951,1.951,0,0,0-.751-.149,2.007,2.007,0,0,0-1.21.408l-10.3,7.833-1.358,1.032Z" transform="translate(-3214.751 -3851.628)" fill="#00abea"/>
        <path id="Path_2778" data-name="Path 2778" d="M3273.361,3867.361l11.365,4.215,2.138-10.805a1.814,1.814,0,0,0,.049-.417,2.762,2.762,0,0,0-1.292-1.084,1.953,1.953,0,0,0-.751-.149,2.008,2.008,0,0,0-1.21.408l-10.3,7.833Z" transform="translate(-3250.763 -3851.628)" fill="#00abea"/>
        <path id="Path_2779" data-name="Path 2779" d="M5410.849,5821.316l-.859-1.418,1.3-.776,0,0a1.666,1.666,0,0,1,1.718.295,4.751,4.751,0,0,1,2.021,3.735,1.382,1.382,0,0,1-.443,1.02h0a1,1,0,0,1-.246.147l-1.23.729-.918-1.512A5.205,5.205,0,0,1,5410.849,5821.316Z" transform="translate(-5309.779 -5740.307)" fill="#0d5069"/>
        <path id="Path_2780" data-name="Path 2780" d="M5395.692,5840.42a4.75,4.75,0,0,0,2.021,3.735c1.19.8,2.22.438,2.3-.82a4.753,4.753,0,0,0-2.02-3.735c-1.19-.806-2.22-.438-2.3.82Z" transform="translate(-5295.996 -5759.753)" fill="#0986b3"/>
        <path id="Path_2781" data-name="Path 2781" d="M5409.992,5860.548a3.449,3.449,0,0,0,1.462,2.708,1.158,1.158,0,0,0,1.309.175.971.971,0,0,0,.36-.769,3.447,3.447,0,0,0-1.466-2.709,1.48,1.48,0,0,0-.947-.3C5410.307,5859.688,5410.024,5860,5409.992,5860.548Z" transform="translate(-5309.777 -5779.481)" fill="#fffdf3"/>
        <path id="Path_2782" data-name="Path 2782" d="M5419.831,5860.418a3.445,3.445,0,0,0,1.466,2.708,1.485,1.485,0,0,0,.948.306.971.971,0,0,0,.36-.769,3.447,3.447,0,0,0-1.466-2.709,1.479,1.479,0,0,0-.947-.3A.969.969,0,0,0,5419.831,5860.418Z" transform="translate(-5319.259 -5779.482)" fill="#0d5069"/>
        <path id="Path_2783" data-name="Path 2783" d="M5399.436,5842.663a.025.025,0,0,0,.026-.023,4.79,4.79,0,0,0-2.03-3.76,1.736,1.736,0,0,0-1.708-.316,1.305,1.305,0,0,0-.633,1.156.026.026,0,0,0,.022.028h0a.028.028,0,0,0,.025-.024,1.25,1.25,0,0,1,.6-1.113,1.69,1.69,0,0,1,1.656.314,4.725,4.725,0,0,1,2.006,3.712.026.026,0,0,0,.026.027h0Z" transform="translate(-5295.42 -5759.056)" fill="#0d5069"/>
        <path id="Path_2784" data-name="Path 2784" d="M5407.01,5711.695h.652v-7.365h-.652Z" transform="translate(-5306.907 -5629.809)" fill="#e8955d"/>
        <path id="Path_2785" data-name="Path 2785" d="M3985.973,5323.454a2.008,2.008,0,0,0,.24,1.174,1.145,1.145,0,0,0,.141.193c.007,0,.007.008.013.01a1.232,1.232,0,0,0,.466.321l3.394,2.352,2.2,1.56c.249.176.5.339.767.492l.111.073c.013.007.03.011.046.018.108.059.216.116.328.171l.817.415.954.613c-.026-.032-.052-.066-.075-.1a1.832,1.832,0,0,1-.24-1.121,5.687,5.687,0,0,1,2.974-4.127,3.188,3.188,0,0,1,.885-.3,1.635,1.635,0,0,1,1.013.109,1.142,1.142,0,0,1,.223.138c-1.207-.97-2.25-1.814-2.417-1.971l-.262-.234a9.023,9.023,0,0,0-.915-.7l-1.7-1.154-3.414-2.421c-.013-.01-.023-.021-.036-.031l-.147-.1a.07.07,0,0,0-.013-.007.1.1,0,0,0-.02-.01,1.519,1.519,0,0,0-.672-.179,2.2,2.2,0,0,0-.485.033,3.067,3.067,0,0,0-.462.118c-.079.027-.161.057-.243.092s-.164.072-.249.114q-.212.107-.413.234c-.069.043-.138.087-.2.133a6.165,6.165,0,0,0-.767.629q-.089.086-.177.179a6.853,6.853,0,0,0-.63.753,6.638,6.638,0,0,0-.5.818,4.476,4.476,0,0,0-.521,1.716Z" transform="translate(-3937.484 -5258.123)" fill="#0986b3"/>
        <path id="Path_2786" data-name="Path 2786" d="M4238.093,5502.981a1.834,1.834,0,0,0,.239,1.121c.023.034.05.068.076.1l5.059,3.253.5.068.374-.384a1.346,1.346,0,0,0,.324.079,1.975,1.975,0,0,0,.9-.238,3.41,3.41,0,0,0,.508-.313,4.31,4.31,0,0,0,.481-.424l1.108-3.817-.363-.335s-2.246-1.793-4.112-3.29a1.133,1.133,0,0,0-.223-.138,1.637,1.637,0,0,0-1.014-.108,3.183,3.183,0,0,0-.885.3,5.688,5.688,0,0,0-2.975,4.128Z" transform="translate(-4180.446 -5431.478)" fill="#00abea"/>
        <path id="Path_2787" data-name="Path 2787" d="M4377.183,5604.625a1.634,1.634,0,0,0,.22,1.023,1.015,1.015,0,0,0,.1.134,1.058,1.058,0,0,0,.423.287,1.36,1.36,0,0,0,.492.085,2.547,2.547,0,0,0,1.147-.3,4.362,4.362,0,0,0,.649-.4,5.154,5.154,0,0,0,.62-.541,4.822,4.822,0,0,0,1.446-2.824,1.691,1.691,0,0,0-.187-.969,1.071,1.071,0,0,0-.463-.431,1.514,1.514,0,0,0-.928-.1,2.885,2.885,0,0,0-.806.274A5.187,5.187,0,0,0,4377.183,5604.625Z" transform="translate(-4314.483 -5529.803)" fill="#d6f4ff"/>
        <path id="Path_2788" data-name="Path 2788" d="M4385.155,5616.683a1.215,1.215,0,0,0,.161.757.813.813,0,0,0,.075.1.794.794,0,0,0,.315.213,1,1,0,0,0,.364.063,1.878,1.878,0,0,0,.85-.226,3.357,3.357,0,0,0,.481-.3,3.9,3.9,0,0,0,.459-.4,3.564,3.564,0,0,0,1.073-2.091,1.272,1.272,0,0,0-.138-.719.809.809,0,0,0-.345-.319,1.123,1.123,0,0,0-.689-.073,2.148,2.148,0,0,0-.6.2,3.833,3.833,0,0,0-2.01,2.79Z" transform="translate(-4322.167 -5542.438)" fill="#0d5069"/>
        <path id="Path_2789" data-name="Path 2789" d="M3528.283,5414.063a1.987,1.987,0,0,0,.236,1.174,1.672,1.672,0,0,0,.141.194.069.069,0,0,1,.013.011,1.234,1.234,0,0,0,.469.32l3.391,2.353,2.2,1.56c.25.176.5.338.768.493l.111.073.049.017c.1.058.213.116.325.171l.82.414.951.614c-.026-.032-.049-.067-.072-.1a1.81,1.81,0,0,1-.243-1.12,5.681,5.681,0,0,1,2.977-4.128,3.158,3.158,0,0,1,.882-.3,1.636,1.636,0,0,1,1.013.109,1.074,1.074,0,0,1,.223.138c-1.2-.97-2.25-1.814-2.417-1.97l-.263-.234a9.017,9.017,0,0,0-.915-.7l-1.7-1.154-3.414-2.422c-.013-.01-.022-.02-.036-.03l-.147-.1a.091.091,0,0,0-.01-.007c-.01,0-.013-.008-.02-.011a1.53,1.53,0,0,0-.675-.179,2.1,2.1,0,0,0-.485.033,2.946,2.946,0,0,0-.462.118c-.079.028-.158.058-.243.092s-.164.073-.249.114c-.141.071-.279.149-.413.233-.069.042-.134.087-.2.134a6.12,6.12,0,0,0-.764.629c-.062.058-.118.117-.177.178a6.99,6.99,0,0,0-.633.754,6.588,6.588,0,0,0-.5.819,4.456,4.456,0,0,0-.518,1.714Z" transform="translate(-3496.419 -5345.441)" fill="#0986b3"/>
        <path id="Path_2790" data-name="Path 2790" d="M3780.343,5593.572a1.807,1.807,0,0,0,.243,1.12c.023.033.046.068.072.1l5.06,3.253.5.067.374-.383a1.275,1.275,0,0,0,.325.079,2,2,0,0,0,.9-.237,3.4,3.4,0,0,0,.508-.315,3.926,3.926,0,0,0,.485-.423l1.1-3.817-.361-.335s-2.249-1.793-4.115-3.29a1.076,1.076,0,0,0-.223-.138,1.636,1.636,0,0,0-1.013-.109,3.17,3.17,0,0,0-.882.3,5.683,5.683,0,0,0-2.977,4.128Z" transform="translate(-3739.324 -5518.776)" fill="#00abea"/>
        <path id="Path_2791" data-name="Path 2791" d="M3919.433,5695.235a1.638,1.638,0,0,0,.22,1.024,1.04,1.04,0,0,0,.1.133,1.053,1.053,0,0,0,.423.287,1.341,1.341,0,0,0,.492.084,2.545,2.545,0,0,0,1.147-.3,4.318,4.318,0,0,0,.649-.4,5.39,5.39,0,0,0,.62-.542,4.787,4.787,0,0,0,1.446-2.824,1.693,1.693,0,0,0-.187-.97,1.071,1.071,0,0,0-.462-.431,1.5,1.5,0,0,0-.928-.1,2.9,2.9,0,0,0-.806.274A5.187,5.187,0,0,0,3919.433,5695.235Z" transform="translate(-3873.362 -5617.122)" fill="#d6f4ff"/>
        <path id="Path_2792" data-name="Path 2792" d="M3927.416,5707.312a1.2,1.2,0,0,0,.164.758.593.593,0,0,0,.072.1.834.834,0,0,0,.315.212,1,1,0,0,0,.364.063,1.872,1.872,0,0,0,.849-.225,3.1,3.1,0,0,0,.482-.3,4.021,4.021,0,0,0,.459-.4,3.566,3.566,0,0,0,1.072-2.092,1.268,1.268,0,0,0-.137-.718.779.779,0,0,0-.344-.318,1.106,1.106,0,0,0-.686-.073,2.149,2.149,0,0,0-.6.2,3.841,3.841,0,0,0-2.01,2.79Z" transform="translate(-3881.055 -5629.777)" fill="#0d5069"/>
        <path id="Path_2793" data-name="Path 2793" d="M4843.19,4713.61a1.99,1.99,0,0,0,.315,1.155,1.174,1.174,0,0,0,.157.184.044.044,0,0,0,.01.009,1.233,1.233,0,0,0,.488.289l3.538,2.115,2.3,1.405c.262.159.528.3.8.438l.115.066c.017,0,.033.009.049.015.112.051.224.1.338.148l.843.357.994.547a1.176,1.176,0,0,1-.082-.095,1.8,1.8,0,0,1-.315-1.1,5.7,5.7,0,0,1,2.7-4.323,3.207,3.207,0,0,1,.862-.359,1.644,1.644,0,0,1,1.02.039,1.178,1.178,0,0,1,.229.123c-1.266-.886-2.364-1.657-2.542-1.8l-.275-.216a9.514,9.514,0,0,0-.961-.639l-1.777-1.035-3.564-2.182-.04-.027-.151-.09c-.006,0-.009-.005-.013-.006a.142.142,0,0,0-.023-.01,1.5,1.5,0,0,0-.682-.132,2.166,2.166,0,0,0-.482.066,2.837,2.837,0,0,0-.453.15c-.079.032-.157.069-.236.108s-.161.084-.243.131c-.134.08-.269.167-.4.261-.065.047-.13.1-.193.147a6.141,6.141,0,0,0-.721.681c-.056.061-.112.125-.167.19a7.069,7.069,0,0,0-.577.794,6.423,6.423,0,0,0-.45.852,4.447,4.447,0,0,0-.406,1.747Z" transform="translate(-4763.568 -4670.137)" fill="#00abea"/>
        <path id="Path_2794" data-name="Path 2794" d="M5105.97,4876.056a1.8,1.8,0,0,0,.315,1.1.951.951,0,0,0,.082.095l5.263,2.9.5.033.348-.409a1.389,1.389,0,0,0,.331.057,2.02,2.02,0,0,0,.879-.3,3.61,3.61,0,0,0,.485-.349,4.128,4.128,0,0,0,.456-.455l.849-3.884-.383-.31s-2.361-1.635-4.322-3a1.178,1.178,0,0,0-.229-.123,1.642,1.642,0,0,0-1.02-.039,3.218,3.218,0,0,0-.862.359,5.7,5.7,0,0,0-2.7,4.323Z" transform="translate(-5016.802 -4827.05)" fill="#00abea"/>
        <path id="Path_2795" data-name="Path 2795" d="M5250.84,4968.623a1.637,1.637,0,0,0,.286,1.005.982.982,0,0,0,.111.127,1.087,1.087,0,0,0,.439.257,1.376,1.376,0,0,0,.5.051,2.554,2.554,0,0,0,1.125-.381,4.4,4.4,0,0,0,.62-.446,5.126,5.126,0,0,0,.583-.582,4.836,4.836,0,0,0,1.256-2.917,1.717,1.717,0,0,0-.249-.955,1.066,1.066,0,0,0-.491-.4,1.507,1.507,0,0,0-.931-.035,2.881,2.881,0,0,0-.788.329A5.19,5.19,0,0,0,5250.84,4968.623Z" transform="translate(-5156.41 -4916.655)" fill="#b7eaff"/>
        <path id="Path_2796" data-name="Path 2796" d="M5257.71,4981.979a1.2,1.2,0,0,0,.213.746.573.573,0,0,0,.083.093.792.792,0,0,0,.325.191,1.011,1.011,0,0,0,.367.038,1.879,1.879,0,0,0,.833-.283,3.147,3.147,0,0,0,.462-.33,4.123,4.123,0,0,0,.43-.431,3.58,3.58,0,0,0,.932-2.161,1.226,1.226,0,0,0-.187-.707.772.772,0,0,0-.364-.3,1.115,1.115,0,0,0-.689-.025,2.1,2.1,0,0,0-.583.244,3.845,3.845,0,0,0-1.82,2.921Z" transform="translate(-5163.03 -4930.608)" fill="#0d5069"/>
        <path id="Path_2797" data-name="Path 2797" d="M4917.191,4406.914a1.987,1.987,0,0,0,.311,1.155,1.659,1.659,0,0,0,.157.184c.007,0,.007.007.01.009a1.268,1.268,0,0,0,.489.289l3.542,2.113,2.295,1.406c.259.158.528.3.8.438l.115.067.049.014c.111.051.223.1.334.148l.846.356.99.547a.728.728,0,0,1-.079-.1,1.8,1.8,0,0,1-.314-1.1,5.7,5.7,0,0,1,2.695-4.323,3.1,3.1,0,0,1,.859-.359,1.626,1.626,0,0,1,1.02.039,1.2,1.2,0,0,1,.233.122c-1.269-.885-2.368-1.657-2.544-1.8l-.276-.215a9.462,9.462,0,0,0-.957-.64l-1.777-1.035-3.568-2.182c-.013-.009-.023-.019-.036-.027l-.154-.091-.013-.006-.02-.008a1.524,1.524,0,0,0-.686-.132,2.255,2.255,0,0,0-.482.066,3.161,3.161,0,0,0-.453.15c-.075.032-.154.069-.236.108s-.157.084-.239.132a4.75,4.75,0,0,0-.4.261c-.066.048-.128.1-.193.147a6.33,6.33,0,0,0-.722.68c-.056.062-.112.125-.164.19a6.789,6.789,0,0,0-.581.794,6.392,6.392,0,0,0-.449.852,4.443,4.443,0,0,0-.4,1.747Z" transform="translate(-4834.88 -4374.582)" fill="#00abea"/>
        <path id="Path_2798" data-name="Path 2798" d="M5179.99,4569.386a1.8,1.8,0,0,0,.314,1.1.761.761,0,0,0,.079.1l5.263,2.9.508.033.348-.409a1.285,1.285,0,0,0,.327.056,1.985,1.985,0,0,0,.879-.3,3.43,3.43,0,0,0,.485-.349,4.18,4.18,0,0,0,.456-.455l.853-3.884-.384-.31s-2.364-1.635-4.322-3a1.174,1.174,0,0,0-.233-.122,1.628,1.628,0,0,0-1.02-.039,3.155,3.155,0,0,0-.859.358,5.7,5.7,0,0,0-2.7,4.324Z" transform="translate(-5088.134 -4531.522)" fill="#00abea"/>
        <path id="Path_2799" data-name="Path 2799" d="M5324.78,4661.939a1.644,1.644,0,0,0,.288,1,.972.972,0,0,0,.108.126,1.068,1.068,0,0,0,.443.257,1.354,1.354,0,0,0,.5.051,2.548,2.548,0,0,0,1.122-.381,4.494,4.494,0,0,0,.623-.445,5.693,5.693,0,0,0,.581-.583,4.823,4.823,0,0,0,1.259-2.917,1.68,1.68,0,0,0-.253-.955,1.062,1.062,0,0,0-.492-.4,1.5,1.5,0,0,0-.931-.035,2.927,2.927,0,0,0-.788.329A5.2,5.2,0,0,0,5324.78,4661.939Z" transform="translate(-5227.664 -4621.112)" fill="#b7eaff"/>
        <path id="Path_2800" data-name="Path 2800" d="M5331.64,4675.272a1.2,1.2,0,0,0,.214.745.8.8,0,0,0,.406.285,1.067,1.067,0,0,0,.371.037,1.907,1.907,0,0,0,.833-.283,3.315,3.315,0,0,0,.458-.33,3.849,3.849,0,0,0,.434-.432,3.572,3.572,0,0,0,.927-2.16,1.259,1.259,0,0,0-.183-.708.791.791,0,0,0-.364-.295,1.124,1.124,0,0,0-.692-.026,2.119,2.119,0,0,0-.581.244,3.851,3.851,0,0,0-1.823,2.922Z" transform="translate(-5234.274 -4635.042)" fill="#0d5069"/>
        <path id="Path_2801" data-name="Path 2801" d="M4568.038,4313.962l-3.257-.458a2.858,2.858,0,0,0-2.636,1.06l-17.985,22.587,22.034,4.238,4.676-23.36A3.411,3.411,0,0,0,4568.038,4313.962Z" transform="translate(-4475.4 -4289.479)" fill="#d6f4ff"/>
        <path id="Path_2802" data-name="Path 2802" d="M3091.84,3975.061a5.417,5.417,0,0,0,1.207,3.1c9.9,13.224,21.812,24.336,34.1,31.809l47.589,28.925c5.365,3.261,10.611,4.943,15.185,4.943a15.5,15.5,0,0,0,5.486-.943,1.644,1.644,0,0,0,.974-1.62,5.868,5.868,0,0,0-1.472-3.7l-4.5-5.5a59.486,59.486,0,0,0-16.562-14.286l-79.132-44.085a3.4,3.4,0,0,0-1-.386c-1.181-.238-1.879.536-1.879,1.738Z" transform="translate(-3075.837 -3961.641)" fill="#8ad4f2"/>
        <path id="Path_2803" data-name="Path 2803" d="M3143.57,3974.43a4.42,4.42,0,0,0,.374,1.5,6.9,6.9,0,0,0,.829,1.422c.147.2.3.4.449.594,9.8,12.965,21.546,23.858,33.652,31.212l47.582,28.924c5.368,3.263,10.611,4.948,15.186,4.948a17.111,17.111,0,0,0,2.452-.171c.394-.057.777-.127,1.158-.215.335-.074.662-.162.98-.259a4.729,4.729,0,0,0-.439-2.033,7.294,7.294,0,0,0-1.033-1.664l-4.5-5.5A59.49,59.49,0,0,0,3223.7,4018.9l-75.634-42.136-3.5-1.949a3.4,3.4,0,0,0-1-.386Z" transform="translate(-3125.688 -3962.749)" fill="#edf6ff"/>
        <path id="Path_2804" data-name="Path 2804" d="M3177.019,3654.375l2,15.587,11.329,5.555,1.2.587a.461.461,0,0,0,.633-.567l-5.361-16.208a5.96,5.96,0,0,0-2.673-3.3l-5.191-2.984a1.278,1.278,0,0,0-1.524.18,1.318,1.318,0,0,0-.41,1.145Z" transform="translate(-3157.91 -3652.875)" fill="#fcd726"/>
        <path id="Path_2805" data-name="Path 2805" d="M3177.019,3663.765l2,15.587,11.329,5.554L3185,3668.736a5.96,5.96,0,0,0-2.673-3.3l-4.9-2.819a1.317,1.317,0,0,0-.41,1.145Z" transform="translate(-3157.91 -3662.266)" fill="#edb126"/>
        <path id="Path_2806" data-name="Path 2806" d="M5454.691,5417.689l1.974-.182a12.417,12.417,0,0,0,5.9-2.144l-.691-1.033a11.212,11.212,0,0,1-5.322,1.935l-1.974.181Z" transform="translate(-5352.749 -5350.344)" fill="#00abea"/>
        <path id="Path_2807" data-name="Path 2807" d="M5460.115,5412.123a11.275,11.275,0,0,1-5.3,1.909l-1.912.177.1,1.118,1.912-.176a12.387,12.387,0,0,0,5.823-2.1Zm-7.345,1.973,2.033-.187a11.159,11.159,0,0,0,5.3-1.924l.049-.035.758,1.138-.049.035a12.484,12.484,0,0,1-5.928,2.155l-2.037.187-.122-1.367Z" transform="translate(-5351.003 -5348.049)" fill="#b75a51" stroke="#00abea" stroke-miterlimit="10" stroke-width="3"/>
        <path id="Path_2808" data-name="Path 2808" d="M3024.459,5093.84l3.518,3.111a6.153,6.153,0,0,0,5.086,1.462l53.012-8.89a2.251,2.251,0,0,0,.754-4.142l-10.473-6.26a9.317,9.317,0,0,0-7.427-.941l-43.883,12.953a1.676,1.676,0,0,0-.289.122,1.591,1.591,0,0,0-.3,2.585Z" transform="translate(-3010.39 -5026.038)" fill="#8ad4f2"/>
        <path id="Path_2809" data-name="Path 2809" d="M3046.79,5091.246a1.569,1.569,0,0,0,.489.8l3.512,3.105a6.153,6.153,0,0,0,5.089,1.464l53.009-8.89a1.182,1.182,0,1,0-.026-2.352l-10.473-6.261a9.318,9.318,0,0,0-7.427-.94l-43.883,12.953a1.531,1.531,0,0,0-.289.122Z" transform="translate(-3032.423 -5026.028)" fill="#d6f4ff"/>
        <path id="Path_2810" data-name="Path 2810" d="M4049.99,5359.894h.01l23.471-4.07a.061.061,0,0,0,.049-.072.057.057,0,0,0-.069-.051l-23.471,4.07a.063.063,0,0,0-.052.072.065.065,0,0,0,.063.052Z" transform="translate(-3999.122 -5293.843)" fill="#fffdf3"/>
        <path id="Path_2811" data-name="Path 2811" d="M5088.315,4509.061a.06.06,0,0,0,.06-.047l4.872-19.136a.061.061,0,0,0-.042-.076.063.063,0,0,0-.076.045l-4.873,19.135a.066.066,0,0,0,.046.076Z" transform="translate(-4999.731 -4459.397)" fill="#fffdf3"/>
        <path id="Path_2812" data-name="Path 2812" d="M5327.079,5865.21l-.859-1.419,1.3-.776,0,0a1.668,1.668,0,0,1,1.719.3,4.759,4.759,0,0,1,2.02,3.735,1.378,1.378,0,0,1-.442,1.019h0a.994.994,0,0,1-.246.148l-1.233.729-.916-1.512a5.185,5.185,0,0,1-1.348-2.223Z" transform="translate(-5229.052 -5782.606)" fill="#0d5069"/>
        <path id="Path_2813" data-name="Path 2813" d="M5311.923,5884.3a4.749,4.749,0,0,0,2.02,3.736c1.191.8,2.22.438,2.3-.82a4.753,4.753,0,0,0-2.02-3.736C5313.028,5882.679,5312,5883.046,5311.923,5884.3Z" transform="translate(-5215.269 -5802.043)" fill="#0986b3"/>
        <path id="Path_2814" data-name="Path 2814" d="M5326.221,5904.432a3.452,3.452,0,0,0,1.462,2.708,1.156,1.156,0,0,0,1.309.175.97.97,0,0,0,.361-.77,3.449,3.449,0,0,0-1.466-2.708,1.481,1.481,0,0,0-.948-.306c-.4.04-.686.354-.718.9Z" transform="translate(-5229.049 -5821.771)" fill="#0d5069"/>
        <path id="Path_2815" data-name="Path 2815" d="M5336.062,5904.3a3.444,3.444,0,0,0,1.466,2.708,1.481,1.481,0,0,0,.947.305.97.97,0,0,0,.361-.77,3.449,3.449,0,0,0-1.466-2.708,1.482,1.482,0,0,0-.948-.306A.972.972,0,0,0,5336.062,5904.3Z" transform="translate(-5238.532 -5821.771)" fill="#0d5069"/>
        <path id="Path_2816" data-name="Path 2816" d="M5315.666,5886.568a.027.027,0,0,0,.026-.024,4.79,4.79,0,0,0-2.03-3.759,1.737,1.737,0,0,0-1.708-.316,1.3,1.3,0,0,0-.633,1.156.026.026,0,0,0,.023.028h0a.029.029,0,0,0,.026-.024,1.248,1.248,0,0,1,.6-1.114,1.689,1.689,0,0,1,1.656.313,4.728,4.728,0,0,1,2.006,3.712.025.025,0,0,0,.023.027h0Z" transform="translate(-5214.693 -5801.366)" fill="#fffdf3" stroke="#0d5069" stroke-miterlimit="10" stroke-width="3"/>
        <path id="Path_2817" data-name="Path 2817" d="M2651.3,4130.151v.036a4.246,4.246,0,0,0,4.211,4.135h18.265a1.02,1.02,0,0,0,.843-1.572.341.341,0,0,0-.039-.065l-3.689-4.971a1,1,0,0,0-.9-.4l-17.785,1.822a1,1,0,0,0-.518.216,1.026,1.026,0,0,0-.385.8Z" transform="translate(-2651.3 -4110.071)" fill="#00abea"/>
        <path id="Path_2818" data-name="Path 2818" d="M2661.9,4129.347a4.234,4.234,0,0,0,4.15,3.547h18.265a.967.967,0,0,0,.518-.145.358.358,0,0,0-.039-.065l-3.689-4.971a1,1,0,0,0-.9-.4l-17.785,1.822a1,1,0,0,0-.518.215Z" transform="translate(-2661.515 -4110.071)" fill="#00abea"/>
      </g>
    </g>
  </g>
</svg>
