<svg xmlns="http://www.w3.org/2000/svg" xmlns:xlink="http://www.w3.org/1999/xlink" width="214.585" height="217" viewBox="0 0 214.585 217">
  <defs>
    <clipPath id="clip-path">
      <path id="Path_2213" data-name="Path 2213" d="M4466.7,4861.693l-10.573-6.09,26.889-15.545,10.573,6.112Zm-12.454-7.2-26.839-15.5,26.89-15.567,26.838,15.522Zm41.274-9.433-10.573-6.112,22.975-13.264,10.573,6.111-22.417,12.843.051.044Zm-69.994-7.175L4402.5,4824.58l26.94-15.567,22.976,13.309Zm57.54-.044-26.839-15.522.61-.354,9.455,5.491,22.467-12.843,17.231,9.964-22.925,13.264Zm37.36-7.13-10.624-6.134,21.959-12.688,10.725,6.2Zm-12.5-7.219-17.282-9.965,22.112-12.622,17.13,9.876-21.958,12.711Zm-107.354,0-26.788-15.523,26.89-15.567,26.839,15.522Zm53.728-2.259-22.975-13.309.559-.332,23.026,13.286-.61.354Zm-82.447-14.35-6.1-3.543,26.94-15.567,6.1,3.521Zm57.591-.066L4402.6,4791.3l.508-.31,26.89,15.5-.559.332Zm-28.77-16.629-6.049-3.521.508-.31,6.1,3.521-.559.311h0Z" transform="translate(-4365.749 -4786.36)" clip-rule="evenodd"/>
    </clipPath>
    <radialGradient id="radial-gradient" cx="1.09" cy="-1.78" r="1.944" gradientTransform="matrix(0.452, 0, 0, -0.8, 0.597, -3.204)" gradientUnits="objectBoundingBox">
      <stop offset="0" stop-color="#72bbd5"/>
      <stop offset="0.012" stop-color="#72bbd5"/>
      <stop offset="1" stop-color="#3b97cf"/>
    </radialGradient>
  </defs>
  <g id="Layer_x0020_1" transform="translate(-3562.987 -1834.061)">
    <g id="_2340485882720" transform="translate(3562.987 1834.061)">
      <path id="Path_2212" data-name="Path 2212" d="M3629,5386.093c15.1,4.279,15.1,11.216,0,15.494s-39.585,4.278-54.686,0-15.1-11.215,0-15.494S3613.9,5381.815,3629,5386.093Z" transform="translate(-3562.987 -5215.572)" fill="#cee1f5"/>
      <g id="Group_309" data-name="Group 309" transform="translate(37.847 139.189)" clip-path="url(#clip-path)">
        <rect id="Rectangle_39" data-name="Rectangle 39" width="179.331" height="78.123" transform="translate(-1.474 -1.395)" fill="none"/>
      </g>
      <path id="Path_2214" data-name="Path 2214" d="M4459.025,4868.313l-101.015-58.321.354-.2,6.123,3.538,26.931-15.584-6.088-3.523,1.9-1.1,6.086,3.522.542-.314,1.9,1.1-.543.315,26.834,15.528.575-.333,1.9,1.1-.578.333,22.992,13.305.6-.35,1.9,1.1-.606.35,26.834,15.527,22.958-13.269-17.245-9.966,1.909-1.092,17.233,9.962,21.971-12.7,1.9,1.1-21.971,12.7,10.608,6.132-1.909,1.09-10.6-6.124-22.959,13.271,10.564,6.111-1.9,1.1-10.563-6.111-26.9,15.545,10.555,6.1-.3.174Zm-12.089-38.444-26.9,15.564,26.833,15.509,26.9-15.544Zm-24.891-14.4-26.929,15.562,23.023,13.307,26.9-15.565Zm-28.729-16.626-26.931,15.584,26.832,15.508,26.929-15.565-26.831-15.526Z" transform="translate(-4320.528 -4653.613)" fill-rule="evenodd" fill="url(#radial-gradient)"/>
      <path id="Path_2215" data-name="Path 2215" d="M5807.291,3021s.181,3.272.91,4.364,1.091,1.728,1.091,1.728-2.819-.909-3.092,0,1.183,2.364,3.092,2.364,4.227-3.092,4.227-3.092l-.408-6.455-5.82,1.091Z" transform="translate(-5700.41 -2964.002)" fill="#fac4b3"/>
      <path id="Path_2216" data-name="Path 2216" d="M5728.308,2308.23s-2.641-1.419-6.6,1.247-8.728,10.487-10.5,13.213c-2.183,3.357-1.4,6.214-.364,10.615.963,4.087,2,8.384,3.091,10.2s6.174.136,6.457-1.721c.126-.827-.759-6.214-3.122-13.813,10.34-6.586,11.034-19.745,11.034-19.745Z" transform="translate(-5608.604 -2285.515)" fill="#008fc8"/>
      <path id="Path_2217" data-name="Path 2217" d="M5863.2,3064.14c-4.254,1.265-8.184,2.794-8.184,2.794s-2.7,23.982-2.59,35.607c.136,13.62.607,36.318.607,36.318s2.246,2.449,7.249,2.037c3.837-.315,4.995-1.793,4.995-1.793l-.12-34.553,2.994-16.657c-.648-10.889-4.084-12.878-4.951-23.752Z" transform="translate(-5744.488 -3006.147)" fill="#0d5069"/>
      <path id="Path_2218" data-name="Path 2218" d="M6104.883,3152.526s1.161-19.924-1.916-35.279c1.106-9.014,4.512-25.1,2.281-34.809-2.786-12.137-5.924-10.052-5.924-10.052.266-2.039-4.209-1.694-8.868-.8.01,8.129-1.8,35.215-.73,43.871,1.477,11.982,2.935,39.087,2.935,39.087s2.506,1.52,7.411.614c5.545-1.025,4.812-2.629,4.812-2.629Z" transform="translate(-5970.279 -3012.569)" fill="#0d5069"/>
      <path id="Path_2219" data-name="Path 2219" d="M5886.9,2361.17c.869.362,10.451,1.076,10.451,1.076s8.313,2.652,10.275,9.109c.144,2.027-.637,6.908-.962,9.031-.3.187-2.251-.128-2.392.287-2.046,5.958-2.222,10.325-1.505,17.1.2,1.932.556,4-.379,5.842-5.184,6.127-15.185,3.125-24.058-1.757,0-.576,0-1.206.013-1.881-.753-.7-1.344-1.112-1.115-2.067a40.193,40.193,0,0,0,1.079-9.611c-.486-10.667.328-19.606,8.593-27.128Z" transform="translate(-5768.072 -2336.319)" fill="#0986b3"/>
      <path id="Path_2220" data-name="Path 2220" d="M6024.63,2456.7s-.269,3.072-.527,5.73,1,8.3,1,8.3,4.819-4.932,5.85-6.089a26.481,26.481,0,0,0,2.486-3.961l-8.81-3.984Z" transform="translate(-5908.039 -2427.345)" fill="#fefefe"/>
      <path id="Path_2221" data-name="Path 2221" d="M6092.6,2233.268l-1.3-7.219-7.79,5.658-.921,5.374a5.971,5.971,0,0,0-.433,2.7c3.768-1.878,7.994-2.79,10.444-6.514Z" transform="translate(-5963.361 -2207.569)" fill="#f8ac98"/>
      <path id="Path_2222" data-name="Path 2222" d="M5901.14,3184.3v2.343s3.679,3.909,11.318,4.729a25.237,25.237,0,0,0,13.142-2.01l-.379-1.424a26.965,26.965,0,0,1-10.649,1.485c-6.722-.209-13.432-5.123-13.432-5.123Z" transform="translate(-5790.906 -3120.642)" fill="#0d5069"/>
      <path id="Path_2223" data-name="Path 2223" d="M6042.666,2542.6c.675-.589,1.367-1.161,2.063-1.731l.546-5.626-1.159-.124a32.655,32.655,0,0,0-2.027,4.248.681.681,0,0,1,.125.39,10.449,10.449,0,0,0,.451,2.841Z" transform="translate(-5925.21 -2502.068)" fill="#0d5069"/>
      <path id="Path_2224" data-name="Path 2224" d="M6070.581,2477.29a6.254,6.254,0,0,0-.259,3.878c.106.233,1.5.394,1.5.394a12.229,12.229,0,0,0,1.618-3.508,2.588,2.588,0,0,0-1.814-.064A2.128,2.128,0,0,0,6070.581,2477.29Z" transform="translate(-5951.89 -2446.964)" fill="#0d5069"/>
      <path id="Path_2225" data-name="Path 2225" d="M6235.636,3477.808c-.853-.083-1.084-2.037.238-1.9a.962.962,0,0,1-.238,1.9Zm.875,5.946-.368-4.968a1.95,1.95,0,0,0,1.409-2.189,1.8,1.8,0,0,0-2.774-1.428,1.976,1.976,0,0,0-.744,2.234,1.682,1.682,0,0,0,1.2,1.455s.317,4.183.386,5,.265.859.9.768a5.429,5.429,0,0,0,.936-.2l-.075-.782-.87.109Z" transform="translate(-6108.048 -3397.512)" fill="#c5bfbd"/>
      <path id="Path_2226" data-name="Path 2226" d="M6192.792,3386.053c-.813-.268-.609-2.224.651-1.8a.963.963,0,0,1-.651,1.8Zm-.453,5.993.734-4.928a1.945,1.945,0,0,0,1.854-1.825,1.8,1.8,0,0,0-2.391-2,1.977,1.977,0,0,0-1.217,2.016,1.683,1.683,0,0,0,.85,1.682s-.609,4.15-.722,4.964.07.9.711.947a5.293,5.293,0,0,0,.956.012l.1-.78-.873-.086Z" transform="translate(-6067.402 -3310.135)" fill="#d7d1ce"/>
      <path id="Path_2227" data-name="Path 2227" d="M6243.36,3373.995c-.851-.084-1.082-2.037.241-1.9a.964.964,0,0,1-.241,1.9Zm.875,5.946-.365-4.97a1.944,1.944,0,0,0,1.407-2.187,1.8,1.8,0,0,0-2.772-1.428,1.972,1.972,0,0,0-.743,2.232,1.683,1.683,0,0,0,1.2,1.456s.317,4.183.386,5,.265.858.9.766a5.184,5.184,0,0,0,.936-.2l-.075-.782Z" transform="translate(-6115.41 -3298.593)" fill="#eae4e0"/>
      <path id="Path_2228" data-name="Path 2228" d="M6226.043,3327.775l-.183-.181v-2.386c0-1.4.491-1.623,1.132-1.763l.124-.029a.525.525,0,0,1,.472.111c.69.559.644,3.1.637,3.393l-.183.176h0l-.177-.186c.026-1.021-.087-2.765-.5-3.1l-.159-.039-.127.031c-.493.108-.848.186-.848,1.407v2.386Z" transform="translate(-6100.317 -3253.183)" fill="#616262"/>
      <path id="Path_2229" data-name="Path 2229" d="M6236.96,3291.659v2.046c0,.636.364,1,.788.725s.364-.848.364-1.7,0-1.132,0-1.132Z" transform="translate(-6110.893 -3222.883)" fill="#eae4e0"/>
      <path id="Path_2230" data-name="Path 2230" d="M6285.616,3260.89s-3.53,1.821-4.158,5.094.428,5.542,2.716,5.848,4.023-.648,4.065-1.685-2.5-.675-2.5-.675,3.273-2.546,3.273-4.365-3.395-4.217-3.395-4.217Z" transform="translate(-6153.123 -3193.621)" fill="#fac4b3"/>
      <path id="Path_2231" data-name="Path 2231" d="M6312.4,2454.513c-3.8.859-4.065,7.322-2.083,14.034s6.744,13.543,6.744,13.543-6.4,6.889-7.836,7.887c-3,2.087-4.154,3.819-1.47,6.448,1.826,1.787,4.219,3.57,5.713,2.705,2.071-1.2,2.782-1.926,5.539-4.62,1.763-1.728,7.638-6.6,8.293-10.238.354-1.968-3.526-11.565-5.95-19.15s-5.336-11.43-8.949-10.61Z" transform="translate(-6176.911 -2425.158)" fill="#008fc8"/>
      <path id="Path_2232" data-name="Path 2232" d="M6020.057,2349.426c-.873,2.305-2.949,4.59-4.2,6.377-1.519,2.165-6.736,8.306-6.736,8.306a58.8,58.8,0,0,1-.289-8.306,25.164,25.164,0,0,1,2.272-7.106l-1.122-.617s-2.873,5.67-3.232,9.486,1.453,11.231,1.453,11.231,3.3-3.9,6.538-7.5a39.017,39.017,0,0,0,5.879-7.728,13.136,13.136,0,0,0,1.5-3.269c-.69-.271-1.377-.6-2.064-.872Z" transform="translate(-5891.492 -2323.846)" fill="#008fc8"/>
      <path id="Path_2233" data-name="Path 2233" d="M6019.925,2343.858a25.312,25.312,0,0,0-.209,5.557s-3.049-.365-3.948.208c-.551-1.146.831-5.79,2.579-7.244.24-.2.79.572,1.579,1.479Z" transform="translate(-5900.013 -2318.384)" fill="#b7eaff"/>
      <path id="Path_2234" data-name="Path 2234" d="M6110.976,2315.85a9.116,9.116,0,0,1,1.263,3.005c0,2.808-4.884,7.883-6.825,8.639a34.056,34.056,0,0,0-3.435-3.327s.3-.6,3.6-2.917a19.521,19.521,0,0,0,5.4-5.4Z" transform="translate(-5982.276 -2293.136)" fill="#b7eaff"/>
      <path id="Path_2235" data-name="Path 2235" d="M6009.3,1978.964a7.359,7.359,0,0,0-12.1.891c-4.137,6.12-.229,16.126,3.394,15.542,2.029-.328,6.6-2.176,8.6-5.444C6011.439,1986.276,6010.932,1981.049,6009.3,1978.964Z" transform="translate(-5880.741 -1969.494)" fill="#fac4b3"/>
      <path id="Path_2236" data-name="Path 2236" d="M5991.523,1941.583a6.158,6.158,0,0,0,5.521,3.091,13.463,13.463,0,0,0,4.94-.679l-.235,3.684a3.156,3.156,0,0,0,1.01-.139c.364-1.4.964-1.727,1.648-1.137.775.668.663,3.231.663,3.231a9.441,9.441,0,0,0,2.906-6.741c-.008-2.63-2.305-8.324-7.122-8.923s-8.249,1.922-9.426,4.495a3.392,3.392,0,0,0,.1,3.118Z" transform="translate(-5876.622 -1929.176)" fill="#0d5069"/>
      <path id="Path_2237" data-name="Path 2237" d="M5900.832,2045.921s-5.68,3.114-3.4,5.285c3.369,3.207,13.256,3.221,17.182-1.093l-13.784-4.192Z" transform="translate(-5786.86 -2035.932)" fill="#0986b3"/>
      <path id="Path_2238" data-name="Path 2238" d="M5970.8,1999.376v-2.616s2.115,3.863,8.8,4.273a28.417,28.417,0,0,0,9.062-.667l-.058,2.568s-3.569,1.993-11.078.372c-6.11-1.32-6.729-3.93-6.729-3.93Z" transform="translate(-5857.281 -1989.089)" fill="#008fc8"/>
      <path id="Path_2239" data-name="Path 2239" d="M5927.481,1861.44a3.609,3.609,0,0,0-1.571,2.939c0,1.311,1.571-.788,1.571-.788Z" transform="translate(-5814.508 -1860.149)" fill="#373737"/>
      <path id="Path_2240" data-name="Path 2240" d="M5987.488,2012.83a2.788,2.788,0,0,0,1.554,3.591c1.777.816,2.442-1.534,2.442-1.534l-4-2.057Z" transform="translate(-5873.012 -2004.402)" fill="#fefefe"/>
      <path id="Path_2241" data-name="Path 2241" d="M5944.917,1854.393c-4.827,1.17-12.1-.545-16.241-3.834s-3.588-6.9,1.24-8.073,12.1.546,16.241,3.834,3.587,6.9-1.24,8.073Z" transform="translate(-5814.497 -1841.738)" fill="#0986b3"/>
      <path id="Path_2242" data-name="Path 2242" d="M5955.531,1846.227c-4.609.875-11.719-1.092-15.878-4.392s-3.794-6.69.815-7.566,11.719,1.09,15.879,4.392S5960.142,1845.348,5955.531,1846.227Z" transform="translate(-5824.845 -1834.061)" fill="#008fc8"/>
      <path id="Path_2243" data-name="Path 2243" d="M6468.852,2628.88s-2.436,1.281-4,1.886-2.9,1.2-2.9,1.2,1.345,5.1,3.577,7.235c3.092,2.966,6.857,0,6.857,0l-3.542-10.317Z" transform="translate(-6325.286 -2591.407)" fill="#008fc8"/>
      <path id="Path_2244" data-name="Path 2244" d="M5811.238,2383.971a9.706,9.706,0,0,0,1.078,1.915,10.587,10.587,0,0,0,1.194,1.029s-2.437,4.063-4.136,4.849-3.215-1.353-3.215-1.353a32.908,32.908,0,0,1,5.08-6.442Z" transform="translate(-5700.403 -2358.044)" fill="#008fc8"/>
      <path id="Path_2245" data-name="Path 2245" d="M6158.108,2657.66l-.6,2.06,6.916,3.516.727-2.13Z" transform="translate(-6035.189 -2618.831)" fill="#fefefe"/>
      <path id="Path_2246" data-name="Path 2246" d="M6342.26,2417.963a10.942,10.942,0,0,1,1.589-2.482c.629-.576.774.283.774.283s-.4.089-1.085,1.2a10.089,10.089,0,0,0-.683,1.257l-.6-.256Z" transform="translate(-6211.229 -2387.88)" fill="#0d5069"/>
      <path id="Path_2247" data-name="Path 2247" d="M6305.466,2463.31s-2.624,4.019-.325,5.351,4.164-3.358,4.164-3.358Z" transform="translate(-6174.96 -2433.644)" fill="#0d5069"/>
      <path id="Path_2248" data-name="Path 2248" d="M6296.959,2492.644a2.88,2.88,0,0,1-1.328-1.411c-.389-.976,4.806-2.753,4.806-2.753l.687.806-4.164,3.358Z" transform="translate(-6166.778 -2457.627)" fill="#0d5069"/>
      <path id="Path_2249" data-name="Path 2249" d="M6290.884,2446.18s-2.624,4.02-.324,5.351,4.165-3.356,4.165-3.356l-3.84-1.994Z" transform="translate(-6161.066 -2417.321)" fill="#0d5069"/>
      <path id="Path_2250" data-name="Path 2250" d="M6311.96,2467.7l3.018,1.532c.1-.166.192-.325.271-.473l-3.07-1.548c-.072.149-.147.314-.217.489Z" transform="translate(-6182.357 -2437.36)" fill="#0d5069"/>
      <path id="Path_2251" data-name="Path 2251" d="M6305.33,2487.395l2.685,1.365a5.72,5.72,0,0,0,.4-.494l-2.929-1.476A4.973,4.973,0,0,0,6305.33,2487.395Z" transform="translate(-6176.04 -2456.017)" fill="#0d5069"/>
      <path id="Path_2252" data-name="Path 2252" d="M6304.937,2511.347a1.375,1.375,0,0,0,1.653-.231l-2.39-1.206A1.508,1.508,0,0,0,6304.937,2511.347Z" transform="translate(-6174.963 -2478.047)" fill="#0d5069"/>
      <path id="Path_2253" data-name="Path 2253" d="M6324.287,2452.469l-3-1.559s-.1.156-.215.363l3.058,1.552c.094-.2.159-.356.159-.356Z" transform="translate(-6191.038 -2421.828)" fill="#0d5069"/>
      <path id="Path_2254" data-name="Path 2254" d="M6316.772,2458.6c-.062.113-.136.249-.212.406l3.07,1.548c.08-.15.149-.287.2-.4Z" transform="translate(-6186.741 -2429.156)" fill="#eae4e0"/>
      <path id="Path_2255" data-name="Path 2255" d="M6308.54,2478.014l2.929,1.476.25-.378-3.017-1.532C6308.644,2477.719,6308.59,2477.863,6308.54,2478.014Z" transform="translate(-6179.099 -2447.241)" fill="#eae4e0"/>
      <path id="Path_2256" data-name="Path 2256" d="M6304.2,2500.1l2.39,1.206.348-.326-2.684-1.365A3.364,3.364,0,0,0,6304.2,2500.1Z" transform="translate(-6174.963 -2468.232)" fill="#eae4e0"/>
      <path id="Path_2257" data-name="Path 2257" d="M4479.78,3571.2v70.281l95.572,55.178v-70.282Z" transform="translate(-4436.557 -3489.301)" fill="#17c1ff"/>
      <path id="Path_2258" data-name="Path 2258" d="M6571.469,3947.4l-64.529,37.442v70.282l64.529-37.442Z" transform="translate(-6368.145 -3847.765)" fill="#00abea"/>
      <path id="Path_2259" data-name="Path 2259" d="M4534.6,3114.771l-29.755-17.181-39.591,22.946-71.163-41.087-29.755,17.178,101.015,58.322,29.755-17.18-.1-.055Z" transform="translate(-4326.56 -3020.735)" fill="#80dbfc"/>
      <path id="Path_2260" data-name="Path 2260" d="M4364.34,3443.82v2.863L4465.354,3505v-2.861Z" transform="translate(-4326.56 -3367.927)" fill="#008fc8"/>
      <path id="Path_2261" data-name="Path 2261" d="M6576.189,3828.64v2.861l-69.25,40.179v-2.861Z" transform="translate(-6368.145 -3734.604)" fill="#0986b3"/>
      <path id="Path_2262" data-name="Path 2262" d="M6666.26,3713.784l20.607-11.924,7.629,4.395-20.644,11.926Z" transform="translate(-6519.954 -3613.801)" fill="#fefefe"/>
      <path id="Path_2263" data-name="Path 2263" d="M6673.853,3960.256l-7.593-4.406v-1.07l7.593,4.4Z" transform="translate(-6519.954 -3854.797)" fill="#008fc8"/>
      <path id="Path_2264" data-name="Path 2264" d="M6827.3,3807.006v1.079l20.645-11.99v-1.015Z" transform="translate(-6673.401 -3702.626)" fill="#008fc8"/>
      <path id="Path_2265" data-name="Path 2265" d="M6730.286,3922.035l.386-.222-7.6-4.394-.388.222Z" transform="translate(-6573.714 -3819.198)" fill="#008fc8"/>
      <path id="Path_2266" data-name="Path 2266" d="M6794.055,3885.2l.387-.222-7.6-4.394-.391.222Z" transform="translate(-6634.478 -3784.095)" fill="#008fc8"/>
      <path id="Path_2267" data-name="Path 2267" d="M6857.7,3848.355l.385-.224-7.6-4.392-.391.22Z" transform="translate(-6695.117 -3748.992)" fill="#008fc8"/>
      <path id="Path_2268" data-name="Path 2268" d="M6920.906,3811.576l.385-.222-7.6-4.394-.391.222Z" transform="translate(-6755.347 -3713.946)" fill="#008fc8"/>
      <path id="Path_2269" data-name="Path 2269" d="M6689.568,3727.278l-.387-.221,20.641-11.927.39.221Z" transform="translate(-6541.793 -3626.445)" fill="#008fc8"/>
      <path id="Path_2270" data-name="Path 2270" d="M6721.4,3746.224l-.383-.217,20.665-11.946.39.226Z" transform="translate(-6572.132 -3644.483)" fill="#008fc8"/>
      <path id="Path_2271" data-name="Path 2271" d="M6754.528,3764.991l-.387-.223,20.638-11.928.394.223Z" transform="translate(-6603.691 -3662.378)" fill="#008fc8"/>
      <path id="Path_2272" data-name="Path 2272" d="M6786.867,3784.484l-.417-.2,20.708-11.969.387.224Z" transform="translate(-6634.478 -3680.93)" fill="#008fc8"/>
      <path id="Path_2273" data-name="Path 2273" d="M6982.985,3775.546l.388-.225-7.6-4.391-.391.22Z" transform="translate(-6814.5 -3679.615)" fill="#9c9d9e"/>
      <path id="Path_2274" data-name="Path 2274" d="M7044.4,3740.126l.388-.222-7.6-4.393-.391.222Z" transform="translate(-6873.015 -3645.865)" fill="#9c9d9e"/>
      <path id="Path_2275" data-name="Path 2275" d="M7180.63,3866.218l8.929-5.158,3.334,5.158-5.229,4.54Z" transform="translate(-7010.073 -3765.496)" fill="#0986b3"/>
      <path id="Path_2276" data-name="Path 2276" d="M6946.881,2907.409v26.135a2.537,2.537,0,0,0,3.806,2.2l30.756-17.757a2.54,2.54,0,0,0,1.269-2.2v-26.136a2.523,2.523,0,0,0-.315-1.233l.674-.011-1.445-.837a2.52,2.52,0,0,0-2.721-.117l-30.755,17.758a2.536,2.536,0,0,0-1.269,2.2Z" transform="translate(-6787.343 -2837.462)" fill="#0d5069"/>
      <path id="Path_2277" data-name="Path 2277" d="M6968.429,3847.746l1.7.984,1.99-2.08-3.94-2.41Z" transform="translate(-6807.64 -3749.469)" fill="#0d5069"/>
      <path id="Path_2278" data-name="Path 2278" d="M6981.721,2927.834v26.136a2.538,2.538,0,0,0,3.807,2.2l30.755-17.757a2.538,2.538,0,0,0,1.27-2.2v-26.136a2.536,2.536,0,0,0-3.806-2.2l-30.757,17.755A2.538,2.538,0,0,0,6981.721,2927.834Z" transform="translate(-6820.542 -2856.927)" fill="#1b6580"/>
      <path id="Path_2279" data-name="Path 2279" d="M7351.354,3509.59V3532.7l-7.035,4.077v-23.1Z" transform="translate(-7166.046 -3430.596)" fill="#0986b3"/>
      <path id="Path_2280" data-name="Path 2280" d="M7332.66,3499.166l-.925-.516-7.035,4.086.925.515Z" transform="translate(-7147.351 -3420.171)" fill="#008fc8"/>
      <path id="Path_2281" data-name="Path 2281" d="M7324.7,3585.31l.925.515v23.1l-.925-.515Z" transform="translate(-7147.351 -3502.746)" fill="#008fc8"/>
      <path id="Path_2282" data-name="Path 2282" d="M7187.663,3975.532l-7.033-4.082v-.99l7.033,4.07Z" transform="translate(-7010.073 -3869.738)" fill="#008fc8"/>
      <path id="Path_2283" data-name="Path 2283" d="M6550.619,4055.284l4.237-2.441h0a1,1,0,0,1,.544-.164c3.045,0,6.448,5.421,6.448,5.421l-4.308,2.471-7.131-4.775Z" transform="translate(-6409.566 -3948.082)" fill="#fefefe"/>
      <path id="Path_2284" data-name="Path 2284" d="M6719.346,4147.912l-.451.262a21.717,21.717,0,0,0-1.454-1.979l.459-.256A21.973,21.973,0,0,1,6719.346,4147.912Z" transform="translate(-6568.721 -4036.944)" fill="#008fc8"/>
      <path id="Path_2285" data-name="Path 2285" d="M3834.589,3959.912l-7.739,34.91-7.868,18.013-9.338,16.8-9.814-4.3.009-.029.333-1.174q2.383-8.449,5.445-16.657t6.794-16.135l5.194-35.017,14.269,3.017,2.716.575Z" transform="translate(-3788.664 -3856.264)" fill="#fac54b"/>
      <path id="Path_2286" data-name="Path 2286" d="M3832.729,3960.415l-8.29,33.24-7.861,18.009-9.338,16.8-7.221-3.165.333-1.174q2.383-8.448,5.445-16.656t6.794-16.135l5.194-35.017,14.944,4.094Z" transform="translate(-3788.845 -3856.265)" fill="#ffd675"/>
      <g id="Group_310" data-name="Group 310" transform="translate(60.089 33.853)">
        <path id="Path_2287" data-name="Path 2287" d="M5441.56,3426.547v-5.3l2.294,1.068,1.793,2.891a2.08,2.08,0,0,1-.091,2.329l-1.592,1.6-2.4-2.59Z" transform="translate(-5413.083 -3380.273)" fill="#ffd0a6"/>
        <path id="Path_2288" data-name="Path 2288" d="M5371.911,3450.8l-.165-.115a1.285,1.285,0,0,0-1.49,0h0a.358.358,0,0,0-.033.553l.951.886a.369.369,0,0,0,.143.082l2.559.723a.35.35,0,0,0,.417-.2l.362-.866a.357.357,0,0,0-.25-.487l-2.367-.522A.291.291,0,0,1,5371.911,3450.8Z" transform="translate(-5344.999 -3408.094)" fill="#ffd0a6"/>
        <path id="Path_2289" data-name="Path 2289" d="M5322.53,2910.795V2882.42l22.867-11.4v26.768Z" transform="translate(-5299.665 -2855.984)" fill="#dcaa6a"/>
        <path id="Path_2290" data-name="Path 2290" d="M4860.4,2910.795V2882.42l-22.866-11.4v26.768Z" transform="translate(-4837.53 -2855.984)" fill="#e9b77d"/>
        <path id="Path_2291" data-name="Path 2291" d="M5322.539,2874.258l-.009-28.618,22.867-13.22v28.587Z" transform="translate(-5299.665 -2819.204)" fill="#dba528"/>
        <path id="Path_2292" data-name="Path 2292" d="M4860.4,2874.258l-.009-28.618-22.866-13.22v28.587Z" transform="translate(-4837.53 -2819.204)" fill="#fac54b"/>
        <path id="Path_2293" data-name="Path 2293" d="M4837.53,2565.316l22.866,13.22,22.867-13.22L4860.4,2552.1Z" transform="translate(-4837.53 -2552.1)" fill="#ffd675"/>
        <path id="Path_2294" data-name="Path 2294" d="M5524.18,2944.375l-5.1,2.959v-8.35l5.1-2.963Z" transform="translate(-5486.948 -2917.92)" fill="#0986b3"/>
        <path id="Path_2295" data-name="Path 2295" d="M5062.455,2669.2,5039.62,2656l-5.11,2.954,22.846,13.222Z" transform="translate(-5025.223 -2651.102)" fill="#008fc8"/>
        <path id="Path_2296" data-name="Path 2296" d="M5386.78,3513.274V3511.8l7.677-4.452v1.492Z" transform="translate(-5360.885 -3462.314)" fill="#0986b3"/>
        <path id="Path_2297" data-name="Path 2297" d="M5386.78,3457.474V3456l7.677-4.452v1.492Z" transform="translate(-5360.885 -3409.145)" fill="#0986b3"/>
        <path id="Path_2298" data-name="Path 2298" d="M5695.8,3306.9v5.1l3.672-2.126v-5.106Z" transform="translate(-5655.336 -3269.285)" fill="#0986b3"/>
        <path id="Path_2299" data-name="Path 2299" d="M4870.03,3295.692v5.319l-3.67-2.122v-5.319Z" transform="translate(-4865.001 -3258.613)" fill="#0986b3"/>
        <path id="Path_2300" data-name="Path 2300" d="M4976.281,3357.312v5.319l-3.671-2.122v-5.318Z" transform="translate(-4966.241 -3317.328)" fill="#0986b3"/>
        <path id="Path_2301" data-name="Path 2301" d="M4873.905,2920.49v7.644l-7.545-4.359v-7.654Z" transform="translate(-4865.001 -2898.958)" fill="#fefefe"/>
        <path id="Path_2302" data-name="Path 2302" d="M4886.807,2947.608v-1.245l-5.937-3.423v1.224Z" transform="translate(-4878.827 -2924.513)" fill="#0986b3"/>
      </g>
      <path id="Path_2303" data-name="Path 2303" d="M6547.136,4110.5l-7.666-4.431s.4-.99,1.217-.99C6543.732,4105.08,6547.136,4110.5,6547.136,4110.5Z" transform="translate(-6399.141 -3998.011)" fill="#008fc8"/>
      <path id="Path_2304" data-name="Path 2304" d="M3601.48,4335.83h5.45v-67.12h-5.45Z" transform="translate(-3599.665 -4153.926)" fill="#b7eaff"/>
      <path id="Path_2305" data-name="Path 2305" d="M3604.205,5659.87c-1.5,0-2.725.686-2.725,1.532s1.22,1.536,2.725,1.536,2.725-.687,2.725-1.536S3605.711,5659.87,3604.205,5659.87Z" transform="translate(-3599.665 -5479.499)" fill="#80dbfc"/>
      <path id="Path_2306" data-name="Path 2306" d="M3666.194,4420.312a3.008,3.008,0,0,1-1.257,2.4c-.693.4-1.257-.025-1.257-.949a3.014,3.014,0,0,1,1.257-2.4c.694-.4,1.257.025,1.257.951Z" transform="translate(-3658.933 -4297.332)" fill="#b7eaff"/>
      <path id="Path_2307" data-name="Path 2307" d="M4836.624,6371.69c-1.5,0-2.724.688-2.724,1.536s1.22,1.534,2.724,1.534,2.725-.687,2.725-1.534S4838.13,6371.69,4836.624,6371.69Z" transform="translate(-4773.982 -6157.76)" fill="#80dbfc"/>
      <path id="Path_2308" data-name="Path 2308" d="M5063.16,4731.179l-26.59,15.353v-27.138l26.59-15.354Z" transform="translate(-4967.097 -4568.732)" fill="#80dbfc"/>
      <path id="Path_2309" data-name="Path 2309" d="M4938.885,4654.591c-1.814-1.051-4.066-.907-6.336.4l-32.6,18.822v2.754l33.792-19.509a5.217,5.217,0,0,1,2.509-.781,2.835,2.835,0,0,1,1.441.376c1.357.784,2.134,2.724,2.134,5.325v6.338c0,5.32-3.333,11.737-7.278,14.014l-32.6,18.822v2.754l33.792-19.509c4.672-2.7,8.472-9.911,8.472-16.081v-6.338c0-3.477-1.213-6.171-3.329-7.393Z" transform="translate(-4836.917 -4520.952)" fill="#b7eaff"/>
      <path id="Path_2310" data-name="Path 2310" d="M4407.773,5442.232l-13.736,4.893a5.1,5.1,0,0,1-7.227-4.6v-.04a3.88,3.88,0,0,1,.043-.469,2.357,2.357,0,0,1,1.544-1.763l10.637-3.985a9.293,9.293,0,0,1,8.56,1.068h0l.992.8a2.352,2.352,0,0,1-.813,4.089Z" transform="translate(-4347.97 -5265.878)" fill="#0d5069"/>
      <path id="Path_2311" data-name="Path 2311" d="M4419.219,4034.815l-2.016,37.67-6.665,31.011-11.558.208v-.067l.094-3.24a114.168,114.168,0,0,1,4.662-29.271l-3.3-38.163-.037-.443Z" transform="translate(-4359.567 -3928.872)" fill="#fac54b"/>
      <path id="Path_2312" data-name="Path 2312" d="M4404,4038.751l-2.029,37.67-6.662,31.011-7.95.14.1-3.239a114.2,114.2,0,0,1,4.661-29.271l-5.331-38.412,17.214,2.1Z" transform="translate(-4347.951 -3932.807)" fill="#ffd675"/>
      <path id="Path_2313" data-name="Path 2313" d="M4387.391,5421.272l3.648.624,9.042-.865-1.491,9.013-9.306.581a2.341,2.341,0,0,1-2.455-2.553l.562-6.8Z" transform="translate(-4347.981 -5251.919)" fill="#0d5069"/>
      <path id="Path_2314" data-name="Path 2314" d="M3702.855,5424.325l.156,2.755a2.722,2.722,0,0,0,2.7,2.585h3.629a3.113,3.113,0,0,1,2.6,1.407h0a3.193,3.193,0,0,1-1.865,4.861l-1.61.4a18.8,18.8,0,0,1-9.206-.066l-8.364-2.17a4.259,4.259,0,0,1-2.521-6.317l4.669-7.755Z" transform="translate(-3681.871 -5250.958)" fill="#c97453"/>
      <path id="Path_2315" data-name="Path 2315" d="M3702.855,5424.325l.156,2.755a2.722,2.722,0,0,0,2.7,2.585h3.629a3.113,3.113,0,0,1,2.6,1.407h0a3.193,3.193,0,0,1-1.865,4.861l-1.61.4a18.8,18.8,0,0,1-9.206-.066l-8.364-2.17a4.259,4.259,0,0,1-2.521-6.317l4.669-7.755Z" transform="translate(-3681.871 -5250.958)" fill="#0d5069"/>
      <path id="Path_2316" data-name="Path 2316" d="M4122.4,2820.822c7.081,1.233,12.318,8.32,12.447,15.62.216,12.379,1.632,31.329-.069,43.222a3.553,3.553,0,0,1-3.25,3.076l-5.959.417c-8.776.609-13.711-4.552-21.981-7.6h0a7.879,7.879,0,0,1-5.091-7.95l3.357-21.212-3.54-23.438a8.53,8.53,0,0,1,10.617-8.465l13.468,6.327Z" transform="translate(-4073.079 -2768.006)" fill="#00abea"/>
      <path id="Path_2317" data-name="Path 2317" d="M5520.573,3190.937c-.8-1.87,1-3.8,2.174-5.138,1.1-1.173,3.248-3.339,5.012-2.577a8.128,8.128,0,0,1,3.379,3.5c.519,1.238-.312,2.246-1.108,3.128-1.73,1.848-6.492,3.314-8.687,1.916a2.1,2.1,0,0,1-.77-.826Z" transform="translate(-5428.093 -3119.463)" fill="#ffd0a6" fill-rule="evenodd"/>
      <path id="Path_2318" data-name="Path 2318" d="M4645.268,3107.724l12.176,21.168-8.914-.875,26.441-13.825a2.352,2.352,0,0,1,2.982.694l.079.11a2.711,2.711,0,0,1-.454,3.707l-20.777,16.945h0a5.231,5.231,0,0,1-8.646-.439l-.267-.433L4635.077,3114a6.113,6.113,0,0,1,1.959-8.4h0a5.905,5.905,0,0,1,8.232,2.122Z" transform="translate(-4583.663 -3044.817)" fill="#0986b3"/>
      <path id="Path_2319" data-name="Path 2319" d="M4296.762,2283.337l1.667-4.128-2.409-7.045a10.781,10.781,0,0,1,.81-11.943h0a10.451,10.451,0,0,1,10.446-3.865l4.719,1a3.641,3.641,0,0,1,2.753,4.408l-.013.053a7.346,7.346,0,0,0-.131,2.613l.534,4.056h0a8.887,8.887,0,0,1,.228,4.379l-.338,1.7a5.2,5.2,0,0,1-6.534,3.413h0l-.863,10.534-10.87-5.178Z" transform="translate(-4260.099 -2236.23)" fill="#ffd0a6"/>
      <path id="Path_2320" data-name="Path 2320" d="M4258.317,2221.22l-3.28,2.829a12.436,12.436,0,0,0-.189,4.411c.343,2.34-4.107,5.413-4.107,5.413l-2.558,3.328a2.616,2.616,0,0,1-2.286,1.021l-3-.24a4.292,4.292,0,0,1-3.658-2.759,22.576,22.576,0,0,1-1.217-3.89,19.14,19.14,0,0,0-1.542-4.067,9.479,9.479,0,0,1-.675-6.195,10.13,10.13,0,0,1,1.347-3.4c1.567-2.175,1.893-4.467,6.019-5.451s10.7-1.29,12.384-.317,1.435,1.586,2.985,4.038-.226,5.274-.226,5.274Z" transform="translate(-4203.855 -2193.528)" fill="#0d5069"/>
      <path id="Path_2321" data-name="Path 2321" d="M4324.46,2788.411l1.655-2.041,10.238,4.229.274,3.454Z" transform="translate(-4288.56 -2741.473)" fill="#00abea"/>
      <path id="Path_2322" data-name="Path 2322" d="M4570.679,2579.243l-1.017-1.5a1.482,1.482,0,0,0-2.019-.28h0a.954.954,0,0,0-.386,1.08l1.346,4.019,2.982-1.293-.907-2.025Z" transform="translate(-4519.866 -2542.154)" fill="#ffd0a6"/>
      <path id="Path_2323" data-name="Path 2323" d="M3604.205,4236.14c-1.5,0-2.725.687-2.725,1.536s1.22,1.532,2.725,1.532,2.725-.686,2.725-1.532S3605.711,4236.14,3604.205,4236.14Z" transform="translate(-3599.665 -4122.892)" fill="#80dbfc"/>
      <path id="Path_2324" data-name="Path 2324" d="M3729.372,4456.108l-56.5-32.75,1.517-3.558,56.905,32.985Z" transform="translate(-3667.689 -4297.893)" fill="#b7eaff"/>
      <path id="Path_2325" data-name="Path 2325" d="M4833.89,5047.645h5.449v-67.124h-5.449Z" transform="translate(-4773.973 -4832.178)" fill="#b7eaff"/>
      <path id="Path_2326" data-name="Path 2326" d="M4836.285,4958.78c-1.5,0-2.725.687-2.725,1.535s1.22,1.532,2.725,1.532,2.725-.685,2.725-1.532S4837.791,4958.78,4836.285,4958.78Z" transform="translate(-4773.658 -4811.463)" fill="#80dbfc"/>
    </g>
  </g>
</svg>
