<svg xmlns="http://www.w3.org/2000/svg" width="216.474" height="216.613" viewBox="0 0 216.474 216.613">
  <g id="Layer_x0020_1" transform="translate(-2998.236 -1293.07)">
    <g id="_2340670956512" transform="translate(2998.236 1293.07)">
      <path id="Path_2456" data-name="Path 2456" d="M5943.527,3859.1l-39.426-23.14,66.323-38.927,39.424,23.139-66.321,38.928Z" transform="translate(-5793.374 -3701.617)" fill="#cee1f5"/>
      <g id="Group_311" data-name="Group 311" transform="translate(0 67.532)">
        <path id="Path_2457" data-name="Path 2457" d="M3211.35,3711.292l-18.12,10.635-10.771-6.322,18.119-10.636Z" transform="translate(-3175.44 -3680.597)" fill="#cee1f5"/>
        <path id="Path_2458" data-name="Path 2458" d="M3612.022,3226.651l-1.422-.834V3205.39l1.422.833Z" transform="translate(-3587.266 -3200.054)" fill="#0b3e53"/>
        <path id="Path_2459" data-name="Path 2459" d="M3599.061,3234.351l-1.421-.833v-20.427l1.421.834Z" transform="translate(-3574.8 -3207.461)" fill="#0986b3"/>
        <path id="Path_2460" data-name="Path 2460" d="M3014.075,3833.6l-.058.017a1.359,1.359,0,0,1-.847-.056.369.369,0,0,1-.112-.045l-11.773-6.91a1.479,1.479,0,0,1-.725-1.278v-.791a.562.562,0,0,1,.1-.316l13.294,7.919-.149.714-.149-.143v.324l.422.564Z" transform="translate(-3000.471 -3795.304)" fill="#0986b3"/>
        <path id="Path_2461" data-name="Path 2461" d="M3032.564,3566.14l0,0-16.094,9.592-.1.464-13.294-7.919a.553.553,0,0,1,.272-.215l16.341-9.738a1.3,1.3,0,0,1,1.331-.005l11.657,6.841a1.245,1.245,0,0,1,.117.089l.065.043a1.138,1.138,0,0,1,.5.751l-.8.1Z" transform="translate(-3002.896 -3539.356)" fill="#17c1ff"/>
        <path id="Path_2462" data-name="Path 2462" d="M3015.7,3558.13a1.3,1.3,0,0,0-.669.185l-16.416,9.78a.8.8,0,0,0-.374.8l.029.493a1.551,1.551,0,0,0,.757,1.245l11.791,6.928a.417.417,0,0,0,.111.044,1.365,1.365,0,0,0,.508.1,1.348,1.348,0,0,0,.34-.044l.058-.015-.209-.59-.034-.3-.03.139.03-.139h0l.174-.835,16.176-9.686h.119l.688-.133a1.361,1.361,0,0,0-.548-.827l-.065-.043a1.12,1.12,0,0,0-.116-.089l-11.656-6.841a1.3,1.3,0,0,0-.662-.18Zm0,.148a1.168,1.168,0,0,1,.589.16l11.657,6.842a1.071,1.071,0,0,1,.094.073l.008.007.009.006.065.042a1.235,1.235,0,0,1,.444.587l-.52.1h-.144l-.034.02L3011.7,3575.8l-.055.033-.014.064-.174.834-.029.14.039.008.022.2,0,.016.005.016.153.432a1.219,1.219,0,0,1-.2.017,1.2,1.2,0,0,1-.454-.089l-.011,0-.011,0a.234.234,0,0,1-.07-.027l-11.791-6.928a1.4,1.4,0,0,1-.684-1.125l-.03-.492v-.014a.643.643,0,0,1,.3-.654l16.415-9.78a1.159,1.159,0,0,1,.6-.165h0Z" transform="translate(-2998.236 -3539.353)" fill="#00abea"/>
        <path id="Path_2463" data-name="Path 2463" d="M3361.554,3762.2v.954a.565.565,0,0,1-.274.487l-16.6,9.892a.334.334,0,0,1-.5-.292v-.963a.7.7,0,0,1,.339-.6l16.462-9.812a.38.38,0,0,1,.573.334Z" transform="translate(-3330.998 -3735.276)" fill="#e8955d"/>
        <path id="Path_2464" data-name="Path 2464" d="M3361.554,3762.2v.954a.565.565,0,0,1-.274.487l-16.6,9.892a.334.334,0,0,1-.5-.292v-.963a.7.7,0,0,1,.339-.6l16.462-9.812a.38.38,0,0,1,.573.334Z" transform="translate(-3330.998 -3735.276)" fill="#0dafeb"/>
        <path id="Path_2465" data-name="Path 2465" d="M3515.051,3084.162l-8.371-4.913v-3.918l8.371,4.914Z" transform="translate(-3487.306 -3074.95)" fill="#00abea"/>
        <path id="Path_2466" data-name="Path 2466" d="M3535.236,3102.315v3.14l-6.706-3.937v-3.138l.353.208Z" transform="translate(-3508.323 -3097.121)" fill="#00abea"/>
        <path id="Path_2467" data-name="Path 2467" d="M3544.163,3107.558v2.932l-6.353-3.729v-2.931Z" transform="translate(-3517.25 -3102.364)" fill="#00abea"/>
        <path id="Path_2468" data-name="Path 2468" d="M3537.81,3103.83v2.93l6.353,3.729v-2.932l-6.353-3.728Zm.175.308,6,3.522v2.521l-6-3.524Z" transform="translate(-3517.25 -3102.364)" fill="#00abea"/>
        <path id="Path_2469" data-name="Path 2469" d="M3544.839,3116.341l-1.689-.984v-2.438l1.689.983Z" transform="translate(-3522.386 -3111.107)" fill="#fffdf3"/>
        <path id="Path_2470" data-name="Path 2470" d="M3727.752,3194.28v3.917l-1.4.381v-3.917Z" transform="translate(-3698.605 -3189.368)" fill="#0986b3"/>
        <path id="Path_2471" data-name="Path 2471" d="M3516.462,3070.263l-1.4.381-8.37-4.913,1.4-.381Z" transform="translate(-3487.315 -3065.35)" fill="#c2efff"/>
        <path id="Path_2472" data-name="Path 2472" d="M3596.563,3153.123a.075.075,0,0,1-.041-.011l-.991-.583a.085.085,0,0,1-.03-.114.083.083,0,0,1,.112-.031l.991.583a.084.084,0,0,1,.03.114.082.082,0,0,1-.071.042Z" transform="translate(-3572.732 -3149.058)" fill="#fffdf3"/>
        <path id="Path_2473" data-name="Path 2473" d="M3597.186,3165.255a.084.084,0,0,1-.041-.011l-1.613-.949a.084.084,0,0,1-.03-.114.082.082,0,0,1,.112-.031l1.613.949a.083.083,0,0,1,.03.113.082.082,0,0,1-.071.042Z" transform="translate(-3572.732 -3160.375)" fill="#fffdf3"/>
        <path id="Path_2474" data-name="Path 2474" d="M3596.213,3178.333a.082.082,0,0,1-.041-.011l-.641-.376a.085.085,0,0,1-.03-.114.083.083,0,0,1,.112-.031l.64.376a.084.084,0,0,1,.03.114.083.083,0,0,1-.071.042Z" transform="translate(-3572.732 -3173.506)" fill="#fffdf3"/>
        <path id="Path_2475" data-name="Path 2475" d="M3193.733,3409.113a.928.928,0,0,0-.266-.65.224.224,0,0,0-.079-.078l-7.861-4.614a1.282,1.282,0,0,0-1.3,0l-7.761,4.555a.3.3,0,0,0-.068.054h0l-.081.09a.987.987,0,0,0-.3.708v.229l.605-.293,7.358,4.349,1.283,1.856.856-2.264,7.038-4.131-.032.077.6.112Z" transform="translate(-3169.245 -3390.706)" fill="#ffc466"/>
        <path id="Path_2476" data-name="Path 2476" d="M3215.476,3416.89l7.645,4.487-7.646,4.488-7.645-4.487Z" transform="translate(-3199.844 -3403.495)" fill="#e8955d"/>
        <path id="Path_2477" data-name="Path 2477" d="M3232.749,3517.57l-.91.534-7.479-4.389.91-.534Z" transform="translate(-3215.744 -3496.116)" fill="#ffc466"/>
        <path id="Path_2478" data-name="Path 2478" d="M3269.629,3495.919l-.91.534-7.479-4.39.91-.534Z" transform="translate(-3251.218 -3475.291)" fill="#ffc466"/>
        <path id="Path_2479" data-name="Path 2479" d="M3306.518,3474.27l-.91.534-7.479-4.39.909-.534Z" transform="translate(-3286.703 -3454.465)" fill="#ffc466"/>
        <path id="Path_2480" data-name="Path 2480" d="M3343.388,3452.63l-.91.533-7.479-4.39.91-.533Z" transform="translate(-3322.167 -3433.65)" fill="#ffc466"/>
        <path id="Path_2481" data-name="Path 2481" d="M3380.269,3430.98l-.91.534-7.479-4.39.91-.534Z" transform="translate(-3357.642 -3412.825)" fill="#ffc466"/>
        <path id="Path_2482" data-name="Path 2482" d="M3225.061,3510.19l1.588.931-2.019,1.185h-10.961l-2.019-1.185,1.588-.932Z" transform="translate(-3203.518 -3493.239)" fill="#ffc466"/>
        <path id="Path_2483" data-name="Path 2483" d="M3210.712,3510.737h10.929l1.917-1.125-1.486-.872h-11.791l-1.486.873Zm10.962.119h-10.992l-2.121-1.244,1.69-.992H3222.1l1.69.991-2.121,1.245Z" transform="translate(-3200.546 -3491.73)" fill="#e8955d"/>
        <path id="Path_2484" data-name="Path 2484" d="M3176.534,3407.666l.026.015,7.376,4.329.289.173a1.114,1.114,0,0,1,.537.954v8.3l8.758-5.141v-8.569a.176.176,0,0,0-.026-.095l-.005-.013a.88.88,0,0,0-.221-.387l-.007-.008a.179.179,0,0,0-.062-.061l-7.862-4.614a1.235,1.235,0,0,0-1.25,0L3176.5,3407a1.657,1.657,0,0,0-.316.241.876.876,0,0,0-.24.664l.009.142.576-.384Zm8.13,13.948v-8.476a1.013,1.013,0,0,0-.489-.868l-.288-.173-7.351-4.314-.666.444-.021-.316a.971.971,0,0,1,.271-.74,1.791,1.791,0,0,1,.334-.255l7.583-4.451a1.332,1.332,0,0,1,1.348,0l7.861,4.614a.277.277,0,0,1,.093.089.978.978,0,0,1,.24.422.285.285,0,0,1,.036.14v8.627l-.024.015-8.931,5.241Z" transform="translate(-3169.082 -3389.444)" fill="#e8955d"/>
        <path id="Path_2485" data-name="Path 2485" d="M3184.886,3554.427l-8.521-5a.683.683,0,0,1-.335-.589v-8.087a.3.3,0,0,1,.446-.262l7.87,4.62a1.1,1.1,0,0,1,.54.951v8.369Z" transform="translate(-3169.255 -3522.344)" fill="#e8955d"/>
        <path id="Path_2486" data-name="Path 2486" d="M3184.886,3554.427l-8.521-5a.683.683,0,0,1-.335-.589v-8.087a.3.3,0,0,1,.446-.262l7.87,4.62a1.1,1.1,0,0,1,.54.951v8.369Z" transform="translate(-3169.255 -3522.344)" fill="#e8955d"/>
        <path id="Path_2487" data-name="Path 2487" d="M3415.826,3537.925a.172.172,0,0,0-.09.025l-7.971,4.678a1.054,1.054,0,0,0-.515.908v8.283l8.759-5.141v-8.569a.184.184,0,0,0-.091-.16A.18.18,0,0,0,3415.826,3537.925Zm-8.675,14.067v-8.456a1.155,1.155,0,0,1,.564-.994l7.971-4.678a.273.273,0,0,1,.279,0,.282.282,0,0,1,.139.246v8.627l-.024.014-8.93,5.241Z" transform="translate(-3391.569 -3519.821)" fill="#e8955d"/>
        <path id="Path_2488" data-name="Path 2488" d="M3199.566,3564.617v7.772l-7.646-4.487v-7.772Z" transform="translate(-3184.539 -3541.277)" fill="#d87a59"/>
        <path id="Path_2489" data-name="Path 2489" d="M3207.46,3578.8l-.91-.534v-7.6l.91.534Z" transform="translate(-3198.612 -3551.406)" fill="#e8955d"/>
        <path id="Path_2490" data-name="Path 2490" d="M3244.33,3600.437l-.91-.534v-7.6l.91.534Z" transform="translate(-3234.077 -3572.221)" fill="#e8955d"/>
        <path id="Path_2491" data-name="Path 2491" d="M3281.21,3622.087l-.911-.534v-7.6l.911.533Z" transform="translate(-3269.552 -3593.046)" fill="#e8955d"/>
        <path id="Path_2492" data-name="Path 2492" d="M3318.1,3643.728l-.91-.535v-7.6l.91.534Z" transform="translate(-3305.036 -3613.861)" fill="#e8955d"/>
        <path id="Path_2493" data-name="Path 2493" d="M3354.98,3665.377l-.91-.534v-7.6l.91.534Z" transform="translate(-3340.511 -3634.687)" fill="#e8955d"/>
        <path id="Path_2494" data-name="Path 2494" d="M3201.34,3573.611v1.614l-2.019-1.185-5.481-8.788V3563.2l1.589.932Z" transform="translate(-3186.387 -3544.229)" fill="#e8955d"/>
        <path id="Path_2495" data-name="Path 2495" d="M3197.872,3571.379l1.918,1.126v-1.493l-5.894-9.452-1.488-.873v1.931Zm2.036,1.333-2.12-1.245-.007-.012-5.49-8.8v-2.172l1.689.991.007.013,5.921,9.493v1.735Z" transform="translate(-3184.896 -3541.613)" fill="#d87a59"/>
        <path id="Path_2496" data-name="Path 2496" d="M3408.45,3553.156l8.856-5.2v-8.6a.23.23,0,0,0-.345-.2l-7.97,4.678a1.1,1.1,0,0,0-.54.951v8.369Z" transform="translate(-3392.819 -3521.073)" fill="#e8955d"/>
        <path id="Path_2497" data-name="Path 2497" d="M3424.35,3564.617v7.772L3432,3567.9v-7.772Z" transform="translate(-3408.113 -3541.277)" fill="#99463f"/>
        <path id="Path_2498" data-name="Path 2498" d="M3586.49,3578.8l.91-.534v-7.6l-.91.534Z" transform="translate(-3564.075 -3551.406)" fill="#c97453"/>
        <path id="Path_2499" data-name="Path 2499" d="M3549.61,3600.437l.91-.534v-7.6l-.91.534Z" transform="translate(-3528.601 -3572.221)" fill="#c97453"/>
        <path id="Path_2500" data-name="Path 2500" d="M3512.72,3622.087l.91-.534v-7.6l-.91.533Z" transform="translate(-3493.116 -3593.046)" fill="#c97453"/>
        <path id="Path_2501" data-name="Path 2501" d="M3475.85,3643.728l.909-.535v-7.6l-.909.534Z" transform="translate(-3457.65 -3613.861)" fill="#c97453"/>
        <path id="Path_2502" data-name="Path 2502" d="M3438.97,3665.377l.91-.534v-7.6l-.91.534Z" transform="translate(-3422.176 -3634.687)" fill="#c97453"/>
        <path id="Path_2503" data-name="Path 2503" d="M3426.26,3573.611v1.614l2.019-1.185,5.48-8.788V3563.2l-1.588.932Z" transform="translate(-3409.95 -3544.229)" fill="#c97453"/>
        <path id="Path_2504" data-name="Path 2504" d="M3424.828,3571.012v1.493l1.918-1.126,5.464-8.761v-1.932l-1.488.874Zm-.118,1.7v-1.735l.008-.014,5.919-9.491,1.689-.991v2.172l-.009.015-5.488,8.8-2.119,1.244Z" transform="translate(-3408.459 -3541.613)" fill="#99463f"/>
        <path id="Path_2505" data-name="Path 2505" d="M3408.45,3776.233l2.535,1.552,8.869-5.286-2.485-1.459Z" transform="translate(-3392.819 -3744.15)" fill="#00a2e8"/>
      </g>
      <g id="Group_312" data-name="Group 312" transform="translate(21.38 100.318)">
        <path id="Path_2506" data-name="Path 2506" d="M3963.792,5645.209s.847.921,1.979,2.024c1.047,1.021,1.372,1.315,2.343,2.264.568.553.1,1.062-.981,1.021a19.41,19.41,0,0,1-4.309-.934,21.782,21.782,0,0,1-3.226-1.681,2.133,2.133,0,0,1-.958-1.21v-1.7l5.151.219Z" transform="translate(-3943.425 -5579.479)" fill="#0d5069"/>
        <path id="Path_2507" data-name="Path 2507" d="M3564.219,5586.07a14.218,14.218,0,0,0,1.673,1.895,18.476,18.476,0,0,1,2.283,2.644c.211.277.335,1.072-.747,1.031a14.318,14.318,0,0,1-3.6-.871c-1.376-.49-2.538-1.877-3.339-2.383a3.375,3.375,0,0,1-1.155-1.627l.553-1.678,4.336.99Z" transform="translate(-3559.329 -5521.852)" fill="#0d5069"/>
        <path id="Path_2508" data-name="Path 2508" d="M3577.739,4626.159c-.4-6.249,3.044-9.534,3.044-9.534-.274-2.105,9.494.842,9.494.842s2.091,11.32,2.975,17.282c1,6.776.4,20.573.4,20.573s-.126,1.473-2.65,1.464a5.017,5.017,0,0,1-3.365-1.7l-.2-15.7-2.243-11.136s-2.16,9.051-2.844,12.3c-.729,3.455-3.521,13.679-3.521,13.679s-1.807,2.077-4.05.954-1.8-2.374-1.8-2.374a45.316,45.316,0,0,1,3.324-13.741c.24-4.927,1.626-10.028,1.443-12.9Z" transform="translate(-3572.419 -4589.57)" fill="#0986b3"/>
        <path id="Path_2509" data-name="Path 2509" d="M3955.766,4227.286s1.4-.069,2.839,2.64,2.821,5.594,2.821,5.594a9.1,9.1,0,0,0-4.384,2.4C3953.918,4235.1,3953.408,4228.605,3955.766,4227.286Z" transform="translate(-3939.244 -4215.797)" fill="#b7eaff"/>
        <path id="Path_2510" data-name="Path 2510" d="M3689.357,4203.277a22.181,22.181,0,0,1,1.507,4.269c.721,2.764.462,15.617.462,15.617a12.753,12.753,0,0,1-7.964,1.693,6.761,6.761,0,0,1-4.476-2.081s-1.773-12.586-1.532-14.389,4.012-6.038,4.012-6.038,4.987-.254,7.99.928Z" transform="translate(-3672.835 -4191.788)" fill="#b7eaff"/>
        <path id="Path_2511" data-name="Path 2511" d="M3716.65,4265.435s-2.171-3.269-3.89-4.186a9.875,9.875,0,0,0-2.89-1.087s.626-1.293,1.045-1.443a8.9,8.9,0,0,1,2.99,1.111,11.664,11.664,0,0,1,3.917,3.941c1.361,2.4-.175,3.049-1.172,1.663Z" transform="translate(-3704.134 -4246.033)" fill="#0986b3"/>
        <path id="Path_2512" data-name="Path 2512" d="M3942.046,4211.3a26.492,26.492,0,0,1,1.587,5c.17,1.622-.154,2.121-.806,2.179s-.688-1.1-.882-2.392c-.183-1.22-1.375-5.228-1.375-5.228l1.476.443Z" transform="translate(-3926.043 -4199.997)" fill="#0986b3"/>
        <path id="Path_2513" data-name="Path 2513" d="M3703.921,4356.455a6.18,6.18,0,0,0,3.251.822c1.376-.15,3.358-1.49,3.252-5.843a41.48,41.48,0,0,0-.509-6.359l5.26-2.306s1.43,3.307,1.712,9.794.4,8.722.4,8.722a71.493,71.493,0,0,1-8.937,0,11.841,11.841,0,0,1-4.792-1.284l.361-3.548Z" transform="translate(-3698.064 -4326.88)" fill="#0986b3"/>
        <path id="Path_2514" data-name="Path 2514" d="M3783.586,4109.336l.579,3.375s-1.719,1.929-3.4.488a6.8,6.8,0,0,1-1.923-2.106l.828-4.6Z" transform="translate(-3770.476 -4099.604)" fill="#f8ae9b"/>
        <path id="Path_2515" data-name="Path 2515" d="M3799.978,3954.44a3.9,3.9,0,0,1,6.082,2.07c1.3,3.687-2.034,8.293-3.812,7.51a7.471,7.471,0,0,1-3.678-3.936,5.826,5.826,0,0,1,1.41-5.645Z" transform="translate(-3789.242 -3952.62)" fill="#fac5b5"/>
        <path id="Path_2516" data-name="Path 2516" d="M3785.059,3930.828a3.29,3.29,0,0,1-3.239.981,7.17,7.17,0,0,1-2.5-.921l-.3,1.954a1.706,1.706,0,0,1-.512-.189c-.03-.773-.306-1.013-.731-.783-.48.261-.5,1.362-.5,1.362a4,4,0,0,1-.962-3.605c.306-1.373,2.159-4.086,4.745-3.845a4.767,4.767,0,0,1,4.41,3.429,1.814,1.814,0,0,1-.408,1.619Z" transform="translate(-3767.948 -3925.765)" fill="#0d5069"/>
        <path id="Path_2517" data-name="Path 2517" d="M3993.19,4361.854c0,.267.15.483.333.483s.333-.216.333-.483-.148-.483-.333-.483S3993.19,4361.586,3993.19,4361.854Z" transform="translate(-3976.657 -4344.771)" fill="#fefefe"/>
        <path id="Path_2518" data-name="Path 2518" d="M3893.794,4406.512c.156.217.161.479.012.586s-.4.019-.552-.2-.161-.479-.012-.587S3893.638,4406.3,3893.794,4406.512Z" transform="translate(-3880.413 -4387.959)" fill="#fefefe"/>
        <path id="Path_2519" data-name="Path 2519" d="M3907.825,4429.25c.215,1.088.106,4.513-1.834,5.028-1.759.467-2.215-1.606-2.621-3.21A17.6,17.6,0,0,0,3907.825,4429.25Z" transform="translate(-3890.261 -4410.064)" fill="#0986b3"/>
        <path id="Path_2520" data-name="Path 2520" d="M4334.223,6133.536a15.133,15.133,0,0,1-.588,1.776.96.96,0,0,1-1.6.344c-.507-.524-.539-1.15-.617-2.344-.1-1.49-.046-1.4-.046-1.4l2.851,1.622Z" transform="translate(-4301.941 -6047.847)" fill="#b7eaff"/>
        <path id="Path_2521" data-name="Path 2521" d="M4314.571,6190.529a2.053,2.053,0,0,0,1.354,2.121,1.3,1.3,0,0,0,1.816-1.022,2.05,2.05,0,0,0-1.354-2.12A1.3,1.3,0,0,0,4314.571,6190.529Z" transform="translate(-4285.776 -6103.157)" fill="#0d5069"/>
        <path id="Path_2522" data-name="Path 2522" d="M4315.711,6196.239l.756-.436-1.82-3-.817.424Z" transform="translate(-4285.081 -6106.416)" fill="#464747"/>
        <path id="Path_2523" data-name="Path 2523" d="M4296.356,6201a2.05,2.05,0,0,0,1.354,2.12,1.637,1.637,0,0,0,.521.094,1.26,1.26,0,0,0,1.3-1.116,2.05,2.05,0,0,0-1.354-2.12A1.3,1.3,0,0,0,4296.356,6201Z" transform="translate(-4268.256 -6113.229)" fill="#0d5069"/>
        <path id="Path_2524" data-name="Path 2524" d="M4313.191,6136.143a23.206,23.206,0,0,1-.678,2.522.75.75,0,0,1-1.338.3,5.125,5.125,0,0,1-.6-2.77,10.588,10.588,0,0,1-.011-1.929l2.631,1.872Z" transform="translate(-4281.904 -6050.116)" fill="#b7eaff"/>
        <path id="Path_2525" data-name="Path 2525" d="M4331.375,6239.716a.394.394,0,0,0,.259.407.251.251,0,0,0,.349-.2.393.393,0,0,0-.26-.406.249.249,0,0,0-.348.2Z" transform="translate(-4301.954 -6151.338)" fill="#fefefe"/>
        <path id="Path_2526" data-name="Path 2526" d="M4873.138,5823.9a14.9,14.9,0,0,1-.587,1.777.958.958,0,0,1-1.6.344c-.508-.523-.54-1.15-.617-2.344-.1-1.489-.047-1.4-.047-1.4l2.85,1.622Z" transform="translate(-4820.321 -5750.006)" fill="#b2b2b2"/>
        <path id="Path_2527" data-name="Path 2527" d="M4853.484,5880.9a2.053,2.053,0,0,0,1.354,2.121,1.3,1.3,0,0,0,1.816-1.022,2.052,2.052,0,0,0-1.354-2.12A1.3,1.3,0,0,0,4853.484,5880.9Z" transform="translate(-4804.154 -5805.327)" fill="#0d5069"/>
        <path id="Path_2528" data-name="Path 2528" d="M4854.612,5886.6l.757-.435-1.821-3-.818.424Z" transform="translate(-4803.445 -5808.574)" fill="#0d5069"/>
        <path id="Path_2529" data-name="Path 2529" d="M4835.271,5891.369a2.049,2.049,0,0,0,1.354,2.12,1.3,1.3,0,0,0,1.816-1.022,2.051,2.051,0,0,0-1.353-2.12A1.3,1.3,0,0,0,4835.271,5891.369Z" transform="translate(-4786.636 -5815.396)" fill="#0986b3"/>
        <path id="Path_2530" data-name="Path 2530" d="M4852.112,5826.513a23.141,23.141,0,0,1-.679,2.521.749.749,0,0,1-1.337.3,5.123,5.123,0,0,1-.605-2.769,10.628,10.628,0,0,1-.011-1.931Z" transform="translate(-4800.29 -5752.284)" fill="#b2b2b2"/>
        <path id="Path_2531" data-name="Path 2531" d="M4870.281,5930.088a.392.392,0,0,0,.259.406.248.248,0,0,0,.348-.2.391.391,0,0,0-.259-.406A.249.249,0,0,0,4870.281,5930.088Z" transform="translate(-4820.324 -5853.508)" fill="#fefefe"/>
        <path id="Path_2532" data-name="Path 2532" d="M4026.578,5955.856a14.988,14.988,0,0,1-.587,1.776.958.958,0,0,1-1.6.344c-.508-.523-.539-1.15-.617-2.344-.1-1.489-.047-1.4-.047-1.4Z" transform="translate(-4006.02 -5876.938)" fill="#b7eaff"/>
        <path id="Path_2533" data-name="Path 2533" d="M4006.914,6012.848a2.05,2.05,0,0,0,1.354,2.12,1.3,1.3,0,0,0,1.816-1.022,2.051,2.051,0,0,0-1.354-2.12,1.3,1.3,0,0,0-1.816,1.022Z" transform="translate(-3989.843 -5932.247)" fill="#0d5069"/>
        <path id="Path_2534" data-name="Path 2534" d="M4008.061,6018.54l.757-.436-1.821-3-.816.425Z" transform="translate(-3989.153 -5935.487)" fill="#0d5069"/>
        <path id="Path_2535" data-name="Path 2535" d="M3988.7,6023.31a2.052,2.052,0,0,0,1.354,2.12,1.3,1.3,0,0,0,1.816-1.023,2.049,2.049,0,0,0-1.354-2.12,1.3,1.3,0,0,0-1.816,1.023Z" transform="translate(-3972.324 -5942.31)" fill="#0d5069"/>
        <path id="Path_2536" data-name="Path 2536" d="M4005.534,5958.483a23.013,23.013,0,0,1-.678,2.521.75.75,0,0,1-1.338.3,5.116,5.116,0,0,1-.605-2.769,10.542,10.542,0,0,1-.011-1.929l2.632,1.873Z" transform="translate(-3985.969 -5879.227)" fill="#b7eaff"/>
        <path id="Path_2537" data-name="Path 2537" d="M4023.711,6062.047a.394.394,0,0,0,.26.406.249.249,0,0,0,.348-.2.393.393,0,0,0-.259-.407A.251.251,0,0,0,4023.711,6062.047Z" transform="translate(-4006.012 -5980.44)" fill="#fefefe"/>
        <path id="Path_2538" data-name="Path 2538" d="M4333.511,4724.444l-3.641-10.7,1.189-.568,3.787,10.554v26.6l-1.335-.636Z" transform="translate(-4300.509 -4683.176)" fill="#b2b2b2"/>
        <path id="Path_2539" data-name="Path 2539" d="M3962.976,4915.919l3.976,11.079v26.6l-1.335-.636v-25.256l-3.866-11.356Z" transform="translate(-3946.416 -4878.19)" fill="#b2b2b2"/>
        <path id="Path_2540" data-name="Path 2540" d="M3961.75,5584.163l18.214,10.527,21.791-12.593-18.216-10.528Z" transform="translate(-3946.416 -5508.857)" fill="#17c1ff"/>
        <path id="Path_2541" data-name="Path 2541" d="M3979.964,5912.6v1.576l-18.214-10.522v-1.581Z" transform="translate(-3946.416 -5826.763)" fill="#0986b3"/>
        <path id="Path_2542" data-name="Path 2542" d="M4439.75,5862.039v-1.576l21.791-12.593v1.577Z" transform="translate(-4406.202 -5774.629)" fill="#0d5069"/>
        <path id="Path_2543" data-name="Path 2543" d="M4084.44,5281.474l13.539-7.8v1.512l-13.539,7.806Z" transform="translate(-4064.43 -5222.308)" fill="#b2b2b2"/>
        <path id="Path_2544" data-name="Path 2544" d="M4084.44,5171.735l13.539-7.8v1.512l-13.539,7.806Z" transform="translate(-4064.43 -5116.751)" fill="#b2b2b2"/>
        <path id="Path_2545" data-name="Path 2545" d="M3896.291,4672.337l15.182-8.764s0,0,0,0l3.136-1.81a.673.673,0,0,1,.673,1.165l-15.182,8.765a.008.008,0,0,1-.005,0l-3.136,1.81a.673.673,0,1,1-.672-1.165Z" transform="translate(-3883.128 -4633.629)" fill="#818282"/>
        <path id="Path_2546" data-name="Path 2546" d="M3753.2,4530.892s2.042,4.292,2.886,5.488a32.214,32.214,0,0,0,4.918,4.727,4.759,4.759,0,0,0,1.782.451c.608.006,1.241-.2,1.673-.128.11.58-1.415,1.009-1.415,1.009a2.5,2.5,0,0,1,.831,1.375c.051.478-.936,1.279-2.053,1.88-.782.42-2.07-.478-2.452-1.106-.443-.73-.226-1.114-.909-1.747-1.353-1.256-4.152-3.049-4.836-3.934-.964-1.248-4.209-5.731-4.209-5.731s1.122-2.847,3.783-2.283Z" transform="translate(-3742.176 -4507.763)" fill="#fac5b5"/>
        <path id="Path_2547" data-name="Path 2547" d="M4055.593,4447.931s.6.905,1.176,1.932,3.351,6.6,3.81,7.233.866.7,1.674,1.777a1.516,1.516,0,0,1-.143,2.282,2.746,2.746,0,0,1-1.518.881,1.443,1.443,0,0,1-1.277-.7s.5-.229.045-.8a1,1,0,0,0-.836-.3,13.14,13.14,0,0,0,.121-1.422c0-1.151-1.273-2.522-1.9-3.5s-2.06-2.9-2.664-3.925c-.383-.647-1.176-2.063-1.176-2.063A5.318,5.318,0,0,1,4055.593,4447.931Z" transform="translate(-4034.093 -4428.034)" fill="#fac5b5"/>
        <path id="Path_2548" data-name="Path 2548" d="M3662.911,4316.727c1.058-.852,3.322,2.035,4.524,3.837a24.72,24.72,0,0,1,2.165,4.5s-1.447,1.051-2.744,1.868a21.036,21.036,0,0,1-2.234,1.2S3659.281,4319.651,3662.911,4316.727Z" transform="translate(-3657.748 -4301.682)" fill="#b7eaff"/>
        <path id="Path_2549" data-name="Path 2549" d="M4138.494,5643.277l0-9.56-13.869-8.018v9.541Z" transform="translate(-4103.089 -5560.924)" fill="#dba528"/>
        <path id="Path_2550" data-name="Path 2550" d="M4488.46,5643.277l0-9.56,13.87-8.018v9.541Z" transform="translate(-4453.056 -5560.924)" fill="#fac54b"/>
        <path id="Path_2551" data-name="Path 2551" d="M4152.367,5423.326l-13.869,8.017-13.869-8.017,13.864-8.016Z" transform="translate(-4103.089 -5358.552)" fill="#ffd675"/>
        <path id="Path_2552" data-name="Path 2552" d="M4259.93,5708.477l3.093,1.8v-5.065l-3.093-1.8Z" transform="translate(-4233.234 -5635.673)" fill="#0986b3"/>
        <path id="Path_2553" data-name="Path 2553" d="M4259.93,5501.287l13.85-8.007,3.1,1.791-13.856,8.019Z" transform="translate(-4233.234 -5433.55)" fill="#00a2e8"/>
        <path id="Path_2554" data-name="Path 2554" d="M4322.836,5931.132v-.893l-4.656-2.7v.9Z" transform="translate(-4289.265 -5851.263)" fill="#0986b3"/>
        <path id="Path_2555" data-name="Path 2555" d="M4322.836,5889.242v-.892l-4.656-2.7v.906Z" transform="translate(-4289.265 -5810.969)" fill="#0986b3"/>
        <path id="Path_2556" data-name="Path 2556" d="M4152.276,5776.791v3.1l-2.227-1.29v-3.1Z" transform="translate(-4127.541 -5705.017)" fill="#0986b3"/>
        <path id="Path_2557" data-name="Path 2557" d="M4779.221,5782.036v3.227l2.226-1.287v-3.225Z" transform="translate(-4732.737 -5710.067)" fill="#17c1ff"/>
        <path id="Path_2558" data-name="Path 2558" d="M4699.49,5828.267v3.226l2.226-1.287v-3.226Z" transform="translate(-4656.045 -5754.535)" fill="#17c1ff"/>
        <path id="Path_2559" data-name="Path 2559" d="M4504.4,5779.61v4.636l4.577-2.644v-4.642Z" transform="translate(-4468.388 -5706.421)" fill="#fefefe"/>
        <path id="Path_2560" data-name="Path 2560" d="M4519.109,5799.921v-.755l3.6-2.076v.742Z" transform="translate(-4482.537 -5725.784)" fill="#0986b3"/>
        <path id="Path_2561" data-name="Path 2561" d="M4195.057,5266.441l0-14.242-11.38-6.58v14.226Z" transform="translate(-4159.89 -5195.328)" fill="#dba528"/>
        <path id="Path_2562" data-name="Path 2562" d="M4482.24,5266.441l0-14.242,11.38-6.58v14.226Z" transform="translate(-4447.073 -5195.328)" fill="#fac54b"/>
        <path id="Path_2563" data-name="Path 2563" d="M4206.44,5079.568l-11.38,6.58-11.38-6.58,11.376-6.578Z" transform="translate(-4159.89 -5029.276)" fill="#ffd675"/>
        <path id="Path_2564" data-name="Path 2564" d="M4294.71,5313.558l2.538,1.472v-4.155l-2.538-1.474Z" transform="translate(-4266.689 -5256.678)" fill="#0986b3"/>
        <path id="Path_2565" data-name="Path 2565" d="M4294.71,5143.531l11.364-6.571,2.543,1.47-11.369,6.581Z" transform="translate(-4266.689 -5090.808)" fill="#00a2e8"/>
        <path id="Path_2566" data-name="Path 2566" d="M4346.32,5664.148v-.733l-3.82-2.215v.743Z" transform="translate(-4312.657 -5595.072)" fill="#0986b3"/>
        <path id="Path_2567" data-name="Path 2567" d="M4346.32,5629.788v-.732l-3.82-2.216v.743Z" transform="translate(-4312.657 -5562.021)" fill="#0986b3"/>
        <path id="Path_2568" data-name="Path 2568" d="M4206.357,5537.51v2.54l-1.827-1.058v-2.542Z" transform="translate(-4179.945 -5475.075)" fill="#0986b3"/>
        <path id="Path_2569" data-name="Path 2569" d="M4715.291,5530.616v2.647l1.827-1.056v-2.647Z" transform="translate(-4671.243 -5468.448)" fill="#17c1ff"/>
        <path id="Path_2570" data-name="Path 2570" d="M4649.86,5568.575v2.648l1.827-1.056v-2.647Z" transform="translate(-4608.306 -5504.962)" fill="#17c1ff"/>
        <path id="Path_2571" data-name="Path 2571" d="M4664.69,5299.305v3.8l3.755-2.17v-3.809Z" transform="translate(-4622.571 -5244.875)" fill="#fefefe"/>
        <path id="Path_2572" data-name="Path 2572" d="M4676.76,5315.983v-.62l2.954-1.7v.609Z" transform="translate(-4634.181 -5260.775)" fill="#17c1ff"/>
        <path id="Path_2573" data-name="Path 2573" d="M4254.98,5124.1l0-5.311-8.512-4.921v5.313Z" transform="translate(-4220.287 -5068.598)" fill="#dba528"/>
        <path id="Path_2574" data-name="Path 2574" d="M4469.79,5103.277l0-5.311,9.94-5.746v5.311Z" transform="translate(-4435.097 -5047.773)" fill="#fac54b"/>
        <path id="Path_2575" data-name="Path 2575" d="M4264.922,4968.049l-9.939,5.745-8.512-4.92,9.934-5.744Z" transform="translate(-4220.287 -4923.601)" fill="#ffd675"/>
        <path id="Path_2576" data-name="Path 2576" d="M4381,5301.225v-.547l-2.857-1.658v.555Z" transform="translate(-4346.939 -5246.693)" fill="#0986b3"/>
        <path id="Path_2577" data-name="Path 2577" d="M4381,5275.516v-.548l-2.857-1.657v.555Z" transform="translate(-4346.939 -5221.963)" fill="#0986b3"/>
        <path id="Path_2578" data-name="Path 2578" d="M4674.81,5123.954v2.471l1.7-.985v-2.469Z" transform="translate(-4632.305 -5077.352)" fill="#17c1ff"/>
        <path id="Path_2579" data-name="Path 2579" d="M4487.359,5193.949v2.948l4.35-2.514v-2.954Z" transform="translate(-4451.997 -5143.203)" fill="#fefefe"/>
        <path id="Path_2580" data-name="Path 2580" d="M4501.34,5213.251v-.717l3.422-1.974v.707Z" transform="translate(-4465.445 -5161.604)" fill="#17c1ff"/>
        <path id="Path_2581" data-name="Path 2581" d="M4302.92,5149.039l2.94,1.706v-2.8l-2.94-1.708Z" transform="translate(-4274.585 -5099.734)" fill="#0986b3"/>
        <path id="Path_2582" data-name="Path 2582" d="M4302.92,5001.359l9.926-5.739,2.948,1.7-9.934,5.751Z" transform="translate(-4274.585 -4954.854)" fill="#008fc8"/>
      </g>
      <g id="Group_313" data-name="Group 313" transform="translate(43.749 0)">
        <path id="Path_2583" data-name="Path 2583" d="M5904.1,2463.833l67.016-38.718V2370.55l-67.016,36.373Z" transform="translate(-5837.123 -2329.493)" fill="#00abea"/>
        <path id="Path_2584" data-name="Path 2584" d="M4213.338,2408.24l-34.973-28.444-32.005-7.876v54.536l8.949,5.16,3.189-2.219,40.9,23.651v4.063l13.941,8.039Z" transform="translate(-4146.36 -2330.811)" fill="#17c1ff"/>
        <path id="Path_2585" data-name="Path 2585" d="M4146.36,1331.772l31.411,8.58,67-38.7-31.43-8.579Z" transform="translate(-4146.36 -1293.07)" fill="#80dbfc"/>
        <path id="Path_2586" data-name="Path 2586" d="M4970.689,1556.923l67-38.7,35.586,30.161-67.016,38.689Z" transform="translate(-4939.278 -1509.641)" fill="#68cdf2"/>
        <path id="Path_2587" data-name="Path 2587" d="M4464.891,2927.678l40.9,23.651v-37.771l-40.9-23.618Z" transform="translate(-4452.753 -2829.092)" fill="#fac54b"/>
        <path id="Path_2588" data-name="Path 2588" d="M6797.373,2833.7l-13.9,8.029v6.856l13.9-8.034Z" transform="translate(-6682.984 -2774.995)" fill="#17c1ff"/>
        <path id="Path_2589" data-name="Path 2589" d="M6797.373,3008.908l-2.506-1.088-11.4,6.6v2.554Z" transform="translate(-6682.984 -2942.48)" fill="#80dbfc"/>
        <path id="Path_2590" data-name="Path 2590" d="M7085.076,2841.423l-2.506-1.088v-5.183l2.506-1.452Z" transform="translate(-6970.687 -2774.995)" fill="#008fc8"/>
        <path id="Path_2591" data-name="Path 2591" d="M7232.774,2581.84l-13.9,8.03v6.856l13.9-8.033Z" transform="translate(-7101.792 -2532.732)" fill="#17c1ff"/>
        <path id="Path_2592" data-name="Path 2592" d="M7232.774,2757.067l-2.507-1.087-11.4,6.6v2.555Z" transform="translate(-7101.792 -2700.236)" fill="#80dbfc"/>
        <path id="Path_2593" data-name="Path 2593" d="M7520.476,2589.563l-2.506-1.088v-5.184l2.506-1.452Z" transform="translate(-7389.496 -2532.732)" fill="#008fc8"/>
        <path id="Path_2594" data-name="Path 2594" d="M4384.727,2843l-3.507-2.027v41.822l3.507-2.021Z" transform="translate(-4372.271 -2781.987)" fill="#00abea"/>
        <path id="Path_2595" data-name="Path 2595" d="M4845.584,2984.79s-2.358,1.079-3.5,5.369a4.974,4.974,0,0,0,.532.339c3.959,2.171,6.444,1.142,6.444,1.142.066-3.592-.914-5.6-3.48-6.85Z" transform="translate(-4815.579 -2920.327)" fill="#0d5069"/>
        <path id="Path_2596" data-name="Path 2596" d="M4810.816,2973.179c-3.667-1.778-4.774,2.174-4.774,2.174a2.884,2.884,0,0,0,1.279,3.195C4808.457,2974.258,4810.816,2973.179,4810.816,2973.179Z" transform="translate(-4780.81 -2908.717)" fill="#0986b3"/>
        <path id="Path_2597" data-name="Path 2597" d="M4146.36,2308.76v2.5l31.364,9.151,35.614,29.545v-2.466l-35.567-30.147Z" transform="translate(-4146.36 -2270.057)" fill="#c2efff"/>
        <path id="Path_2598" data-name="Path 2598" d="M5904.1,2348.449v2.466l67.016-38.713v-2.441Z" transform="translate(-5837.123 -2271.019)" fill="#008fc8"/>
        <path id="Path_2599" data-name="Path 2599" d="M5904.1,3739.71v-4.037l67.016-38.7v4.022Z" transform="translate(-5837.123 -3605.37)" fill="#008fc8"/>
        <path id="Path_2600" data-name="Path 2600" d="M5552.162,4509.064v4.038l-13.942-8.039V4501Z" transform="translate(-5485.184 -4378.763)" fill="#80dbfc"/>
        <path id="Path_2601" data-name="Path 2601" d="M4155.309,3705.934v-4.043l-8.949-5.171v4.055Z" transform="translate(-4146.36 -3605.13)" fill="#80dbfc"/>
        <path id="Path_2602" data-name="Path 2602" d="M4384.727,3779.44l-3.507,2.019v4.043l3.507-2.021Z" transform="translate(-4372.271 -3684.697)" fill="#008fc8"/>
        <path id="Path_2603" data-name="Path 2603" d="M4473.259,3009.28v1.406l40.58,23.451v-1.415Z" transform="translate(-4460.803 -2943.885)" fill="#edb126"/>
        <path id="Path_2604" data-name="Path 2604" d="M4473.259,3129.98v1.406l40.58,23.451v-1.416Z" transform="translate(-4460.803 -3059.985)" fill="#edb126"/>
        <path id="Path_2605" data-name="Path 2605" d="M4473.259,3250.67v1.406l40.58,23.451v-1.416Z" transform="translate(-4460.803 -3176.076)" fill="#edb126"/>
        <path id="Path_2606" data-name="Path 2606" d="M4473.259,3371.35v1.407l40.58,23.451v-1.415Z" transform="translate(-4460.803 -3292.158)" fill="#edb126"/>
        <path id="Path_2607" data-name="Path 2607" d="M4473.259,3492.04v1.407l40.58,23.451v-1.416Z" transform="translate(-4460.803 -3408.249)" fill="#edb126"/>
        <path id="Path_2608" data-name="Path 2608" d="M4473.259,3612.74v1.407l40.58,23.451v-1.416Z" transform="translate(-4460.803 -3524.35)" fill="#edb126"/>
        <path id="Path_2609" data-name="Path 2609" d="M4473.259,3733.41v1.407l40.58,23.45v-1.415Z" transform="translate(-4460.803 -3640.422)" fill="#edb126"/>
        <path id="Path_2610" data-name="Path 2610" d="M4234.351,2271.3l-31.411-8.58.917-.53,31.4,8.587Z" transform="translate(-4200.784 -2225.262)" fill="#b7eaff"/>
        <path id="Path_2611" data-name="Path 2611" d="M4318.981,2222.35l-31.412-8.579.917-.531,31.4,8.588Z" transform="translate(-4282.189 -2178.177)" fill="#b7eaff"/>
        <path id="Path_2612" data-name="Path 2612" d="M4403.621,2173.41l-31.411-8.579.917-.531,31.4,8.587Z" transform="translate(-4363.604 -2131.102)" fill="#b7eaff"/>
        <path id="Path_2613" data-name="Path 2613" d="M4487.762,2124.859l-31.411-8.58.917-.53,31.4,8.586Z" transform="translate(-4444.539 -2084.402)" fill="#b7eaff"/>
        <path id="Path_2614" data-name="Path 2614" d="M4572.4,2076.009l-31.411-8.58.917-.53,31.4,8.587Z" transform="translate(-4525.953 -2037.413)" fill="#b7eaff"/>
        <path id="Path_2615" data-name="Path 2615" d="M4656.832,2027.169l-31.412-8.58.917-.53,31.4,8.586Z" transform="translate(-4607.166 -1990.434)" fill="#b7eaff"/>
        <path id="Path_2616" data-name="Path 2616" d="M4741.381,1978.41l-31.411-8.58.917-.53,31.4,8.586Z" transform="translate(-4688.495 -1943.532)" fill="#b7eaff"/>
        <path id="Path_2617" data-name="Path 2617" d="M4825.812,1929.57l-31.412-8.58.917-.53,31.4,8.586Z" transform="translate(-4769.707 -1896.553)" fill="#b7eaff"/>
        <path id="Path_2618" data-name="Path 2618" d="M4910.341,1880.729l-31.411-8.579.917-.53,31.4,8.586Z" transform="translate(-4851.015 -1849.575)" fill="#b7eaff"/>
        <path id="Path_2619" data-name="Path 2619" d="M4994.791,1831.979l-31.411-8.58.917-.529,31.4,8.586Z" transform="translate(-4932.247 -1802.682)" fill="#b7eaff"/>
        <path id="Path_2620" data-name="Path 2620" d="M5079.211,1783.109l-31.412-8.58.918-.53,31.4,8.587Z" transform="translate(-5013.451 -1755.674)" fill="#b7eaff"/>
        <path id="Path_2621" data-name="Path 2621" d="M5163.861,1734.36l-31.411-8.58.917-.53,31.4,8.587Z" transform="translate(-5094.875 -1708.782)" fill="#b7eaff"/>
        <path id="Path_2622" data-name="Path 2622" d="M5248.292,1685.51l-31.412-8.58.917-.53,31.4,8.586Z" transform="translate(-5176.088 -1661.793)" fill="#b7eaff"/>
        <path id="Path_2623" data-name="Path 2623" d="M5332.921,1636.67l-31.411-8.58.917-.53,31.4,8.586Z" transform="translate(-5257.493 -1614.814)" fill="#b7eaff"/>
        <path id="Path_2624" data-name="Path 2624" d="M5417.271,1587.92l-31.41-8.58.917-.53,31.4,8.586Z" transform="translate(-5338.63 -1567.922)" fill="#b7eaff"/>
        <path id="Path_2625" data-name="Path 2625" d="M5501.8,1539.169l-31.411-8.579.917-.53,31.4,8.587Z" transform="translate(-5419.938 -1521.03)" fill="#b7eaff"/>
        <path id="Path_2626" data-name="Path 2626" d="M5586.241,1490.328l-31.412-8.579.917-.53,31.4,8.586Z" transform="translate(-5501.161 -1474.051)" fill="#b7eaff"/>
        <path id="Path_2627" data-name="Path 2627" d="M5670.771,1441.459l-31.411-8.579.917-.53,31.4,8.587Z" transform="translate(-5582.471 -1427.043)" fill="#b7eaff"/>
        <path id="Path_2628" data-name="Path 2628" d="M5755.131,1392.709l-31.411-8.579.916-.53,31.4,8.587Z" transform="translate(-5663.616 -1380.15)" fill="#b7eaff"/>
        <path id="Path_2629" data-name="Path 2629" d="M5839.661,1343.86l-31.411-8.579.917-.53,31.4,8.587Z" transform="translate(-5744.924 -1333.162)" fill="#b7eaff"/>
        <path id="Path_2630" data-name="Path 2630" d="M5027.3,2488l35.568,30.148.9-.519L5028.2,2487.48Z" transform="translate(-4993.731 -2441.968)" fill="#8bd7f5"/>
        <path id="Path_2631" data-name="Path 2631" d="M5111.8,2439.222l35.568,30.147.9-.519L5112.7,2438.7Z" transform="translate(-5075.012 -2395.046)" fill="#8bd7f5"/>
        <path id="Path_2632" data-name="Path 2632" d="M5196.3,2390.422l35.567,30.147.9-.52-35.563-30.15Z" transform="translate(-5156.292 -2348.105)" fill="#8bd7f5"/>
        <path id="Path_2633" data-name="Path 2633" d="M5280.78,2341.6l35.568,30.148.9-.519-35.563-30.152Z" transform="translate(-5237.553 -2301.146)" fill="#8bd7f5"/>
        <path id="Path_2634" data-name="Path 2634" d="M5365.279,2292.813l35.568,30.147.9-.519-35.565-30.151Z" transform="translate(-5318.833 -2254.215)" fill="#8bd7f5"/>
        <path id="Path_2635" data-name="Path 2635" d="M5449.78,2244.012l35.566,30.148.9-.52-35.564-30.151Z" transform="translate(-5400.114 -2207.274)" fill="#8bd7f5"/>
        <path id="Path_2636" data-name="Path 2636" d="M5534.28,2195.212l35.567,30.148.9-.52-35.565-30.15Z" transform="translate(-5481.394 -2160.334)" fill="#8bd7f5"/>
        <path id="Path_2637" data-name="Path 2637" d="M5618.79,2146.422l35.567,30.148.9-.52-35.565-30.15Z" transform="translate(-5562.684 -2113.403)" fill="#8bd7f5"/>
        <path id="Path_2638" data-name="Path 2638" d="M5703.28,2097.613l35.567,30.148.9-.52-35.564-30.151Z" transform="translate(-5643.954 -2066.453)" fill="#8bd7f5"/>
        <path id="Path_2639" data-name="Path 2639" d="M5787.78,2048.823l35.567,30.148.9-.52-35.563-30.15Z" transform="translate(-5725.234 -2019.522)" fill="#8bd7f5"/>
        <path id="Path_2640" data-name="Path 2640" d="M5872.29,2000l35.567,30.147.9-.519-35.564-30.151Z" transform="translate(-5806.523 -1972.563)" fill="#8bd7f5"/>
        <path id="Path_2641" data-name="Path 2641" d="M5956.79,1951.213l35.567,30.148.9-.52-35.564-30.151Z" transform="translate(-5887.804 -1925.632)" fill="#8bd7f5"/>
        <path id="Path_2642" data-name="Path 2642" d="M6041.29,1902.413l35.567,30.148.9-.52L6042.2,1901.89Z" transform="translate(-5969.084 -1878.691)" fill="#8bd7f5"/>
        <path id="Path_2643" data-name="Path 2643" d="M6125.77,1853.613l35.568,30.147.9-.52-35.563-30.151Z" transform="translate(-6050.345 -1831.751)" fill="#8bd7f5"/>
        <path id="Path_2644" data-name="Path 2644" d="M6210.27,1804.822l35.567,30.148.9-.519-35.564-30.151Z" transform="translate(-6131.625 -1784.82)" fill="#8bd7f5"/>
        <path id="Path_2645" data-name="Path 2645" d="M6294.77,1756.022l35.567,30.148.9-.52-35.565-30.15Z" transform="translate(-6212.905 -1737.879)" fill="#8bd7f5"/>
        <path id="Path_2646" data-name="Path 2646" d="M6379.27,1707.222l35.566,30.147.9-.519-35.565-30.15Z" transform="translate(-6294.186 -1690.939)" fill="#8bd7f5"/>
        <path id="Path_2647" data-name="Path 2647" d="M6463.771,1658.4l35.575,30.147.9-.519-35.573-30.151Z" transform="translate(-6375.466 -1643.979)" fill="#8bd7f5"/>
        <path id="Path_2648" data-name="Path 2648" d="M6548.28,1609.333l35.58,30.161.9-.519-35.579-30.164Z" transform="translate(-6456.756 -1596.779)" fill="#8bd7f5"/>
        <path id="Path_2649" data-name="Path 2649" d="M6632.779,1560.632l35.579,30.158.9-.519-35.577-30.161Z" transform="translate(-6538.036 -1549.934)" fill="#8bd7f5"/>
      </g>
      <path id="Path_2650" data-name="Path 2650" d="M5769.46,5825.39l27.84,16.285,48.886-28.694-27.791-16.311Z" transform="translate(-5663.864 -5625.062)" fill="#cee1f5"/>
      <path id="Path_2651" data-name="Path 2651" d="M6035.236,5844.63v2.771l-48.936,28.722v-2.769Z" transform="translate(-5872.44 -5671.194)" fill="#0986b3"/>
      <path id="Path_2652" data-name="Path 2652" d="M5257.09,6170.34v2.771l27.791,16.311v-2.771l.049-.027Z" transform="translate(-5171.017 -5984.493)" fill="#17c1ff"/>
      <path id="Path_2653" data-name="Path 2653" d="M5257.09,5445.322l27.84,16.284,48.888-28.694-27.791-16.312Z" transform="translate(-5171.017 -5259.475)" fill="#00abea"/>
      <path id="Path_2654" data-name="Path 2654" d="M5331.126,5430.371l-27.687-16.252-48.835,28.663v2.651l27.689,16.253,48.832-28.664Zm-48.885,31.521-27.789-16.309a.108.108,0,0,1-.051-.091v-2.77a.1.1,0,0,1,.051-.089l48.936-28.723a.106.106,0,0,1,.1,0l27.79,16.311a.106.106,0,0,1,.05.089l0,2.77a.1.1,0,0,1-.051.09l-48.933,28.722a.093.093,0,0,1-.051.014A.091.091,0,0,1,5282.241,5461.892Z" transform="translate(-5168.431 -5256.875)" fill="#00abea"/>
      <path id="Path_2655" data-name="Path 2655" d="M5545.018,6022.18h0a1.137,1.137,0,0,0,1.128-1.145v-6.629a1.138,1.138,0,0,0-1.128-1.146h0a1.138,1.138,0,0,0-1.128,1.146v6.629A1.137,1.137,0,0,0,5545.018,6022.18Z" transform="translate(-5446.889 -5833.4)" fill="#00abea"/>
      <path id="Path_2656" data-name="Path 2656" d="M5257.09,5878.18v2.772l27.791,16.311v-2.771l.049-.027Z" transform="translate(-5171.017 -5703.466)" fill="#17c1ff"/>
      <path id="Path_2657" data-name="Path 2657" d="M5257.09,5153.161l27.84,16.285,48.888-28.694-27.791-16.312Z" transform="translate(-5171.017 -4978.447)" fill="#00abea"/>
      <path id="Path_2658" data-name="Path 2658" d="M5331.126,5138.188l-27.687-16.252L5254.6,5150.6v2.65l27.689,16.252,48.832-28.662Zm-48.885,31.523-27.789-16.312a.1.1,0,0,1-.051-.088v-2.772a.1.1,0,0,1,.051-.088l48.936-28.723a.1.1,0,0,1,.1,0l27.79,16.311a.1.1,0,0,1,.05.089l0,2.77a.1.1,0,0,1-.051.09l-48.933,28.722a.093.093,0,0,1-.051.014.091.091,0,0,1-.051-.014Z" transform="translate(-5168.431 -4975.826)" fill="#00abea"/>
      <path id="Path_2659" data-name="Path 2659" d="M6131.539,5899.731h0a1.127,1.127,0,0,0,1.127-1.127v-6.666a1.128,1.128,0,0,0-1.127-1.128h0a1.128,1.128,0,0,0-1.128,1.128v6.666A1.128,1.128,0,0,0,6131.539,5899.731Z" transform="translate(-6011.06 -5715.615)" fill="#0d5069"/>
      <path id="Path_2660" data-name="Path 2660" d="M6131.539,6264.251h0a1.127,1.127,0,0,0,1.127-1.126v-6.667a1.127,1.127,0,0,0-1.127-1.128h0a1.128,1.128,0,0,0-1.128,1.128v6.667A1.127,1.127,0,0,0,6131.539,6264.251Z" transform="translate(-6011.06 -6066.245)" fill="#0d5069"/>
      <path id="Path_2661" data-name="Path 2661" d="M5545.018,5657.651h0a1.137,1.137,0,0,0,1.128-1.146v-6.628a1.138,1.138,0,0,0-1.128-1.146h0a1.138,1.138,0,0,0-1.128,1.146v6.628A1.137,1.137,0,0,0,5545.018,5657.651Z" transform="translate(-5446.889 -5482.759)" fill="#00abea"/>
      <path id="Path_2662" data-name="Path 2662" d="M6983.927,5390.941h0a1.137,1.137,0,0,0,1.128-1.146v-6.628a1.137,1.137,0,0,0-1.128-1.147h0a1.138,1.138,0,0,0-1.127,1.147v6.628A1.137,1.137,0,0,0,6983.927,5390.941Z" transform="translate(-6830.969 -5226.212)" fill="#0d5069"/>
      <path id="Path_2663" data-name="Path 2663" d="M6983.927,5755.472h0a1.137,1.137,0,0,0,1.128-1.147V5747.7a1.136,1.136,0,0,0-1.128-1.146h0a1.137,1.137,0,0,0-1.127,1.146v6.628A1.138,1.138,0,0,0,6983.927,5755.472Z" transform="translate(-6830.969 -5576.853)" fill="#0d5069"/>
      <path id="Path_2664" data-name="Path 2664" d="M6035.236,5202.92v2.769l-48.936,28.723v-2.771Z" transform="translate(-5872.44 -5053.936)" fill="#0986b3"/>
      <path id="Path_2665" data-name="Path 2665" d="M5257.09,5528.62v2.771l27.791,16.312v-2.771l.049-.027Z" transform="translate(-5171.017 -5367.226)" fill="#17c1ff"/>
      <path id="Path_2666" data-name="Path 2666" d="M5257.09,4803.611l27.84,16.286,48.888-28.7-27.791-16.311Z" transform="translate(-5171.017 -4642.216)" fill="#17c1ff"/>
      <path id="Path_2667" data-name="Path 2667" d="M5331.126,4788.614l-27.687-16.251-48.835,28.664v2.65l27.689,16.251,48.832-28.663Zm-48.885,31.523-27.789-16.312a.1.1,0,0,1-.051-.088v-2.771a.1.1,0,0,1,.051-.089l48.936-28.722a.094.094,0,0,1,.1,0l27.79,16.31a.106.106,0,0,1,.05.09l0,2.77a.106.106,0,0,1-.051.09l-48.933,28.722a.108.108,0,0,1-.051.015A.106.106,0,0,1,5282.241,4820.137Z" transform="translate(-5168.431 -4639.572)" fill="#00abea"/>
      <path id="Path_2668" data-name="Path 2668" d="M6232.22,4684.6a1.457,1.457,0,0,1,.418-1.022.371.371,0,0,1,.125-.122l12.363-7.256a2.011,2.011,0,0,1,2.043,0l12.207,7.164a.484.484,0,0,1,.107.085h0l.125.14a1.554,1.554,0,0,1,.468,1.113v.361l-.951-.46-11.572,6.839-2.019,2.919-1.347-3.561-11.068-6.5.051.12-.952.177Z" transform="translate(-6108.99 -4547.018)" fill="#ffc466"/>
      <path id="Path_2669" data-name="Path 2669" d="M6294.244,4696.79l-12.023,7.058,12.024,7.059,12.024-7.057Z" transform="translate(-6157.086 -4567.093)" fill="#e8955d"/>
      <path id="Path_2670" data-name="Path 2670" d="M6541.08,4855.154l1.431.839,11.763-6.9-1.431-.84Z" transform="translate(-6406.081 -4712.781)" fill="#ffc466"/>
      <path id="Path_2671" data-name="Path 2671" d="M6483.07,4821.124l1.431.84,11.762-6.9-1.43-.839Z" transform="translate(-6350.282 -4680.048)" fill="#ffc466"/>
      <path id="Path_2672" data-name="Path 2672" d="M6425.069,4787.054l1.431.841,11.763-6.9-1.431-.841Z" transform="translate(-6294.491 -4647.276)" fill="#ffc466"/>
      <path id="Path_2673" data-name="Path 2673" d="M6367.06,4753.033l1.432.84,11.762-6.9-1.431-.839Z" transform="translate(-6238.692 -4614.552)" fill="#ffc466"/>
      <path id="Path_2674" data-name="Path 2674" d="M6309.06,4718.973l1.43.841,11.763-6.9-1.431-.84Z" transform="translate(-6182.902 -4581.79)" fill="#ffc466"/>
      <path id="Path_2675" data-name="Path 2675" d="M6290.738,4843.52l-2.5,1.466,3.175,1.864h17.239l3.175-1.862-2.5-1.468Z" transform="translate(-6162.875 -4708.231)" fill="#ffc466"/>
      <path id="Path_2676" data-name="Path 2676" d="M6306.959,4842.629l-2.339-1.37h-18.543l-2.337,1.37,3.015,1.77h17.19l3.015-1.77Zm-23.589,0,2.657-1.56h18.644l2.659,1.56-3.335,1.958h-17.289l-3.336-1.958Z" transform="translate(-6158.191 -4705.875)" fill="#e8955d"/>
      <path id="Path_2677" data-name="Path 2677" d="M6257.978,4682.924l.015-.224a1.375,1.375,0,0,0-.379-1.045,2.653,2.653,0,0,0-.5-.378l-11.927-7a1.944,1.944,0,0,0-1.965,0l-12.364,7.257a.278.278,0,0,0-.1.1l-.01.014a1.372,1.372,0,0,0-.347.61l-.008.019a.293.293,0,0,0-.041.149V4695.9l13.775,8.085v-13.061a1.754,1.754,0,0,1,.845-1.5l.454-.271,11.6-6.809.041-.024.907.6Zm-27.739,13.088-.039-.023v-13.568a.447.447,0,0,1,.057-.22,1.536,1.536,0,0,1,.378-.663.439.439,0,0,1,.146-.141l12.364-7.257a2.092,2.092,0,0,1,2.121,0l11.927,7a2.679,2.679,0,0,1,.526.4,1.525,1.525,0,0,1,.427,1.163l-.033.5-1.048-.7-11.561,6.786-.454.271a1.594,1.594,0,0,0-.768,1.365v13.331l-14.045-8.243Z" transform="translate(-6107.047 -4545.03)" fill="#e8955d"/>
      <path id="Path_2678" data-name="Path 2678" d="M6597.77,4913.119l13.4-7.867a1.074,1.074,0,0,0,.526-.928v-12.718a.467.467,0,0,0-.7-.412l-12.378,7.264a1.733,1.733,0,0,0-.849,1.5v13.164Z" transform="translate(-6460.611 -4754.027)" fill="#e8955d"/>
      <path id="Path_2679" data-name="Path 2679" d="M6597.77,4913.119l13.4-7.867a1.074,1.074,0,0,0,.526-.928v-12.718a.467.467,0,0,0-.7-.412l-12.378,7.264a1.733,1.733,0,0,0-.849,1.5v13.164Z" transform="translate(-6460.611 -4754.027)" fill="#e8955d"/>
      <path id="Path_2680" data-name="Path 2680" d="M6230.5,4887.18a.287.287,0,0,0-.143.25v13.478l13.775,8.084v-13.029a1.656,1.656,0,0,0-.811-1.426l-12.537-7.358a.273.273,0,0,0-.285,0Zm-.257,13.84-.039-.022V4887.43a.441.441,0,0,1,.22-.386.424.424,0,0,1,.439,0l12.537,7.358a1.817,1.817,0,0,1,.889,1.563v13.3Z" transform="translate(-6107.047 -4750.038)" fill="#e8955d"/>
      <path id="Path_2681" data-name="Path 2681" d="M6622.76,4929.167v12.223l12.026-7.057V4922.11Z" transform="translate(-6484.648 -4783.828)" fill="#d87a59"/>
      <path id="Path_2682" data-name="Path 2682" d="M6877.78,4951.438l1.431-.839V4938.64l-1.431.84Z" transform="translate(-6729.952 -4799.727)" fill="#e8955d"/>
      <path id="Path_2683" data-name="Path 2683" d="M6819.78,4985.5l1.43-.84V4972.7l-1.43.84Z" transform="translate(-6674.162 -4832.489)" fill="#e8955d"/>
      <path id="Path_2684" data-name="Path 2684" d="M6761.76,5019.547l1.432-.839V5006.75l-1.432.84Z" transform="translate(-6618.352 -4865.242)" fill="#e8955d"/>
      <path id="Path_2685" data-name="Path 2685" d="M6703.77,5053.587l1.432-.84V5040.79l-1.432.841Z" transform="translate(-6562.572 -4897.984)" fill="#e8955d"/>
      <path id="Path_2686" data-name="Path 2686" d="M6645.75,5087.648l1.431-.841V5074.85l-1.431.838Z" transform="translate(-6506.763 -4930.747)" fill="#e8955d"/>
      <path id="Path_2687" data-name="Path 2687" d="M6625.77,4943.3v2.537l3.176-1.863,8.62-13.823v-3.227l-2.5,1.467Z" transform="translate(-6487.544 -4788.453)" fill="#e8955d"/>
      <path id="Path_2688" data-name="Path 2688" d="M6635.145,4926.032V4923l-2.34,1.374-9.27,14.865v2.349l3.017-1.771Zm-11.8,13.147,9.312-14.931.012-.021,2.657-1.559v3.417l-8.634,13.846-.012.021-3.333,1.956Z" transform="translate(-6485.216 -4784.365)" fill="#d87a59"/>
      <path id="Path_2689" data-name="Path 2689" d="M6246.159,4911.132l-13.929-8.177v-13.521a.362.362,0,0,1,.543-.319l12.536,7.357a1.734,1.734,0,0,1,.849,1.5Z" transform="translate(-6109 -4752.04)" fill="#e8955d"/>
      <path id="Path_2690" data-name="Path 2690" d="M6269.235,4929.167v12.223l-12.025-7.057V4922.11Z" transform="translate(-6133.027 -4783.828)" fill="#99463f"/>
      <path id="Path_2691" data-name="Path 2691" d="M6281.651,4951.438l-1.431-.839V4938.64l1.431.84Z" transform="translate(-6155.161 -4799.727)" fill="#c97453"/>
      <path id="Path_2692" data-name="Path 2692" d="M6339.651,4985.5l-1.432-.84V4972.7l1.432.84Z" transform="translate(-6210.951 -4832.489)" fill="#c97453"/>
      <path id="Path_2693" data-name="Path 2693" d="M6397.642,5019.547l-1.432-.839V5006.75l1.432.84Z" transform="translate(-6266.731 -4865.242)" fill="#c97453"/>
      <path id="Path_2694" data-name="Path 2694" d="M6455.661,5053.587l-1.431-.84V5040.79l1.431.841Z" transform="translate(-6322.541 -4897.984)" fill="#c97453"/>
      <path id="Path_2695" data-name="Path 2695" d="M6513.67,5087.648l-1.431-.841V5074.85l1.431.838Z" transform="translate(-6378.34 -4930.747)" fill="#c97453"/>
      <path id="Path_2696" data-name="Path 2696" d="M6272.015,4943.3v2.537l-3.174-1.863-8.621-13.823v-3.227l2.5,1.467Z" transform="translate(-6135.923 -4788.453)" fill="#c97453"/>
      <path id="Path_2697" data-name="Path 2697" d="M6260.314,4924.378l-2.34-1.374v3.038l8.594,13.779,3.017,1.771v-2.349l-9.271-14.865Zm6.122,15.584-8.632-13.842-.014-.024v-3.416l2.656,1.558,9.31,14.929.015.022v2.729Z" transform="translate(-6133.586 -4784.375)" fill="#99463f"/>
      <path id="Path_2698" data-name="Path 2698" d="M5647.66,4994.572a1.454,1.454,0,0,1,.418-1.021.35.35,0,0,1,.125-.122l12.363-7.256a2.005,2.005,0,0,1,2.043,0l12.206,7.163a.5.5,0,0,1,.106.086h0l.126.14a1.557,1.557,0,0,1,.469,1.115v.36l-.952-.461-11.572,6.84-2.019,2.919-1.347-3.562-11.067-6.5.051.12-.952.175Z" transform="translate(-5546.705 -4845.179)" fill="#ffc466"/>
      <path id="Path_2699" data-name="Path 2699" d="M5709.674,5006.8l-12.024,7.058,12.025,7.058,12.023-7.058Z" transform="translate(-5594.789 -4865.289)" fill="#e8955d"/>
      <path id="Path_2700" data-name="Path 2700" d="M5956.521,5165.154l1.431.841,11.762-6.9-1.431-.841Z" transform="translate(-5843.796 -5010.969)" fill="#ffc466"/>
      <path id="Path_2701" data-name="Path 2701" d="M5898.51,5131.1l1.431.839,11.763-6.9-1.431-.84Z" transform="translate(-5787.996 -4978.207)" fill="#ffc466"/>
      <path id="Path_2702" data-name="Path 2702" d="M5840.5,5097.073l1.432.84,11.762-6.9-1.432-.839Z" transform="translate(-5732.196 -4945.483)" fill="#ffc466"/>
      <path id="Path_2703" data-name="Path 2703" d="M5782.5,5063l1.431.84,11.763-6.9-1.432-.842Z" transform="translate(-5676.407 -4912.701)" fill="#ffc466"/>
      <path id="Path_2704" data-name="Path 2704" d="M5724.5,5028.974l1.431.841,11.763-6.905-1.431-.84Z" transform="translate(-5620.616 -4879.977)" fill="#ffc466"/>
      <path id="Path_2705" data-name="Path 2705" d="M5706.177,5153.54l-2.5,1.467,3.176,1.864h17.239l3.175-1.864-2.5-1.467Z" transform="translate(-5600.59 -5006.438)" fill="#ffc466"/>
      <path id="Path_2706" data-name="Path 2706" d="M5722.418,5152.63l-2.337-1.372h-18.544l-2.337,1.372,3.015,1.77h17.19Zm-23.589,0,2.658-1.56h18.642l2.66,1.56-3.335,1.958h-17.289Z" transform="translate(-5595.924 -5004.063)" fill="#e8955d"/>
      <path id="Path_2707" data-name="Path 2707" d="M5673.417,4992.94l.016-.223a1.373,1.373,0,0,0-.38-1.043,2.657,2.657,0,0,0-.5-.38l-11.927-7a1.945,1.945,0,0,0-1.967,0l-12.364,7.257a.292.292,0,0,0-.1.1l-.01.013a1.377,1.377,0,0,0-.347.61l-.008.02a.281.281,0,0,0-.041.148v13.478l13.775,8.086v-13.06a1.757,1.757,0,0,1,.845-1.5l.455-.27,11.6-6.81.041-.024.906.6Zm-27.739,13.089-.038-.022v-13.569a.45.45,0,0,1,.056-.22,1.531,1.531,0,0,1,.379-.662.44.44,0,0,1,.147-.142l12.364-7.257a2.1,2.1,0,0,1,2.121,0l11.926,7a2.79,2.79,0,0,1,.527.4,1.528,1.528,0,0,1,.427,1.164l-.033.5-1.048-.7-11.561,6.785-.455.271a1.6,1.6,0,0,0-.768,1.365v13.332Z" transform="translate(-5544.762 -4843.233)" fill="#e8955d"/>
      <path id="Path_2708" data-name="Path 2708" d="M6013.221,5223.131l13.4-7.866a1.073,1.073,0,0,0,.526-.927V5201.62a.469.469,0,0,0-.7-.413l-12.378,7.266a1.732,1.732,0,0,0-.849,1.5v13.164Z" transform="translate(-5898.335 -5052.227)" fill="#e8955d"/>
      <path id="Path_2709" data-name="Path 2709" d="M6013.221,5223.131l13.4-7.866a1.073,1.073,0,0,0,.526-.927V5201.62a.469.469,0,0,0-.7-.413l-12.378,7.266a1.732,1.732,0,0,0-.849,1.5v13.164Z" transform="translate(-5898.335 -5052.227)" fill="#e8955d"/>
      <path id="Path_2710" data-name="Path 2710" d="M5645.937,5197.192a.288.288,0,0,0-.142.25v13.478l13.774,8.086v-13.028a1.656,1.656,0,0,0-.81-1.427l-12.537-7.359a.281.281,0,0,0-.286,0Zm-.258,13.841-.039-.022v-13.569a.442.442,0,0,1,.219-.386.425.425,0,0,1,.439,0l12.536,7.358a1.817,1.817,0,0,1,.888,1.563v13.3Z" transform="translate(-5544.762 -5048.238)" fill="#e8955d"/>
      <path id="Path_2711" data-name="Path 2711" d="M6038.2,5239.138v12.224l12.024-7.058V5232.08Z" transform="translate(-5922.364 -5081.985)" fill="#d87a59"/>
      <path id="Path_2712" data-name="Path 2712" d="M6293.23,5261.458l1.431-.841V5248.66l-1.431.841Z" transform="translate(-6167.676 -5097.934)" fill="#e8955d"/>
      <path id="Path_2713" data-name="Path 2713" d="M6235.22,5295.516l1.431-.839V5282.72l-1.431.838Z" transform="translate(-6111.876 -5130.695)" fill="#e8955d"/>
      <path id="Path_2714" data-name="Path 2714" d="M6177.21,5329.539l1.431-.841V5316.74l-1.431.841Z" transform="translate(-6056.076 -5163.42)" fill="#e8955d"/>
      <path id="Path_2715" data-name="Path 2715" d="M6119.2,5363.588l1.431-.84V5350.79l-1.431.839Z" transform="translate(-6000.278 -5196.172)" fill="#e8955d"/>
      <path id="Path_2716" data-name="Path 2716" d="M6061.2,5397.628l1.432-.839v-11.958l-1.432.84Z" transform="translate(-5944.487 -5228.916)" fill="#e8955d"/>
      <path id="Path_2717" data-name="Path 2717" d="M6041.22,5253.313v2.539l3.175-1.864,8.62-13.823v-3.226l-2.5,1.467Z" transform="translate(-5925.268 -5086.66)" fill="#e8955d"/>
      <path id="Path_2718" data-name="Path 2718" d="M6050.6,5236v-3.037l-2.34,1.373-9.27,14.865v2.349l3.016-1.771Zm-11.794,13.147,9.31-14.931.014-.02,2.656-1.561v3.418l-8.634,13.844-.012.02-3.333,1.957Z" transform="translate(-5922.941 -5082.524)" fill="#d87a59"/>
      <path id="Path_2719" data-name="Path 2719" d="M5661.6,5221.135l-13.928-8.174v-13.523a.361.361,0,0,1,.542-.318l12.537,7.357a1.734,1.734,0,0,1,.849,1.5v13.163Z" transform="translate(-5546.715 -5050.232)" fill="#e8955d"/>
      <path id="Path_2720" data-name="Path 2720" d="M5684.675,5239.138v12.224l-12.025-7.058V5232.08Z" transform="translate(-5570.743 -5081.985)" fill="#99463f"/>
      <path id="Path_2721" data-name="Path 2721" d="M5697.081,5261.458l-1.431-.841V5248.66l1.431.841Z" transform="translate(-5592.866 -5097.934)" fill="#c97453"/>
      <path id="Path_2722" data-name="Path 2722" d="M5755.082,5295.516l-1.431-.839V5282.72l1.431.838Z" transform="translate(-5648.657 -5130.695)" fill="#c97453"/>
      <path id="Path_2723" data-name="Path 2723" d="M5813.1,5329.539l-1.432-.841V5316.74l1.432.841Z" transform="translate(-5704.464 -5163.42)" fill="#c97453"/>
      <path id="Path_2724" data-name="Path 2724" d="M5871.1,5363.588l-1.432-.84V5350.79l1.432.839Z" transform="translate(-5760.255 -5196.172)" fill="#c97453"/>
      <path id="Path_2725" data-name="Path 2725" d="M5929.111,5397.628l-1.431-.839v-11.958l1.431.84Z" transform="translate(-5816.055 -5228.916)" fill="#c97453"/>
      <path id="Path_2726" data-name="Path 2726" d="M5687.466,5253.313v2.539l-3.176-1.864-8.62-13.823v-3.226l2.5,1.467Z" transform="translate(-5573.647 -5086.66)" fill="#c97453"/>
      <path id="Path_2727" data-name="Path 2727" d="M5675.774,5234.339l-2.34-1.373V5236l8.593,13.78,3.017,1.771V5249.2Zm6.122,15.583-8.633-13.842-.014-.022v-3.418l2.656,1.561,9.309,14.927.015.024v2.728l-3.333-1.957Z" transform="translate(-5571.319 -5082.524)" fill="#99463f"/>
      <path id="Path_2728" data-name="Path 2728" d="M5914.67,4456.072a1.459,1.459,0,0,1,.418-1.022.354.354,0,0,1,.125-.121l12.364-7.257a2.011,2.011,0,0,1,2.044,0l12.205,7.165a.493.493,0,0,1,.107.085h0l.126.141a1.553,1.553,0,0,1,.468,1.113v.361l-.952-.46L5930,4462.915l-2.018,2.919-1.347-3.562-11.068-6.5.051.122-.952.175Z" transform="translate(-5803.541 -4327.198)" fill="#ffc466"/>
      <path id="Path_2729" data-name="Path 2729" d="M5976.675,4468.3l-12.024,7.058,12.024,7.058,12.024-7.058Z" transform="translate(-5851.617 -4347.308)" fill="#e8955d"/>
      <path id="Path_2730" data-name="Path 2730" d="M6223.51,4626.646l1.431.84,11.762-6.9-1.431-.841Z" transform="translate(-6100.612 -4492.978)" fill="#ffc466"/>
      <path id="Path_2731" data-name="Path 2731" d="M6165.5,4592.624l1.431.84,11.763-6.9-1.431-.84Z" transform="translate(-6044.812 -4460.255)" fill="#ffc466"/>
      <path id="Path_2732" data-name="Path 2732" d="M6107.5,4558.573l1.431.841,11.763-6.9-1.431-.84Z" transform="translate(-5989.022 -4427.502)" fill="#ffc466"/>
      <path id="Path_2733" data-name="Path 2733" d="M6049.49,4524.495l1.431.839,11.762-6.9-1.43-.841Z" transform="translate(-5933.224 -4394.721)" fill="#ffc466"/>
      <path id="Path_2734" data-name="Path 2734" d="M5991.49,4490.474l1.431.84,11.762-6.9-1.431-.841Z" transform="translate(-5877.434 -4361.997)" fill="#ffc466"/>
      <path id="Path_2735" data-name="Path 2735" d="M5973.177,4615.04l-2.5,1.466,3.175,1.864H5991.1l3.175-1.864-2.5-1.466Z" transform="translate(-5857.417 -4488.458)" fill="#ffc466"/>
      <path id="Path_2736" data-name="Path 2736" d="M5989.419,4614.13l-2.337-1.372h-18.545l-2.336,1.372,3.015,1.77H5986.4Zm-23.589,0,2.658-1.56h18.644l2.659,1.56-3.335,1.958h-17.29Z" transform="translate(-5852.751 -4486.082)" fill="#e8955d"/>
      <path id="Path_2737" data-name="Path 2737" d="M5940.408,4454.426l.015-.225a1.376,1.376,0,0,0-.379-1.044,2.619,2.619,0,0,0-.5-.379l-11.927-7a1.944,1.944,0,0,0-1.965,0l-12.364,7.256a.287.287,0,0,0-.1.1l-.011.015a1.373,1.373,0,0,0-.347.608l-.009.02a.291.291,0,0,0-.041.149V4467.4l13.775,8.085v-13.06a1.753,1.753,0,0,1,.845-1.5l.455-.272,11.6-6.809.041-.024.907.6Zm-27.739,13.088-.04-.022v-13.568a.461.461,0,0,1,.058-.221,1.542,1.542,0,0,1,.378-.662.429.429,0,0,1,.146-.141l12.365-7.258a2.1,2.1,0,0,1,2.12,0l11.927,7a2.725,2.725,0,0,1,.527.4,1.53,1.53,0,0,1,.427,1.163l-.033.5-1.047-.7-11.56,6.786-.455.271a1.6,1.6,0,0,0-.768,1.366v13.332l-14.044-8.244Z" transform="translate(-5801.578 -4325.238)" fill="#e8955d"/>
      <path id="Path_2738" data-name="Path 2738" d="M6280.22,4684.638l13.4-7.867a1.074,1.074,0,0,0,.527-.927v-12.718a.467.467,0,0,0-.7-.411l-12.379,7.263a1.735,1.735,0,0,0-.849,1.5v13.164Z" transform="translate(-6155.161 -4534.253)" fill="#e8955d"/>
      <path id="Path_2739" data-name="Path 2739" d="M6280.22,4684.638l13.4-7.867a1.074,1.074,0,0,0,.527-.927v-12.718a.467.467,0,0,0-.7-.411l-12.379,7.263a1.735,1.735,0,0,0-.849,1.5v13.164Z" transform="translate(-6155.161 -4534.253)" fill="#e8955d"/>
      <path id="Path_2740" data-name="Path 2740" d="M5912.928,4658.7a.287.287,0,0,0-.144.25v13.479l13.775,8.084v-13.028a1.66,1.66,0,0,0-.811-1.428l-12.536-7.357a.277.277,0,0,0-.285,0Zm-.258,13.84-.039-.022V4658.95a.441.441,0,0,1,.22-.386.425.425,0,0,1,.439,0l12.537,7.358a1.816,1.816,0,0,1,.888,1.563v13.3l-14.045-8.244Z" transform="translate(-5801.579 -4530.264)" fill="#e8955d"/>
      <path id="Path_2741" data-name="Path 2741" d="M6305.19,4700.628v12.224l12.025-7.058V4693.57Z" transform="translate(-6179.18 -4563.995)" fill="#d87a59"/>
      <path id="Path_2742" data-name="Path 2742" d="M6560.22,4722.958l1.431-.84v-11.957l-1.431.84Z" transform="translate(-6424.492 -4579.953)" fill="#e8955d"/>
      <path id="Path_2743" data-name="Path 2743" d="M6502.21,4757.008l1.431-.84V4744.21l-1.431.841Z" transform="translate(-6368.693 -4612.706)" fill="#e8955d"/>
      <path id="Path_2744" data-name="Path 2744" d="M6444.21,4791.028l1.431-.839V4778.23l-1.431.841Z" transform="translate(-6312.902 -4645.429)" fill="#e8955d"/>
      <path id="Path_2745" data-name="Path 2745" d="M6386.2,4825.089l1.432-.84v-11.958l-1.432.841Z" transform="translate(-6257.103 -4678.192)" fill="#e8955d"/>
      <path id="Path_2746" data-name="Path 2746" d="M6328.2,4859.157l1.431-.84V4846.36l-1.431.839Z" transform="translate(-6201.313 -4710.963)" fill="#e8955d"/>
      <path id="Path_2747" data-name="Path 2747" d="M6308.22,4714.825v2.538l3.175-1.862,8.62-13.823v-3.227l-2.5,1.465Z" transform="translate(-6182.095 -4568.69)" fill="#e8955d"/>
      <path id="Path_2748" data-name="Path 2748" d="M6317.575,4697.533V4694.5l-2.339,1.374-9.27,14.865v2.349l3.018-1.771,8.593-13.779Zm-11.795,13.147,9.312-14.931.012-.019,2.657-1.56v3.417l-8.634,13.846-.013.018-3.334,1.957Z" transform="translate(-6179.747 -4564.573)" fill="#d87a59"/>
      <path id="Path_2749" data-name="Path 2749" d="M5928.6,4682.633l-13.929-8.176v-13.524a.362.362,0,0,1,.543-.318l12.536,7.358a1.734,1.734,0,0,1,.851,1.5v13.164Z" transform="translate(-5803.542 -4532.247)" fill="#e8955d"/>
      <path id="Path_2750" data-name="Path 2750" d="M5951.666,4700.628v12.224l-12.025-7.058V4693.57Z" transform="translate(-5827.559 -4563.995)" fill="#99463f"/>
      <path id="Path_2751" data-name="Path 2751" d="M5964.071,4722.958l-1.431-.84v-11.957l1.431.84Z" transform="translate(-5849.682 -4579.953)" fill="#c97453"/>
      <path id="Path_2752" data-name="Path 2752" d="M6022.081,4757.008l-1.43-.84V4744.21l1.43.841Z" transform="translate(-5905.482 -4612.706)" fill="#c97453"/>
      <path id="Path_2753" data-name="Path 2753" d="M6080.092,4791.028l-1.431-.839V4778.23l1.431.841Z" transform="translate(-5961.282 -4645.429)" fill="#c97453"/>
      <path id="Path_2754" data-name="Path 2754" d="M6138.1,4825.089l-1.431-.84v-11.958l1.431.841Z" transform="translate(-6017.08 -4678.192)" fill="#c97453"/>
      <path id="Path_2755" data-name="Path 2755" d="M6196.1,4859.157l-1.432-.84V4846.36l1.432.839Z" transform="translate(-6072.871 -4710.963)" fill="#c97453"/>
      <path id="Path_2756" data-name="Path 2756" d="M5954.455,4714.825v2.538l-3.175-1.862-8.62-13.823v-3.227l2.5,1.465Z" transform="translate(-5830.464 -4568.69)" fill="#c97453"/>
      <path id="Path_2757" data-name="Path 2757" d="M5942.755,4695.859l-2.34-1.374v3.037l8.593,13.78,3.017,1.771v-2.349Zm6.122,15.582-8.632-13.84-.015-.024v-3.417l2.657,1.559,9.309,14.928.015.022v2.729l-3.334-1.958Z" transform="translate(-5828.126 -4564.563)" fill="#99463f"/>
      <path id="Path_2758" data-name="Path 2758" d="M5499.106,5571.815l-6.249,3.481-14.118-8.043,6.438-3.613Z" transform="translate(-5384.221 -5400.912)" fill="#008fc8"/>
      <path id="Path_2759" data-name="Path 2759" d="M6373.812,5347.376l-8.872,3.945.413-8.732Z" transform="translate(-6236.653 -5188.284)" fill="#008fc8"/>
      <path id="Path_2760" data-name="Path 2760" d="M6035.236,5552.49v2.77l-48.936,28.722v-2.77Z" transform="translate(-5872.44 -5390.187)" fill="#0986b3"/>
    </g>
  </g>
</svg>
