<svg xmlns="http://www.w3.org/2000/svg" width="224.111" height="181.633" viewBox="0 0 224.111 181.633">
  <g id="Layer_x0020_1" transform="translate(-3205.653 -2001.4)">
    <g id="_2340571432672" transform="translate(3205.653 2001.4)">
      <path id="Path_2327" data-name="Path 2327" d="M3973.316,5603.58c5.655,3.32,5.655,8.7,0,12.021s-14.826,3.32-20.482,0-5.655-8.7,0-12.021S3967.66,5600.26,3973.316,5603.58Z" transform="translate(-3916.976 -5447.899)" fill="#cee1f5"/>
      <path id="Path_2328" data-name="Path 2328" d="M3230.376,5872.422c5.655,3.319,5.655,8.7,0,12.021s-14.826,3.319-20.482,0-5.655-8.7,0-12.021S3224.72,5869.1,3230.376,5872.422Z" transform="translate(-3205.653 -5705.301)" fill="#cee1f5"/>
      <path id="Path_2329" data-name="Path 2329" d="M3599.319,4942.585a16.458,16.458,0,0,0-2.177-.272,2.475,2.475,0,0,0,.306-.938c.161-.761.021-1.311-.306-.7a4.516,4.516,0,0,1-2.386,2.314c-1.606.749-6.382-2.028-6.382-2.028l-.287.412c-.43,3.481,2.249,3.241,2.249,3.241a17.71,17.71,0,0,0,4.128.592,24.356,24.356,0,0,0,4.452-.5c2.4-.585,1.465-1.9.4-2.119Z" transform="translate(-3571.768 -4815.338)" fill="#f8ae9b"/>
      <path id="Path_2330" data-name="Path 2330" d="M4061.963,5746.207s-.807.877-1.883,1.927c-1,.971-1.3,1.251-2.229,2.153-.54.527-.1,1.011.934.972a18.539,18.539,0,0,0,4.1-.887,20.775,20.775,0,0,0,3.069-1.6,2.033,2.033,0,0,0,.911-1.151V5746l-4.9.209Z" transform="translate(-4021.362 -5586.642)" fill="#0d5069"/>
      <path id="Path_2331" data-name="Path 2331" d="M4417.98,5695.872a13.507,13.507,0,0,1-1.592,1.8,17.575,17.575,0,0,0-2.173,2.516c-.2.265-.318,1.021.71.981a13.609,13.609,0,0,0,3.43-.829c1.31-.466,2.415-1.786,3.177-2.268a3.2,3.2,0,0,0,1.1-1.548l-.527-1.6-4.125.942Z" transform="translate(-4362.654 -5537.746)" fill="#0d5069"/>
      <path id="Path_2332" data-name="Path 2332" d="M4151.6,4879.029a11.851,11.851,0,0,0-2.9-9.071c.262-2-9.032.8-9.032.8s-1.99,10.772-2.831,16.443c-.955,6.446-.377,19.575-.377,19.575s.122,1.4,2.522,1.392a4.777,4.777,0,0,0,3.2-1.621l.191-14.941,2.134-10.6s2.055,8.611,2.707,11.7c.693,3.289,3.349,13.015,3.349,13.015s1.719,1.975,3.854.908,1.715-2.259,1.715-2.259a43.106,43.106,0,0,0-3.164-13.074c-.228-4.687-1.547-9.542-1.372-12.272Z" transform="translate(-4096.685 -4747.19)" fill="#0986b3"/>
      <path id="Path_2333" data-name="Path 2333" d="M4124.5,4538.2s-1.329-.066-2.7,2.512-2.684,5.322-2.684,5.322a8.652,8.652,0,0,1,4.17,2.287c2.973-2.687,3.458-8.866,1.215-10.122Z" transform="translate(-4080.236 -4430.239)" fill="#b7eaff"/>
      <path id="Path_2334" data-name="Path 2334" d="M4202.509,4517.844a21.141,21.141,0,0,0-1.435,4.063c-.686,2.63-.44,14.858-.44,14.858a12.134,12.134,0,0,0,7.578,1.611,6.433,6.433,0,0,0,4.259-1.98s1.686-11.974,1.458-13.69-3.817-5.744-3.817-5.744-4.745-.241-7.6.883Z" transform="translate(-4158.25 -4409.886)" fill="#b7eaff"/>
      <path id="Path_2335" data-name="Path 2335" d="M4309.522,4438.008l-.552,3.211s1.636,1.836,3.236.463a6.442,6.442,0,0,0,1.829-2l-.787-4.379-3.727,2.708Z" transform="translate(-4262.017 -4331.722)" fill="#f8ae9b"/>
      <path id="Path_2336" data-name="Path 2336" d="M4301.854,4568.928s2.067-3.11,3.7-3.982a9.915,9.915,0,0,1,2.517-1.034s-.6-1.23-.995-1.372a7.827,7.827,0,0,0-2.612,1.057,11.094,11.094,0,0,0-3.727,3.75c-1.295,2.287.166,2.9,1.115,1.581Z" transform="translate(-4253.647 -4453.546)" fill="#0986b3"/>
      <path id="Path_2337" data-name="Path 2337" d="M4225.588,4522.181a25.206,25.206,0,0,0-1.51,4.755c-.162,1.543.146,2.018.767,2.073s.655-1.047.839-2.275c.174-1.161,1.308-4.974,1.308-4.974Z" transform="translate(-4180.697 -4414.502)" fill="#0986b3"/>
      <path id="Path_2338" data-name="Path 2338" d="M4201.117,4646.915a4.862,4.862,0,0,1-3,1.027c-1.309-.144-3.195-1.418-3.094-5.56a39.288,39.288,0,0,1,.484-6.05l-5-2.193s-1.36,3.146-1.629,9.318-.381,8.3-.381,8.3a68,68,0,0,0,8.5,0,28.235,28.235,0,0,0,4.483-.718Z" transform="translate(-4146.664 -4522.099)" fill="#0986b3"/>
      <path id="Path_2339" data-name="Path 2339" d="M4234.434,4650.44c0,.255-.142.459-.317.459s-.316-.205-.316-.459.142-.46.316-.46S4234.434,4650.186,4234.434,4650.44Z" transform="translate(-4190.045 -4537.265)" fill="#fefefe"/>
      <path id="Path_2340" data-name="Path 2340" d="M4316.575,4688.442c-.148.206-.153.455-.011.558s.377.018.525-.188.153-.456.011-.559S4316.723,4688.235,4316.575,4688.442Z" transform="translate(-4269.188 -4573.869)" fill="#fefefe"/>
      <path id="Path_2341" data-name="Path 2341" d="M4223.918,4707.81c-.2,1.035-.1,4.294,1.745,4.784,1.674.444,2.107-1.529,2.493-3.056A16.792,16.792,0,0,1,4223.918,4707.81Z" transform="translate(-4180.513 -4592.634)" fill="#2f8eaa"/>
      <path id="Path_2342" data-name="Path 2342" d="M4238.523,4305.852a3.707,3.707,0,0,0-5.786,1.971c-1.239,3.508,1.936,7.89,3.628,7.145a7.112,7.112,0,0,0,3.5-3.745A5.546,5.546,0,0,0,4238.523,4305.852Z" transform="translate(-4188.76 -4207.093)" fill="#fac5b5"/>
      <path id="Path_2343" data-name="Path 2343" d="M4068,4818.077v-12.725l10.255-5.112v12Z" transform="translate(-4031.302 -4681.131)" fill="#dcaa6a"/>
      <path id="Path_2344" data-name="Path 2344" d="M3837.295,4818.077v-12.725l-10.255-5.112v12Z" transform="translate(-3800.596 -4681.131)" fill="#e9b77d"/>
      <path id="Path_2345" data-name="Path 2345" d="M4068,4799.822l0-12.833,10.255-5.929v12.82Z" transform="translate(-4031.302 -4662.767)" fill="#dba528"/>
      <path id="Path_2346" data-name="Path 2346" d="M3837.3,4799.822l0-12.833-10.255-5.929v12.82Z" transform="translate(-3800.596 -4662.767)" fill="#fac54b"/>
      <path id="Path_2347" data-name="Path 2347" d="M3827.04,4647.716l10.255,5.929,10.255-5.929-10.251-5.926Z" transform="translate(-3800.596 -4529.424)" fill="#ffd675"/>
      <path id="Path_2348" data-name="Path 2348" d="M4167.937,4836.276l-2.287,1.327v-3.745l2.287-1.329Z" transform="translate(-4124.796 -4712.047)" fill="#0986b3"/>
      <path id="Path_2349" data-name="Path 2349" d="M3937.442,4699.331l-10.24-5.92-2.292,1.324,10.245,5.93Z" transform="translate(-3894.301 -4578.847)" fill="#008fc8"/>
      <path id="Path_2350" data-name="Path 2350" d="M4099.92,5119.037v-.66l3.443-2v.669Z" transform="translate(-4061.863 -4983.817)" fill="#0986b3"/>
      <path id="Path_2351" data-name="Path 2351" d="M4099.92,5091.316v-.66l3.443-2v.669Z" transform="translate(-4061.863 -4957.277)" fill="#0986b3"/>
      <path id="Path_2352" data-name="Path 2352" d="M4253.45,5016.685v2.289l1.647-.953v-2.29Z" transform="translate(-4208.86 -4887.45)" fill="#0986b3"/>
      <path id="Path_2353" data-name="Path 2353" d="M3843.006,5011.122v2.385l-1.646-.951v-2.386Z" transform="translate(-3814.307 -4882.127)" fill="#0986b3"/>
      <path id="Path_2354" data-name="Path 2354" d="M3895.8,5041.731v2.386l-1.646-.952v-2.385Z" transform="translate(-3864.85 -4911.434)" fill="#0986b3"/>
      <path id="Path_2355" data-name="Path 2355" d="M3844.744,4824.6v3.428l-3.384-1.955v-3.433Z" transform="translate(-3814.307 -4702.578)" fill="#fefefe"/>
      <path id="Path_2356" data-name="Path 2356" d="M3851.232,4838.063v-.558l-2.662-1.535v.548Z" transform="translate(-3821.21 -4715.341)" fill="#0986b3"/>
      <path id="Path_2357" data-name="Path 2357" d="M4100.8,4796.859s-1.942,4.083-2.746,5.221a26.89,26.89,0,0,1-4.743,4.117,6.92,6.92,0,0,1-3.013.781c-.8-.076-1.346.318-.571.61a6.587,6.587,0,0,0,1.525.362,9.648,9.648,0,0,0-1.971,1.933c-.448.716-.83,2.03.907,1.649,1.4-.308,3.352-2.459,3.862-2.938.965-.9,4.8-2.977,5.66-3.589,1.224-.867,4.69-5.976,4.69-5.976s-1.067-2.709-3.6-2.171Z" transform="translate(-4051.312 -4677.827)" fill="#fac5b5"/>
      <path id="Path_2358" data-name="Path 2358" d="M4356.434,4614.427c-1.007-.812-3.161,1.935-4.3,3.65a23.565,23.565,0,0,0-2.059,4.282s1.377,1,2.61,1.778a20.061,20.061,0,0,0,2.126,1.146S4359.887,4617.209,4356.434,4614.427Z" transform="translate(-4301.368 -4503.085)" fill="#b7eaff"/>
      <path id="Path_2359" data-name="Path 2359" d="M4222.758,4286.162a3.133,3.133,0,0,0,3.082.934,6.839,6.839,0,0,0,2.382-.876l.285,1.859a1.624,1.624,0,0,0,.487-.18c.029-.736.291-.963.695-.745.458.248.477,1.3.477,1.3a3.806,3.806,0,0,0,.915-3.43c-.29-1.307-2.054-3.888-4.514-3.659a4.535,4.535,0,0,0-4.2,3.263,1.729,1.729,0,0,0,.388,1.54Z" transform="translate(-4179.062 -4184.319)" fill="#0d5069"/>
      <path id="Path_2360" data-name="Path 2360" d="M4135.982,4356.65s-3.159,2.225-3.7,2.7,2.5,2.523,4.653,1.838a25.376,25.376,0,0,0,5.4-3.083l-6.346-1.45Z" transform="translate(-4092.783 -4256.418)" fill="#2e6f8d"/>
      <path id="Path_2361" data-name="Path 2361" d="M4220.76,4259.813s3.6,2.239,5.852,1.6a7.982,7.982,0,0,0,2.859-1.2s-.2-4.7-4.329-4.7S4220.76,4259.813,4220.76,4259.813Z" transform="translate(-4177.56 -4159.583)" fill="#0986b3"/>
      <path id="Path_2362" data-name="Path 2362" d="M4300.142,4251.861c0,.19-.278.344-.621.344s-.62-.154-.62-.344c0-.146.167-.272.4-.321h.436c.235.049.4.174.4.321Z" transform="translate(-4252.375 -4155.782)" fill="#0d5069"/>
      <path id="Path_2363" data-name="Path 2363" d="M3388.441,5793.09c1.2-.6,2.338-1.333,1.973-2.017a1.213,1.213,0,0,0-.915-.507c-1.106.364-1.658.611-1.658.611a87.587,87.587,0,0,1,.589-9.079c.156-.876-4.036-.909-4.036-.909a63.643,63.643,0,0,0,0,9.293,9.6,9.6,0,0,1-.046,2.354c.286.124.875.38,1.314.58a3.331,3.331,0,0,0,2.779-.328Z" transform="translate(-3376.629 -5620.335)" fill="#fac5b5"/>
      <path id="Path_2364" data-name="Path 2364" d="M3383.129,5995.087c.4.954,1.325.865,3.193.193a16.115,16.115,0,0,0,4.2-2.143c1.178-.872,1.19-.988,1.346-1.578.219-.826-.987-1.289-2.991-.666-.2.061-.38.12-.551.177a1.212,1.212,0,0,1,.915.507c.364.684-.774,1.417-1.973,2.017a3.328,3.328,0,0,1-2.779.327c-.439-.2-1.028-.457-1.314-.58-.121.8-.29,1.173-.049,1.746Z" transform="translate(-3375.459 -5820.839)" fill="#0d5069"/>
      <path id="Path_2365" data-name="Path 2365" d="M3526.616,5804.079c1.2-.6,2.338-1.332,1.974-2.016a1.212,1.212,0,0,0-.916-.508c-1.1.364-1.657.611-1.657.611s.307-10.072.78-12.732c.155-.877-4.051.441-4.051.441a92.281,92.281,0,0,0-.177,11.6,9.656,9.656,0,0,1-.046,2.354c.286.123.875.38,1.313.579a3.322,3.322,0,0,0,2.779-.328Z" transform="translate(-3508.973 -5627.941)" fill="#fac5b5"/>
      <path id="Path_2366" data-name="Path 2366" d="M3520.178,6074.6c.4.955,1.325.865,3.193.193a16.1,16.1,0,0,0,4.2-2.143c1.179-.872,1.19-.988,1.346-1.578.218-.826-.987-1.289-2.991-.666-.2.061-.38.12-.551.176a1.214,1.214,0,0,1,.916.508c.364.684-.774,1.417-1.974,2.017a3.324,3.324,0,0,1-2.779.327c-.439-.2-1.028-.456-1.313-.58-.122.8-.289,1.173-.049,1.747Z" transform="translate(-3506.677 -5896.965)" fill="#0d5069"/>
      <path id="Path_2367" data-name="Path 2367" d="M3398.524,4522.238c.5.345,2.344.77,2.861,4.843.458,3.609-.337,4.55-1.07,4.855a8.443,8.443,0,0,1-1.846.163l.055,3.049a5.178,5.178,0,0,1-3.5,0l-1.714-.708a6.027,6.027,0,0,0,.558-3.152c-.14-2.479-1.017-6.009-.4-7.321A3.544,3.544,0,0,1,3398.524,4522.238Z" transform="translate(-3385.267 -4414.487)" fill="#fac5b5"/>
      <path id="Path_2368" data-name="Path 2368" d="M3323.355,4775.23s4.882,1.407,6.128,1.829c1.177.4,2.117,1.208,3.346,3.676s.323,6.207.323,6.207l-.371,6.741s-2.551,3.092-4.824,3.31c-3.1.3-3.441-1.4-3.441-1.4s-3.945-8.646-3.3-12.771a39.614,39.614,0,0,1,2.141-7.586Z" transform="translate(-3316.229 -4657.186)" fill="#fac54b"/>
      <path id="Path_2369" data-name="Path 2369" d="M3291.585,4503.572c-.131,1.4-1.278,1.815-2.3,2.884s-1.126,2.5-1.436,3.454.122,5.2-1.436,8.41c-1.658,3.416-3.788,4.157-3.788,4.157a31.734,31.734,0,0,1-4.014-10.073c-1.054-5.52,2.752-12.7,6.86-13.573,4.363-.921,6.382,1.871,6.113,4.742Z" transform="translate(-3275.336 -4392.376)" fill="#0d5069"/>
      <path id="Path_2370" data-name="Path 2370" d="M3525.248,4871.479c-1.009-.1-2.057,1.738-1.954,4.032.132,2.935,6.25,7.939,6.25,7.939,2.059,1.217,8.3-.591,9.795-.765s3.229.321,4.158.09c.883-.221,2.125-1.695,1.525-2.168-.481-.379-3.292-.386-3.292-.386a8.016,8.016,0,0,0,.522-1.539c.041-1.392-.642.16-1.525.873a4,4,0,0,1-2.438.933,22.385,22.385,0,0,1-7.391-.266s-3.716-8.559-5.65-8.742Z" transform="translate(-3509.769 -4749.335)" fill="#fac5b5"/>
      <path id="Path_2371" data-name="Path 2371" d="M3454.39,4496.583s3.966.331,3.659,3.764-.3,3.947-.3,3.947.738-2.045,1.1-3.609S3458.727,4495.53,3454.39,4496.583Z" transform="translate(-3443.804 -4390.214)" fill="#edb126"/>
      <path id="Path_2372" data-name="Path 2372" d="M3523.075,4642.984s-1.071-1.833-1.531,0a1.864,1.864,0,0,0,1.058,2.277Z" transform="translate(-3508.026 -4529.787)" fill="#fac5b5"/>
      <path id="Path_2373" data-name="Path 2373" d="M3335.936,5166.912a58.307,58.307,0,0,0-1.794,6.489c-1.043,6.023-.7,19.307-.7,19.307s5.436,3.1,9.188,2.853c5.474-.368,7.109-2.853,7.109-2.853s-2.216-12.845-2.589-15.583a43.821,43.821,0,0,0-3.072-10.574l-8.142.361Z" transform="translate(-3327.952 -5031.853)" fill="#fac54b"/>
      <path id="Path_2374" data-name="Path 2374" d="M3373.691,5179.688s3.664,1.274,6.288.391a17.692,17.692,0,0,0,3.479-1.439l-.322-1.51a17.978,17.978,0,0,1-4.531,1.223,10.041,10.041,0,0,1-4.9-.671l-.018,2.007Z" transform="translate(-3366.539 -5041.982)" fill="#edb126"/>
      <path id="Path_2375" data-name="Path 2375" d="M5229.259,3494.34l-52.279-30.682,87.943-51.617,52.274,30.682Z" transform="translate(-5093.087 -3352.008)" fill="#cee1f5"/>
      <path id="Path_2376" data-name="Path 2376" d="M3749.789,2874.215l23.007,2.246.4-.434v-45.4l-23.405-1.812-.4.432Z" transform="translate(-3726.25 -2793.608)" fill="#42a8c9"/>
      <path id="Path_2377" data-name="Path 2377" d="M3749.37,2884.376l23.407,1.813v-45.4l-23.407-1.812Z" transform="translate(-3726.231 -2803.335)" fill="#0986b3"/>
      <path id="Path_2378" data-name="Path 2378" d="M6671.283,2925.1l-30.41-17.51-.809-.465-1.8,1,31.217,17.973v5.7l1.806-1Z" transform="translate(-6492.18 -2868.585)" fill="#dba528"/>
      <path id="Path_2379" data-name="Path 2379" d="M6669.439,2948.713l-31.217-17.973v5.7l31.219,17.975Z" transform="translate(-6492.142 -2891.19)" fill="#c6c6c6"/>
      <path id="Path_2380" data-name="Path 2380" d="M6001.939,2343.213l-34.043-19.655a3.325,3.325,0,0,0-3.321.327l-13.446,7.769a5.326,5.326,0,0,0-2.4,4.151v32.625l34.043,19.655,19.166-44.872Z" transform="translate(-5831.994 -2309.551)" fill="#ffd675"/>
      <path id="Path_2381" data-name="Path 2381" d="M7169.726,3237.151l-6.886-4.361v-7.96l6.886,4.36Z" transform="translate(-6994.436 -3172.765)" fill="#0d5069"/>
      <path id="Path_2382" data-name="Path 2382" d="M6871.51,3309.868c0,3.983-2.437,8.714-5.683,11.379a11.172,11.172,0,0,1-1.488,1.04c-2.147,1.24-4.069,1.254-5.383.284a5.256,5.256,0,0,1-1.787-4.424,15.848,15.848,0,0,1,7.169-12.42,5.252,5.252,0,0,1,4.726-.665C6870.561,3305.716,6871.51,3307.387,6871.51,3309.868Z" transform="translate(-6701.774 -3249.288)" fill="#0d5069"/>
      <path id="Path_2383" data-name="Path 2383" d="M6916.741,3316.02l-10.131,17.547,5.07,2.927,10.131-17.547Z" transform="translate(-6749.109 -3260.074)" fill="#0d5069"/>
      <path id="Path_2384" data-name="Path 2384" d="M6983.479,3388.028c-2.5,1.443-4.525.272-4.525-2.614a10.006,10.006,0,0,1,4.525-7.839c2.5-1.443,4.527-.273,4.527,2.613a10,10,0,0,1-4.527,7.841Zm0,3.053a11.145,11.145,0,0,0,1.487-1.04c3.247-2.665,5.684-7.4,5.684-11.38,0-2.481-.95-4.152-2.446-4.8a5.256,5.256,0,0,0-4.725.665,15.844,15.844,0,0,0-7.169,12.42,5.259,5.259,0,0,0,1.787,4.425C6979.409,3392.333,6981.331,3392.32,6983.479,3391.081Z" transform="translate(-6815.843 -3315.154)" fill="#0d5069"/>
      <path id="Path_2385" data-name="Path 2385" d="M7042.965,3463.07c-1.716.991-3.108.187-3.108-1.795a6.869,6.869,0,0,1,3.108-5.384c1.718-.991,3.108-.188,3.108,1.794A6.867,6.867,0,0,1,7042.965,3463.07Zm0,1.637a10.006,10.006,0,0,0,4.527-7.841c0-2.886-2.027-4.056-4.527-2.613a10.006,10.006,0,0,0-4.525,7.84C7038.44,3464.979,7040.466,3466.15,7042.965,3464.707Z" transform="translate(-6875.33 -3391.833)" fill="#00abea"/>
      <path id="Path_2386" data-name="Path 2386" d="M7071.74,3502.465a6.869,6.869,0,0,1,3.108-5.384c1.717-.99,3.108-.188,3.108,1.795a6.868,6.868,0,0,1-3.108,5.384C7073.132,3505.251,7071.74,3504.447,7071.74,3502.465Z" transform="translate(-6907.213 -3433.024)" fill="#ededed"/>
      <path id="Path_2387" data-name="Path 2387" d="M6757.411,2823.53a12.771,12.771,0,0,1,.345-2.88,18.646,18.646,0,0,1,5.276-9.131,12.681,12.681,0,0,1,2.317-1.737,7.715,7.715,0,0,1,2.9-1.035c2.949-.365,5.04,1.736,5.04,5.611v1.8l2.006-1.158V2798.99l-6.4-12.518a2.441,2.441,0,0,0-.949-1.032,3.306,3.306,0,0,0-3.313.327l-13.448,7.764a5.3,5.3,0,0,0-2.4,4.152v32.625l8.629-4.981v-1.8Z" transform="translate(-6597.998 -2751.777)" fill="#fac54b"/>
      <path id="Path_2388" data-name="Path 2388" d="M6795.14,3265.407a.833.833,0,0,0,1.249.722l2.425-1.4a2.162,2.162,0,0,0,1.078-1.728,22.745,22.745,0,0,1,.328-2.836,20.628,20.628,0,0,1,5.853-10.134,15.672,15.672,0,0,1,1.542-1.267,2.571,2.571,0,0,0,1.089-2.092v-2.033l-13.563,7.829Z" transform="translate(-6642.383 -3191.732)" fill="#dba528"/>
      <path id="Path_2389" data-name="Path 2389" d="M7142.566,2890.975l-1.06.613a1.272,1.272,0,0,0-.636,1.1v12.544l7.854-4.534-4.75-9.307a1.013,1.013,0,0,0-1.408-.416Z" transform="translate(-6973.401 -2852.987)" fill="#0986b3"/>
      <path id="Path_2390" data-name="Path 2390" d="M7157.288,2912.958a12.294,12.294,0,0,0-4.618-5.536v-3.474a.775.775,0,0,1,.385-.667l1.06-.612.254-.069a.51.51,0,0,1,.457.279l2.931,5.726v2.993a1.4,1.4,0,0,0,.37.878l-.838.482Z" transform="translate(-6984.698 -2864.248)" fill="#008fc8"/>
      <path id="Path_2391" data-name="Path 2391" d="M6795.14,2952.308v12.452l13.564-7.829v-12.116a.671.671,0,0,0-1.007-.581l-11.843,6.837a1.426,1.426,0,0,0-.715,1.236Z" transform="translate(-6642.383 -2904.024)" fill="#0986b3"/>
      <path id="Path_2392" data-name="Path 2392" d="M6923.588,2986.634c-.842-3.855-3.332-7.255-6.588-8.32l6.277-3.624h0a12.954,12.954,0,0,1,1.6.577v10.621Z" transform="translate(-6759.058 -2933.27)" fill="#008fc8"/>
      <path id="Path_2393" data-name="Path 2393" d="M7066.1,2957.718h0a12.984,12.984,0,0,0-1.6-.578l1.345-.776.068,0c.114,0,.187.054.187.152Z" transform="translate(-6900.281 -2915.72)" fill="#008fc8"/>
      <path id="Path_2394" data-name="Path 2394" d="M5604.8,3901.05l-8.014-3.639-20.485,11.829,11.281-19.919,17.218,7.071Z" transform="translate(-5475.413 -3808.977)" fill="#202533"/>
      <path id="Path_2395" data-name="Path 2395" d="M5765.791,3952.82c0,3.983-2.437,8.714-5.683,11.38a11.034,11.034,0,0,1-1.486,1.039c-2.148,1.241-4.07,1.254-5.384.285a5.259,5.259,0,0,1-1.787-4.425,15.845,15.845,0,0,1,7.171-12.419,5.26,5.26,0,0,1,4.725-.665C5764.842,3948.669,5765.791,3950.34,5765.791,3952.82Z" transform="translate(-5643.11 -3864.878)" fill="#0d5069"/>
      <path id="Path_2396" data-name="Path 2396" d="M5811.03,3958.98l-10.13,17.547,5.07,2.927,10.131-17.546Z" transform="translate(-5690.456 -3875.672)" fill="#202533"/>
      <path id="Path_2397" data-name="Path 2397" d="M5877.761,4030.967c-2.5,1.443-4.526.273-4.526-2.613a10,10,0,0,1,4.526-7.839c2.5-1.444,4.526-.273,4.526,2.613A10,10,0,0,1,5877.761,4030.967Zm0,3.053a11.026,11.026,0,0,0,1.486-1.039c3.246-2.666,5.684-7.4,5.684-11.38,0-2.48-.949-4.152-2.444-4.806a5.257,5.257,0,0,0-4.726.666,15.848,15.848,0,0,0-7.17,12.418,5.26,5.26,0,0,0,1.786,4.425C5873.691,4035.273,5875.613,4035.261,5877.761,4034.02Z" transform="translate(-5757.18 -3930.732)" fill="#0d5069"/>
      <path id="Path_2398" data-name="Path 2398" d="M5937.247,4106.016c-1.717.992-3.109.188-3.109-1.8a6.87,6.87,0,0,1,3.109-5.383c1.717-.992,3.108-.188,3.108,1.794A6.872,6.872,0,0,1,5937.247,4106.016Zm0,1.636a10,10,0,0,0,4.525-7.839c0-2.885-2.025-4.057-4.525-2.612a10,10,0,0,0-4.526,7.839C5932.721,4107.926,5934.747,4109.1,5937.247,4107.652Z" transform="translate(-5816.666 -4007.418)" fill="#00abea"/>
      <path id="Path_2399" data-name="Path 2399" d="M5966.02,4145.412a6.87,6.87,0,0,1,3.109-5.383c1.716-.992,3.108-.188,3.108,1.795a6.872,6.872,0,0,1-3.108,5.383C5967.413,4148.2,5966.02,4147.395,5966.02,4145.412Z" transform="translate(-5848.548 -4048.609)" fill="#ededed"/>
      <path id="Path_2400" data-name="Path 2400" d="M5393.371,4168.139c0,3.983-2.437,8.715-5.683,11.381a11.119,11.119,0,0,1-1.486,1.039c-2.149,1.24-4.07,1.254-5.384.285a5.259,5.259,0,0,1-1.787-4.425A15.848,15.848,0,0,1,5386.2,4164a5.26,5.26,0,0,1,4.725-.665C5392.422,4163.987,5393.371,4165.66,5393.371,4168.139Z" transform="translate(-5286.539 -4071.035)" fill="#2b2b2b"/>
      <path id="Path_2401" data-name="Path 2401" d="M5438.6,4174.27l-10.13,17.547,5.071,2.927,10.129-17.546Z" transform="translate(-5333.875 -4081.8)" fill="#202533"/>
      <path id="Path_2402" data-name="Path 2402" d="M5505.341,4246.286c-2.5,1.443-4.526.273-4.526-2.613a10,10,0,0,1,4.525-7.84c2.5-1.443,4.526-.272,4.526,2.613A10.007,10.007,0,0,1,5505.341,4246.286Zm0,3.053a11.15,11.15,0,0,0,1.486-1.039c3.246-2.666,5.684-7.4,5.684-11.381,0-2.479-.948-4.152-2.445-4.8a5.261,5.261,0,0,0-4.726.666,15.846,15.846,0,0,0-7.169,12.419,5.26,5.26,0,0,0,1.786,4.425c1.314.968,3.237.955,5.384-.285Z" transform="translate(-5400.609 -4136.888)" fill="#0d5069"/>
      <path id="Path_2403" data-name="Path 2403" d="M5564.816,4321.318c-1.718.991-3.109.188-3.109-1.795a6.871,6.871,0,0,1,3.108-5.384c1.718-.991,3.109-.187,3.109,1.794A6.869,6.869,0,0,1,5564.816,4321.318Zm0,1.637a10,10,0,0,0,4.525-7.839c0-2.886-2.025-4.057-4.526-2.613a10,10,0,0,0-4.525,7.84C5560.29,4323.229,5562.316,4324.4,5564.816,4322.956Z" transform="translate(-5460.084 -4213.559)" fill="#00abea"/>
      <path id="Path_2404" data-name="Path 2404" d="M5593.59,4360.716a6.872,6.872,0,0,1,3.108-5.384c1.718-.991,3.11-.187,3.11,1.795a6.869,6.869,0,0,1-3.109,5.384c-1.718.991-3.109.188-3.109-1.795Z" transform="translate(-5491.967 -4254.75)" fill="#ededed"/>
      <path id="Path_2405" data-name="Path 2405" d="M5325.04,3621.117V3633.3l6.42-3.744a17.316,17.316,0,0,1,7.815-13.55l17.141-9.9c4.307-2.485,7.816-.459,7.816,4.526l21.636-12.455V3586l-60.827,35.117Z" transform="translate(-5234.846 -3518.565)" fill="#0986b3" stroke="#0986b3" stroke-miterlimit="10" stroke-width="3"/>
      <path id="Path_2406" data-name="Path 2406" d="M4464.78,3916.91l36.61,21.035v12.184l-36.61-21.139Z" transform="translate(-4411.196 -3835.392)" fill="#0d5069"/>
      <path id="Path_2407" data-name="Path 2407" d="M4341.666,2905.78v45.372l-42.275-24.411V2881.37Z" transform="translate(-4252.844 -2843.922)" fill="#4e687c"/>
      <path id="Path_2408" data-name="Path 2408" d="M4383.964,2983.76v40.818l-38.334-22.129V2961.63l35.355,20.414Z" transform="translate(-4297.116 -2920.766)" fill="#00abea"/>
      <path id="Path_2409" data-name="Path 2409" d="M4567.868,4127.691c-.275-.161-.5-.031-.5.287V4132a1.107,1.107,0,0,0,.5.865l1.084.625v-5.169Z" transform="translate(-4509.42 -4037.138)" fill="#fff"/>
      <path id="Path_2410" data-name="Path 2410" d="M4609.567,4146.832l-5.027-2.9v5.169l5.027,2.9c.276.159.5.03.5-.289V4147.7A1.1,1.1,0,0,0,4609.567,4146.832Z" transform="translate(-4545.008 -4052.751)" fill="#e8452e"/>
      <path id="Path_2411" data-name="Path 2411" d="M4561.522,4121.9l-.009.084V4126a.847.847,0,0,0,.363.63l6.111,3.526.083.032.009-.084v-4.016a.84.84,0,0,0-.364-.629l-6.111-3.528Zm6.552,8.292v.271l0-.273Zm0,.543a.718.718,0,0,1-.359-.106l-6.111-3.527a1.365,1.365,0,0,1-.634-1.1v-4.017a.578.578,0,0,1,.907-.524l6.111,3.529a1.36,1.36,0,0,1,.635,1.1v4.016A.567.567,0,0,1,4568.074,4130.737Z" transform="translate(-4503.292 -4031.145)" fill="#fff"/>
      <path id="Path_2412" data-name="Path 2412" d="M5055.938,4408.424c-.275-.159-.5-.031-.5.288v4.018a1.1,1.1,0,0,0,.5.863l4.864,2.809v-5.169Z" transform="translate(-4976.719 -4305.924)" fill="#e8452e"/>
      <path id="Path_2413" data-name="Path 2413" d="M5182.716,4476.679l-1.246-.719v5.169l1.246.72c.275.159.5.029.5-.289v-4.017A1.108,1.108,0,0,0,5182.716,4476.679Z" transform="translate(-5097.386 -4370.651)" fill="#fff"/>
      <path id="Path_2414" data-name="Path 2414" d="M5049.583,4402.642l-.01.084v4.018a.847.847,0,0,0,.364.628l6.112,3.528.083.031.008-.084v-4.017a.842.842,0,0,0-.363-.628l-6.112-3.528-.082-.031Zm6.552,8.291v.271l0-.272Zm0,.543a.711.711,0,0,1-.359-.1l-6.111-3.528a1.364,1.364,0,0,1-.635-1.1v-4.018a.578.578,0,0,1,.906-.523l6.112,3.528a1.366,1.366,0,0,1,.634,1.1v4.017a.566.566,0,0,1-.548.629Z" transform="translate(-4970.582 -4299.938)" fill="#fff"/>
      <path id="Path_2415" data-name="Path 2415" d="M7253.883,3136.475l-.274-.1a.409.409,0,0,1-.029-.577l1.962-2.171a.408.408,0,1,1,.605.547l-1.962,2.171a.4.4,0,0,1-.3.134Z" transform="translate(-7081.212 -3085.31)" fill="#c79158"/>
      <path id="Path_2416" data-name="Path 2416" d="M7276.55,2954.668l.551-.318.278.355-.559.567Z" transform="translate(-7103.307 -2913.796)" fill="#edad69"/>
      <path id="Path_2417" data-name="Path 2417" d="M7285.316,2953.394a.442.442,0,0,1,.447.044l2.477,1.43a1.4,1.4,0,0,1,.633,1.1v6.067a.386.386,0,0,1-.634.366l-2.477-1.43a1.4,1.4,0,0,1-.633-1.1V2953.8a.442.442,0,0,1,.186-.409Z" transform="translate(-7111.521 -2912.84)" fill="#edad69"/>
      <path id="Path_2418" data-name="Path 2418" d="M7343.725,3151.556l.551-.317-.638-.7-.448.367Z" transform="translate(-7167.11 -3101.636)" fill="#edad69"/>
      <path id="Path_2419" data-name="Path 2419" d="M7272.365,2960.891a.447.447,0,0,1,.447.044l2.476,1.43a1.4,1.4,0,0,1,.633,1.1v6.067a.385.385,0,0,1-.633.365l-2.476-1.429a1.4,1.4,0,0,1-.633-1.1V2961.3a.443.443,0,0,1,.186-.41Z" transform="translate(-7099.123 -2920.018)" fill="#c79158"/>
      <path id="Path_2420" data-name="Path 2420" d="M7281.116,2975.451l-.16-.054-2.477-1.429a1.165,1.165,0,0,1-.509-.883v-6.067c0-.118.034-.18.062-.2l.2.044,2.476,1.431a1.158,1.158,0,0,1,.511.882v6.068c0,.11-.031.178-.062.2l-.042.009Z" transform="translate(-7104.667 -2925.735)" fill="#0986b3"/>
      <path id="Path_2421" data-name="Path 2421" d="M7292.008,2991.3l-.928-.535c.277-2.37.235-4.553-1.32-6.051v-.538l1.988,1.171a.691.691,0,0,1,.261.449v5.5Z" transform="translate(-7115.955 -2942.356)" fill="#008fc8"/>
      <path id="Path_2422" data-name="Path 2422" d="M4380.985,2982.044l-6.439,3.717-2.9,1.667-26.016,15.02V2961.63Z" transform="translate(-4297.116 -2920.766)" fill="#0d5069"/>
      <path id="Path_2423" data-name="Path 2423" d="M4741.421,4144l1.565.905a1.416,1.416,0,0,1,.641,1.109v1.15l-2.847-1.643v-1.151C4740.78,4143.963,4741.067,4143.8,4741.421,4144Z" transform="translate(-4675.45 -4052.737)" fill="#202533"/>
      <path id="Path_2424" data-name="Path 2424" d="M4364.36,2001.4l-64.97,37.448,42.274,24.405,65.1-37.583Z" transform="translate(-4252.844 -2001.4)" fill="#80dbfc"/>
      <path id="Path_2425" data-name="Path 2425" d="M5357.879,2571.61v45.37l-65.1,37.594V2609.2Z" transform="translate(-5203.959 -2547.344)" fill="#00abea"/>
      <path id="Path_2426" data-name="Path 2426" d="M4339.692,2947.734l-38.334-22.129v-40.818l35.356,20.414,2.979,1.715Zm-40.3-66.364v45.371l42.275,24.411V2905.78l-42.275-24.409Z" transform="translate(-4252.844 -2843.922)" fill="#4e687c"/>
      <path id="Path_2427" data-name="Path 2427" d="M4339.692,2947.734l-38.334-22.129v-40.818l35.356,20.414,2.979,1.715Zm-40.3-66.364v45.371l42.275,24.411V2905.78l-42.275-24.409Z" transform="translate(-4252.844 -2843.922)" fill="#0986b3"/>
      <path id="Path_2428" data-name="Path 2428" d="M5293.794,3505.045l7.727,14.471h.975v-45.4l-8.7-14.47-1.014,0Z" transform="translate(-5203.959 -3397.592)" fill="#42a8c9"/>
      <path id="Path_2429" data-name="Path 2429" d="M5292.817,3505.15l8.7,14.471v-45.4l-8.741-14.466Z" transform="translate(-5203.959 -3397.697)" fill="#0986b3"/>
      <path id="Path_2430" data-name="Path 2430" d="M4282.146,2990.838a.767.767,0,0,1-.766-.768v-6.123a.766.766,0,1,1,1.533,0v6.123A.767.767,0,0,1,4282.146,2990.838Z" transform="translate(-4235.601 -2941.398)" fill="#42a8c9"/>
      <path id="Path_2431" data-name="Path 2431" d="M4282.146,3692.537a.767.767,0,0,1-.766-.767v-6.123a.766.766,0,1,1,1.533,0v6.123A.767.767,0,0,1,4282.146,3692.537Z" transform="translate(-4235.601 -3613.237)" fill="#42a8c9"/>
      <path id="Path_2432" data-name="Path 2432" d="M5275.527,3583.366a.767.767,0,0,1-.768-.768v-6.123a.767.767,0,0,1,1.535,0v6.123A.767.767,0,0,1,5275.527,3583.366Z" transform="translate(-5186.706 -3508.712)" fill="#42a8c9"/>
      <path id="Path_2433" data-name="Path 2433" d="M5275.527,4285.027a.767.767,0,0,1-.768-.767v-6.124a.767.767,0,0,1,1.535,0v6.124A.767.767,0,0,1,5275.527,4285.027Z" transform="translate(-5186.706 -4180.513)" fill="#42a8c9"/>
      <path id="Path_2434" data-name="Path 2434" d="M5114.2,3511.882l-.815.472-1.826,1.052-3.235,1.869v-8.221l.825-.476.395-.226,1.957-1.139,1.811-1.038.89-.517Z" transform="translate(-5027.349 -3439.729)" fill="#c1af93"/>
      <path id="Path_2435" data-name="Path 2435" d="M4831.14,3423.24v8.223l11.8,6.813v-8.223Z" transform="translate(-4761.965 -3362.731)" fill="#f8c44b"/>
      <path id="Path_2436" data-name="Path 2436" d="M4848.889,3340.25l-.874.5-1.811,1.036-1.972,1.132-1.22.693-8.294-4.782-3.5-2.023,3.477-1.993,1.81-1.036,1.422-.816,10.96,6.327Z" transform="translate(-4762.042 -3276.293)" fill="#ffd675"/>
      <path id="Path_2437" data-name="Path 2437" d="M4926.287,3359.139v8.134l-1.825,1.052v-8.156l-11.552-7,1.81-1.036,11.493,6.965Z" transform="translate(-4840.255 -3294.647)" fill="#fff"/>
      <path id="Path_2438" data-name="Path 2438" d="M4579.314,3584.565v10.118l-4.81-2.775-1.158-.672-3.757-2.168V3578.95l3.784,2.186,1.145.659Z" transform="translate(-4511.545 -3511.814)" fill="#dac6a7"/>
      <path id="Path_2439" data-name="Path 2439" d="M4579.314,3584.565v10.118l-4.81-2.775-1.158-.672-3.757-2.168V3578.95l3.784,2.186,1.145.659Z" transform="translate(-4511.545 -3511.814)" fill="#f8c44b"/>
      <path id="Path_2440" data-name="Path 2440" d="M4807.82,3578.95v10.119l-4.06,2.344-1.158.667-4.512,2.6v-10.118l4.512-2.6,1.158-.667Z" transform="translate(-4730.321 -3511.814)" fill="#c1af93"/>
      <path id="Path_2441" data-name="Path 2441" d="M4807.82,3578.95v10.119l-4.06,2.344-1.158.667-4.512,2.6v-10.118l4.512-2.6,1.158-.667Z" transform="translate(-4730.321 -3511.814)" fill="#dba528"/>
      <path id="Path_2442" data-name="Path 2442" d="M4589.044,3452.6l-4.06,2.339-1.158.672-4.512,2.6-4.8-2.771-1.145-.659-3.784-2.186,4.763-2.747,1.144-.662,3.817-2.207,3.548,2.049,1.145.662Z" transform="translate(-4511.545 -3385.461)" fill="#ffecc7"/>
      <path id="Path_2443" data-name="Path 2443" d="M4589.044,3452.6l-4.06,2.339-1.158.672-4.512,2.6-4.8-2.771-1.145-.659-3.784-2.186,4.763-2.747,1.144-.662,3.817-2.207,3.548,2.049,1.145.662Z" transform="translate(-4511.545 -3385.461)" fill="#ffd675"/>
      <path id="Path_2444" data-name="Path 2444" d="M4692.132,3504.579V3514.7l-1.158.667v-10.137l-4.776-2.9-1.117-.677-3.58-2.168,1.145-.662,3.553,2.154,1.117.677Z" transform="translate(-4618.693 -3435.104)" fill="#fff"/>
      <path id="Path_2445" data-name="Path 2445" d="M4668.531,3495.792l-3.84,2.325-1.117.677-4.531,2.748-.014,10.113-1.158-.672V3500.9l4.586-2.78,1.117-.677,3.813-2.311Z" transform="translate(-4596.069 -3431.562)" fill="#fff"/>
      <path id="Path_2446" data-name="Path 2446" d="M4920.382,3637.97v11.814l-4.863-2.8-1.825-1.052-4.324-2.5V3631.61l4.324,2.5,1.825,1.052Z" transform="translate(-4836.866 -3562.234)" fill="#f8c44b"/>
      <path id="Path_2447" data-name="Path 2447" d="M5171.461,3747.661l-3.331,1.927v-11.814l3.331-1.924Z" transform="translate(-5084.614 -3662.038)" fill="#dba528"/>
      <path id="Path_2448" data-name="Path 2448" d="M4923.713,3471.359l-3.332,1.921-4.863-2.782-1.825-1.052-4.324-2.475,4-2.344,1.8-1.036,6.163-3.557.751-.434,1.625.938Z" transform="translate(-4836.866 -3397.544)" fill="#ffd675"/>
      <path id="Path_2449" data-name="Path 2449" d="M5020.98,3548.031l-2.762,1.675-1.767,1.066-3.665,2.22v11.916l-1.826-1.052v-11.894l3.731-2.256,1.759-1.074,4.529-2.742Z" transform="translate(-4934.132 -3480.162)" fill="#fff"/>
      <path id="Path_2450" data-name="Path 2450" d="M5013.752,3560.695l-4.53-2.742-1.759-1.066-4.052-2.46,1.8-1.037,4.009,2.423,1.76,1.074,2.77,1.674Z" transform="translate(-4926.904 -3487.342)" fill="#fff"/>
      <path id="Path_2451" data-name="Path 2451" d="M5192.966,3461.472l-2.376-1.437.751-.434,1.625.938Z" transform="translate(-5106.118 -3397.544)" fill="#fff"/>
      <path id="Path_2452" data-name="Path 2452" d="M5159.656,4010.554l-.622.358-3.234,1.868v-8.221l.825-.475.4-.226,1.956-1.139.681-.389Z" transform="translate(-5072.809 -3917.177)" fill="#dba528"/>
      <path id="Path_2453" data-name="Path 2453" d="M4878.59,3894.54v8.224l11.8,6.812v-8.223Z" transform="translate(-4807.395 -3813.975)" fill="#f8c44b"/>
      <path id="Path_2454" data-name="Path 2454" d="M4894.349,3800.191l-.665.381-1.971,1.131-1.22.694-8.3-4.783-3.5-2.022,3.477-1.993,1.81-1.037,2.4-1.373,7.967,4.6Z" transform="translate(-4807.501 -3715.022)" fill="#ffd675"/>
      <path id="Path_2455" data-name="Path 2455" d="M4972.562,3839.287l-.622.358v-8.156l-11.55-7,1.81-1.037,10.362,6.28Z" transform="translate(-4885.714 -3745.91)" fill="#fff"/>
    </g>
  </g>
</svg>
