<svg xmlns="http://www.w3.org/2000/svg" width="24" height="23.011" viewBox="0 0 24 23.011">
  <g id="iconfinder_star-outline_216469" transform="translate(-2.648 -3.034)">
    <g id="Group_57" data-name="Group 57" transform="translate(2.648 3.034)">
      <path id="Path_51" data-name="Path 51" d="M20.879,26.045a1.933,1.933,0,0,1-.829-.187,1.066,1.066,0,0,1-.133-.065l-5.27-3.007-5.27,3.008a1.493,1.493,0,0,1-.136.068,1.955,1.955,0,0,1-1.952-.184,1.931,1.931,0,0,1-.752-1.936l1.228-5.957-2.056-1.87L3.277,13.7a.97.97,0,0,1-.1-.105,1.916,1.916,0,0,1,1.052-3.209,1.117,1.117,0,0,1,.131-.023L10.392,9.7l2.5-5.531a.887.887,0,0,1,.077-.141,1.921,1.921,0,0,1,3.36,0c.027.046.053.094.077.144L18.9,9.7l6.033.669a1.031,1.031,0,0,1,.133.022,1.922,1.922,0,0,1,1.05,3.216c-.031.033-.065.069-.1.1L21.53,17.791l1.228,5.944A1.943,1.943,0,0,1,22,25.685,1.91,1.91,0,0,1,20.879,26.045ZM10.422,17.622c-.05.234-.6,2.882-1.084,5.238l4.675-2.665a1.282,1.282,0,0,1,1.27,0l4.675,2.663-1.089-5.266a1.28,1.28,0,0,1,.4-1.209l3.978-3.621-5.349-.592a1.284,1.284,0,0,1-1.028-.749l-2.217-4.9-2.215,4.9a1.292,1.292,0,0,1-1.028.749l-5.349.592,3.978,3.621A1.277,1.277,0,0,1,10.422,17.622Z" transform="translate(-2.648 -3.034)" fill="#fff"/>
    </g>
  </g>
</svg>
