<svg xmlns="http://www.w3.org/2000/svg" width="26" height="21.129" viewBox="0 0 26 21.129">
  <path id="iconfinder_03-twitter_104501" d="M29.574,12.827a10.614,10.614,0,0,1-3.064.84,5.344,5.344,0,0,0,2.345-2.951,10.678,10.678,0,0,1-3.387,1.3,5.339,5.339,0,0,0-9.089,4.865,15.145,15.145,0,0,1-11-5.573,5.341,5.341,0,0,0,1.651,7.122,5.319,5.319,0,0,1-2.416-.668c0,.022,0,.045,0,.068A5.338,5.338,0,0,0,8.9,23.054a5.363,5.363,0,0,1-1.405.187,5.285,5.285,0,0,1-1-.1,5.34,5.34,0,0,0,4.983,3.7,10.764,10.764,0,0,1-7.9,2.209,15.1,15.1,0,0,0,8.177,2.4A15.073,15.073,0,0,0,26.928,16.278q0-.347-.015-.691A10.8,10.8,0,0,0,29.574,12.827Z" transform="translate(-3.574 -10.326)" fill="#fff"/>
</svg>
