<svg xmlns="http://www.w3.org/2000/svg" width="43.2" height="54" viewBox="0 0 43.2 54">
  <g id="iconfinder_3-User-2_3900044" transform="translate(-5 -1)">
    <path id="Path_1" data-name="Path 1" d="M35.15,27.406A10.8,10.8,0,0,0,39.2,19V10a9,9,0,0,0-9-9H23a9,9,0,0,0-9,9v9a10.8,10.8,0,0,0,4.05,8.406A19.8,19.8,0,0,0,5,46v3.6A5.4,5.4,0,0,0,10.4,55H42.8a5.4,5.4,0,0,0,5.4-5.4V46A19.8,19.8,0,0,0,35.15,27.406ZM17.6,19V10A5.4,5.4,0,0,1,23,4.6h7.2A5.4,5.4,0,0,1,35.6,10v9c0,3.976-1.25,7.139-9,7.2S17.6,22.976,17.6,19Zm27,30.6a1.8,1.8,0,0,1-1.8,1.8H10.4a1.8,1.8,0,0,1-1.8-1.8V46c0-8.947,4.881-16.284,18-16.2s18,7.253,18,16.2Z" transform="translate(0 0)" fill="#000"/>
  </g>
</svg>
