<svg xmlns="http://www.w3.org/2000/svg" xmlns:xlink="http://www.w3.org/1999/xlink" width="24" height="24" viewBox="0 0 24 24">
  <defs>
    <clipPath id="clip-path">
      <rect id="Rectangle_173" data-name="Rectangle 173" width="24" height="24" transform="translate(-9393 -15405)" fill="#fff"/>
    </clipPath>
  </defs>
  <g id="Mask_Group_9" data-name="Mask Group 9" transform="translate(9393 15405)" clip-path="url(#clip-path)">
    <g id="shopping-cart_1_" data-name="shopping-cart (1)" transform="translate(-9393 -15405)">
      <g id="Group_150" data-name="Group 150">
        <path id="Path_577" data-name="Path 577" d="M19.63,15.693a4.287,4.287,0,0,0,1.528-2.167L24,5.114H5.735l-.2-2.235A3.148,3.148,0,0,0,2.4.008H0V1.882H2.4A1.268,1.268,0,0,1,3.667,3.046L5.133,19.3v.009a3.136,3.136,0,0,0,2.6,2.79,2.763,2.763,0,0,0,5.221.061h2.2a2.764,2.764,0,1,0,0-1.874h-2.2a2.763,2.763,0,0,0-5.159-.106A1.27,1.27,0,0,1,7,19.131l-.233-2.588H17.1A4.188,4.188,0,0,0,19.63,15.693Zm-1.877,4.645a.89.89,0,1,1-.89.89A.891.891,0,0,1,17.753,20.338Zm-7.4,0a.89.89,0,1,1-.89.89A.891.891,0,0,1,10.352,20.338ZM6.6,14.67h0L5.9,6.988H21.389l-2.01,5.95-.008.024A2.412,2.412,0,0,1,17.1,14.67Z"/>
      </g>
    </g>
  </g>
</svg>
