<svg xmlns="http://www.w3.org/2000/svg" xmlns:xlink="http://www.w3.org/1999/xlink" width="24" height="24" viewBox="0 0 24 24">
  <defs>
    <clipPath id="clip-path">
      <rect id="Rectangle_171" data-name="Rectangle 171" width="24" height="24" fill="#fff"/>
    </clipPath>
  </defs>
  <g id="Mask_Group_7" data-name="Mask Group 7" clip-path="url(#clip-path)">
    <g id="telephone" transform="translate(0.003)">
      <g id="Group_145" data-name="Group 145">
        <path id="Path_575" data-name="Path 575" d="M1.169,3.133,4.313,0l6.529,6.519L8.311,9.133A17.853,17.853,0,0,0,11.224,12.9a18.135,18.135,0,0,0,3.782,2.931l2.563-2.53L24,19.687,20.87,22.835a3.96,3.96,0,0,1-4.526.771,34.745,34.745,0,0,1-9.274-6.673A34.747,34.747,0,0,1,.4,7.659,3.923,3.923,0,0,1,0,5.943,3.973,3.973,0,0,1,1.169,3.133ZM2.083,6.84A32.851,32.851,0,0,0,8.4,15.608a32.85,32.85,0,0,0,8.767,6.313,2.084,2.084,0,0,0,2.38-.408l1.8-1.817-3.783-3.76L15.381,18.09l-.584-.26a18.136,18.136,0,0,1-4.9-3.608,17.814,17.814,0,0,1-3.588-4.88l-.253-.576L8.213,6.541l-3.9-3.895L2.492,4.459A2.085,2.085,0,0,0,2.083,6.84Z" transform="translate(-0.003)"/>
      </g>
    </g>
  </g>
</svg>
