<svg xmlns="http://www.w3.org/2000/svg" xmlns:xlink="http://www.w3.org/1999/xlink" width="24" height="24" viewBox="0 0 24 24">
  <defs>
    <clipPath id="clip-path">
      <rect id="Rectangle_174" data-name="Rectangle 174" width="24" height="24" transform="translate(-9360 -15405)" fill="#fff"/>
    </clipPath>
  </defs>
  <g id="Mask_Group_10" data-name="Mask Group 10" transform="translate(9360 15405)" clip-path="url(#clip-path)">
    <g id="heart" transform="translate(-9360 -15405)">
      <g id="Group_151" data-name="Group 151">
        <path id="Path_578" data-name="Path 578" d="M22.11,3.865a6.362,6.362,0,0,0-4.578-1.852A5.885,5.885,0,0,0,12,5.469,5.885,5.885,0,0,0,6.469,2.014,6.362,6.362,0,0,0,1.89,3.865,6.874,6.874,0,0,0,0,8.823c0,2.388,1.518,5.016,4.511,7.81a37.809,37.809,0,0,0,6.257,4.641l.764.442.468.27.468-.27.764-.442a37.821,37.821,0,0,0,6.257-4.641C22.482,13.839,24,11.212,24,8.823A6.874,6.874,0,0,0,22.11,3.865Zm-3.9,11.4a35.782,35.782,0,0,1-5.92,4.391l-.29.168-.29-.168a35.779,35.779,0,0,1-5.92-4.391c-2.561-2.391-3.915-4.617-3.915-6.439,0-2.905,1.889-4.935,4.594-4.935A4.008,4.008,0,0,1,10.3,6.271a7.705,7.705,0,0,1,.76,2.633l.036,0h1.835a7.751,7.751,0,0,1,.737-2.585,4.063,4.063,0,0,1,3.859-2.428c2.7,0,4.594,2.029,4.594,4.935C22.125,10.645,20.771,12.872,18.21,15.262Z"/>
      </g>
    </g>
  </g>
</svg>
