<svg xmlns="http://www.w3.org/2000/svg" width="24" height="24" viewBox="0 0 24 24">
  <g id="Group_10" data-name="Group 10" transform="translate(-30 -213)">
    <path id="iconfinder_interface-25_809308" d="M23,4H20V1a.945.945,0,0,0-1-1H1A.945.945,0,0,0,0,1V19a.945.945,0,0,0,1,1H4v3a.945.945,0,0,0,1,1H23a.945.945,0,0,0,1-1V5A.945.945,0,0,0,23,4ZM4,5V18H2V2H18V4H5A.945.945,0,0,0,4,5ZM22,22H6V6H22Z" transform="translate(30 213)" fill="#555"/>
    <path id="Path_5" data-name="Path 5" d="M35.2,31.2H32.8V28.8a.8.8,0,0,0-1.6,0v2.4H28.8a.8.8,0,1,0,0,1.6h2.4v2.4a.8.8,0,1,0,1.6,0V32.8h2.4a.8.8,0,0,0,0-1.6Z" transform="translate(12 195)" fill="#555"/>
  </g>
</svg>
