<svg xmlns="http://www.w3.org/2000/svg" width="29.998" height="29.99" viewBox="0 0 29.998 29.99">
  <path id="bell" d="M21.984,31.96c0,.014,0,.027,0,.042a2.99,2.99,0,1,1-5.98,0c0-.014,0-.027,0-.042C6.45,31.7,4,30.14,4,28.253a2.049,2.049,0,0,1,.886-1.645c4.521-5.036,5.864-3.642,5.864-11.1,0-4.974.2-9.533,6.193-10.354a15.025,15.025,0,0,1,4.113,0c5.99.821,6.193,5.381,6.193,10.354,0,7.482,1.35,6.054,5.9,11.144a2.024,2.024,0,0,1,.846,1.6C34,30.139,31.483,31.7,21.984,31.96ZM19,33.5a1.5,1.5,0,0,0,1.5-1.5s0-.009,0-.014C20,32,19.521,32,19,32s-1-.007-1.494-.014c0,0,0,.009,0,.014A1.5,1.5,0,0,0,19,33.5Zm13.2-5.691s-1.141-1.285-3.013-2.988c-2.556-2.329-3.44-3.432-3.44-9.317,0-5.748-.313-9-6.749-9s-6.749,3.252-6.749,9c0,5.886-.885,6.99-3.442,9.32C6.972,26.5,5.818,27.782,5.818,27.782c-.318.253-.318.4-.318.471,0,.092.154,2.252,13.5,2.252s13.5-2.16,13.5-2.252C32.5,28.193,32.5,28.053,32.2,27.811Z" transform="translate(-4 -5.01)" fill="#828db1" fill-rule="evenodd"/>
</svg>
