<svg xmlns="http://www.w3.org/2000/svg" width="20.577" height="24" viewBox="0 0 20.577 24">
  <g id="Fill" transform="translate(-3.993 -2)">
    <path id="Path_12" data-name="Path 12" d="M23.765,2H16V3.714h7.765a.86.86,0,0,1,.863.857V23.429a.86.86,0,0,1-.863.857H16V26h7.765a2.58,2.58,0,0,0,2.588-2.571V4.571A2.58,2.58,0,0,0,23.765,2Z" transform="translate(-1.783)" fill="#555"/>
    <path id="Path_13" data-name="Path 13" d="M19.168,15.978V14.252H6.588L10.039,10.8,8.814,9.55,4.5,13.864a1.726,1.726,0,0,0,0,2.442L8.814,20.62l1.225-1.191L6.588,15.978Z" transform="translate(0 -1.115)" fill="#555"/>
  </g>
</svg>
