<svg xmlns="http://www.w3.org/2000/svg" width="84" height="64.184" viewBox="0 0 84 64.184">
  <g id="iconfinder_picture_1814111" transform="translate(-8.1 -13.8)">
    <g id="Icon-Image" transform="translate(8.1 13.8)">
      <path id="Fill-12" d="M-193.265-154.016h-69.269a7.41,7.41,0,0,1-7.365-7.365v-49.453a7.41,7.41,0,0,1,7.365-7.365h69.269a7.41,7.41,0,0,1,7.365,7.365v49.453a7.41,7.41,0,0,1-7.365,7.365Zm-69.445-59.449a2.4,2.4,0,0,0-2.455,2.455v49.453a2.4,2.4,0,0,0,2.455,2.455h69.269a2.4,2.4,0,0,0,2.455-2.455V-211.01a2.4,2.4,0,0,0-2.455-2.455Z" transform="translate(269.9 218.2)" fill="#828db1"/>
      <path id="Fill-13" d="M-235.79-195.28a8.585,8.585,0,0,1-8.61-8.61,8.686,8.686,0,0,1,8.61-8.61,8.686,8.686,0,0,1,8.61,8.61,8.686,8.686,0,0,1-8.61,8.61Zm0-13.306a4.543,4.543,0,0,0-4.54,4.54,4.543,4.543,0,0,0,4.54,4.54,4.543,4.543,0,0,0,4.54-4.54,4.543,4.543,0,0,0-4.54-4.54Z" transform="translate(290.549 222.957)" fill="#828db1"/>
      <path id="Fill-14" d="M-209.858-167.795l-36.161-33.97-20.663,19.1-2.818-2.974,23.481-21.759,38.979,36.631-2.818,2.974" transform="translate(270.126 231.196)" fill="#828db1"/>
      <path id="Fill-15" d="M-215.266-183.872l-12.054-9.706-10.019,8.3L-240-188.568l12.68-10.332,14.558,11.9-2.5,3.131" transform="translate(295.823 234.037)" fill="#828db1"/>
    </g>
  </g>
</svg>
