<svg xmlns="http://www.w3.org/2000/svg" width="129.844" height="54.048" viewBox="0 0 129.844 54.048">
  <g id="Group_18" data-name="Group 18" transform="translate(-149.859 -52)">
    <path id="Path_19" data-name="Path 19" d="M15.109-17.942a7.167,7.167,0,0,1,5.706,2.288,9.571,9.571,0,0,1,2.111,6.568l0,12.144h-6.39l0-11.4a4.587,4.587,0,0,0-1.1-3.265A3.831,3.831,0,0,0,12.5-12.781a4,4,0,0,0-3.083,1.232,4.977,4.977,0,0,0-1.14,3.508l0,11.1H1.891l0-21h6.39v3.93A6.872,6.872,0,0,1,10.95-16.96,7.78,7.78,0,0,1,15.109-17.942ZM61.061-3.227l4.516-14.715h6.8l-7.394,21H57.062l-7.4-21h6.8ZM28.876,15.058a7.863,7.863,0,0,1,6.054,2.37,9.3,9.3,0,0,1,2.2,6.587V36.105H30.782V24.76a4.245,4.245,0,0,0-1.065-3.079,3.842,3.842,0,0,0-2.9-1.1,3.924,3.924,0,0,0-3.008,1.176,4.642,4.642,0,0,0-1.1,3.3V36.105H16.32V24.76a4.29,4.29,0,0,0-1.046-3.079,3.78,3.78,0,0,0-2.877-1.1A4.02,4.02,0,0,0,9.37,21.738a4.581,4.581,0,0,0-1.121,3.321V36.105H1.859V15.047h6.39v3.78a6.217,6.217,0,0,1,2.522-2.762,7.66,7.66,0,0,1,3.98-1.008,8.034,8.034,0,0,1,4.223,1.1,6.918,6.918,0,0,1,2.765,3.153,8.347,8.347,0,0,1,2.971-3.1A7.818,7.818,0,0,1,28.876,15.058Zm67.357,0,.018,21h-6.39l-.018-21Z" transform="translate(148 69.942)" fill="#fff"/>
    <path id="Path_25" data-name="Path 25" d="M73.346,15.058a7.462,7.462,0,0,1,4.074.95A6.221,6.221,0,0,1,79.9,18.924L79.887,7.058H86.21l.011,29H79.9V32.07a6.221,6.221,0,0,1-2.477,2.917,7.477,7.477,0,0,1-4.067,1.071,8.365,8.365,0,0,1-4.566-1.274,8.719,8.719,0,0,1-3.18-3.674A12.719,12.719,0,0,1,64.442,25.5a12.69,12.69,0,0,1,1.165-5.631,8.74,8.74,0,0,1,3.18-3.656A8.26,8.26,0,0,1,73.346,15.058Zm2.041,5.418A4.262,4.262,0,0,0,72.115,21.8,5.207,5.207,0,0,0,70.876,25.5a5.207,5.207,0,0,0,1.239,3.693,4.647,4.647,0,0,0,6.545-.037A5.142,5.142,0,0,0,79.935,25.5a5.127,5.127,0,0,0-1.276-3.674A4.306,4.306,0,0,0,75.387,20.475Z" transform="translate(148.208 69.942)" fill="#fff"/>
    <path id="Path_24" data-name="Path 24" d="M60.861,24.969a8.649,8.649,0,0,1-.184,1.689H46.45a4.744,4.744,0,0,0,1.176,3.323,3.8,3.8,0,0,0,2.72,1.01,3.722,3.722,0,0,0,2.316-.7,3.257,3.257,0,0,0,1.213-1.8H60.53a8.677,8.677,0,0,1-1.765,3.873,9.4,9.4,0,0,1-3.456,2.68,11.816,11.816,0,0,1-10.018-.294A9.056,9.056,0,0,1,41.635,31.1a11.322,11.322,0,0,1-1.323-5.58,11.424,11.424,0,0,1,1.305-5.6,8.938,8.938,0,0,1,3.658-3.635,12.084,12.084,0,0,1,10.735-.018,8.825,8.825,0,0,1,3.584,3.506A10.425,10.425,0,0,1,60.861,24.969Zm-6.36-.955a3.771,3.771,0,0,0-1.084-3.029,4,4,0,0,0-2.776-1.01A4.12,4.12,0,0,0,47.774,21a4.3,4.3,0,0,0-1.287,3.01Z" transform="translate(148.189 69.98)" fill="#fff"/>
    <path id="Path_21" data-name="Path 21" d="M36.722-18.08a11.543,11.543,0,0,1,5.457,1.266,9.288,9.288,0,0,1,3.785,3.651,10.953,10.953,0,0,1,1.378,5.578,10.953,10.953,0,0,1-1.378,5.578,9.288,9.288,0,0,1-3.785,3.651A11.543,11.543,0,0,1,36.722,2.91a11.652,11.652,0,0,1-5.475-1.266,9.259,9.259,0,0,1-3.8-3.651,10.953,10.953,0,0,1-1.378-5.578,10.953,10.953,0,0,1,1.378-5.578,9.259,9.259,0,0,1,3.8-3.651A11.652,11.652,0,0,1,36.722-18.08Zm0,5.431a4.006,4.006,0,0,0-3.031,1.3,5.273,5.273,0,0,0-1.231,3.761A5.2,5.2,0,0,0,33.69-3.842a4.034,4.034,0,0,0,3.031,1.284,3.975,3.975,0,0,0,3.013-1.284,5.255,5.255,0,0,0,1.213-3.743,5.323,5.323,0,0,0-1.213-3.761A3.949,3.949,0,0,0,36.722-12.649Z" transform="translate(148 70.08)" fill="#fff"/>
    <path id="Path_20" data-name="Path 20" d="M82.409-18.08a7.424,7.424,0,0,1,4.039,1.063,6.4,6.4,0,0,1,2.5,2.9v-3.923h6.241V2.92H88.944V-1.068a6.4,6.4,0,0,1-2.5,2.9A7.446,7.446,0,0,1,82.406,2.92a8.316,8.316,0,0,1-4.531-1.293,8.657,8.657,0,0,1-3.157-3.648,12.629,12.629,0,0,1-1.156-5.573,12.6,12.6,0,0,1,1.156-5.591,8.678,8.678,0,0,1,3.157-3.63A8.305,8.305,0,0,1,82.409-18.08Zm2.019,5.5a4.232,4.232,0,0,0-3.249,1.32,5.17,5.17,0,0,0-1.23,3.666,5.17,5.17,0,0,0,1.23,3.666,4.232,4.232,0,0,0,3.249,1.32,4.247,4.247,0,0,0,3.249-1.357,5.105,5.105,0,0,0,1.267-3.63,5.091,5.091,0,0,0-1.267-3.648A4.276,4.276,0,0,0,84.428-12.58Z" transform="translate(149 70.08)" fill="#fff"/>
    <path id="Path_23" data-name="Path 23" d="M82.409-18.08a7.424,7.424,0,0,1,4.039,1.063,6.4,6.4,0,0,1,2.5,2.9v-3.923h6.241V2.92H88.944V-1.068a6.4,6.4,0,0,1-2.5,2.9A7.446,7.446,0,0,1,82.406,2.92a8.316,8.316,0,0,1-4.531-1.293,8.657,8.657,0,0,1-3.157-3.648,12.629,12.629,0,0,1-1.156-5.573,12.6,12.6,0,0,1,1.156-5.591,8.678,8.678,0,0,1,3.157-3.63A8.305,8.305,0,0,1,82.409-18.08Zm2.019,5.5a4.232,4.232,0,0,0-3.249,1.32,5.17,5.17,0,0,0-1.23,3.666,5.17,5.17,0,0,0,1.23,3.666,4.232,4.232,0,0,0,3.249,1.32,4.247,4.247,0,0,0,3.249-1.357,5.105,5.105,0,0,0,1.267-3.63,5.091,5.091,0,0,0-1.267-3.648A4.276,4.276,0,0,0,84.428-12.58Z" transform="translate(174.438 103.08)" fill="#fff"/>
    <path id="Path_26" data-name="Path 26" d="M3.315.107a3.5,3.5,0,1,1-3.5,3.5A3.5,3.5,0,0,1,3.315.107Z" transform="translate(272.888 98.877)" fill="#fff"/>
    <path id="Path_22" data-name="Path 22" d="M3.175,0A3.175,3.175,0,1,1,0,3.175,3.175,3.175,0,0,1,3.175,0Z" transform="translate(237.92 76.984)" fill="#fff"/>
  </g>
</svg>
