<svg xmlns="http://www.w3.org/2000/svg" width="24" height="19.636" viewBox="0 0 24 19.636">
  <path id="iconfinder_mail_227579" d="M24.727,12H7.273A3.273,3.273,0,0,0,4,15.273V28.364a3.273,3.273,0,0,0,3.273,3.273H24.727A3.273,3.273,0,0,0,28,28.364V15.273A3.273,3.273,0,0,0,24.727,12Zm0,2.182a1.081,1.081,0,0,1,.355.064L16,21.512,6.917,14.246a1.082,1.082,0,0,1,.355-.064Zm0,15.273H7.273a1.091,1.091,0,0,1-1.091-1.091V16.452l9.137,7.309a1.091,1.091,0,0,0,1.363,0l9.137-7.309V28.364A1.091,1.091,0,0,1,24.727,29.455Z" transform="translate(-4 -12)" fill="#555"/>
</svg>
