<svg xmlns="http://www.w3.org/2000/svg" width="24" height="24" viewBox="0 0 24 24">
  <g id="Layer_1" transform="translate(-1 -1)">
    <g id="Group_9" data-name="Group 9" transform="translate(1 1)">
      <g id="Group_7" data-name="Group 7" transform="translate(6.041)">
        <g id="Path_9" data-name="Path 9" transform="translate(-7.576 -1)" fill="none" stroke-linecap="round" stroke-linejoin="round" stroke-miterlimit="10">
          <path d="M20.5,14.968a16.507,16.507,0,0,1-2.12,1.8,16.909,16.909,0,0,1-4.138,2.191L7.576,12.3A16.909,16.909,0,0,1,9.766,8.159a16.507,16.507,0,0,1,1.8-2.12A17.155,17.155,0,0,1,25.448,1.087,17.156,17.156,0,0,1,20.5,14.968Z" stroke="none"/>
          <path d="M 14.57810401916504 17.31927108764648 C 15.62939834594727 16.86894226074219 16.62776756286621 16.30379295349121 17.55551338195801 15.63322162628174 C 17.55888366699219 15.63079166412354 17.56226348876953 15.6283712387085 17.56564331054688 15.62597179412842 C 18.23284339904785 15.15270137786865 18.88566398620605 14.59821128845215 19.50596237182617 13.97791194915771 C 22.59386253356934 10.89002132415771 24.24429130554199 6.726137161254883 24.12959861755371 2.40529465675354 C 23.99298286437988 2.401743412017822 23.85650634765625 2.399961471557617 23.72042274475098 2.399961471557617 C 19.50581359863281 2.399961471557617 15.54100322723389 4.043681621551514 12.55636310577393 7.028321266174316 C 11.9360933303833 7.6485915184021 11.3816032409668 8.301411628723145 10.90830326080322 8.96865177154541 C 10.90590286254883 8.972031593322754 10.90348339080811 8.975401878356934 10.9010534286499 8.978761672973633 C 10.23048973083496 9.906498908996582 9.66534423828125 10.90487384796143 9.215014457702637 11.95617389678955 L 14.57810401916504 17.31927108764648 M 14.23757266998291 18.95864105224609 L 7.575643062591553 12.29670143127441 C 8.100953102111816 10.84901142120361 8.831172943115234 9.452571868896484 9.766412734985352 8.158651351928711 C 10.29806327819824 7.409161567687988 10.90023326873779 6.704551696777344 11.56641292572021 6.038371562957764 C 14.91930675506592 2.685477733612061 19.31927299499512 0.9999639987945557 23.72042465209961 0.9999639987945557 C 24.29707717895508 0.9999639987945557 24.87322235107422 1.028858542442322 25.44758224487305 1.08674144744873 C 25.9471321105957 6.044771671295166 24.28807258605957 11.1757116317749 20.49591255187988 14.96786117553711 C 19.82973289489746 15.63404178619385 19.12512397766113 16.23622131347656 18.37563323974609 16.76786231994629 C 17.08170318603516 17.70311164855957 15.68527317047119 18.43333053588867 14.23757266998291 18.95864105224609 Z" stroke="none" fill="#555"/>
        </g>
      </g>
      <g id="Group_8" data-name="Group 8" transform="translate(0 7.255)">
        <g id="Path_10" data-name="Path 10" transform="translate(-3.345 -12.054)" fill="none" stroke-linecap="round" stroke-linejoin="round" stroke-miterlimit="10">
          <path d="M18.764,27.473a4.529,4.529,0,0,1-7.712-2.78,16.636,16.636,0,0,0,4-.935,16.909,16.909,0,0,0,4.138-2.191A4.514,4.514,0,0,1,18.764,27.473Z" stroke="none"/>
          <path d="M 15.56096363067627 27.39897537231445 C 16.39732360839844 27.39897537231445 17.18321418762207 27.07368469238281 17.77386283874512 26.48303413391113 C 18.54256820678711 25.71432876586914 18.83365440368652 24.6210880279541 18.61743545532227 23.6126651763916 C 17.63647270202637 24.19413948059082 16.60275459289551 24.68303108215332 15.5300931930542 25.0722541809082 C 14.64590454101563 25.39616584777832 13.74836921691895 25.65040016174316 12.84737396240234 25.8326530456543 C 12.98303318023682 26.06742095947266 13.15052890777588 26.28549003601074 13.34807300567627 26.48303413391113 C 13.93872356414795 27.07368469238281 14.72461318969727 27.39897537231445 15.56096363067627 27.39897537231445 M 15.56096458435059 28.79896926879883 C 14.401535987854 28.79896926879883 13.24210834503174 28.35697364807129 12.35812377929688 27.47298431396484 C 11.5830135345459 26.69788360595703 11.14743328094482 25.7114143371582 11.05137348175049 24.69289398193359 C 12.40937328338623 24.55199432373047 13.75455379486084 24.23171424865723 15.04851341247559 23.7576847076416 C 16.49621391296387 23.23237419128418 17.89264297485352 22.50215530395508 19.18657302856445 21.56691360473633 C 20.51901435852051 23.33483505249023 20.37810325622559 25.85869407653809 18.76381301879883 27.47298431396484 C 17.87982368469238 28.35697364807129 16.72039413452148 28.79896926879883 15.56096458435059 28.79896926879883 Z" stroke="none" fill="#555"/>
        </g>
        <g id="Path_11" data-name="Path 11" transform="translate(-1 -9.159)" fill="none" stroke-linecap="round" stroke-linejoin="round" stroke-miterlimit="10">
          <path d="M5.106,18.2a4.527,4.527,0,1,1,3.126-8.135A16.909,16.909,0,0,0,6.041,14.2,16.637,16.637,0,0,0,5.106,18.2Z" stroke="none"/>
          <path d="M 3.966287612915039 16.40158081054688 C 4.148406505584717 15.50103950500488 4.402281761169434 14.60451221466064 4.725242614746094 13.72290515899658 C 5.115808486938477 12.64654922485352 5.605588436126709 11.61098957061768 6.187862396240234 10.62894439697266 C 5.972240447998047 10.58237266540527 5.750114440917969 10.55865573883057 5.524092197418213 10.55865573883057 C 4.691112518310547 10.55865573883057 3.906902313232422 10.88411521911621 3.315932512283325 11.47509574890137 C 2.095742464065552 12.6952953338623 2.095742464065552 14.68069553375244 3.315932512283325 15.9008960723877 C 3.513444900512695 16.09840774536133 3.731561899185181 16.26593208312988 3.966287612915039 16.40158081054688 M 5.106072425842285 18.19759559631348 C 4.087552547454834 18.10153579711914 3.101092338562012 17.66595649719238 2.325982332229614 16.89084625244141 C 0.5580124258995056 15.12286567687988 0.5580124258995056 12.25312519073486 2.325982332229614 10.48514556884766 C 3.210253238677979 9.60088062286377 4.367696285247803 9.15865421295166 5.524094104766846 9.15865421295166 C 6.478718757629395 9.15865421295166 7.432559490203857 9.459848403930664 8.232052803039551 10.06238555908203 C 7.296812534332275 11.35631561279297 6.566592216491699 12.75274562835693 6.041282176971436 14.2004451751709 C 5.567262172698975 15.49441528320313 5.246982574462891 16.8396053314209 5.106072425842285 18.19759559631348 Z" stroke="none" fill="#555"/>
        </g>
      </g>
      <g id="Ellipse_7" data-name="Ellipse 7" transform="translate(14.928 6.509) rotate(-45)" fill="none" stroke="#555" stroke-linecap="round" stroke-linejoin="round" stroke-miterlimit="10" stroke-width="1">
        <circle cx="1.812" cy="1.812" r="1.812" stroke="none"/>
        <circle cx="1.812" cy="1.812" r="1.312" fill="none"/>
      </g>
    </g>
  </g>
</svg>
