<svg xmlns="http://www.w3.org/2000/svg" width="24" height="23.999" viewBox="0 0 24 23.999">
  <g id="settings" transform="translate(0 -0.002)">
    <path id="Path_6" data-name="Path 6" d="M22.793,9.511,20.5,9.05a9.073,9.073,0,0,0-.4-.967l1.3-1.953a1.5,1.5,0,0,0-.188-1.892L19.764,2.8a1.5,1.5,0,0,0-1.892-.187l-1.953,1.3a9.068,9.068,0,0,0-.968-.4l-.461-2.3A1.5,1.5,0,0,0,13.019,0h-2.04A1.5,1.5,0,0,0,9.508,1.208l-.46,2.3a9.069,9.069,0,0,0-.967.4l-1.952-1.3A1.5,1.5,0,0,0,4.236,2.8L2.794,4.238A1.5,1.5,0,0,0,2.606,6.13l1.3,1.953a8.991,8.991,0,0,0-.4.967l-2.3.46A1.5,1.5,0,0,0,0,10.981v2.04a1.5,1.5,0,0,0,1.206,1.471l2.3.461a9.069,9.069,0,0,0,.4.967l-1.3,1.953a1.5,1.5,0,0,0,.188,1.892l1.443,1.443a1.5,1.5,0,0,0,1.892.188l1.953-1.3a8.846,8.846,0,0,0,.967.4l.46,2.3A1.5,1.5,0,0,0,10.98,24h2.04a1.5,1.5,0,0,0,1.471-1.207l.461-2.3a9.074,9.074,0,0,0,.967-.4l1.953,1.3a1.5,1.5,0,0,0,1.892-.187l1.443-1.443a1.5,1.5,0,0,0,.188-1.892l-1.3-1.953a8.921,8.921,0,0,0,.4-.968l2.3-.46A1.5,1.5,0,0,0,24,13.021v-2.04A1.5,1.5,0,0,0,22.793,9.511ZM20.2,13.482a1.5,1.5,0,0,0-1.122.979,7.616,7.616,0,0,1-.335.806,1.5,1.5,0,0,0,.1,1.486l1.3,1.953L18.7,20.149l-1.953-1.3a1.5,1.5,0,0,0-1.485-.1,7.584,7.584,0,0,1-.807.337,1.5,1.5,0,0,0-.977,1.122l-.461,2.3H10.98l-.46-2.3a1.5,1.5,0,0,0-.978-1.122,7.628,7.628,0,0,1-.806-.335,1.5,1.5,0,0,0-1.486.1L5.3,20.148,3.854,18.705l1.3-1.953a1.5,1.5,0,0,0,.1-1.485,7.579,7.579,0,0,1-.336-.807A1.5,1.5,0,0,0,3.8,13.483l-2.3-.461,0-2.041,2.3-.46a1.5,1.5,0,0,0,1.122-.978,7.473,7.473,0,0,1,.335-.806,1.5,1.5,0,0,0-.1-1.486L3.854,5.3,5.3,3.855l1.953,1.3a1.5,1.5,0,0,0,1.485.1,7.567,7.567,0,0,1,.806-.336A1.5,1.5,0,0,0,10.519,3.8l.46-2.3h2.04l.46,2.3a1.5,1.5,0,0,0,.979,1.122,7.461,7.461,0,0,1,.806.335,1.5,1.5,0,0,0,1.486-.1l1.953-1.3L20.146,5.3l-1.3,1.953a1.5,1.5,0,0,0-.1,1.485,7.572,7.572,0,0,1,.337.806,1.5,1.5,0,0,0,1.122.978l2.3.46,0,2.04Z" transform="translate(0 0)" fill="#555"/>
    <path id="Path_7" data-name="Path 7" d="M14.284,9a5.284,5.284,0,1,0,5.284,5.284A5.285,5.285,0,0,0,14.284,9Zm0,9.909a4.624,4.624,0,1,1,4.624-4.624A4.625,4.625,0,0,1,14.284,18.91Z" transform="translate(-2.284 -2.284)" fill="#555"/>
    <path id="Path_8" data-name="Path 8" d="M15.02,12a3.02,3.02,0,1,0,3.02,3.02A3.019,3.019,0,0,0,15.02,12Zm0,5.285a2.265,2.265,0,1,1,2.265-2.265A2.266,2.266,0,0,1,15.02,17.286Z" transform="translate(-3.02 -3.019)" fill="#555"/>
  </g>
</svg>
